%FSLAX34Y34*%
%MOMM*%
%LNCOPPER_TOP*%
G71*
G01*
%ADD10R,1.900X2.600*%
%ADD11R,2.580X1.130*%
%ADD12R,1.800X1.700*%
%ADD13C,2.900*%
%ADD14R,1.700X1.200*%
%ADD15R,2.200X2.600*%
%ADD16C,0.900*%
%ADD17R,1.700X1.800*%
%ADD18C,0.600*%
%ADD19R,2.000X1.900*%
%ADD20R,1.500X1.400*%
%ADD21C,2.200*%
%ADD22R,2.250X1.020*%
%ADD23R,1.900X2.200*%
%ADD24C,2.500*%
%ADD25R,2.200X1.900*%
%ADD26R,1.900X2.000*%
%ADD27R,1.910X1.250*%
%ADD28C,3.200*%
%ADD29R,2.800X1.340*%
%ADD30R,4.300X1.800*%
%ADD31R,1.400X1.200*%
%ADD32C,0.300*%
%ADD33C,0.150*%
%ADD34C,0.850*%
%ADD35R,1.200X1.800*%
%ADD36C,0.433*%
%ADD37C,0.530*%
%ADD38C,0.484*%
%ADD39C,0.767*%
%ADD40C,0.533*%
%ADD41C,0.367*%
%ADD42C,0.403*%
%ADD43C,0.398*%
%ADD44C,0.403*%
%ADD45C,0.397*%
%ADD46C,0.405*%
%ADD47C,0.389*%
%ADD48C,0.420*%
%ADD49C,0.633*%
%ADD50C,0.650*%
%ADD51C,0.400*%
%ADD52R,1.300X2.000*%
%ADD53R,1.980X0.530*%
%ADD54R,1.200X1.100*%
%ADD55C,2.300*%
%ADD56R,1.100X0.600*%
%ADD57R,1.600X2.000*%
%ADD58R,1.100X1.200*%
%ADD59R,1.400X1.300*%
%ADD60R,0.900X0.800*%
%ADD61C,1.600*%
%ADD62R,1.650X0.420*%
%ADD63R,1.300X1.600*%
%ADD64C,1.900*%
%ADD65R,1.600X1.300*%
%ADD66R,1.310X0.650*%
%ADD67R,2.650X3.000*%
%ADD68C,2.600*%
%ADD69R,2.200X0.740*%
%ADD70R,3.700X1.200*%
%ADD71R,0.800X0.600*%
%ADD72C,0.250*%
%ADD73R,0.600X1.200*%
%ADD74C,1.000*%
%ADD75C,0.000*%
%ADD76C,0.800*%
%LPD*%
G36*
X-239400Y791200D02*
X1360600Y791200D01*
X1360600Y-208800D01*
X-239400Y-208800D01*
X-239400Y791200D01*
G37*
%LPC*%
X86500Y326500D02*
G54D10*
D03*
X124000Y326500D02*
G54D10*
D03*
X86500Y269000D02*
G54D10*
D03*
X124000Y269000D02*
G54D10*
D03*
X395799Y236989D02*
G54D11*
D03*
X302099Y236989D02*
G54D11*
D03*
X395799Y249689D02*
G54D11*
D03*
X302099Y249689D02*
G54D11*
D03*
X395799Y262389D02*
G54D11*
D03*
X302099Y262389D02*
G54D11*
D03*
X395799Y275090D02*
G54D11*
D03*
X302099Y275089D02*
G54D11*
D03*
X395799Y287790D02*
G54D11*
D03*
X302099Y287789D02*
G54D11*
D03*
X395799Y300490D02*
G54D11*
D03*
X302099Y300489D02*
G54D11*
D03*
X395799Y313190D02*
G54D11*
D03*
X302099Y313190D02*
G54D11*
D03*
X395799Y325889D02*
G54D11*
D03*
X302099Y325889D02*
G54D11*
D03*
X423378Y267058D02*
G54D12*
D03*
X423378Y250058D02*
G54D12*
D03*
X445015Y334760D02*
G54D13*
D03*
X445215Y360160D02*
G54D13*
D03*
X173115Y347460D02*
G54D13*
D03*
X401115Y374760D02*
G54D14*
D03*
X373115Y374760D02*
G54D14*
D03*
X401115Y384260D02*
G54D14*
D03*
X401115Y393760D02*
G54D14*
D03*
X373115Y393760D02*
G54D14*
D03*
X401715Y423060D02*
G54D15*
D03*
X373715Y423060D02*
G54D15*
D03*
X325315Y388460D02*
G54D15*
D03*
X297315Y388460D02*
G54D15*
D03*
G54D16*
X401115Y393760D02*
X401115Y422460D01*
X401715Y423060D01*
X386814Y352560D02*
G54D17*
D03*
X403815Y352560D02*
G54D17*
D03*
G54D16*
X373115Y374760D02*
X373115Y355260D01*
X375715Y352660D01*
X386715Y352660D01*
X386815Y352560D01*
G36*
X330315Y432660D02*
X330314Y422660D01*
X325314Y417660D01*
X320315Y422660D01*
X320315Y432660D01*
X330315Y432660D01*
G37*
G54D18*
X330315Y432660D02*
X330314Y422660D01*
X325314Y417660D01*
X320315Y422660D01*
X320315Y432660D01*
X330315Y432660D01*
G36*
X330314Y419660D02*
X325314Y414660D01*
X320315Y419660D01*
X320315Y406660D01*
X330315Y406660D01*
X330314Y419660D01*
G37*
G54D18*
X330314Y419660D02*
X325314Y414660D01*
X320315Y419660D01*
X320315Y406660D01*
X330315Y406660D01*
X330314Y419660D01*
G54D16*
X325315Y387060D02*
X325314Y410660D01*
G54D16*
X373115Y393760D02*
X343514Y393760D01*
X336914Y387160D01*
X325415Y387160D01*
X325315Y387060D01*
G36*
X287081Y173391D02*
X270818Y157127D01*
X262686Y165258D01*
X278949Y181522D01*
X287081Y173391D01*
G37*
G36*
X281425Y179047D02*
X265162Y162783D01*
X257030Y170915D01*
X273293Y187179D01*
X281425Y179047D01*
G37*
G36*
X275768Y184704D02*
X259505Y168440D01*
X251373Y176572D01*
X267636Y192836D01*
X275768Y184704D01*
G37*
G36*
X270111Y190362D02*
X253848Y174098D01*
X245716Y182229D01*
X261979Y198493D01*
X270111Y190362D01*
G37*
G36*
X264454Y196019D02*
X248192Y179754D01*
X240060Y187886D01*
X256322Y204150D01*
X264454Y196019D01*
G37*
G36*
X258797Y201676D02*
X242534Y185412D01*
X234402Y193543D01*
X250664Y209807D01*
X258797Y201676D01*
G37*
G36*
X253140Y207332D02*
X236876Y191069D01*
X228745Y199201D01*
X245008Y215464D01*
X253140Y207332D01*
G37*
G36*
X247484Y212988D02*
X231219Y196727D01*
X223088Y204859D01*
X239353Y221121D01*
X247484Y212988D01*
G37*
G36*
X188090Y153592D02*
X171827Y137328D01*
X163695Y145459D01*
X179958Y161723D01*
X188090Y153592D01*
G37*
G36*
X193747Y147934D02*
X177483Y131671D01*
X169352Y139803D01*
X185616Y156066D01*
X193747Y147934D01*
G37*
G36*
X199404Y142277D02*
X183140Y126014D01*
X175009Y134146D01*
X191273Y150409D01*
X199404Y142277D01*
G37*
G36*
X205060Y136621D02*
X188797Y120357D01*
X180665Y128489D01*
X196928Y144752D01*
X205060Y136621D01*
G37*
G36*
X210718Y130963D02*
X194454Y114700D01*
X186322Y122832D01*
X202587Y139095D01*
X210718Y130963D01*
G37*
G36*
X216374Y125306D02*
X200111Y109043D01*
X191979Y117175D01*
X208243Y133438D01*
X216374Y125306D01*
G37*
G36*
X222030Y119650D02*
X205768Y103386D01*
X197636Y111517D01*
X213898Y127781D01*
X222030Y119650D01*
G37*
G36*
X227687Y113992D02*
X211423Y97728D01*
X203292Y105860D01*
X219555Y122124D01*
X227687Y113992D01*
G37*
G36*
X270819Y161723D02*
X287082Y145459D01*
X278950Y137327D01*
X262687Y153592D01*
X270819Y161723D01*
G37*
G36*
X265162Y156066D02*
X281426Y139803D01*
X273294Y131671D01*
X257030Y147934D01*
X265162Y156066D01*
G37*
G36*
X259506Y150410D02*
X275769Y134146D01*
X267637Y126014D01*
X251374Y142279D01*
X259506Y150410D01*
G37*
G36*
X253849Y144752D02*
X270112Y128489D01*
X261981Y120357D01*
X245717Y136621D01*
X253849Y144752D01*
G37*
G36*
X248191Y139094D02*
X264455Y122832D01*
X256324Y114700D01*
X240060Y130962D01*
X248191Y139094D01*
G37*
G36*
X242536Y133437D02*
X258799Y117174D01*
X250667Y109042D01*
X234404Y125306D01*
X242536Y133437D01*
G37*
G36*
X236878Y127780D02*
X253142Y111516D01*
X245010Y103385D01*
X228746Y119648D01*
X236878Y127780D01*
G37*
G36*
X231221Y122123D02*
X247485Y105860D01*
X239353Y97728D01*
X223090Y113991D01*
X231221Y122123D01*
G37*
G36*
X211422Y221122D02*
X227686Y204858D01*
X219554Y196727D01*
X203290Y212990D01*
X211422Y221122D01*
G37*
G36*
X205767Y215466D02*
X222029Y199201D01*
X213896Y191070D01*
X197634Y207335D01*
X205767Y215466D01*
G37*
G36*
X200110Y209809D02*
X216373Y193545D01*
X208241Y185414D01*
X191978Y201677D01*
X200110Y209809D01*
G37*
G36*
X194453Y204152D02*
X210716Y187888D01*
X202584Y179756D01*
X186321Y196020D01*
X194453Y204152D01*
G37*
G36*
X188798Y198494D02*
X205061Y182230D01*
X196929Y174098D01*
X180666Y190362D01*
X188798Y198494D01*
G37*
G36*
X183141Y192835D02*
X199404Y176572D01*
X191273Y168440D01*
X175009Y184704D01*
X183141Y192835D01*
G37*
G36*
X177483Y187179D02*
X193747Y170916D01*
X185615Y162784D01*
X169352Y179047D01*
X177483Y187179D01*
G37*
G36*
X171826Y181521D02*
X188090Y165259D01*
X179959Y157127D01*
X163694Y173389D01*
X171826Y181521D01*
G37*
G36*
X254744Y108363D02*
X268179Y121798D01*
X283735Y106241D01*
X270299Y92806D01*
X254744Y108363D01*
G37*
G36*
X268177Y121796D02*
X281612Y135232D01*
X297169Y119676D01*
X283734Y106240D01*
X268177Y121796D01*
G37*
G36*
X157740Y202880D02*
X171175Y216314D01*
X186731Y200757D01*
X173296Y187323D01*
X157740Y202880D01*
G37*
G36*
X171176Y216314D02*
X184612Y229749D01*
X200167Y214192D01*
X186732Y200757D01*
X171176Y216314D01*
G37*
G54D16*
X198517Y191951D02*
X191749Y198718D01*
X185702Y198718D01*
X180045Y193061D01*
X180045Y188112D01*
X187203Y180954D01*
X187203Y180637D01*
G54D16*
X241052Y116182D02*
X247819Y109415D01*
X253866Y109415D01*
X259523Y115072D01*
X259523Y120022D01*
X252366Y127179D01*
X252365Y127496D01*
G54D16*
X187203Y180637D02*
X214941Y152899D01*
X214941Y141549D01*
X240906Y115583D01*
X240943Y115583D01*
G54D16*
X185671Y215249D02*
X203312Y197608D01*
X204173Y197608D01*
G54D16*
X182530Y195649D02*
X176364Y201815D01*
X172236Y201815D01*
X153820Y42045D02*
G54D19*
D03*
X153820Y61045D02*
G54D19*
D03*
X132134Y168311D02*
G54D20*
D03*
X146034Y168310D02*
G54D20*
D03*
X132134Y179311D02*
G54D20*
D03*
X146034Y179311D02*
G54D20*
D03*
X145573Y152198D02*
G54D20*
D03*
X132574Y152198D02*
G54D20*
D03*
X145642Y195826D02*
G54D20*
D03*
X132643Y195827D02*
G54D20*
D03*
G54D16*
X146048Y179304D02*
X146048Y195421D01*
X145643Y195827D01*
X199426Y44880D02*
G54D21*
D03*
X224826Y44880D02*
G54D21*
D03*
X250226Y44880D02*
G54D21*
D03*
X199426Y70280D02*
G54D21*
D03*
X224826Y70280D02*
G54D21*
D03*
G54D16*
X250226Y70280D02*
X226679Y93827D01*
X226679Y98429D01*
X215487Y109621D01*
X215487Y109927D01*
G54D16*
X224684Y70139D02*
X237548Y57276D01*
X260479Y57276D01*
X264014Y60811D01*
X264014Y81317D01*
X235546Y109785D01*
X235145Y109785D01*
G54D16*
X209830Y115583D02*
X199950Y105704D01*
X199950Y98995D01*
X212325Y86620D01*
X212325Y57912D01*
X224826Y45411D01*
X224826Y44880D01*
G54D16*
X240943Y115583D02*
X271651Y84875D01*
X271651Y53740D01*
X262792Y44880D01*
X250226Y44880D01*
G54D16*
X269239Y107302D02*
X262766Y107302D01*
X257539Y112529D01*
G54D16*
X132134Y168311D02*
X132134Y161434D01*
X133239Y160329D01*
X166897Y160329D01*
X175892Y169324D01*
G54D16*
X145573Y152198D02*
X145573Y159695D01*
X145339Y159929D01*
G54D16*
X181549Y174981D02*
X181387Y174981D01*
X171939Y184429D01*
X158139Y184429D01*
X153039Y179329D01*
X146052Y179329D01*
X146034Y179311D01*
G54D16*
X250226Y44880D02*
X250226Y33316D01*
X244839Y27929D01*
X217339Y27929D01*
X212239Y33029D01*
X212239Y49929D01*
X204739Y57429D01*
X186439Y57429D01*
X170439Y41429D01*
X154436Y41429D01*
X153820Y42045D01*
X299643Y470275D02*
G54D22*
D03*
X299644Y476775D02*
G54D22*
D03*
X299644Y483275D02*
G54D22*
D03*
X299644Y489775D02*
G54D22*
D03*
X299644Y496275D02*
G54D22*
D03*
X299644Y502775D02*
G54D22*
D03*
X299644Y509275D02*
G54D22*
D03*
X299644Y515775D02*
G54D22*
D03*
X299644Y522275D02*
G54D22*
D03*
X299644Y528775D02*
G54D22*
D03*
X299644Y535275D02*
G54D22*
D03*
X299644Y541775D02*
G54D22*
D03*
X299644Y548275D02*
G54D22*
D03*
X299644Y554775D02*
G54D22*
D03*
X229644Y470275D02*
G54D22*
D03*
X229644Y476775D02*
G54D22*
D03*
X229644Y483275D02*
G54D22*
D03*
X229644Y489775D02*
G54D22*
D03*
X229644Y496275D02*
G54D22*
D03*
X229644Y502775D02*
G54D22*
D03*
X229644Y509275D02*
G54D22*
D03*
X229644Y515775D02*
G54D22*
D03*
X229644Y522275D02*
G54D22*
D03*
X229644Y528775D02*
G54D22*
D03*
X229644Y535275D02*
G54D22*
D03*
X229644Y541775D02*
G54D22*
D03*
X229644Y548275D02*
G54D22*
D03*
X229644Y554775D02*
G54D22*
D03*
X175250Y427900D02*
G54D23*
D03*
X156250Y427900D02*
G54D23*
D03*
G36*
X146686Y463057D02*
X165686Y463057D01*
X165686Y441057D01*
X146686Y441057D01*
X146686Y463057D01*
G37*
X175186Y452057D02*
G54D23*
D03*
X175882Y529170D02*
G54D23*
D03*
X156882Y529170D02*
G54D23*
D03*
X175768Y555523D02*
G54D23*
D03*
X156767Y555523D02*
G54D23*
D03*
X36750Y309030D02*
G54D24*
D03*
X84000Y582638D02*
G54D24*
D03*
G54D16*
X401115Y393760D02*
X439502Y393760D01*
X444862Y388400D01*
X444862Y360512D01*
X445215Y360160D01*
X445215Y334960D01*
X445015Y334760D01*
X445015Y226352D01*
X437562Y218900D01*
X353475Y218900D01*
X348715Y223660D01*
X348715Y248873D01*
X335198Y262389D01*
X302099Y262389D01*
G54D16*
X302099Y249689D02*
X318448Y249689D01*
X320187Y247950D01*
X320187Y237255D01*
X263571Y180638D01*
G54D16*
X257914Y186295D02*
X258533Y186295D01*
X278912Y206675D01*
X278912Y232075D01*
X283675Y236838D01*
X301947Y236838D01*
X302099Y236989D01*
X57200Y263222D02*
G54D24*
D03*
X36450Y285930D02*
G54D24*
D03*
G54D16*
X175186Y452057D02*
X175186Y427964D01*
X175250Y427900D01*
G54D16*
X175882Y529170D02*
X199630Y529170D01*
X206100Y522700D01*
X229219Y522700D01*
X229644Y522275D01*
G54D16*
X175768Y555523D02*
X196877Y555523D01*
X210300Y542100D01*
X229319Y542100D01*
X229644Y541775D01*
G54D16*
X229644Y522275D02*
X251075Y522275D01*
X256800Y528000D01*
X256800Y560700D01*
X265800Y569700D01*
X310800Y569700D01*
X318000Y562500D01*
X318000Y493200D01*
X314900Y490100D01*
X299968Y490100D01*
X299644Y489775D01*
G54D16*
X395799Y249689D02*
X381085Y249690D01*
X326515Y304260D01*
X326515Y335260D01*
X321715Y340060D01*
X281240Y340060D01*
X270600Y350700D01*
X270600Y431200D01*
X285500Y446100D01*
X305000Y446100D01*
X317200Y458300D01*
X317200Y492400D01*
X318000Y493200D01*
G54D16*
X324900Y426600D02*
X324900Y450600D01*
X317200Y458300D01*
X269600Y450700D02*
G54D24*
D03*
G54D16*
X299644Y476775D02*
X310324Y476775D01*
X312000Y475100D01*
X312000Y461200D01*
X302600Y451800D01*
X270700Y451800D01*
X269600Y450700D01*
X100000Y42400D02*
G54D24*
D03*
X128323Y60818D02*
G54D25*
D03*
X128323Y41820D02*
G54D25*
D03*
G54D16*
X100000Y42400D02*
X127743Y42400D01*
X128323Y41820D01*
G54D16*
X128323Y60818D02*
X153592Y60818D01*
X153820Y61045D01*
G54D16*
X153820Y61045D02*
X174045Y61045D01*
X183100Y70100D01*
X199246Y70100D01*
X199426Y70280D01*
X270100Y243400D02*
G54D24*
D03*
G54D16*
X270100Y243400D02*
X270100Y209795D01*
X252257Y191952D01*
X170700Y87000D02*
G54D24*
D03*
X249600Y311700D02*
G54D26*
D03*
X266600Y311700D02*
G54D26*
D03*
X249900Y291500D02*
G54D26*
D03*
X266900Y291500D02*
G54D26*
D03*
G54D16*
X395799Y249689D02*
X423010Y249689D01*
X423378Y250058D01*
G54D16*
X249900Y291500D02*
X249900Y311400D01*
X249600Y311700D01*
X249600Y329700D01*
X270600Y350700D01*
G54D16*
X302099Y262389D02*
X286311Y262389D01*
X284800Y263900D01*
X284800Y307200D01*
X281100Y310900D01*
X267400Y310900D01*
X266600Y311700D01*
G54D16*
X302099Y249689D02*
X288210Y249689D01*
X275900Y262000D01*
X275900Y288700D01*
X274000Y290600D01*
X267800Y290600D01*
X266900Y291500D01*
X386000Y145100D02*
G54D27*
D03*
X386000Y132400D02*
G54D27*
D03*
X386000Y119700D02*
G54D27*
D03*
X386000Y107000D02*
G54D27*
D03*
X329100Y145100D02*
G54D27*
D03*
X329100Y132400D02*
G54D27*
D03*
X329100Y119700D02*
G54D27*
D03*
X329100Y107000D02*
G54D27*
D03*
G54D28*
X356700Y23400D02*
X382700Y23400D01*
G54D28*
X356200Y576200D02*
X382200Y576200D01*
X330100Y190000D02*
G54D26*
D03*
X347100Y190000D02*
G54D26*
D03*
G36*
X359400Y200000D02*
X378400Y200000D01*
X378400Y180000D01*
X359400Y180000D01*
X359400Y200000D01*
G37*
X385900Y190000D02*
G54D26*
D03*
G36*
X406000Y199700D02*
X425000Y199700D01*
X425000Y179700D01*
X406000Y179700D01*
X406000Y199700D01*
G37*
X432500Y189700D02*
G54D26*
D03*
G36*
X409400Y173600D02*
X437400Y173600D01*
X437400Y160200D01*
X409400Y160200D01*
X409400Y173600D01*
G37*
X423400Y154400D02*
G54D29*
D03*
X431400Y130900D02*
G54D30*
D03*
X431400Y130900D02*
G54D30*
D03*
X431400Y102900D02*
G54D30*
D03*
X454275Y170088D02*
G54D31*
D03*
X454275Y153087D02*
G54D31*
D03*
G54D16*
X386000Y107000D02*
X396000Y107000D01*
X402300Y113300D01*
X402300Y126200D01*
X406400Y130300D01*
X430800Y130300D01*
X431400Y130900D01*
G54D16*
X431400Y130900D02*
X447200Y130900D01*
X454100Y137800D01*
X454100Y152913D01*
X454275Y153088D01*
G54D16*
X386000Y119700D02*
X393600Y119700D01*
X396700Y122800D01*
X396700Y130400D01*
X404300Y138000D01*
X404300Y150900D01*
X407700Y154300D01*
X423300Y154300D01*
X423400Y154400D01*
X393900Y167200D02*
G54D24*
D03*
G54D16*
X423400Y154400D02*
X406700Y154400D01*
X393900Y167200D01*
G54D16*
X330100Y190000D02*
X330100Y199700D01*
X333100Y202700D01*
X413100Y202700D01*
X415300Y200500D01*
X415300Y189900D01*
X415500Y189700D01*
G54D16*
X386000Y145100D02*
X386000Y152300D01*
X378100Y160200D01*
X378100Y172900D01*
X386000Y180800D01*
X386000Y189900D01*
X385900Y190000D01*
G54D16*
X415500Y189700D02*
X415500Y182100D01*
X422600Y175000D01*
X422600Y167700D01*
X423400Y166900D01*
G54D16*
X423400Y166900D02*
X443400Y166900D01*
X446300Y169800D01*
X453987Y169800D01*
X454275Y170088D01*
X360600Y167300D02*
G54D24*
D03*
G54D16*
X386000Y132400D02*
X377800Y132400D01*
X375400Y134800D01*
X375400Y141400D01*
X371700Y145100D01*
X329100Y145100D01*
G36*
X385900Y190000D02*
X385900Y201300D01*
X387000Y202400D01*
X412800Y202400D01*
X413100Y202700D01*
X413100Y192100D01*
X415500Y189700D01*
X415500Y182100D01*
X422600Y175000D01*
X422600Y155200D01*
X423400Y154400D01*
X407800Y154400D01*
X404300Y150900D01*
X404300Y132400D01*
X406400Y130300D01*
X402300Y126200D01*
X402300Y113300D01*
X396000Y107000D01*
X386000Y107000D01*
X386000Y145100D01*
X386000Y152300D01*
X378100Y160200D01*
X378100Y172900D01*
X386000Y180800D01*
X386000Y201200D01*
X385900Y201300D01*
X385900Y190000D01*
G37*
G54D32*
X385900Y190000D02*
X385900Y201300D01*
X387000Y202400D01*
X412800Y202400D01*
X413100Y202700D01*
X413100Y192100D01*
X415500Y189700D01*
X415500Y182100D01*
X422600Y175000D01*
X422600Y155200D01*
X423400Y154400D01*
X407800Y154400D01*
X404300Y150900D01*
X404300Y132400D01*
X406400Y130300D01*
X402300Y126200D01*
X402300Y113300D01*
X396000Y107000D01*
X386000Y107000D01*
X386000Y145100D01*
X386000Y152300D01*
X378100Y160200D01*
X378100Y172900D01*
X386000Y180800D01*
X386000Y201200D01*
X385900Y201300D01*
X385900Y190000D01*
G36*
X249600Y311700D02*
X280000Y311700D01*
X282900Y308800D01*
X282900Y265800D01*
X286311Y262389D01*
X283489Y262389D01*
X280100Y259000D01*
X278900Y259000D01*
X275900Y262000D01*
X275900Y288700D01*
X274000Y290600D01*
X250800Y290600D01*
X249900Y291500D01*
X249900Y311400D01*
X249600Y311700D01*
G37*
G54D32*
X249600Y311700D02*
X280000Y311700D01*
X282900Y308800D01*
X282900Y265800D01*
X286311Y262389D01*
X283489Y262389D01*
X280100Y259000D01*
X278900Y259000D01*
X275900Y262000D01*
X275900Y288700D01*
X274000Y290600D01*
X250800Y290600D01*
X249900Y291500D01*
X249900Y311400D01*
X249600Y311700D01*
G36*
X146034Y179311D02*
X153021Y179311D01*
X158139Y184429D01*
X172102Y184429D01*
X181549Y174981D01*
X166897Y160329D01*
X146207Y160329D01*
X145573Y159695D01*
X145573Y178850D01*
X146034Y179311D01*
G37*
G54D32*
X146034Y179311D02*
X153021Y179311D01*
X158139Y184429D01*
X172102Y184429D01*
X181549Y174981D01*
X166897Y160329D01*
X146207Y160329D01*
X145573Y159695D01*
X145573Y178850D01*
X146034Y179311D01*
G36*
X150300Y499735D02*
X155565Y505000D01*
X163035Y505000D01*
X168300Y499735D01*
X168300Y480265D01*
X163035Y475000D01*
X155565Y475000D01*
X150300Y480265D01*
X150300Y499735D01*
G37*
G36*
X165300Y499735D02*
X170565Y505000D01*
X178035Y505000D01*
X183300Y499735D01*
X183300Y480265D01*
X178035Y475000D01*
X170565Y475000D01*
X165300Y480265D01*
X165300Y499735D01*
G37*
G54D16*
X175882Y529170D02*
X175882Y491582D01*
X174300Y490000D01*
G54D16*
X156186Y452057D02*
X156186Y463886D01*
X160900Y468600D01*
X169200Y468600D01*
X174100Y473500D01*
X174100Y489800D01*
X174300Y490000D01*
X194500Y369300D02*
G54D24*
D03*
G54D32*
G75*
G01X20000Y577000D02*
G03X20000Y577000I-14500J0D01*
G01*
G36*
G75*
G01X20000Y577000D02*
G03X20000Y577000I-14500J0D01*
G01*
G37*
X20000Y577000D01*
G54D32*
G75*
G01X20000Y18000D02*
G03X20000Y18000I-14500J0D01*
G01*
G36*
G75*
G01X20000Y18000D02*
G03X20000Y18000I-14500J0D01*
G01*
G37*
X20000Y18000D01*
G54D32*
G75*
G01X170000Y297500D02*
G03X170000Y297500I-14500J0D01*
G01*
G36*
G75*
G01X170000Y297500D02*
G03X170000Y297500I-14500J0D01*
G01*
G37*
X170000Y297500D01*
G54D32*
G75*
G01X34616Y491958D02*
G03X34616Y491958I-7808J0D01*
G01*
G36*
G75*
G01X34616Y491958D02*
G03X34616Y491958I-7808J0D01*
G01*
G37*
X34616Y491958D01*
G54D32*
G75*
G01X34616Y441958D02*
G03X34616Y441958I-7808J0D01*
G01*
G36*
G75*
G01X34616Y441958D02*
G03X34616Y441958I-7808J0D01*
G01*
G37*
X34616Y441958D01*
G54D32*
G75*
G01X34616Y151958D02*
G03X34616Y151958I-7808J0D01*
G01*
G36*
G75*
G01X34616Y151958D02*
G03X34616Y151958I-7808J0D01*
G01*
G37*
X34616Y151958D01*
G54D32*
G75*
G01X34616Y101958D02*
G03X34616Y101958I-7808J0D01*
G01*
G36*
G75*
G01X34616Y101958D02*
G03X34616Y101958I-7808J0D01*
G01*
G37*
X34616Y101958D01*
G54D16*
X329100Y132400D02*
X318100Y132400D01*
X309500Y123800D01*
X309500Y32800D01*
X293200Y16500D01*
X84000Y16500D01*
X72900Y27600D01*
X72900Y46533D01*
X175893Y149526D01*
X288900Y37400D02*
G54D24*
D03*
G36*
X215489Y109926D02*
X215489Y109619D01*
X226679Y98429D01*
X226679Y93827D01*
X250226Y70280D01*
X254545Y70280D01*
X264014Y60811D01*
X264580Y60811D01*
X271651Y53740D01*
X262792Y44880D01*
X250226Y44880D01*
X250226Y33316D01*
X244839Y27929D01*
X217339Y27929D01*
X212239Y33029D01*
X212239Y49929D01*
X204739Y57429D01*
X186439Y57429D01*
X170439Y41429D01*
X154436Y41429D01*
X153820Y42045D01*
X153820Y61045D01*
X174045Y61045D01*
X183100Y70100D01*
X207800Y70100D01*
X211000Y73300D01*
X211000Y87945D01*
X199950Y98995D01*
X199953Y105704D01*
X209833Y115582D01*
X215489Y109926D01*
G37*
G54D32*
X215489Y109926D02*
X215489Y109619D01*
X226679Y98429D01*
X226679Y93827D01*
X250226Y70280D01*
X254545Y70280D01*
X264014Y60811D01*
X264580Y60811D01*
X271651Y53740D01*
X262792Y44880D01*
X250226Y44880D01*
X250226Y33316D01*
X244839Y27929D01*
X217339Y27929D01*
X212239Y33029D01*
X212239Y49929D01*
X204739Y57429D01*
X186439Y57429D01*
X170439Y41429D01*
X154436Y41429D01*
X153820Y42045D01*
X153820Y61045D01*
X174045Y61045D01*
X183100Y70100D01*
X207800Y70100D01*
X211000Y73300D01*
X211000Y87945D01*
X199950Y98995D01*
X199953Y105704D01*
X209833Y115582D01*
X215489Y109926D01*
G54D16*
X269239Y107302D02*
X269239Y106860D01*
X286100Y90000D01*
X296600Y90000D01*
X301200Y94600D01*
X301200Y137900D01*
X308300Y145000D01*
X329000Y145000D01*
X329100Y145100D01*
G36*
X329100Y145100D02*
X329100Y132400D01*
X318100Y132400D01*
X309500Y123800D01*
X301800Y123800D01*
X301700Y123700D01*
X301700Y138400D01*
X308300Y145000D01*
X329000Y145000D01*
X329100Y145100D01*
G37*
G54D32*
X329100Y145100D02*
X329100Y132400D01*
X318100Y132400D01*
X309500Y123800D01*
X301800Y123800D01*
X301700Y123700D01*
X301700Y138400D01*
X308300Y145000D01*
X329000Y145000D01*
X329100Y145100D01*
G54D16*
X36450Y285930D02*
X45229Y285930D01*
X61600Y302300D01*
X61600Y380400D01*
X82000Y400800D01*
X104800Y400800D01*
X117700Y413700D01*
X117700Y566100D01*
X129400Y577800D01*
X184600Y577800D01*
X214200Y548200D01*
X229568Y548200D01*
X229644Y548275D01*
G54D16*
X36750Y309030D02*
X46129Y309030D01*
X53100Y316000D01*
X53100Y384400D01*
X77000Y408300D01*
X101300Y408300D01*
X110300Y417300D01*
X110300Y567700D01*
X126700Y584100D01*
X188400Y584100D01*
X217700Y554800D01*
X229619Y554800D01*
X229644Y554775D01*
G36*
X181549Y174981D02*
X172102Y184429D01*
X172102Y201684D01*
X172237Y201818D01*
X185672Y215253D01*
X186534Y215253D01*
X204176Y197608D01*
X181549Y174981D01*
G37*
G54D33*
X181549Y174981D02*
X172102Y184429D01*
X172102Y201684D01*
X172237Y201818D01*
X185672Y215253D01*
X186534Y215253D01*
X204176Y197608D01*
X181549Y174981D01*
G36*
X36450Y285930D02*
X57200Y263222D01*
X56400Y280000D01*
X70808Y294408D01*
X70808Y378508D01*
X58992Y378508D01*
X53100Y384400D01*
X53100Y334100D01*
X51400Y332400D01*
X36750Y309030D01*
X36450Y285930D01*
G37*
G54D33*
X36450Y285930D02*
X57200Y263222D01*
X56400Y280000D01*
X70808Y294408D01*
X70808Y378508D01*
X58992Y378508D01*
X53100Y384400D01*
X53100Y334100D01*
X51400Y332400D01*
X36750Y309030D01*
X36450Y285930D01*
G54D34*
X431400Y102900D02*
X461500Y102900D01*
X467400Y108800D01*
X467400Y530200D01*
X421200Y576400D01*
X369400Y576400D01*
X369200Y576200D01*
G54D16*
X172236Y201818D02*
X141554Y232500D01*
X87922Y232500D01*
X57200Y263222D01*
G54D16*
X175250Y427900D02*
X175250Y407350D01*
X161100Y393200D01*
X85500Y393200D01*
X70808Y378508D01*
X70808Y294408D01*
X56400Y280000D01*
X56400Y264022D01*
X57200Y263222D01*
X223000Y234300D02*
G54D24*
D03*
G54D16*
X235286Y208924D02*
X235424Y208924D01*
X243100Y216600D01*
X243100Y225300D01*
X237600Y230800D01*
X226500Y230800D01*
X223000Y234300D01*
X314500Y60900D02*
G54D26*
D03*
X331500Y60900D02*
G54D26*
D03*
X144540Y367179D02*
G54D26*
D03*
X127540Y367179D02*
G54D26*
D03*
G54D16*
X246599Y197609D02*
X259000Y210010D01*
X259000Y233900D01*
X258700Y234200D01*
X258500Y234200D01*
X236500Y256200D01*
X236500Y440400D01*
X266375Y470275D01*
X299644Y470275D01*
G54D16*
X240942Y203266D02*
X251300Y213624D01*
X251300Y230900D01*
X230700Y251500D01*
X230700Y447800D01*
X279175Y496275D01*
X299644Y496275D01*
G36*
X263571Y180638D02*
X320187Y237255D01*
X320187Y247950D01*
X303838Y247950D01*
X302099Y249689D01*
X302099Y262389D01*
X286311Y262389D01*
X286311Y305689D01*
X281100Y310900D01*
X267400Y310900D01*
X266600Y311700D01*
X249600Y311700D01*
X249600Y329700D01*
X270600Y350700D01*
X270600Y431200D01*
X285500Y446100D01*
X305000Y446100D01*
X317200Y458300D01*
X317200Y487800D01*
X314900Y490100D01*
X299968Y490100D01*
X299644Y489775D01*
X299644Y496275D01*
X279175Y496275D01*
X230700Y447800D01*
X230700Y242000D01*
X223000Y234300D01*
X234100Y234300D01*
X243100Y225300D01*
X243100Y216737D01*
X235286Y208922D01*
X263571Y180638D01*
G37*
G54D32*
X263571Y180638D02*
X320187Y237255D01*
X320187Y247950D01*
X303838Y247950D01*
X302099Y249689D01*
X302099Y262389D01*
X286311Y262389D01*
X286311Y305689D01*
X281100Y310900D01*
X267400Y310900D01*
X266600Y311700D01*
X249600Y311700D01*
X249600Y329700D01*
X270600Y350700D01*
X270600Y431200D01*
X285500Y446100D01*
X305000Y446100D01*
X317200Y458300D01*
X317200Y487800D01*
X314900Y490100D01*
X299968Y490100D01*
X299644Y489775D01*
X299644Y496275D01*
X279175Y496275D01*
X230700Y447800D01*
X230700Y242000D01*
X223000Y234300D01*
X234100Y234300D01*
X243100Y225300D01*
X243100Y216737D01*
X235286Y208922D01*
X263571Y180638D01*
G36*
X168947Y280507D02*
X182381Y267072D01*
X168239Y252930D01*
X154804Y266365D01*
X168947Y280507D01*
G37*
G36*
X180967Y268487D02*
X194402Y255051D01*
X180260Y240909D01*
X166825Y254345D01*
X180967Y268487D01*
G37*
G54D16*
X215488Y208924D02*
X215476Y208924D01*
X207900Y216500D01*
X207900Y221000D01*
X176200Y252600D01*
G54D16*
X124000Y326500D02*
X124000Y296600D01*
X151300Y269300D01*
X159600Y269300D01*
X167200Y261700D01*
G36*
X218423Y253666D02*
X204988Y240231D01*
X190845Y254372D01*
X204280Y267808D01*
X218423Y253666D01*
G37*
G36*
X206402Y241645D02*
X192968Y228209D01*
X178825Y242351D01*
X192260Y255787D01*
X206402Y241645D01*
G37*
X146100Y87300D02*
G54D24*
D03*
G36*
X178500Y151500D02*
X178000Y151500D01*
X151200Y124700D01*
X151200Y96300D01*
X146100Y88800D01*
X170700Y88500D01*
X175400Y96000D01*
X175700Y95700D01*
X175700Y94006D01*
X199426Y70280D01*
X224826Y70280D01*
X224826Y74120D01*
X199950Y98995D01*
X199950Y105701D01*
X209833Y115585D01*
X175893Y149526D01*
X175893Y149393D01*
X151200Y124700D01*
X146100Y88800D01*
X145500Y119300D01*
X178500Y151500D01*
G37*
G54D32*
X178500Y151500D02*
X178000Y151500D01*
X151200Y124700D01*
X151200Y96300D01*
X146100Y88800D01*
X170700Y88500D01*
X175400Y96000D01*
X175700Y95700D01*
X175700Y94006D01*
X199426Y70280D01*
X224826Y70280D01*
X224826Y74120D01*
X199950Y98995D01*
X199950Y105701D01*
X209833Y115585D01*
X175893Y149526D01*
X175893Y149393D01*
X151200Y124700D01*
X146100Y88800D01*
X145500Y119300D01*
X178500Y151500D01*
X311100Y167400D02*
G54D24*
D03*
G54D16*
X269228Y174981D02*
X269228Y175228D01*
X279100Y185100D01*
X293400Y185100D01*
X311100Y167400D01*
X336000Y167200D02*
G54D24*
D03*
G54D16*
X329100Y145100D02*
X329100Y160300D01*
X336000Y167200D01*
G54D16*
X330100Y190000D02*
X330100Y173100D01*
X336000Y167200D01*
X170500Y120600D02*
G54D24*
D03*
G54D16*
X170700Y88500D02*
X181206Y88500D01*
X199426Y70280D01*
X104700Y367800D02*
G54D24*
D03*
G54D16*
X170500Y120600D02*
X170500Y132819D01*
X181550Y143868D01*
G54D16*
X146100Y88800D02*
X146100Y102200D01*
X148700Y104800D01*
X176423Y104800D01*
X198520Y126897D01*
X144440Y348679D02*
G54D26*
D03*
X127440Y348679D02*
G54D26*
D03*
G54D16*
X104700Y367800D02*
X124518Y367800D01*
X132040Y367179D01*
X214407Y287916D02*
G54D35*
D03*
X204907Y287916D02*
G54D35*
D03*
X214407Y305917D02*
G54D35*
D03*
X204907Y305917D02*
G54D35*
D03*
G54D16*
X209832Y203268D02*
X209832Y203368D01*
X201200Y212000D01*
X201200Y217900D01*
X168000Y251100D01*
X109400Y251100D01*
X104600Y255900D01*
X104600Y343300D01*
X109900Y348600D01*
X131861Y348600D01*
X131940Y348679D01*
G54D16*
X144540Y367179D02*
X152621Y367179D01*
X155100Y364700D01*
X155100Y336200D01*
X162100Y329200D01*
X210600Y329200D01*
X214600Y325200D01*
X214600Y306110D01*
X214407Y305917D01*
G54D16*
X144440Y348679D02*
X144440Y331860D01*
X155400Y320900D01*
X202200Y320900D01*
X204900Y318200D01*
X204900Y305924D01*
X204907Y305917D01*
G36*
X144540Y367179D02*
X152621Y367179D01*
X155100Y364700D01*
X155100Y352300D01*
X156700Y350700D01*
X169875Y350700D01*
X173115Y347460D01*
X173115Y331585D01*
X174800Y329900D01*
X209900Y329900D01*
X214600Y325200D01*
X214600Y306110D01*
X214407Y305917D01*
X204907Y305917D01*
X204907Y318193D01*
X202200Y320900D01*
X155400Y320900D01*
X144440Y331860D01*
X144440Y348679D01*
X144440Y367079D01*
X144540Y367179D01*
G37*
G54D32*
X144540Y367179D02*
X152621Y367179D01*
X155100Y364700D01*
X155100Y352300D01*
X156700Y350700D01*
X169875Y350700D01*
X173115Y347460D01*
X173115Y331585D01*
X174800Y329900D01*
X209900Y329900D01*
X214600Y325200D01*
X214600Y306110D01*
X214407Y305917D01*
X204907Y305917D01*
X204907Y318193D01*
X202200Y320900D01*
X155400Y320900D01*
X144440Y331860D01*
X144440Y348679D01*
X144440Y367079D01*
X144540Y367179D01*
G36*
X239226Y81280D02*
X261226Y81280D01*
X261226Y59280D01*
X239226Y59280D01*
X239226Y81280D01*
G37*
G36*
X127440Y348679D02*
X127440Y329940D01*
X124000Y326500D01*
X124000Y296600D01*
X151300Y269300D01*
X166012Y269300D01*
X168593Y266719D01*
X180614Y254698D01*
X171598Y254698D01*
X168000Y251100D01*
X109400Y251100D01*
X104600Y255900D01*
X104600Y343300D01*
X109900Y348600D01*
X127361Y348600D01*
X127440Y348679D01*
G37*
G54D32*
X127440Y348679D02*
X127440Y329940D01*
X124000Y326500D01*
X124000Y296600D01*
X151300Y269300D01*
X166012Y269300D01*
X168593Y266719D01*
X180614Y254698D01*
X171598Y254698D01*
X168000Y251100D01*
X109400Y251100D01*
X104600Y255900D01*
X104600Y343300D01*
X109900Y348600D01*
X127361Y348600D01*
X127440Y348679D01*
X676500Y326500D02*
G54D10*
D03*
X714000Y326500D02*
G54D10*
D03*
X676500Y269000D02*
G54D10*
D03*
X714000Y269000D02*
G54D10*
D03*
X985799Y236989D02*
G54D11*
D03*
X892099Y236989D02*
G54D11*
D03*
X985799Y249689D02*
G54D11*
D03*
X892099Y249689D02*
G54D11*
D03*
X985799Y262389D02*
G54D11*
D03*
X892099Y262389D02*
G54D11*
D03*
X985799Y275090D02*
G54D11*
D03*
X892099Y275089D02*
G54D11*
D03*
X985799Y287790D02*
G54D11*
D03*
X892099Y287789D02*
G54D11*
D03*
X985799Y300490D02*
G54D11*
D03*
X892099Y300489D02*
G54D11*
D03*
X985799Y313190D02*
G54D11*
D03*
X892099Y313190D02*
G54D11*
D03*
X985799Y325889D02*
G54D11*
D03*
X892099Y325889D02*
G54D11*
D03*
X1013378Y267058D02*
G54D12*
D03*
X1013378Y250058D02*
G54D12*
D03*
X1035015Y334760D02*
G54D13*
D03*
X1035215Y360160D02*
G54D13*
D03*
X763115Y347460D02*
G54D13*
D03*
X991115Y374760D02*
G54D14*
D03*
X963115Y374760D02*
G54D14*
D03*
X991115Y384260D02*
G54D14*
D03*
X991115Y393760D02*
G54D14*
D03*
X963115Y393760D02*
G54D14*
D03*
X991715Y423060D02*
G54D15*
D03*
X963715Y423060D02*
G54D15*
D03*
X915315Y388460D02*
G54D15*
D03*
X887315Y388460D02*
G54D15*
D03*
G54D16*
X991115Y393760D02*
X991115Y422460D01*
X991715Y423060D01*
X976814Y352560D02*
G54D17*
D03*
X993815Y352560D02*
G54D17*
D03*
G54D16*
X963115Y374760D02*
X963115Y355260D01*
X965715Y352660D01*
X976715Y352660D01*
X976815Y352560D01*
G36*
X920315Y432660D02*
X920314Y422660D01*
X915314Y417660D01*
X910315Y422660D01*
X910315Y432660D01*
X920315Y432660D01*
G37*
G54D18*
X920315Y432660D02*
X920314Y422660D01*
X915314Y417660D01*
X910315Y422660D01*
X910315Y432660D01*
X920315Y432660D01*
G36*
X920314Y419660D02*
X915314Y414660D01*
X910315Y419660D01*
X910315Y406660D01*
X920315Y406660D01*
X920314Y419660D01*
G37*
G54D18*
X920314Y419660D02*
X915314Y414660D01*
X910315Y419660D01*
X910315Y406660D01*
X920315Y406660D01*
X920314Y419660D01*
G54D16*
X915315Y387060D02*
X915314Y410660D01*
G54D16*
X963115Y393760D02*
X933514Y393760D01*
X926914Y387160D01*
X915415Y387160D01*
X915315Y387060D01*
G36*
X877082Y173390D02*
X860819Y157126D01*
X852687Y165258D01*
X868950Y181522D01*
X877082Y173390D01*
G37*
G36*
X871425Y179047D02*
X855163Y162783D01*
X847030Y170914D01*
X863293Y187179D01*
X871425Y179047D01*
G37*
G36*
X865768Y184705D02*
X849505Y168440D01*
X841373Y176572D01*
X857635Y192836D01*
X865768Y184705D01*
G37*
G36*
X860111Y190362D02*
X843849Y174097D01*
X835716Y182228D01*
X851978Y198493D01*
X860111Y190362D01*
G37*
G36*
X854455Y196019D02*
X838192Y179754D01*
X830060Y187885D01*
X846322Y204150D01*
X854455Y196019D01*
G37*
G36*
X848797Y201676D02*
X832534Y185411D01*
X824402Y193543D01*
X840665Y209807D01*
X848797Y201676D01*
G37*
G36*
X843140Y207332D02*
X826876Y191069D01*
X818745Y199201D01*
X835009Y215464D01*
X843140Y207332D01*
G37*
G36*
X837485Y212988D02*
X821219Y196727D01*
X813088Y204860D01*
X829354Y221121D01*
X837485Y212988D01*
G37*
G36*
X778090Y153592D02*
X761828Y137328D01*
X753696Y145459D01*
X769958Y161723D01*
X778090Y153592D01*
G37*
G36*
X783747Y147934D02*
X767484Y131670D01*
X759352Y139802D01*
X775616Y156066D01*
X783747Y147934D01*
G37*
G36*
X789405Y142277D02*
X773141Y126014D01*
X765009Y134146D01*
X781273Y150409D01*
X789405Y142277D01*
G37*
G36*
X795060Y136621D02*
X778797Y120357D01*
X770665Y128489D01*
X786929Y144752D01*
X795060Y136621D01*
G37*
G36*
X800718Y130962D02*
X784454Y114700D01*
X776323Y122832D01*
X792587Y139095D01*
X800718Y130962D01*
G37*
G36*
X806375Y125306D02*
X790111Y109043D01*
X781979Y117175D01*
X798243Y133438D01*
X806375Y125306D01*
G37*
G36*
X812031Y119650D02*
X795768Y103386D01*
X787636Y111517D01*
X803899Y127781D01*
X812031Y119650D01*
G37*
G36*
X817687Y113992D02*
X801424Y97728D01*
X793292Y105860D01*
X809555Y122124D01*
X817687Y113992D01*
G37*
G36*
X860820Y161723D02*
X877082Y145458D01*
X868950Y137327D01*
X852688Y153592D01*
X860820Y161723D01*
G37*
G36*
X855162Y156066D02*
X871426Y139803D01*
X863295Y131671D01*
X847031Y147934D01*
X855162Y156066D01*
G37*
G36*
X849506Y150409D02*
X865769Y134146D01*
X857637Y126014D01*
X841374Y142278D01*
X849506Y150409D01*
G37*
G36*
X843849Y144752D02*
X860113Y128489D01*
X851981Y120357D01*
X835718Y136620D01*
X843849Y144752D01*
G37*
G36*
X838191Y139094D02*
X854456Y122831D01*
X846324Y114699D01*
X830060Y130962D01*
X838191Y139094D01*
G37*
G36*
X832536Y133437D02*
X848799Y117173D01*
X840667Y109042D01*
X824404Y125306D01*
X832536Y133437D01*
G37*
G36*
X826879Y127780D02*
X843142Y111516D01*
X835010Y103384D01*
X818747Y119648D01*
X826879Y127780D01*
G37*
G36*
X821222Y122123D02*
X837485Y105859D01*
X829353Y97727D01*
X813090Y113991D01*
X821222Y122123D01*
G37*
G36*
X801422Y221122D02*
X817686Y204858D01*
X809554Y196727D01*
X793290Y212990D01*
X801422Y221122D01*
G37*
G36*
X795767Y215466D02*
X812029Y199201D01*
X803897Y191070D01*
X787635Y207335D01*
X795767Y215466D01*
G37*
G36*
X790110Y209809D02*
X806373Y193545D01*
X798241Y185413D01*
X781978Y201677D01*
X790110Y209809D01*
G37*
G36*
X784454Y204151D02*
X800716Y187887D01*
X792584Y179756D01*
X776322Y196020D01*
X784454Y204151D01*
G37*
G36*
X778798Y198494D02*
X795061Y182230D01*
X786929Y174098D01*
X770666Y190362D01*
X778798Y198494D01*
G37*
G36*
X773141Y192835D02*
X789404Y176572D01*
X781273Y168440D01*
X765009Y184703D01*
X773141Y192835D01*
G37*
G36*
X767483Y187179D02*
X783747Y170916D01*
X775616Y162784D01*
X759352Y179047D01*
X767483Y187179D01*
G37*
G36*
X761826Y181521D02*
X778090Y165259D01*
X769959Y157127D01*
X753695Y173389D01*
X761826Y181521D01*
G37*
G36*
X844744Y108363D02*
X858179Y121797D01*
X873735Y106241D01*
X860300Y92806D01*
X844744Y108363D01*
G37*
G36*
X858177Y121796D02*
X871612Y135232D01*
X887169Y119676D01*
X873734Y106240D01*
X858177Y121796D01*
G37*
G36*
X747740Y202879D02*
X761175Y216314D01*
X776731Y200757D01*
X763296Y187323D01*
X747740Y202879D01*
G37*
G36*
X761176Y216314D02*
X774612Y229748D01*
X790168Y214191D01*
X776732Y200757D01*
X761176Y216314D01*
G37*
G54D16*
X788517Y191951D02*
X781749Y198718D01*
X775702Y198718D01*
X770045Y193061D01*
X770045Y188112D01*
X777203Y180954D01*
X777203Y180637D01*
G54D16*
X831052Y116182D02*
X837819Y109415D01*
X843866Y109415D01*
X849523Y115072D01*
X849523Y120022D01*
X842366Y127179D01*
X842365Y127496D01*
G54D16*
X777203Y180637D02*
X804941Y152899D01*
X804941Y141549D01*
X830906Y115583D01*
X830943Y115583D01*
G54D16*
X775671Y215249D02*
X793312Y197608D01*
X794173Y197608D01*
G54D16*
X772530Y195649D02*
X766364Y201815D01*
X762236Y201815D01*
X743820Y42045D02*
G54D19*
D03*
X743820Y61045D02*
G54D19*
D03*
X722134Y168311D02*
G54D20*
D03*
X736034Y168310D02*
G54D20*
D03*
X722135Y179311D02*
G54D20*
D03*
X736034Y179311D02*
G54D20*
D03*
X735573Y152198D02*
G54D20*
D03*
X722574Y152198D02*
G54D20*
D03*
X735642Y195826D02*
G54D20*
D03*
X722643Y195827D02*
G54D20*
D03*
G54D16*
X736048Y179304D02*
X736048Y195421D01*
X735643Y195827D01*
X789426Y44880D02*
G54D21*
D03*
X814826Y44880D02*
G54D21*
D03*
X840226Y44880D02*
G54D21*
D03*
X789426Y70280D02*
G54D21*
D03*
X814826Y70280D02*
G54D21*
D03*
G54D16*
X840226Y70280D02*
X816679Y93827D01*
X816679Y98429D01*
X805487Y109621D01*
X805487Y109927D01*
G54D16*
X814684Y70139D02*
X827548Y57276D01*
X850479Y57276D01*
X854014Y60811D01*
X854014Y81317D01*
X825547Y109785D01*
X825145Y109785D01*
G54D16*
X799830Y115583D02*
X789950Y105704D01*
X789950Y98995D01*
X802325Y86620D01*
X802325Y57912D01*
X814826Y45411D01*
X814826Y44880D01*
G54D16*
X830943Y115583D02*
X861651Y84875D01*
X861651Y53740D01*
X852792Y44880D01*
X840226Y44880D01*
G54D16*
X859239Y107302D02*
X852766Y107302D01*
X847539Y112529D01*
G54D16*
X722134Y168311D02*
X722134Y161434D01*
X723239Y160329D01*
X756897Y160329D01*
X765892Y169324D01*
G54D16*
X735573Y152198D02*
X735573Y159695D01*
X735339Y159929D01*
G54D16*
X771549Y174981D02*
X771387Y174981D01*
X761939Y184429D01*
X748139Y184429D01*
X743039Y179329D01*
X736052Y179329D01*
X736034Y179311D01*
G54D16*
X840226Y44880D02*
X840226Y33316D01*
X834839Y27929D01*
X807339Y27929D01*
X802239Y33029D01*
X802239Y49929D01*
X794739Y57429D01*
X776439Y57429D01*
X760439Y41429D01*
X744436Y41429D01*
X743820Y42045D01*
X889644Y470275D02*
G54D22*
D03*
X889644Y476775D02*
G54D22*
D03*
X889644Y483275D02*
G54D22*
D03*
X889644Y489775D02*
G54D22*
D03*
X889644Y496275D02*
G54D22*
D03*
X889644Y502775D02*
G54D22*
D03*
X889644Y509275D02*
G54D22*
D03*
X889644Y515775D02*
G54D22*
D03*
X889644Y522275D02*
G54D22*
D03*
X889644Y528775D02*
G54D22*
D03*
X889644Y535275D02*
G54D22*
D03*
X889644Y541775D02*
G54D22*
D03*
X889644Y548275D02*
G54D22*
D03*
X889644Y554775D02*
G54D22*
D03*
X819644Y470275D02*
G54D22*
D03*
X819644Y476775D02*
G54D22*
D03*
X819644Y483275D02*
G54D22*
D03*
X819644Y489775D02*
G54D22*
D03*
X819644Y496275D02*
G54D22*
D03*
X819644Y502775D02*
G54D22*
D03*
X819644Y509275D02*
G54D22*
D03*
X819644Y515775D02*
G54D22*
D03*
X819644Y522275D02*
G54D22*
D03*
X819644Y528775D02*
G54D22*
D03*
X819644Y535275D02*
G54D22*
D03*
X819644Y541775D02*
G54D22*
D03*
X819644Y548275D02*
G54D22*
D03*
X819644Y554775D02*
G54D22*
D03*
X765250Y427900D02*
G54D23*
D03*
X746250Y427900D02*
G54D23*
D03*
G36*
X736686Y463057D02*
X755686Y463057D01*
X755686Y441057D01*
X736686Y441057D01*
X736686Y463057D01*
G37*
X765186Y452057D02*
G54D23*
D03*
X765882Y529170D02*
G54D23*
D03*
X746882Y529170D02*
G54D23*
D03*
X765768Y555523D02*
G54D23*
D03*
X746767Y555523D02*
G54D23*
D03*
X626750Y309030D02*
G54D24*
D03*
X674000Y582638D02*
G54D24*
D03*
G54D16*
X991115Y393760D02*
X1029502Y393760D01*
X1034862Y388400D01*
X1034862Y360512D01*
X1035215Y360160D01*
X1035215Y334960D01*
X1035015Y334760D01*
X1035015Y226352D01*
X1027562Y218900D01*
X943475Y218900D01*
X938715Y223660D01*
X938715Y248873D01*
X925198Y262389D01*
X892099Y262389D01*
G54D16*
X892099Y249689D02*
X908448Y249689D01*
X910187Y247950D01*
X910187Y237255D01*
X853571Y180638D01*
G54D16*
X847914Y186295D02*
X848533Y186295D01*
X868912Y206675D01*
X868912Y232075D01*
X873675Y236838D01*
X891947Y236838D01*
X892099Y236989D01*
X647200Y263222D02*
G54D24*
D03*
X626450Y285930D02*
G54D24*
D03*
G54D16*
X765186Y452057D02*
X765186Y427964D01*
X765250Y427900D01*
G54D16*
X765882Y529170D02*
X789630Y529170D01*
X796100Y522700D01*
X819219Y522700D01*
X819644Y522275D01*
G54D16*
X765768Y555523D02*
X786877Y555523D01*
X800300Y542100D01*
X819319Y542100D01*
X819644Y541775D01*
G54D16*
X819644Y522275D02*
X841075Y522275D01*
X846800Y528000D01*
X846800Y560700D01*
X855800Y569700D01*
X900800Y569700D01*
X908000Y562500D01*
X908000Y493200D01*
X904900Y490100D01*
X889968Y490100D01*
X889644Y489775D01*
G54D16*
X985799Y249690D02*
X971085Y249690D01*
X916515Y304260D01*
X916515Y335260D01*
X911715Y340060D01*
X871240Y340060D01*
X860600Y350700D01*
X860600Y431200D01*
X875500Y446100D01*
X895000Y446100D01*
X907200Y458300D01*
X907200Y492400D01*
X908000Y493200D01*
G54D16*
X914900Y426600D02*
X914900Y450600D01*
X907200Y458300D01*
X859600Y450700D02*
G54D24*
D03*
G54D16*
X889644Y476775D02*
X900324Y476775D01*
X902000Y475100D01*
X902000Y461200D01*
X892600Y451800D01*
X860700Y451800D01*
X859600Y450700D01*
X690000Y42400D02*
G54D24*
D03*
X718323Y60818D02*
G54D25*
D03*
X718323Y41820D02*
G54D25*
D03*
G54D16*
X690000Y42400D02*
X717743Y42400D01*
X718323Y41820D01*
G54D16*
X718323Y60818D02*
X743592Y60818D01*
X743820Y61045D01*
G54D16*
X743820Y61045D02*
X764045Y61045D01*
X773100Y70100D01*
X789246Y70100D01*
X789426Y70280D01*
X860100Y243400D02*
G54D24*
D03*
G54D16*
X860100Y243400D02*
X860100Y209795D01*
X842257Y191952D01*
X760700Y87000D02*
G54D24*
D03*
X839600Y311700D02*
G54D26*
D03*
X856600Y311700D02*
G54D26*
D03*
X839900Y291500D02*
G54D26*
D03*
X856900Y291500D02*
G54D26*
D03*
G54D16*
X985799Y249690D02*
X1013010Y249690D01*
X1013378Y250058D01*
G54D16*
X839900Y291500D02*
X839900Y311400D01*
X839600Y311700D01*
X839600Y329700D01*
X860600Y350700D01*
G54D16*
X892099Y262389D02*
X876311Y262389D01*
X874800Y263900D01*
X874800Y307200D01*
X871100Y310900D01*
X857400Y310900D01*
X856600Y311700D01*
G54D16*
X892099Y249689D02*
X878210Y249689D01*
X865900Y262000D01*
X865900Y288700D01*
X864000Y290600D01*
X857800Y290600D01*
X856900Y291500D01*
X976000Y145100D02*
G54D27*
D03*
X976000Y132400D02*
G54D27*
D03*
X976000Y119700D02*
G54D27*
D03*
X976000Y107000D02*
G54D27*
D03*
X919100Y145100D02*
G54D27*
D03*
X919100Y132400D02*
G54D27*
D03*
X919100Y119700D02*
G54D27*
D03*
X919100Y107000D02*
G54D27*
D03*
G54D28*
X946700Y23400D02*
X972700Y23400D01*
G54D28*
X946200Y576200D02*
X972200Y576200D01*
X920100Y190000D02*
G54D26*
D03*
X937100Y190000D02*
G54D26*
D03*
G36*
X949400Y200000D02*
X968400Y200000D01*
X968400Y180000D01*
X949400Y180000D01*
X949400Y200000D01*
G37*
X975900Y190000D02*
G54D26*
D03*
X1005500Y189700D02*
G54D26*
D03*
X1022500Y189700D02*
G54D26*
D03*
G36*
X999400Y173600D02*
X1027400Y173600D01*
X1027400Y160200D01*
X999400Y160200D01*
X999400Y173600D01*
G37*
X1013400Y154400D02*
G54D29*
D03*
X1021400Y130900D02*
G54D30*
D03*
X1021400Y130900D02*
G54D30*
D03*
X1021400Y102900D02*
G54D30*
D03*
X1044275Y170088D02*
G54D31*
D03*
X1044275Y153088D02*
G54D31*
D03*
G54D16*
X976000Y107000D02*
X986000Y107000D01*
X992300Y113300D01*
X992300Y126200D01*
X996400Y130300D01*
X1020800Y130300D01*
X1021400Y130900D01*
G54D16*
X1021400Y130900D02*
X1037200Y130900D01*
X1044100Y137800D01*
X1044100Y152913D01*
X1044275Y153088D01*
G54D16*
X976000Y119700D02*
X983600Y119700D01*
X986700Y122800D01*
X986700Y130400D01*
X994300Y138000D01*
X994300Y150900D01*
X997700Y154300D01*
X1013300Y154300D01*
X1013400Y154400D01*
X983900Y167200D02*
G54D24*
D03*
G54D16*
X1013400Y154400D02*
X996700Y154400D01*
X983900Y167200D01*
G54D16*
X920100Y190000D02*
X920100Y199700D01*
X923100Y202700D01*
X1003100Y202700D01*
X1005300Y200500D01*
X1005300Y189900D01*
X1005500Y189700D01*
G54D16*
X976000Y145100D02*
X976000Y152300D01*
X968100Y160200D01*
X968100Y172900D01*
X976000Y180800D01*
X976000Y189900D01*
X975900Y190000D01*
G54D16*
X1005500Y189700D02*
X1005500Y182100D01*
X1012600Y175000D01*
X1012600Y167700D01*
X1013400Y166900D01*
G54D16*
X1013400Y166900D02*
X1033400Y166900D01*
X1036300Y169800D01*
X1043987Y169800D01*
X1044275Y170088D01*
X950600Y167300D02*
G54D24*
D03*
G54D16*
X976000Y132400D02*
X967800Y132400D01*
X965400Y134800D01*
X965400Y141400D01*
X961700Y145100D01*
X919100Y145100D01*
G36*
X975900Y190000D02*
X975900Y201300D01*
X977000Y202400D01*
X1002800Y202400D01*
X1003100Y202700D01*
X1003100Y192100D01*
X1005500Y189700D01*
X1005500Y182100D01*
X1012600Y175000D01*
X1012600Y155200D01*
X1013400Y154400D01*
X997800Y154400D01*
X994300Y150900D01*
X994300Y132400D01*
X996400Y130300D01*
X992300Y126200D01*
X992300Y113300D01*
X986000Y107000D01*
X976000Y107000D01*
X976000Y145100D01*
X976000Y152300D01*
X968100Y160200D01*
X968100Y172900D01*
X976000Y180800D01*
X976000Y201200D01*
X975900Y201300D01*
X975900Y190000D01*
G37*
G54D32*
X975900Y190000D02*
X975900Y201300D01*
X977000Y202400D01*
X1002800Y202400D01*
X1003100Y202700D01*
X1003100Y192100D01*
X1005500Y189700D01*
X1005500Y182100D01*
X1012600Y175000D01*
X1012600Y155200D01*
X1013400Y154400D01*
X997800Y154400D01*
X994300Y150900D01*
X994300Y132400D01*
X996400Y130300D01*
X992300Y126200D01*
X992300Y113300D01*
X986000Y107000D01*
X976000Y107000D01*
X976000Y145100D01*
X976000Y152300D01*
X968100Y160200D01*
X968100Y172900D01*
X976000Y180800D01*
X976000Y201200D01*
X975900Y201300D01*
X975900Y190000D01*
G36*
X839600Y311700D02*
X870000Y311700D01*
X872900Y308800D01*
X872900Y265800D01*
X876311Y262389D01*
X873489Y262389D01*
X870100Y259000D01*
X868900Y259000D01*
X865900Y262000D01*
X865900Y288700D01*
X864000Y290600D01*
X840800Y290600D01*
X839900Y291500D01*
X839900Y311400D01*
X839600Y311700D01*
G37*
G54D32*
X839600Y311700D02*
X870000Y311700D01*
X872900Y308800D01*
X872900Y265800D01*
X876311Y262389D01*
X873489Y262389D01*
X870100Y259000D01*
X868900Y259000D01*
X865900Y262000D01*
X865900Y288700D01*
X864000Y290600D01*
X840800Y290600D01*
X839900Y291500D01*
X839900Y311400D01*
X839600Y311700D01*
G36*
X736034Y179311D02*
X743021Y179311D01*
X748139Y184429D01*
X762102Y184429D01*
X771549Y174981D01*
X756897Y160329D01*
X736207Y160329D01*
X735573Y159695D01*
X735573Y178850D01*
X736034Y179311D01*
G37*
G54D32*
X736034Y179311D02*
X743021Y179311D01*
X748139Y184429D01*
X762102Y184429D01*
X771549Y174981D01*
X756897Y160329D01*
X736207Y160329D01*
X735573Y159695D01*
X735573Y178850D01*
X736034Y179311D01*
G36*
X740300Y499735D02*
X745565Y505000D01*
X753035Y505000D01*
X758300Y499735D01*
X758300Y480265D01*
X753035Y475000D01*
X745565Y475000D01*
X740300Y480265D01*
X740300Y499735D01*
G37*
G36*
X755300Y499735D02*
X760565Y505000D01*
X768035Y505000D01*
X773300Y499735D01*
X773300Y480265D01*
X768035Y475000D01*
X760565Y475000D01*
X755300Y480265D01*
X755300Y499735D01*
G37*
G54D16*
X765882Y529170D02*
X765882Y491582D01*
X764300Y490000D01*
G54D16*
X746186Y452057D02*
X746186Y463886D01*
X750900Y468600D01*
X759200Y468600D01*
X764100Y473500D01*
X764100Y489800D01*
X764300Y490000D01*
X784500Y369300D02*
G54D24*
D03*
G54D32*
G75*
G01X610000Y577000D02*
G03X610000Y577000I-14500J0D01*
G01*
G36*
G75*
G01X610000Y577000D02*
G03X610000Y577000I-14500J0D01*
G01*
G37*
X610000Y577000D01*
G54D32*
G75*
G01X610000Y18000D02*
G03X610000Y18000I-14500J0D01*
G01*
G36*
G75*
G01X610000Y18000D02*
G03X610000Y18000I-14500J0D01*
G01*
G37*
X610000Y18000D01*
G54D32*
G75*
G01X760000Y297500D02*
G03X760000Y297500I-14500J0D01*
G01*
G36*
G75*
G01X760000Y297500D02*
G03X760000Y297500I-14500J0D01*
G01*
G37*
X760000Y297500D01*
G54D32*
G75*
G01X624616Y491958D02*
G03X624616Y491958I-7808J0D01*
G01*
G36*
G75*
G01X624616Y491958D02*
G03X624616Y491958I-7808J0D01*
G01*
G37*
X624616Y491958D01*
G54D32*
G75*
G01X624616Y441958D02*
G03X624616Y441958I-7808J0D01*
G01*
G36*
G75*
G01X624616Y441958D02*
G03X624616Y441958I-7808J0D01*
G01*
G37*
X624616Y441958D01*
G54D32*
G75*
G01X624616Y151958D02*
G03X624616Y151958I-7808J0D01*
G01*
G36*
G75*
G01X624616Y151958D02*
G03X624616Y151958I-7808J0D01*
G01*
G37*
X624616Y151958D01*
G54D32*
G75*
G01X624616Y101958D02*
G03X624616Y101958I-7808J0D01*
G01*
G36*
G75*
G01X624616Y101958D02*
G03X624616Y101958I-7808J0D01*
G01*
G37*
X624616Y101958D01*
G54D16*
X919100Y132400D02*
X908100Y132400D01*
X899500Y123800D01*
X899500Y32800D01*
X883200Y16500D01*
X674000Y16500D01*
X662900Y27600D01*
X662900Y46533D01*
X765893Y149526D01*
X878900Y37400D02*
G54D24*
D03*
G36*
X805489Y109926D02*
X805489Y109619D01*
X816679Y98429D01*
X816679Y93827D01*
X840226Y70280D01*
X844545Y70280D01*
X854014Y60811D01*
X854580Y60811D01*
X861651Y53740D01*
X852792Y44880D01*
X840226Y44880D01*
X840226Y33316D01*
X834839Y27929D01*
X807339Y27929D01*
X802239Y33029D01*
X802239Y49929D01*
X794739Y57429D01*
X776439Y57429D01*
X760439Y41429D01*
X744436Y41429D01*
X743820Y42045D01*
X743820Y61045D01*
X764045Y61045D01*
X773100Y70100D01*
X797800Y70100D01*
X801000Y73300D01*
X801000Y87946D01*
X789950Y98995D01*
X789953Y105704D01*
X799833Y115582D01*
X805489Y109926D01*
G37*
G54D32*
X805489Y109926D02*
X805489Y109619D01*
X816679Y98429D01*
X816679Y93827D01*
X840226Y70280D01*
X844545Y70280D01*
X854014Y60811D01*
X854580Y60811D01*
X861651Y53740D01*
X852792Y44880D01*
X840226Y44880D01*
X840226Y33316D01*
X834839Y27929D01*
X807339Y27929D01*
X802239Y33029D01*
X802239Y49929D01*
X794739Y57429D01*
X776439Y57429D01*
X760439Y41429D01*
X744436Y41429D01*
X743820Y42045D01*
X743820Y61045D01*
X764045Y61045D01*
X773100Y70100D01*
X797800Y70100D01*
X801000Y73300D01*
X801000Y87946D01*
X789950Y98995D01*
X789953Y105704D01*
X799833Y115582D01*
X805489Y109926D01*
G54D16*
X859239Y107302D02*
X859239Y106860D01*
X876100Y90000D01*
X886600Y90000D01*
X891200Y94600D01*
X891200Y137900D01*
X898300Y145000D01*
X919000Y145000D01*
X919100Y145100D01*
G36*
X919100Y145100D02*
X919100Y132400D01*
X908100Y132400D01*
X899500Y123800D01*
X891800Y123800D01*
X891700Y123700D01*
X891700Y138400D01*
X898300Y145000D01*
X919000Y145000D01*
X919100Y145100D01*
G37*
G54D32*
X919100Y145100D02*
X919100Y132400D01*
X908100Y132400D01*
X899500Y123800D01*
X891800Y123800D01*
X891700Y123700D01*
X891700Y138400D01*
X898300Y145000D01*
X919000Y145000D01*
X919100Y145100D01*
G54D16*
X626450Y285930D02*
X635229Y285930D01*
X651600Y302300D01*
X651600Y380400D01*
X672000Y400800D01*
X694800Y400800D01*
X707700Y413700D01*
X707700Y566100D01*
X719400Y577800D01*
X774600Y577800D01*
X804200Y548200D01*
X819568Y548200D01*
X819644Y548275D01*
G54D16*
X626750Y309030D02*
X636129Y309030D01*
X643100Y316000D01*
X643100Y384400D01*
X667000Y408300D01*
X691300Y408300D01*
X700300Y417300D01*
X700300Y567700D01*
X716700Y584100D01*
X778400Y584100D01*
X807700Y554800D01*
X819619Y554800D01*
X819644Y554775D01*
G36*
X771549Y174981D02*
X762102Y184429D01*
X762102Y201684D01*
X762237Y201818D01*
X775672Y215253D01*
X776534Y215253D01*
X794176Y197608D01*
X771549Y174981D01*
G37*
G54D33*
X771549Y174981D02*
X762102Y184429D01*
X762102Y201684D01*
X762237Y201818D01*
X775672Y215253D01*
X776534Y215253D01*
X794176Y197608D01*
X771549Y174981D01*
G36*
X626450Y285930D02*
X647200Y263222D01*
X646400Y280000D01*
X660808Y294408D01*
X660808Y378508D01*
X648992Y378508D01*
X643100Y384400D01*
X643100Y334100D01*
X641400Y332400D01*
X626750Y309030D01*
X626450Y285930D01*
G37*
G54D33*
X626450Y285930D02*
X647200Y263222D01*
X646400Y280000D01*
X660808Y294408D01*
X660808Y378508D01*
X648992Y378508D01*
X643100Y384400D01*
X643100Y334100D01*
X641400Y332400D01*
X626750Y309030D01*
X626450Y285930D01*
G54D34*
X1021400Y102900D02*
X1051500Y102900D01*
X1057400Y108800D01*
X1057400Y530200D01*
X1011200Y576400D01*
X959400Y576400D01*
X959200Y576200D01*
G54D16*
X762236Y201818D02*
X731554Y232500D01*
X677922Y232500D01*
X647200Y263222D01*
G54D16*
X765250Y427900D02*
X765250Y407350D01*
X751100Y393200D01*
X675500Y393200D01*
X660808Y378508D01*
X660808Y294408D01*
X646400Y280000D01*
X646400Y264022D01*
X647200Y263222D01*
X813000Y234300D02*
G54D24*
D03*
G54D16*
X825286Y208924D02*
X825424Y208924D01*
X833100Y216600D01*
X833100Y225300D01*
X827600Y230800D01*
X816500Y230800D01*
X813000Y234300D01*
X904500Y60900D02*
G54D26*
D03*
X921500Y60900D02*
G54D26*
D03*
X734540Y367179D02*
G54D26*
D03*
X717540Y367179D02*
G54D26*
D03*
G54D16*
X836599Y197609D02*
X849000Y210010D01*
X849000Y233900D01*
X848700Y234200D01*
X848500Y234200D01*
X826500Y256200D01*
X826500Y440400D01*
X856375Y470275D01*
X889644Y470275D01*
G54D16*
X830942Y203266D02*
X841300Y213624D01*
X841300Y230900D01*
X820700Y251500D01*
X820700Y447800D01*
X869175Y496275D01*
X889644Y496275D01*
G36*
X853571Y180638D02*
X910187Y237255D01*
X910187Y247950D01*
X893838Y247950D01*
X892099Y249689D01*
X892099Y262389D01*
X876311Y262389D01*
X876311Y305689D01*
X871100Y310900D01*
X857400Y310900D01*
X856600Y311700D01*
X839600Y311700D01*
X839600Y329700D01*
X860600Y350700D01*
X860600Y431200D01*
X875500Y446100D01*
X895000Y446100D01*
X907200Y458300D01*
X907200Y487800D01*
X904900Y490100D01*
X889968Y490100D01*
X889644Y489775D01*
X889644Y496275D01*
X869175Y496275D01*
X820700Y447800D01*
X820700Y242000D01*
X813000Y234300D01*
X824100Y234300D01*
X833100Y225300D01*
X833100Y216737D01*
X825286Y208922D01*
X853571Y180638D01*
G37*
G54D32*
X853571Y180638D02*
X910187Y237255D01*
X910187Y247950D01*
X893838Y247950D01*
X892099Y249689D01*
X892099Y262389D01*
X876311Y262389D01*
X876311Y305689D01*
X871100Y310900D01*
X857400Y310900D01*
X856600Y311700D01*
X839600Y311700D01*
X839600Y329700D01*
X860600Y350700D01*
X860600Y431200D01*
X875500Y446100D01*
X895000Y446100D01*
X907200Y458300D01*
X907200Y487800D01*
X904900Y490100D01*
X889968Y490100D01*
X889644Y489775D01*
X889644Y496275D01*
X869175Y496275D01*
X820700Y447800D01*
X820700Y242000D01*
X813000Y234300D01*
X824100Y234300D01*
X833100Y225300D01*
X833100Y216737D01*
X825286Y208922D01*
X853571Y180638D01*
G36*
X758946Y280507D02*
X772381Y267073D01*
X758240Y252930D01*
X744804Y266365D01*
X758946Y280507D01*
G37*
G36*
X770968Y268486D02*
X784402Y255051D01*
X770260Y240909D01*
X756825Y254345D01*
X770968Y268486D01*
G37*
G54D16*
X805488Y208924D02*
X805476Y208924D01*
X797900Y216500D01*
X797900Y221000D01*
X766200Y252600D01*
G54D16*
X714000Y326500D02*
X714000Y296600D01*
X741300Y269300D01*
X749600Y269300D01*
X757200Y261700D01*
G36*
X808423Y253666D02*
X794988Y240231D01*
X780846Y254373D01*
X794280Y267808D01*
X808423Y253666D01*
G37*
G36*
X796402Y241644D02*
X782967Y228209D01*
X768825Y242352D01*
X782261Y255786D01*
X796402Y241644D01*
G37*
X736100Y87300D02*
G54D24*
D03*
G36*
X768500Y151500D02*
X768000Y151500D01*
X741200Y124700D01*
X741200Y96300D01*
X736100Y88800D01*
X760700Y88500D01*
X765400Y96000D01*
X765700Y95700D01*
X765700Y94006D01*
X789426Y70280D01*
X814826Y70280D01*
X814826Y74120D01*
X789950Y98995D01*
X789950Y105701D01*
X799833Y115585D01*
X765893Y149526D01*
X765893Y149393D01*
X741200Y124700D01*
X736100Y88800D01*
X735500Y119300D01*
X768500Y151500D01*
G37*
G54D32*
X768500Y151500D02*
X768000Y151500D01*
X741200Y124700D01*
X741200Y96300D01*
X736100Y88800D01*
X760700Y88500D01*
X765400Y96000D01*
X765700Y95700D01*
X765700Y94006D01*
X789426Y70280D01*
X814826Y70280D01*
X814826Y74120D01*
X789950Y98995D01*
X789950Y105701D01*
X799833Y115585D01*
X765893Y149526D01*
X765893Y149393D01*
X741200Y124700D01*
X736100Y88800D01*
X735500Y119300D01*
X768500Y151500D01*
X901100Y167400D02*
G54D24*
D03*
G54D16*
X859228Y174981D02*
X859228Y175228D01*
X869100Y185100D01*
X883400Y185100D01*
X901100Y167400D01*
X926000Y167200D02*
G54D24*
D03*
G54D16*
X919100Y145100D02*
X919100Y160300D01*
X926000Y167200D01*
G54D16*
X920100Y190000D02*
X920100Y173100D01*
X926000Y167200D01*
X760500Y120600D02*
G54D24*
D03*
G54D16*
X760700Y88500D02*
X771206Y88500D01*
X789426Y70280D01*
X694700Y367800D02*
G54D24*
D03*
G54D16*
X760500Y120600D02*
X760500Y132819D01*
X771550Y143868D01*
G54D16*
X736100Y88800D02*
X736100Y102200D01*
X738700Y104800D01*
X766423Y104800D01*
X788520Y126897D01*
X734440Y348679D02*
G54D26*
D03*
X717440Y348679D02*
G54D26*
D03*
G54D16*
X694700Y367800D02*
X714518Y367800D01*
X722040Y367179D01*
X804407Y287916D02*
G54D35*
D03*
X794907Y287916D02*
G54D35*
D03*
X804407Y305917D02*
G54D35*
D03*
X794907Y305917D02*
G54D35*
D03*
G54D16*
X799832Y203268D02*
X799832Y203368D01*
X791200Y212000D01*
X791200Y217900D01*
X758000Y251100D01*
X699400Y251100D01*
X694600Y255900D01*
X694600Y343300D01*
X699900Y348600D01*
X721861Y348600D01*
X721940Y348679D01*
G54D16*
X734540Y367179D02*
X742621Y367179D01*
X745100Y364700D01*
X745100Y336200D01*
X752100Y329200D01*
X800600Y329200D01*
X804600Y325200D01*
X804600Y306110D01*
X804407Y305917D01*
G54D16*
X734440Y348679D02*
X734440Y331860D01*
X745400Y320900D01*
X792200Y320900D01*
X794900Y318200D01*
X794900Y305924D01*
X794907Y305917D01*
G36*
X734540Y367179D02*
X742621Y367179D01*
X745100Y364700D01*
X745100Y352300D01*
X746700Y350700D01*
X759875Y350700D01*
X763115Y347460D01*
X763115Y331585D01*
X764800Y329900D01*
X799900Y329900D01*
X804600Y325200D01*
X804600Y306110D01*
X804407Y305917D01*
X794907Y305917D01*
X794907Y318193D01*
X792200Y320900D01*
X745400Y320900D01*
X734440Y331860D01*
X734440Y348679D01*
X734440Y367079D01*
X734540Y367179D01*
G37*
G54D32*
X734540Y367179D02*
X742621Y367179D01*
X745100Y364700D01*
X745100Y352300D01*
X746700Y350700D01*
X759875Y350700D01*
X763115Y347460D01*
X763115Y331585D01*
X764800Y329900D01*
X799900Y329900D01*
X804600Y325200D01*
X804600Y306110D01*
X804407Y305917D01*
X794907Y305917D01*
X794907Y318193D01*
X792200Y320900D01*
X745400Y320900D01*
X734440Y331860D01*
X734440Y348679D01*
X734440Y367079D01*
X734540Y367179D01*
G36*
X829226Y81280D02*
X851226Y81280D01*
X851226Y59280D01*
X829226Y59280D01*
X829226Y81280D01*
G37*
G36*
X717440Y348679D02*
X717440Y329940D01*
X714000Y326500D01*
X714000Y296600D01*
X741300Y269300D01*
X756012Y269300D01*
X758593Y266719D01*
X770614Y254698D01*
X761598Y254698D01*
X758000Y251100D01*
X699400Y251100D01*
X694600Y255900D01*
X694600Y343300D01*
X699900Y348600D01*
X717361Y348600D01*
X717440Y348679D01*
G37*
G54D32*
X717440Y348679D02*
X717440Y329940D01*
X714000Y326500D01*
X714000Y296600D01*
X741300Y269300D01*
X756012Y269300D01*
X758593Y266719D01*
X770614Y254698D01*
X761598Y254698D01*
X758000Y251100D01*
X699400Y251100D01*
X694600Y255900D01*
X694600Y343300D01*
X699900Y348600D01*
X717361Y348600D01*
X717440Y348679D01*
%LPD*%
G54D36*
G36*
X84333Y326500D02*
X84333Y340000D01*
X88666Y340000D01*
X88666Y326500D01*
X84333Y326500D01*
G37*
G36*
X86500Y328666D02*
X96500Y328666D01*
X96500Y324334D01*
X86500Y324334D01*
X86500Y328666D01*
G37*
G36*
X88666Y326500D02*
X88666Y313000D01*
X84333Y313000D01*
X84333Y326500D01*
X88666Y326500D01*
G37*
G36*
X86500Y324334D02*
X76500Y324334D01*
X76500Y328666D01*
X86500Y328666D01*
X86500Y324334D01*
G37*
G54D37*
G36*
X302099Y277739D02*
X315499Y277740D01*
X315499Y272440D01*
X302099Y272439D01*
X302099Y277739D01*
G37*
G54D37*
G36*
X395798Y285140D02*
X382398Y285141D01*
X382399Y290441D01*
X395799Y290440D01*
X395798Y285140D01*
G37*
G36*
X395799Y290440D02*
X409199Y290439D01*
X409198Y285139D01*
X395798Y285140D01*
X395799Y290440D01*
G37*
G54D37*
G36*
X302099Y290439D02*
X315499Y290439D01*
X315499Y285139D01*
X302099Y285139D01*
X302099Y290439D01*
G37*
G54D37*
G36*
X395799Y297840D02*
X382399Y297839D01*
X382399Y303139D01*
X395799Y303140D01*
X395799Y297840D01*
G37*
G36*
X395799Y303140D02*
X409199Y303140D01*
X409199Y297840D01*
X395799Y297840D01*
X395799Y303140D01*
G37*
G54D37*
G36*
X302099Y303139D02*
X315499Y303140D01*
X315499Y297840D01*
X302099Y297839D01*
X302099Y303139D01*
G37*
G54D37*
G36*
X395799Y310540D02*
X382399Y310539D01*
X382399Y315839D01*
X395799Y315840D01*
X395799Y310540D01*
G37*
G36*
X395799Y315840D02*
X409199Y315840D01*
X409199Y310540D01*
X395799Y310540D01*
X395799Y315840D01*
G37*
G54D37*
G36*
X302099Y310540D02*
X288699Y310540D01*
X288699Y315840D01*
X302099Y315840D01*
X302099Y310540D01*
G37*
G36*
X302099Y315840D02*
X315499Y315840D01*
X315499Y310540D01*
X302099Y310540D01*
X302099Y315840D01*
G37*
G54D37*
G36*
X395799Y323239D02*
X382399Y323239D01*
X382399Y328539D01*
X395799Y328539D01*
X395799Y323239D01*
G37*
G36*
X395799Y328539D02*
X409199Y328539D01*
X409199Y323239D01*
X395799Y323239D01*
X395799Y328539D01*
G37*
G54D37*
G36*
X302099Y323239D02*
X288699Y323239D01*
X288699Y328539D01*
X302099Y328539D01*
X302099Y323239D01*
G37*
G36*
X302099Y328539D02*
X315499Y328540D01*
X315499Y323240D01*
X302099Y323239D01*
X302099Y328539D01*
G37*
G54D38*
G36*
X423378Y269478D02*
X432878Y269478D01*
X432878Y264638D01*
X423378Y264638D01*
X423378Y269478D01*
G37*
G36*
X423378Y264638D02*
X413878Y264638D01*
X413878Y269478D01*
X423378Y269478D01*
X423378Y264638D01*
G37*
G36*
X420958Y267058D02*
X420957Y276058D01*
X425797Y276058D01*
X425798Y267058D01*
X420958Y267058D01*
G37*
G54D39*
G36*
X169282Y347460D02*
X169282Y362460D01*
X176948Y362460D01*
X176948Y347460D01*
X169282Y347460D01*
G37*
G36*
X173115Y351293D02*
X188115Y351293D01*
X188115Y343627D01*
X173115Y343627D01*
X173115Y351293D01*
G37*
G54D18*
G36*
X401114Y387260D02*
X410114Y387260D01*
X410115Y381260D01*
X401115Y381260D01*
X401114Y387260D01*
G37*
G54D40*
G36*
X371048Y423060D02*
X371048Y436560D01*
X376381Y436560D01*
X376381Y423060D01*
X371048Y423060D01*
G37*
G54D40*
G36*
X299981Y388460D02*
X299981Y374960D01*
X294648Y374960D01*
X294648Y388460D01*
X299981Y388460D01*
G37*
G36*
X297315Y385794D02*
X285815Y385794D01*
X285815Y391127D01*
X297315Y391127D01*
X297315Y385794D01*
G37*
G36*
X294648Y388460D02*
X294648Y401960D01*
X299981Y401960D01*
X299981Y388460D01*
X294648Y388460D01*
G37*
G54D41*
G36*
X401981Y352560D02*
X401981Y362060D01*
X405648Y362060D01*
X405648Y352560D01*
X401981Y352560D01*
G37*
G36*
X403815Y354394D02*
X412815Y354394D01*
X412815Y350726D01*
X403815Y350726D01*
X403815Y354394D01*
G37*
G36*
X405648Y352560D02*
X405648Y343060D01*
X401981Y343060D01*
X401981Y352560D01*
X405648Y352560D01*
G37*
G54D42*
G36*
X259341Y133981D02*
X267826Y125495D01*
X264974Y122644D01*
X256489Y131129D01*
X259341Y133981D01*
G37*
G36*
X256489Y131129D02*
X248004Y139614D01*
X250856Y142466D01*
X259341Y133981D01*
X256489Y131129D01*
G37*
G54D43*
G36*
X205582Y199018D02*
X214067Y190532D01*
X211254Y187719D01*
X202769Y196205D01*
X205582Y199018D01*
G37*
G36*
X202769Y196205D02*
X194284Y204690D01*
X197097Y207503D01*
X205582Y199018D01*
X202769Y196205D01*
G37*
G54D43*
G36*
X194270Y187702D02*
X202755Y179217D01*
X199942Y176404D01*
X191457Y184890D01*
X194270Y187702D01*
G37*
G54D36*
G36*
X281141Y119204D02*
X273009Y127335D01*
X276073Y130399D01*
X284205Y122268D01*
X281141Y119204D01*
G37*
G36*
X281141Y122268D02*
X288212Y129339D01*
X291276Y126275D01*
X284205Y119204D01*
X281141Y122268D01*
G37*
G36*
X284205Y122268D02*
X292337Y114137D01*
X289273Y111073D01*
X281141Y119204D01*
X284205Y122268D01*
G37*
G54D44*
G36*
X184247Y213828D02*
X176115Y221960D01*
X178965Y224810D01*
X187097Y216678D01*
X184247Y213828D01*
G37*
G54D45*
G36*
X132135Y177324D02*
X124135Y177324D01*
X124134Y181297D01*
X132134Y181298D01*
X132135Y177324D01*
G37*
G36*
X130148Y179311D02*
X130148Y186811D01*
X134121Y186811D01*
X134121Y179311D01*
X130148Y179311D01*
G37*
G54D46*
G36*
X134601Y152198D02*
X134601Y144698D01*
X130548Y144697D01*
X130548Y152197D01*
X134601Y152198D01*
G37*
G36*
X132574Y150171D02*
X124574Y150170D01*
X124574Y154224D01*
X132574Y154224D01*
X132574Y150171D01*
G37*
G54D47*
G36*
X134589Y195827D02*
X134589Y188327D01*
X130696Y188327D01*
X130696Y195827D01*
X134589Y195827D01*
G37*
G36*
X132643Y193880D02*
X124643Y193880D01*
X124643Y197773D01*
X132643Y197773D01*
X132643Y193880D01*
G37*
G36*
X130696Y195827D02*
X130696Y203327D01*
X134589Y203327D01*
X134589Y195827D01*
X130696Y195827D01*
G37*
G54D40*
G36*
X202093Y44880D02*
X202093Y33380D01*
X196759Y33380D01*
X196759Y44880D01*
X202093Y44880D01*
G37*
G36*
X199426Y42213D02*
X187926Y42213D01*
X187926Y47547D01*
X199426Y47547D01*
X199426Y42213D01*
G37*
G54D48*
G36*
X299644Y507175D02*
X287894Y507175D01*
X287894Y511375D01*
X299644Y511375D01*
X299644Y507175D01*
G37*
G36*
X299644Y511375D02*
X311394Y511375D01*
X311394Y507175D01*
X299644Y507175D01*
X299644Y511375D01*
G37*
G54D48*
G36*
X229644Y481175D02*
X217894Y481175D01*
X217894Y485375D01*
X229644Y485375D01*
X229644Y481175D01*
G37*
G36*
X229644Y485375D02*
X241394Y485375D01*
X241394Y481175D01*
X229644Y481175D01*
X229644Y485375D01*
G37*
G54D48*
G36*
X229644Y487675D02*
X217894Y487675D01*
X217894Y491875D01*
X229644Y491875D01*
X229644Y487675D01*
G37*
G36*
X229644Y491875D02*
X241394Y491875D01*
X241394Y487675D01*
X229644Y487675D01*
X229644Y491875D01*
G37*
G54D48*
G36*
X229644Y513675D02*
X217894Y513675D01*
X217894Y517875D01*
X229644Y517875D01*
X229644Y513675D01*
G37*
G36*
X229644Y517875D02*
X241394Y517875D01*
X241394Y513675D01*
X229644Y513675D01*
X229644Y517875D01*
G37*
G54D48*
G36*
X229644Y533175D02*
X217894Y533175D01*
X217894Y537375D01*
X229644Y537375D01*
X229644Y533175D01*
G37*
G36*
X229644Y537375D02*
X241394Y537375D01*
X241394Y533175D01*
X229644Y533175D01*
X229644Y537375D01*
G37*
G54D44*
G36*
X158265Y427900D02*
X158265Y416400D01*
X154235Y416400D01*
X154235Y427900D01*
X158265Y427900D01*
G37*
G36*
X156250Y425885D02*
X146250Y425885D01*
X146250Y429915D01*
X156250Y429915D01*
X156250Y425885D01*
G37*
G36*
X154235Y427900D02*
X154235Y439400D01*
X158265Y439400D01*
X158265Y427900D01*
X154235Y427900D01*
G37*
G54D44*
G36*
X158897Y529170D02*
X158897Y517670D01*
X154867Y517670D01*
X154867Y529170D01*
X158897Y529170D01*
G37*
G36*
X154867Y529170D02*
X154867Y540670D01*
X158897Y540670D01*
X158897Y529170D01*
X154867Y529170D01*
G37*
G54D44*
G36*
X158782Y555523D02*
X158782Y544023D01*
X154752Y544023D01*
X154752Y555523D01*
X158782Y555523D01*
G37*
G36*
X154752Y555523D02*
X154752Y567023D01*
X158782Y567023D01*
X158782Y555523D01*
X154752Y555523D01*
G37*
G54D49*
G36*
X80833Y582638D02*
X80833Y595638D01*
X87167Y595638D01*
X87167Y582638D01*
X80833Y582638D01*
G37*
G36*
X84000Y579471D02*
X71000Y579471D01*
X71000Y585805D01*
X84000Y585805D01*
X84000Y579471D01*
G37*
G54D50*
G36*
X329100Y122950D02*
X339150Y122950D01*
X339150Y116450D01*
X329100Y116450D01*
X329100Y122950D01*
G37*
G36*
X329100Y116450D02*
X319050Y116450D01*
X319050Y122950D01*
X329100Y122950D01*
X329100Y116450D01*
G37*
G54D50*
G36*
X329100Y110250D02*
X339150Y110250D01*
X339150Y103750D01*
X329100Y103750D01*
X329100Y110250D01*
G37*
G36*
X329100Y103750D02*
X319050Y103750D01*
X319050Y110250D01*
X329100Y110250D01*
X329100Y103750D01*
G37*
G54D41*
G36*
X347100Y191834D02*
X357100Y191834D01*
X357100Y188166D01*
X347100Y188166D01*
X347100Y191834D01*
G37*
G36*
X348933Y190000D02*
X348933Y179500D01*
X345266Y179500D01*
X345266Y190000D01*
X348933Y190000D01*
G37*
G54D41*
G36*
X370733Y190000D02*
X370734Y179500D01*
X367066Y179500D01*
X367066Y190000D01*
X370733Y190000D01*
G37*
G36*
X368900Y188166D02*
X358900Y188166D01*
X358900Y191833D01*
X368900Y191834D01*
X368900Y188166D01*
G37*
G54D41*
G36*
X430666Y189700D02*
X430666Y200200D01*
X434333Y200200D01*
X434333Y189700D01*
X430666Y189700D01*
G37*
G36*
X432500Y191534D02*
X442500Y191534D01*
X442500Y187866D01*
X432500Y187866D01*
X432500Y191534D01*
G37*
G36*
X434333Y189700D02*
X434333Y179200D01*
X430666Y179200D01*
X430666Y189700D01*
X434333Y189700D01*
G37*
G54D49*
G36*
X358361Y169539D02*
X367553Y178732D01*
X372031Y174253D01*
X362839Y165061D01*
X358361Y169539D01*
G37*
G36*
X362839Y169539D02*
X372031Y160347D01*
X367553Y155868D01*
X358361Y165061D01*
X362839Y169539D01*
G37*
G36*
X362839Y165061D02*
X353647Y155868D01*
X349168Y160347D01*
X358361Y169539D01*
X362839Y165061D01*
G37*
G36*
X358361Y165061D02*
X349168Y174253D01*
X353647Y178732D01*
X362839Y169539D01*
X358361Y165061D01*
G37*
G54D51*
G36*
X157300Y490000D02*
X157300Y505500D01*
X161300Y505500D01*
X161300Y490000D01*
X157300Y490000D01*
G37*
G36*
X161300Y490000D02*
X161300Y474500D01*
X157300Y474500D01*
X157300Y490000D01*
X161300Y490000D01*
G37*
G36*
X159300Y488000D02*
X149800Y488000D01*
X149800Y492000D01*
X159300Y492000D01*
X159300Y488000D01*
G37*
G54D49*
G36*
X191333Y369300D02*
X191333Y382300D01*
X197666Y382300D01*
X197666Y369300D01*
X191333Y369300D01*
G37*
G36*
X194500Y372467D02*
X207500Y372467D01*
X207500Y366133D01*
X194500Y366133D01*
X194500Y372467D01*
G37*
G36*
X197666Y369300D02*
X197666Y356300D01*
X191333Y356300D01*
X191333Y369300D01*
X197666Y369300D01*
G37*
G36*
X194500Y366133D02*
X181500Y366133D01*
X181500Y372467D01*
X194500Y372467D01*
X194500Y366133D01*
G37*
G54D49*
G36*
X285733Y37400D02*
X285733Y50400D01*
X292067Y50400D01*
X292067Y37400D01*
X285733Y37400D01*
G37*
G36*
X288900Y40567D02*
X301900Y40567D01*
X301900Y34233D01*
X288900Y34233D01*
X288900Y40567D01*
G37*
G36*
X292067Y37400D02*
X292067Y24400D01*
X285733Y24400D01*
X285733Y37400D01*
X292067Y37400D01*
G37*
G36*
X288900Y34233D02*
X275900Y34233D01*
X275900Y40567D01*
X288900Y40567D01*
X288900Y34233D01*
G37*
G54D41*
G36*
X329666Y60900D02*
X329666Y71400D01*
X333333Y71400D01*
X333333Y60900D01*
X329666Y60900D01*
G37*
G36*
X331500Y62734D02*
X341500Y62734D01*
X341500Y59066D01*
X331500Y59066D01*
X331500Y62734D01*
G37*
G36*
X333333Y60900D02*
X333333Y50400D01*
X329666Y50400D01*
X329666Y60900D01*
X333333Y60900D01*
G37*
G54D41*
G36*
X205930Y255316D02*
X213355Y247891D01*
X210762Y245298D01*
X203338Y252723D01*
X205930Y255316D01*
G37*
G36*
X203338Y252723D02*
X195913Y260147D01*
X198506Y262740D01*
X205930Y255316D01*
X203338Y252723D01*
G37*
G36*
X203338Y255316D02*
X210408Y262387D01*
X213001Y259794D01*
X205931Y252723D01*
X203338Y255316D01*
G37*
G54D18*
G36*
X217407Y287916D02*
X217407Y278416D01*
X211407Y278416D01*
X211407Y287916D01*
X217407Y287916D01*
G37*
G54D18*
G36*
X207907Y287916D02*
X207907Y278416D01*
X201907Y278416D01*
X201907Y287916D01*
X207907Y287916D01*
G37*
G54D36*
G36*
X674333Y326500D02*
X674333Y340000D01*
X678666Y340000D01*
X678666Y326500D01*
X674333Y326500D01*
G37*
G36*
X676500Y328666D02*
X686500Y328666D01*
X686500Y324334D01*
X676500Y324334D01*
X676500Y328666D01*
G37*
G36*
X678666Y326500D02*
X678666Y313000D01*
X674333Y313000D01*
X674333Y326500D01*
X678666Y326500D01*
G37*
G36*
X676500Y324334D02*
X666500Y324334D01*
X666500Y328666D01*
X676500Y328666D01*
X676500Y324334D01*
G37*
G54D37*
G36*
X892099Y277739D02*
X905499Y277740D01*
X905499Y272440D01*
X892099Y272439D01*
X892099Y277739D01*
G37*
G54D37*
G36*
X985798Y285140D02*
X972398Y285140D01*
X972399Y290440D01*
X985799Y290440D01*
X985798Y285140D01*
G37*
G36*
X985799Y290440D02*
X999199Y290439D01*
X999198Y285139D01*
X985798Y285140D01*
X985799Y290440D01*
G37*
G54D37*
G36*
X892099Y290439D02*
X905499Y290440D01*
X905499Y285140D01*
X892099Y285139D01*
X892099Y290439D01*
G37*
G54D37*
G36*
X985799Y297840D02*
X972399Y297839D01*
X972399Y303139D01*
X985799Y303140D01*
X985799Y297840D01*
G37*
G36*
X985799Y303140D02*
X999199Y303140D01*
X999199Y297840D01*
X985799Y297840D01*
X985799Y303140D01*
G37*
G54D37*
G36*
X892099Y303139D02*
X905499Y303140D01*
X905499Y297840D01*
X892099Y297839D01*
X892099Y303139D01*
G37*
G54D37*
G36*
X985799Y310540D02*
X972399Y310539D01*
X972399Y315839D01*
X985799Y315840D01*
X985799Y310540D01*
G37*
G36*
X985799Y315840D02*
X999199Y315840D01*
X999199Y310540D01*
X985799Y310540D01*
X985799Y315840D01*
G37*
G54D37*
G36*
X892099Y310540D02*
X878699Y310540D01*
X878699Y315840D01*
X892099Y315840D01*
X892099Y310540D01*
G37*
G36*
X892099Y315840D02*
X905499Y315840D01*
X905499Y310540D01*
X892099Y310540D01*
X892099Y315840D01*
G37*
G54D37*
G36*
X985799Y323239D02*
X972399Y323240D01*
X972399Y328540D01*
X985799Y328539D01*
X985799Y323239D01*
G37*
G36*
X985799Y328539D02*
X999199Y328538D01*
X999199Y323238D01*
X985799Y323239D01*
X985799Y328539D01*
G37*
G54D37*
G36*
X892099Y323239D02*
X878699Y323239D01*
X878699Y328539D01*
X892099Y328539D01*
X892099Y323239D01*
G37*
G36*
X892099Y328539D02*
X905499Y328540D01*
X905499Y323240D01*
X892099Y323239D01*
X892099Y328539D01*
G37*
G54D38*
G36*
X1013378Y269478D02*
X1022878Y269478D01*
X1022878Y264638D01*
X1013378Y264638D01*
X1013378Y269478D01*
G37*
G36*
X1013378Y264638D02*
X1003878Y264638D01*
X1003878Y269478D01*
X1013378Y269478D01*
X1013378Y264638D01*
G37*
G36*
X1010958Y267058D02*
X1010957Y276058D01*
X1015797Y276058D01*
X1015798Y267058D01*
X1010958Y267058D01*
G37*
G54D39*
G36*
X759282Y347460D02*
X759282Y362460D01*
X766948Y362460D01*
X766948Y347460D01*
X759282Y347460D01*
G37*
G36*
X763115Y351293D02*
X778115Y351293D01*
X778115Y343627D01*
X763115Y343627D01*
X763115Y351293D01*
G37*
G54D18*
G36*
X991114Y387260D02*
X1000114Y387260D01*
X1000115Y381260D01*
X991115Y381260D01*
X991114Y387260D01*
G37*
G54D40*
G36*
X961048Y423060D02*
X961048Y436560D01*
X966381Y436560D01*
X966381Y423060D01*
X961048Y423060D01*
G37*
G54D40*
G36*
X889981Y388460D02*
X889981Y374960D01*
X884648Y374960D01*
X884648Y388460D01*
X889981Y388460D01*
G37*
G36*
X887315Y385794D02*
X875815Y385794D01*
X875815Y391127D01*
X887315Y391127D01*
X887315Y385794D01*
G37*
G36*
X884648Y388460D02*
X884648Y401960D01*
X889981Y401960D01*
X889981Y388460D01*
X884648Y388460D01*
G37*
G54D41*
G36*
X991981Y352560D02*
X991981Y362060D01*
X995648Y362060D01*
X995648Y352560D01*
X991981Y352560D01*
G37*
G36*
X993815Y354394D02*
X1002815Y354394D01*
X1002815Y350727D01*
X993815Y350727D01*
X993815Y354394D01*
G37*
G36*
X995648Y352560D02*
X995648Y343060D01*
X991981Y343060D01*
X991981Y352560D01*
X995648Y352560D01*
G37*
G54D42*
G36*
X849341Y133981D02*
X857827Y125495D01*
X854975Y122644D01*
X846489Y131129D01*
X849341Y133981D01*
G37*
G36*
X846489Y131129D02*
X838004Y139614D01*
X840856Y142466D01*
X849341Y133981D01*
X846489Y131129D01*
G37*
G54D43*
G36*
X795582Y199018D02*
X804067Y190532D01*
X801254Y187719D01*
X792769Y196205D01*
X795582Y199018D01*
G37*
G36*
X792769Y196205D02*
X784284Y204690D01*
X787097Y207503D01*
X795582Y199018D01*
X792769Y196205D01*
G37*
G54D43*
G36*
X784270Y187702D02*
X792755Y179217D01*
X789942Y176404D01*
X781457Y184890D01*
X784270Y187702D01*
G37*
G54D36*
G36*
X871141Y119204D02*
X863009Y127335D01*
X866073Y130399D01*
X874205Y122268D01*
X871141Y119204D01*
G37*
G36*
X871141Y122268D02*
X878212Y129339D01*
X881276Y126275D01*
X874205Y119204D01*
X871141Y122268D01*
G37*
G36*
X874205Y122268D02*
X882337Y114136D01*
X879273Y111072D01*
X871141Y119204D01*
X874205Y122268D01*
G37*
G54D44*
G36*
X774247Y213828D02*
X766116Y221960D01*
X768966Y224810D01*
X777097Y216678D01*
X774247Y213828D01*
G37*
G54D45*
G36*
X722135Y177324D02*
X714135Y177324D01*
X714134Y181297D01*
X722134Y181298D01*
X722135Y177324D01*
G37*
G36*
X720148Y179311D02*
X720148Y186811D01*
X724121Y186811D01*
X724121Y179311D01*
X720148Y179311D01*
G37*
G54D46*
G36*
X724601Y152198D02*
X724601Y144698D01*
X720548Y144697D01*
X720548Y152197D01*
X724601Y152198D01*
G37*
G36*
X722574Y150171D02*
X714574Y150171D01*
X714574Y154224D01*
X722574Y154224D01*
X722574Y150171D01*
G37*
G54D47*
G36*
X724589Y195827D02*
X724589Y188327D01*
X720696Y188327D01*
X720696Y195827D01*
X724589Y195827D01*
G37*
G36*
X722643Y193880D02*
X714643Y193880D01*
X714643Y197773D01*
X722643Y197773D01*
X722643Y193880D01*
G37*
G36*
X720696Y195827D02*
X720696Y203327D01*
X724589Y203327D01*
X724589Y195827D01*
X720696Y195827D01*
G37*
G54D40*
G36*
X792093Y44880D02*
X792093Y33380D01*
X786759Y33380D01*
X786759Y44880D01*
X792093Y44880D01*
G37*
G36*
X789426Y42213D02*
X777926Y42213D01*
X777926Y47547D01*
X789426Y47547D01*
X789426Y42213D01*
G37*
G54D48*
G36*
X889644Y507175D02*
X877894Y507175D01*
X877894Y511375D01*
X889644Y511375D01*
X889644Y507175D01*
G37*
G36*
X889644Y511375D02*
X901394Y511375D01*
X901394Y507175D01*
X889644Y507175D01*
X889644Y511375D01*
G37*
G54D48*
G36*
X819644Y481175D02*
X807894Y481175D01*
X807894Y485375D01*
X819644Y485375D01*
X819644Y481175D01*
G37*
G36*
X819644Y485375D02*
X831394Y485375D01*
X831394Y481175D01*
X819644Y481175D01*
X819644Y485375D01*
G37*
G54D48*
G36*
X819644Y487675D02*
X807894Y487675D01*
X807894Y491875D01*
X819644Y491875D01*
X819644Y487675D01*
G37*
G36*
X819644Y491875D02*
X831394Y491875D01*
X831394Y487675D01*
X819644Y487675D01*
X819644Y491875D01*
G37*
G54D48*
G36*
X819644Y513675D02*
X807894Y513675D01*
X807894Y517875D01*
X819644Y517875D01*
X819644Y513675D01*
G37*
G36*
X819644Y517875D02*
X831394Y517875D01*
X831394Y513675D01*
X819644Y513675D01*
X819644Y517875D01*
G37*
G54D48*
G36*
X819644Y533175D02*
X807894Y533175D01*
X807894Y537375D01*
X819644Y537375D01*
X819644Y533175D01*
G37*
G36*
X819644Y537375D02*
X831394Y537375D01*
X831394Y533175D01*
X819644Y533175D01*
X819644Y537375D01*
G37*
G54D44*
G36*
X748265Y427900D02*
X748265Y416400D01*
X744235Y416400D01*
X744235Y427900D01*
X748265Y427900D01*
G37*
G36*
X746250Y425885D02*
X736250Y425885D01*
X736250Y429915D01*
X746250Y429915D01*
X746250Y425885D01*
G37*
G36*
X744235Y427900D02*
X744235Y439400D01*
X748265Y439400D01*
X748265Y427900D01*
X744235Y427900D01*
G37*
G54D44*
G36*
X748897Y529170D02*
X748897Y517670D01*
X744867Y517670D01*
X744867Y529170D01*
X748897Y529170D01*
G37*
G36*
X744867Y529170D02*
X744867Y540670D01*
X748897Y540670D01*
X748897Y529170D01*
X744867Y529170D01*
G37*
G54D44*
G36*
X748782Y555522D02*
X748782Y544022D01*
X744752Y544023D01*
X744752Y555523D01*
X748782Y555522D01*
G37*
G36*
X744752Y555523D02*
X744752Y567023D01*
X748782Y567022D01*
X748782Y555522D01*
X744752Y555523D01*
G37*
G54D49*
G36*
X670833Y582638D02*
X670833Y595638D01*
X677167Y595638D01*
X677167Y582638D01*
X670833Y582638D01*
G37*
G36*
X674000Y579471D02*
X661000Y579471D01*
X661000Y585805D01*
X674000Y585805D01*
X674000Y579471D01*
G37*
G54D50*
G36*
X919100Y122950D02*
X929150Y122950D01*
X929150Y116450D01*
X919100Y116450D01*
X919100Y122950D01*
G37*
G36*
X919100Y116450D02*
X909050Y116450D01*
X909050Y122950D01*
X919100Y122950D01*
X919100Y116450D01*
G37*
G54D50*
G36*
X919100Y110250D02*
X929150Y110250D01*
X929150Y103750D01*
X919100Y103750D01*
X919100Y110250D01*
G37*
G36*
X919100Y103750D02*
X909050Y103750D01*
X909050Y110250D01*
X919100Y110250D01*
X919100Y103750D01*
G37*
G54D41*
G36*
X937100Y191834D02*
X947100Y191834D01*
X947100Y188166D01*
X937100Y188166D01*
X937100Y191834D01*
G37*
G36*
X938933Y190000D02*
X938933Y179500D01*
X935266Y179500D01*
X935266Y190000D01*
X938933Y190000D01*
G37*
G54D41*
G36*
X960733Y190000D02*
X960734Y179500D01*
X957066Y179500D01*
X957066Y190000D01*
X960733Y190000D01*
G37*
G36*
X958900Y188166D02*
X948900Y188166D01*
X948900Y191833D01*
X958900Y191834D01*
X958900Y188166D01*
G37*
G54D41*
G36*
X1020666Y189700D02*
X1020666Y200200D01*
X1024333Y200200D01*
X1024333Y189700D01*
X1020666Y189700D01*
G37*
G36*
X1022500Y191534D02*
X1032500Y191534D01*
X1032500Y187866D01*
X1022500Y187866D01*
X1022500Y191534D01*
G37*
G36*
X1024333Y189700D02*
X1024333Y179200D01*
X1020666Y179200D01*
X1020666Y189700D01*
X1024333Y189700D01*
G37*
G54D49*
G36*
X948361Y169539D02*
X957553Y178732D01*
X962031Y174253D01*
X952839Y165061D01*
X948361Y169539D01*
G37*
G36*
X952839Y169539D02*
X962031Y160347D01*
X957553Y155868D01*
X948361Y165061D01*
X952839Y169539D01*
G37*
G36*
X952839Y165061D02*
X943647Y155868D01*
X939168Y160347D01*
X948361Y169539D01*
X952839Y165061D01*
G37*
G36*
X948361Y165061D02*
X939168Y174253D01*
X943647Y178732D01*
X952839Y169539D01*
X948361Y165061D01*
G37*
G54D51*
G36*
X747300Y490000D02*
X747300Y505500D01*
X751300Y505500D01*
X751300Y490000D01*
X747300Y490000D01*
G37*
G36*
X751300Y490000D02*
X751300Y474500D01*
X747300Y474500D01*
X747300Y490000D01*
X751300Y490000D01*
G37*
G36*
X749300Y488000D02*
X739800Y488000D01*
X739800Y492000D01*
X749300Y492000D01*
X749300Y488000D01*
G37*
G54D49*
G36*
X781333Y369300D02*
X781333Y382300D01*
X787667Y382300D01*
X787667Y369300D01*
X781333Y369300D01*
G37*
G36*
X784500Y372467D02*
X797500Y372467D01*
X797500Y366133D01*
X784500Y366133D01*
X784500Y372467D01*
G37*
G36*
X787667Y369300D02*
X787667Y356300D01*
X781333Y356300D01*
X781333Y369300D01*
X787667Y369300D01*
G37*
G36*
X784500Y366133D02*
X771500Y366133D01*
X771500Y372467D01*
X784500Y372467D01*
X784500Y366133D01*
G37*
G54D49*
G36*
X875733Y37400D02*
X875733Y50400D01*
X882067Y50400D01*
X882067Y37400D01*
X875733Y37400D01*
G37*
G36*
X878900Y40567D02*
X891900Y40567D01*
X891900Y34233D01*
X878900Y34233D01*
X878900Y40567D01*
G37*
G36*
X882067Y37400D02*
X882067Y24400D01*
X875733Y24400D01*
X875733Y37400D01*
X882067Y37400D01*
G37*
G36*
X878900Y34233D02*
X865900Y34233D01*
X865900Y40567D01*
X878900Y40567D01*
X878900Y34233D01*
G37*
G54D41*
G36*
X919666Y60900D02*
X919666Y71400D01*
X923334Y71400D01*
X923334Y60900D01*
X919666Y60900D01*
G37*
G36*
X921500Y62734D02*
X931500Y62734D01*
X931500Y59066D01*
X921500Y59066D01*
X921500Y62734D01*
G37*
G36*
X923334Y60900D02*
X923334Y50400D01*
X919666Y50400D01*
X919666Y60900D01*
X923334Y60900D01*
G37*
G54D41*
G36*
X795931Y255316D02*
X803355Y247891D01*
X800762Y245298D01*
X793338Y252723D01*
X795931Y255316D01*
G37*
G36*
X793338Y252723D02*
X785913Y260147D01*
X788506Y262740D01*
X795931Y255316D01*
X793338Y252723D01*
G37*
G36*
X793338Y255316D02*
X800409Y262387D01*
X803002Y259794D01*
X795931Y252723D01*
X793338Y255316D01*
G37*
G54D18*
G36*
X807407Y287917D02*
X807407Y278417D01*
X801407Y278416D01*
X801407Y287916D01*
X807407Y287917D01*
G37*
G54D18*
G36*
X797907Y287916D02*
X797907Y278416D01*
X791907Y278416D01*
X791907Y287916D01*
X797907Y287916D01*
G37*
X86500Y326500D02*
G54D52*
D03*
X124000Y326500D02*
G54D52*
D03*
X86500Y269000D02*
G54D52*
D03*
X124000Y269000D02*
G54D52*
D03*
X395799Y236989D02*
G54D53*
D03*
X302099Y236989D02*
G54D53*
D03*
X395799Y249689D02*
G54D53*
D03*
X302099Y249689D02*
G54D53*
D03*
X395799Y262389D02*
G54D53*
D03*
X302099Y262389D02*
G54D53*
D03*
X395799Y275090D02*
G54D53*
D03*
X302099Y275089D02*
G54D53*
D03*
X395799Y287790D02*
G54D53*
D03*
X302099Y287789D02*
G54D53*
D03*
X395799Y300490D02*
G54D53*
D03*
X302099Y300489D02*
G54D53*
D03*
X395799Y313190D02*
G54D53*
D03*
X302099Y313190D02*
G54D53*
D03*
X395799Y325889D02*
G54D53*
D03*
X302099Y325889D02*
G54D53*
D03*
X423378Y267058D02*
G54D54*
D03*
X423378Y250058D02*
G54D54*
D03*
X445015Y334760D02*
G54D55*
D03*
X445215Y360160D02*
G54D55*
D03*
X173115Y347460D02*
G54D55*
D03*
X401115Y374760D02*
G54D56*
D03*
X373115Y374760D02*
G54D56*
D03*
X401115Y384260D02*
G54D56*
D03*
X401115Y393760D02*
G54D56*
D03*
X373115Y393760D02*
G54D56*
D03*
X401715Y423060D02*
G54D57*
D03*
X373715Y423060D02*
G54D57*
D03*
X325315Y388460D02*
G54D57*
D03*
X297315Y388460D02*
G54D57*
D03*
G54D32*
X401115Y393760D02*
X401115Y422460D01*
X401715Y423060D01*
X386814Y352560D02*
G54D58*
D03*
X403815Y352560D02*
G54D58*
D03*
G54D32*
X373115Y374760D02*
X373115Y355260D01*
X375715Y352660D01*
X386715Y352660D01*
X386815Y352560D01*
G36*
X330315Y432660D02*
X330314Y422660D01*
X325314Y417660D01*
X320315Y422660D01*
X320315Y432660D01*
X330315Y432660D01*
G37*
G36*
X330314Y419660D02*
X325314Y414660D01*
X320315Y419660D01*
X320315Y406660D01*
X330315Y406660D01*
X330314Y419660D01*
G37*
G54D32*
X325315Y387060D02*
X325314Y410660D01*
G54D32*
X373115Y393760D02*
X343514Y393760D01*
X336914Y387160D01*
X325415Y387160D01*
X325315Y387060D01*
G36*
X282839Y173391D02*
X270818Y161369D01*
X266929Y165258D01*
X278949Y177280D01*
X282839Y173391D01*
G37*
G36*
X277182Y179047D02*
X265162Y167026D01*
X261273Y170915D01*
X273293Y182936D01*
X277182Y179047D01*
G37*
G36*
X271525Y184704D02*
X259505Y172683D01*
X255616Y176572D01*
X267636Y188593D01*
X271525Y184704D01*
G37*
G36*
X265869Y190362D02*
X253848Y178340D01*
X249959Y182229D01*
X261979Y194250D01*
X265869Y190362D01*
G37*
G36*
X260212Y196019D02*
X248192Y183997D01*
X244302Y187886D01*
X256322Y199908D01*
X260212Y196019D01*
G37*
G36*
X254554Y201676D02*
X242534Y189654D01*
X238644Y193543D01*
X250665Y205564D01*
X254554Y201676D01*
G37*
G36*
X248897Y207332D02*
X236876Y195312D01*
X232987Y199201D01*
X245008Y211221D01*
X248897Y207332D01*
G37*
G36*
X243242Y212989D02*
X231219Y200969D01*
X227331Y204859D01*
X239353Y216878D01*
X243242Y212989D01*
G37*
G36*
X183847Y153592D02*
X171827Y141570D01*
X167938Y145459D01*
X179958Y157481D01*
X183847Y153592D01*
G37*
G36*
X189505Y147934D02*
X177483Y135913D01*
X173594Y139803D01*
X185616Y151823D01*
X189505Y147934D01*
G37*
G36*
X195162Y142277D02*
X183141Y130257D01*
X179252Y134146D01*
X191273Y146167D01*
X195162Y142277D01*
G37*
G36*
X200818Y136621D02*
X188797Y124600D01*
X184908Y128489D01*
X196928Y140510D01*
X200818Y136621D01*
G37*
G36*
X206475Y130963D02*
X194454Y118942D01*
X190565Y122832D01*
X202586Y134852D01*
X206475Y130963D01*
G37*
G36*
X212132Y125306D02*
X200111Y113286D01*
X196222Y117175D01*
X208243Y129196D01*
X212132Y125306D01*
G37*
G36*
X217788Y119650D02*
X205767Y107629D01*
X201878Y111518D01*
X213899Y123539D01*
X217788Y119650D01*
G37*
G36*
X223444Y113992D02*
X211423Y101971D01*
X207534Y105860D01*
X219555Y117881D01*
X223444Y113992D01*
G37*
G36*
X270819Y157480D02*
X282840Y145459D01*
X278950Y141570D01*
X266930Y153591D01*
X270819Y157480D01*
G37*
G36*
X265162Y151823D02*
X277183Y139803D01*
X273294Y135914D01*
X261273Y147934D01*
X265162Y151823D01*
G37*
G36*
X259506Y146167D02*
X271526Y134146D01*
X267637Y130257D01*
X255617Y142278D01*
X259506Y146167D01*
G37*
G36*
X253849Y140510D02*
X265870Y128489D01*
X261981Y124600D01*
X249960Y136621D01*
X253849Y140510D01*
G37*
G36*
X248191Y134852D02*
X260213Y122831D01*
X256324Y118942D01*
X244302Y130963D01*
X248191Y134852D01*
G37*
G36*
X242535Y129195D02*
X254556Y117174D01*
X250667Y113285D01*
X238646Y125306D01*
X242535Y129195D01*
G37*
G36*
X236878Y123537D02*
X248899Y111516D01*
X245010Y107627D01*
X232989Y119648D01*
X236878Y123537D01*
G37*
G36*
X231221Y117880D02*
X243242Y105860D01*
X239353Y101971D01*
X227332Y113991D01*
X231221Y117880D01*
G37*
G36*
X211422Y216879D02*
X223443Y204858D01*
X219554Y200969D01*
X207533Y212990D01*
X211422Y216879D01*
G37*
G36*
X205766Y211223D02*
X217786Y199201D01*
X213897Y195313D01*
X201877Y207334D01*
X205766Y211223D01*
G37*
G36*
X200110Y205566D02*
X212130Y193545D01*
X208241Y189656D01*
X196221Y201677D01*
X200110Y205566D01*
G37*
G36*
X194453Y199909D02*
X206474Y187888D01*
X202584Y183999D01*
X190564Y196020D01*
X194453Y199909D01*
G37*
G36*
X188797Y194251D02*
X200818Y182230D01*
X196929Y178341D01*
X184908Y190362D01*
X188797Y194251D01*
G37*
G36*
X183141Y188593D02*
X195162Y176572D01*
X191273Y172683D01*
X179252Y184704D01*
X183141Y188593D01*
G37*
G36*
X177483Y182936D02*
X189504Y170916D01*
X185615Y167026D01*
X173594Y179047D01*
X177483Y182936D01*
G37*
G36*
X171826Y177279D02*
X183847Y165259D01*
X179959Y161369D01*
X167937Y173389D01*
X171826Y177279D01*
G37*
G36*
X258986Y108363D02*
X268179Y117555D01*
X279492Y106241D01*
X270300Y97049D01*
X258986Y108363D01*
G37*
G36*
X272420Y121796D02*
X281612Y130989D01*
X292926Y119676D01*
X283734Y110483D01*
X272420Y121796D01*
G37*
G36*
X161982Y202880D02*
X171175Y212072D01*
X182488Y200757D01*
X173296Y191565D01*
X161982Y202880D01*
G37*
G36*
X175419Y216314D02*
X184611Y225506D01*
X195925Y214192D01*
X186732Y205000D01*
X175419Y216314D01*
G37*
G54D32*
X198517Y191951D02*
X191749Y198718D01*
X185702Y198718D01*
X180045Y193061D01*
X180045Y188112D01*
X187203Y180954D01*
X187203Y180637D01*
G54D32*
X241052Y116182D02*
X247819Y109415D01*
X253866Y109415D01*
X259523Y115072D01*
X259523Y120022D01*
X252366Y127179D01*
X252365Y127496D01*
G54D33*
X225477Y202430D02*
X225387Y201814D01*
X225386Y208922D01*
G54D32*
X187203Y180637D02*
X214941Y152899D01*
X214941Y141549D01*
X240906Y115583D01*
X240943Y115583D01*
G54D32*
X185671Y215249D02*
X203312Y197608D01*
X204173Y197608D01*
G54D32*
X182530Y195649D02*
X176364Y201815D01*
X172236Y201815D01*
X153820Y42045D02*
G54D59*
D03*
X153820Y61045D02*
G54D59*
D03*
X132134Y168311D02*
G54D60*
D03*
X146034Y168310D02*
G54D60*
D03*
X132134Y179311D02*
G54D60*
D03*
X146034Y179311D02*
G54D60*
D03*
X145573Y152198D02*
G54D60*
D03*
X132574Y152198D02*
G54D60*
D03*
X145642Y195826D02*
G54D60*
D03*
X132643Y195827D02*
G54D60*
D03*
G54D32*
X146048Y179304D02*
X146048Y195421D01*
X145643Y195827D01*
X199426Y44880D02*
G54D61*
D03*
X224826Y44880D02*
G54D61*
D03*
X250226Y44880D02*
G54D61*
D03*
X199426Y70280D02*
G54D61*
D03*
X224826Y70280D02*
G54D61*
D03*
G54D32*
X250226Y70280D02*
X226679Y93827D01*
X226679Y98429D01*
X215487Y109621D01*
X215487Y109927D01*
G54D32*
X224684Y70139D02*
X237548Y57276D01*
X260479Y57276D01*
X264014Y60811D01*
X264014Y81317D01*
X235546Y109785D01*
X235145Y109785D01*
G54D32*
X209830Y115583D02*
X199950Y105704D01*
X199950Y98995D01*
X212325Y86620D01*
X212325Y57912D01*
X224826Y45411D01*
X224826Y44880D01*
G54D32*
X240943Y115583D02*
X271651Y84875D01*
X271651Y53740D01*
X262792Y44880D01*
X250226Y44880D01*
G54D32*
X269239Y107302D02*
X262766Y107302D01*
X257539Y112529D01*
G54D32*
X132134Y168311D02*
X132134Y161434D01*
X133239Y160329D01*
X166897Y160329D01*
X175892Y169324D01*
G54D32*
X145573Y152198D02*
X145573Y159695D01*
X145339Y159929D01*
G54D32*
X181549Y174981D02*
X181387Y174981D01*
X171939Y184429D01*
X158139Y184429D01*
X153039Y179329D01*
X146052Y179329D01*
X146034Y179311D01*
G54D32*
X250226Y44880D02*
X250226Y33316D01*
X244839Y27929D01*
X217339Y27929D01*
X212239Y33029D01*
X212239Y49929D01*
X204739Y57429D01*
X186439Y57429D01*
X170439Y41429D01*
X154436Y41429D01*
X153820Y42045D01*
X299643Y470275D02*
G54D62*
D03*
X299644Y476775D02*
G54D62*
D03*
X299644Y483275D02*
G54D62*
D03*
X299644Y489775D02*
G54D62*
D03*
X299644Y496275D02*
G54D62*
D03*
X299644Y502775D02*
G54D62*
D03*
X299644Y509275D02*
G54D62*
D03*
X299644Y515775D02*
G54D62*
D03*
X299644Y522275D02*
G54D62*
D03*
X299644Y528775D02*
G54D62*
D03*
X299644Y535275D02*
G54D62*
D03*
X299644Y541775D02*
G54D62*
D03*
X299644Y548275D02*
G54D62*
D03*
X299644Y554775D02*
G54D62*
D03*
X229644Y470275D02*
G54D62*
D03*
X229644Y476775D02*
G54D62*
D03*
X229644Y483275D02*
G54D62*
D03*
X229644Y489775D02*
G54D62*
D03*
X229644Y496275D02*
G54D62*
D03*
X229644Y502775D02*
G54D62*
D03*
X229644Y509275D02*
G54D62*
D03*
X229644Y515775D02*
G54D62*
D03*
X229644Y522275D02*
G54D62*
D03*
X229644Y528775D02*
G54D62*
D03*
X229644Y535275D02*
G54D62*
D03*
X229644Y541775D02*
G54D62*
D03*
X229644Y548275D02*
G54D62*
D03*
X229644Y554775D02*
G54D62*
D03*
X175250Y427900D02*
G54D63*
D03*
X156250Y427900D02*
G54D63*
D03*
G36*
X149686Y460057D02*
X162686Y460057D01*
X162686Y444057D01*
X149686Y444057D01*
X149686Y460057D01*
G37*
X175186Y452057D02*
G54D63*
D03*
X175882Y529170D02*
G54D63*
D03*
X156882Y529170D02*
G54D63*
D03*
X175768Y555523D02*
G54D63*
D03*
X156767Y555523D02*
G54D63*
D03*
X36750Y309030D02*
G54D64*
D03*
X84000Y582638D02*
G54D64*
D03*
G54D32*
X401115Y393760D02*
X439502Y393760D01*
X444862Y388400D01*
X444862Y360512D01*
X445215Y360160D01*
X445215Y334960D01*
X445015Y334760D01*
X445015Y226352D01*
X437562Y218900D01*
X353475Y218900D01*
X348715Y223660D01*
X348715Y248873D01*
X335198Y262389D01*
X302099Y262389D01*
G54D32*
X302099Y249689D02*
X318448Y249689D01*
X320187Y247950D01*
X320187Y237255D01*
X263571Y180638D01*
G54D32*
X257914Y186295D02*
X258533Y186295D01*
X278912Y206675D01*
X278912Y232075D01*
X283675Y236838D01*
X301947Y236838D01*
X302099Y236989D01*
X57200Y263222D02*
G54D64*
D03*
X36450Y285930D02*
G54D64*
D03*
G54D32*
X175186Y452057D02*
X175186Y427964D01*
X175250Y427900D01*
G54D32*
X175882Y529170D02*
X199630Y529170D01*
X206100Y522700D01*
X229219Y522700D01*
X229644Y522275D01*
G54D32*
X175768Y555523D02*
X196877Y555523D01*
X210300Y542100D01*
X229319Y542100D01*
X229644Y541775D01*
G54D32*
X229644Y522275D02*
X251075Y522275D01*
X256800Y528000D01*
X256800Y560700D01*
X265800Y569700D01*
X310800Y569700D01*
X318000Y562500D01*
X318000Y493200D01*
X314900Y490100D01*
X299968Y490100D01*
X299644Y489775D01*
G54D32*
X395799Y249689D02*
X381085Y249690D01*
X326515Y304260D01*
X326515Y335260D01*
X321715Y340060D01*
X281240Y340060D01*
X270600Y350700D01*
X270600Y431200D01*
X285500Y446100D01*
X305000Y446100D01*
X317200Y458300D01*
X317200Y492400D01*
X318000Y493200D01*
G54D32*
X324900Y426600D02*
X324900Y450600D01*
X317200Y458300D01*
X269600Y450700D02*
G54D64*
D03*
G54D32*
X299644Y476775D02*
X310324Y476775D01*
X312000Y475100D01*
X312000Y461200D01*
X302600Y451800D01*
X270700Y451800D01*
X269600Y450700D01*
X100000Y42400D02*
G54D64*
D03*
X128323Y60818D02*
G54D65*
D03*
X128323Y41820D02*
G54D65*
D03*
G54D32*
X100000Y42400D02*
X127743Y42400D01*
X128323Y41820D01*
G54D32*
X128323Y60818D02*
X153592Y60818D01*
X153820Y61045D01*
G54D32*
X153820Y61045D02*
X174045Y61045D01*
X183100Y70100D01*
X199246Y70100D01*
X199426Y70280D01*
X270100Y243400D02*
G54D64*
D03*
G54D32*
X270100Y243400D02*
X270100Y209795D01*
X252257Y191952D01*
X170700Y87000D02*
G54D64*
D03*
X249600Y311700D02*
G54D58*
D03*
X266600Y311700D02*
G54D58*
D03*
X249900Y291500D02*
G54D58*
D03*
X266900Y291500D02*
G54D58*
D03*
G54D32*
X395799Y249689D02*
X423010Y249689D01*
X423378Y250058D01*
G54D32*
X249900Y291500D02*
X249900Y311400D01*
X249600Y311700D01*
X249600Y329700D01*
X270600Y350700D01*
G54D32*
X302099Y262389D02*
X286311Y262389D01*
X284800Y263900D01*
X284800Y307200D01*
X281100Y310900D01*
X267400Y310900D01*
X266600Y311700D01*
G54D32*
X302099Y249689D02*
X288210Y249689D01*
X275900Y262000D01*
X275900Y288700D01*
X274000Y290600D01*
X267800Y290600D01*
X266900Y291500D01*
X386000Y145100D02*
G54D66*
D03*
X386000Y132400D02*
G54D66*
D03*
X386000Y119700D02*
G54D66*
D03*
X386000Y107000D02*
G54D66*
D03*
X329100Y145100D02*
G54D66*
D03*
X329100Y132400D02*
G54D66*
D03*
X329100Y119700D02*
G54D66*
D03*
X329100Y107000D02*
G54D66*
D03*
X357400Y126100D02*
G54D67*
D03*
X357400Y126100D02*
G54D64*
D03*
G54D68*
X356700Y23400D02*
X382700Y23400D01*
G54D68*
X356200Y576200D02*
X382200Y576200D01*
X330100Y190000D02*
G54D58*
D03*
X347100Y190000D02*
G54D58*
D03*
G36*
X363400Y196000D02*
X374400Y196000D01*
X374400Y184000D01*
X363400Y184000D01*
X363400Y196000D01*
G37*
X385900Y190000D02*
G54D58*
D03*
G36*
X410000Y195700D02*
X421000Y195700D01*
X421000Y183700D01*
X410000Y183700D01*
X410000Y195700D01*
G37*
X432500Y189700D02*
G54D58*
D03*
G36*
X412400Y170600D02*
X434400Y170600D01*
X434400Y163200D01*
X412400Y163200D01*
X412400Y170600D01*
G37*
X423400Y154400D02*
G54D69*
D03*
X431400Y130900D02*
G54D70*
D03*
X431400Y130900D02*
G54D70*
D03*
X431400Y102900D02*
G54D70*
D03*
X454275Y170088D02*
G54D71*
D03*
X454275Y153087D02*
G54D71*
D03*
G54D32*
X386000Y107000D02*
X396000Y107000D01*
X402300Y113300D01*
X402300Y126200D01*
X406400Y130300D01*
X430800Y130300D01*
X431400Y130900D01*
G54D32*
X431400Y130900D02*
X447200Y130900D01*
X454100Y137800D01*
X454100Y152913D01*
X454275Y153088D01*
G54D32*
X386000Y119700D02*
X393600Y119700D01*
X396700Y122800D01*
X396700Y130400D01*
X404300Y138000D01*
X404300Y150900D01*
X407700Y154300D01*
X423300Y154300D01*
X423400Y154400D01*
X393900Y167200D02*
G54D64*
D03*
G54D32*
X423400Y154400D02*
X406700Y154400D01*
X393900Y167200D01*
G54D32*
X330100Y190000D02*
X330100Y199700D01*
X333100Y202700D01*
X413100Y202700D01*
X415300Y200500D01*
X415300Y189900D01*
X415500Y189700D01*
G54D32*
X386000Y145100D02*
X386000Y152300D01*
X378100Y160200D01*
X378100Y172900D01*
X386000Y180800D01*
X386000Y189900D01*
X385900Y190000D01*
G54D32*
X415500Y189700D02*
X415500Y182100D01*
X422600Y175000D01*
X422600Y167700D01*
X423400Y166900D01*
G54D32*
X423400Y166900D02*
X443400Y166900D01*
X446300Y169800D01*
X453987Y169800D01*
X454275Y170088D01*
X360600Y167300D02*
G54D64*
D03*
G54D32*
X386000Y132400D02*
X377800Y132400D01*
X375400Y134800D01*
X375400Y141400D01*
X371700Y145100D01*
X329100Y145100D01*
G54D33*
X225677Y110930D02*
X225586Y110314D01*
X225586Y117422D01*
G54D33*
X267925Y159342D02*
X267308Y159433D01*
X274416Y159433D01*
G54D33*
X176425Y159142D02*
X175808Y159233D01*
X182916Y159233D01*
G36*
X153300Y498490D02*
X156810Y502000D01*
X161790Y502000D01*
X165300Y498490D01*
X165300Y481510D01*
X161790Y478000D01*
X156810Y478000D01*
X153300Y481510D01*
X153300Y498490D01*
G37*
G36*
X168300Y498490D02*
X171810Y502000D01*
X176790Y502000D01*
X180300Y498490D01*
X180300Y481510D01*
X176790Y478000D01*
X171810Y478000D01*
X168300Y481510D01*
X168300Y498490D01*
G37*
G54D32*
X175882Y529170D02*
X175882Y491582D01*
X174300Y490000D01*
G54D32*
X156186Y452057D02*
X156186Y463886D01*
X160900Y468600D01*
X169200Y468600D01*
X174100Y473500D01*
X174100Y489800D01*
X174300Y490000D01*
X194500Y369300D02*
G54D64*
D03*
G54D32*
X329100Y132400D02*
X318100Y132400D01*
X309500Y123800D01*
X309500Y32800D01*
X293200Y16500D01*
X84000Y16500D01*
X72900Y27600D01*
X72900Y46533D01*
X175893Y149526D01*
X288900Y37400D02*
G54D64*
D03*
G54D32*
X269239Y107302D02*
X269239Y106860D01*
X286100Y90000D01*
X296600Y90000D01*
X301200Y94600D01*
X301200Y137900D01*
X308300Y145000D01*
X329000Y145000D01*
X329100Y145100D01*
G54D32*
X36450Y285930D02*
X45229Y285930D01*
X61600Y302300D01*
X61600Y380400D01*
X82000Y400800D01*
X104800Y400800D01*
X117700Y413700D01*
X117700Y566100D01*
X129400Y577800D01*
X184600Y577800D01*
X214200Y548200D01*
X229568Y548200D01*
X229644Y548275D01*
G54D32*
X36750Y309030D02*
X46129Y309030D01*
X53100Y316000D01*
X53100Y384400D01*
X77000Y408300D01*
X101300Y408300D01*
X110300Y417300D01*
X110300Y567700D01*
X126700Y584100D01*
X188400Y584100D01*
X217700Y554800D01*
X229619Y554800D01*
X229644Y554775D01*
G54D72*
X431400Y102900D02*
X461500Y102900D01*
X467400Y108800D01*
X467400Y530200D01*
X421200Y576400D01*
X369400Y576400D01*
X369200Y576200D01*
G54D32*
X172236Y201818D02*
X141554Y232500D01*
X87922Y232500D01*
X57200Y263222D01*
G54D32*
X175250Y427900D02*
X175250Y407350D01*
X161100Y393200D01*
X85500Y393200D01*
X70808Y378508D01*
X70808Y294408D01*
X56400Y280000D01*
X56400Y264022D01*
X57200Y263222D01*
X223000Y234300D02*
G54D64*
D03*
G54D32*
X235286Y208924D02*
X235424Y208924D01*
X243100Y216600D01*
X243100Y225300D01*
X237600Y230800D01*
X226500Y230800D01*
X223000Y234300D01*
X314500Y60900D02*
G54D58*
D03*
X331500Y60900D02*
G54D58*
D03*
X144540Y367179D02*
G54D58*
D03*
X127540Y367179D02*
G54D58*
D03*
G54D32*
X246599Y197609D02*
X259000Y210010D01*
X259000Y233900D01*
X258700Y234200D01*
X258500Y234200D01*
X236500Y256200D01*
X236500Y440400D01*
X266375Y470275D01*
X299644Y470275D01*
G54D32*
X240942Y203266D02*
X251300Y213624D01*
X251300Y230900D01*
X230700Y251500D01*
X230700Y447800D01*
X279175Y496275D01*
X299644Y496275D01*
G36*
X168946Y274850D02*
X176725Y267072D01*
X168239Y258587D01*
X160461Y266365D01*
X168946Y274850D01*
G37*
G36*
X180967Y262830D02*
X188745Y255052D01*
X180260Y246566D01*
X172482Y254344D01*
X180967Y262830D01*
G37*
G54D32*
X215488Y208924D02*
X215476Y208924D01*
X207900Y216500D01*
X207900Y221000D01*
X176200Y252600D01*
G54D32*
X124000Y326500D02*
X124000Y296600D01*
X151300Y269300D01*
X159600Y269300D01*
X167200Y261700D01*
G36*
X212766Y253666D02*
X204988Y245887D01*
X196502Y254373D01*
X204280Y262151D01*
X212766Y253666D01*
G37*
G36*
X200745Y241645D02*
X192967Y233866D01*
X184482Y242351D01*
X192260Y250130D01*
X200745Y241645D01*
G37*
X146100Y87300D02*
G54D64*
D03*
X311100Y167400D02*
G54D64*
D03*
G54D32*
X269228Y174981D02*
X269228Y175228D01*
X279100Y185100D01*
X293400Y185100D01*
X311100Y167400D01*
X336000Y167200D02*
G54D64*
D03*
G54D32*
X329100Y145100D02*
X329100Y160300D01*
X336000Y167200D01*
G54D32*
X330100Y190000D02*
X330100Y173100D01*
X336000Y167200D01*
X170500Y120600D02*
G54D64*
D03*
G54D32*
X170700Y88500D02*
X181206Y88500D01*
X199426Y70280D01*
X104700Y367800D02*
G54D64*
D03*
G54D32*
X170500Y120600D02*
X170500Y132819D01*
X181550Y143868D01*
G54D32*
X146100Y88800D02*
X146100Y102200D01*
X148700Y104800D01*
X176423Y104800D01*
X198520Y126897D01*
X144440Y348679D02*
G54D58*
D03*
X127440Y348679D02*
G54D58*
D03*
G54D32*
X104700Y367800D02*
X124518Y367800D01*
X132040Y367179D01*
X214407Y287916D02*
G54D73*
D03*
X204907Y287916D02*
G54D73*
D03*
X214407Y305917D02*
G54D73*
D03*
X204907Y305917D02*
G54D73*
D03*
G54D32*
X209832Y203268D02*
X209832Y203368D01*
X201200Y212000D01*
X201200Y217900D01*
X168000Y251100D01*
X109400Y251100D01*
X104600Y255900D01*
X104600Y343300D01*
X109900Y348600D01*
X131861Y348600D01*
X131940Y348679D01*
G54D32*
X144540Y367179D02*
X152621Y367179D01*
X155100Y364700D01*
X155100Y336200D01*
X162100Y329200D01*
X210600Y329200D01*
X214600Y325200D01*
X214600Y306110D01*
X214407Y305917D01*
G54D32*
X144440Y348679D02*
X144440Y331860D01*
X155400Y320900D01*
X202200Y320900D01*
X204900Y318200D01*
X204900Y305924D01*
X204907Y305917D01*
G36*
X242226Y78280D02*
X258226Y78280D01*
X258226Y62280D01*
X242226Y62280D01*
X242226Y78280D01*
G37*
X676500Y326500D02*
G54D52*
D03*
X714000Y326500D02*
G54D52*
D03*
X676500Y269000D02*
G54D52*
D03*
X714000Y269000D02*
G54D52*
D03*
X985799Y236989D02*
G54D53*
D03*
X892099Y236989D02*
G54D53*
D03*
X985799Y249689D02*
G54D53*
D03*
X892099Y249689D02*
G54D53*
D03*
X985799Y262389D02*
G54D53*
D03*
X892099Y262389D02*
G54D53*
D03*
X985799Y275090D02*
G54D53*
D03*
X892099Y275089D02*
G54D53*
D03*
X985799Y287790D02*
G54D53*
D03*
X892099Y287789D02*
G54D53*
D03*
X985799Y300490D02*
G54D53*
D03*
X892099Y300489D02*
G54D53*
D03*
X985799Y313190D02*
G54D53*
D03*
X892099Y313190D02*
G54D53*
D03*
X985799Y325889D02*
G54D53*
D03*
X892099Y325889D02*
G54D53*
D03*
X1013378Y267058D02*
G54D54*
D03*
X1013378Y250058D02*
G54D54*
D03*
X1035015Y334760D02*
G54D55*
D03*
X1035215Y360160D02*
G54D55*
D03*
X763115Y347460D02*
G54D55*
D03*
X991115Y374760D02*
G54D56*
D03*
X963115Y374760D02*
G54D56*
D03*
X991115Y384260D02*
G54D56*
D03*
X991115Y393760D02*
G54D56*
D03*
X963115Y393760D02*
G54D56*
D03*
X991715Y423060D02*
G54D57*
D03*
X963715Y423060D02*
G54D57*
D03*
X915315Y388460D02*
G54D57*
D03*
X887315Y388460D02*
G54D57*
D03*
G54D32*
X991115Y393760D02*
X991115Y422460D01*
X991715Y423060D01*
X976814Y352560D02*
G54D58*
D03*
X993815Y352560D02*
G54D58*
D03*
G54D32*
X963115Y374760D02*
X963115Y355260D01*
X965715Y352660D01*
X976715Y352660D01*
X976815Y352560D01*
G36*
X920315Y432660D02*
X920314Y422660D01*
X915314Y417660D01*
X910315Y422660D01*
X910315Y432660D01*
X920315Y432660D01*
G37*
G36*
X920314Y419660D02*
X915314Y414660D01*
X910315Y419660D01*
X910315Y406660D01*
X920315Y406660D01*
X920314Y419660D01*
G37*
G54D32*
X915315Y387060D02*
X915314Y410660D01*
G54D32*
X963115Y393760D02*
X933514Y393760D01*
X926914Y387160D01*
X915415Y387160D01*
X915315Y387060D01*
G36*
X872839Y173390D02*
X860819Y161369D01*
X856930Y165258D01*
X868950Y177279D01*
X872839Y173390D01*
G37*
G36*
X867183Y179047D02*
X855162Y167026D01*
X851273Y170915D01*
X863293Y182936D01*
X867183Y179047D01*
G37*
G36*
X861525Y184705D02*
X849505Y172683D01*
X845616Y176572D01*
X857636Y188594D01*
X861525Y184705D01*
G37*
G36*
X855868Y190362D02*
X843848Y178340D01*
X839959Y182229D01*
X851979Y194251D01*
X855868Y190362D01*
G37*
G36*
X850212Y196019D02*
X838192Y183997D01*
X834303Y187886D01*
X846323Y199907D01*
X850212Y196019D01*
G37*
G36*
X844554Y201675D02*
X832534Y189654D01*
X828645Y193543D01*
X840665Y205564D01*
X844554Y201675D01*
G37*
G36*
X838898Y207332D02*
X826876Y195312D01*
X822988Y199201D01*
X835008Y211221D01*
X838898Y207332D01*
G37*
G36*
X833242Y212988D02*
X821220Y200969D01*
X817331Y204859D01*
X829354Y216878D01*
X833242Y212988D01*
G37*
G36*
X773848Y153592D02*
X761827Y141570D01*
X757938Y145459D01*
X769959Y157481D01*
X773848Y153592D01*
G37*
G36*
X779505Y147934D02*
X767484Y135913D01*
X763595Y139802D01*
X775616Y151823D01*
X779505Y147934D01*
G37*
G36*
X785162Y142277D02*
X773141Y130257D01*
X769252Y134146D01*
X781273Y146166D01*
X785162Y142277D01*
G37*
G36*
X790818Y136621D02*
X778797Y124600D01*
X774908Y128489D01*
X786929Y140510D01*
X790818Y136621D01*
G37*
G36*
X796476Y130963D02*
X784454Y118942D01*
X780566Y122832D01*
X792587Y134852D01*
X796476Y130963D01*
G37*
G36*
X802132Y125306D02*
X790111Y113286D01*
X786222Y117175D01*
X798243Y129196D01*
X802132Y125306D01*
G37*
G36*
X807788Y119650D02*
X795768Y107629D01*
X791879Y111518D01*
X803899Y123539D01*
X807788Y119650D01*
G37*
G36*
X813444Y113992D02*
X801424Y101971D01*
X797535Y105860D01*
X809555Y117881D01*
X813444Y113992D01*
G37*
G36*
X860820Y157480D02*
X872840Y145459D01*
X868950Y141570D01*
X856930Y153591D01*
X860820Y157480D01*
G37*
G36*
X855162Y151823D02*
X867184Y139803D01*
X863295Y135914D01*
X851273Y147934D01*
X855162Y151823D01*
G37*
G36*
X849506Y146167D02*
X861527Y134146D01*
X857638Y130257D01*
X845617Y142278D01*
X849506Y146167D01*
G37*
G36*
X843849Y140510D02*
X855870Y128489D01*
X851981Y124600D01*
X839960Y136620D01*
X843849Y140510D01*
G37*
G36*
X838192Y134851D02*
X850213Y122831D01*
X846324Y118942D01*
X834303Y130962D01*
X838192Y134851D01*
G37*
G36*
X832536Y129194D02*
X844556Y117173D01*
X840667Y113284D01*
X828647Y125306D01*
X832536Y129194D01*
G37*
G36*
X826879Y123537D02*
X838899Y111516D01*
X835010Y107627D01*
X822990Y119648D01*
X826879Y123537D01*
G37*
G36*
X821222Y117880D02*
X833243Y105859D01*
X829353Y101970D01*
X817333Y113991D01*
X821222Y117880D01*
G37*
G36*
X801422Y216879D02*
X813443Y204858D01*
X809554Y200969D01*
X797533Y212990D01*
X801422Y216879D01*
G37*
G36*
X795767Y211223D02*
X807786Y199201D01*
X803897Y195312D01*
X791877Y207334D01*
X795767Y211223D01*
G37*
G36*
X790110Y205566D02*
X802131Y193545D01*
X798242Y189656D01*
X786221Y201677D01*
X790110Y205566D01*
G37*
G36*
X784453Y199909D02*
X796474Y187887D01*
X792585Y183998D01*
X780564Y196020D01*
X784453Y199909D01*
G37*
G36*
X778798Y194251D02*
X790818Y182230D01*
X786929Y178341D01*
X774908Y190362D01*
X778798Y194251D01*
G37*
G36*
X773141Y188593D02*
X785162Y176572D01*
X781273Y172683D01*
X769252Y184703D01*
X773141Y188593D01*
G37*
G36*
X767483Y182936D02*
X779504Y170916D01*
X775615Y167026D01*
X763594Y179047D01*
X767483Y182936D01*
G37*
G36*
X761826Y177279D02*
X773848Y165259D01*
X769959Y161369D01*
X757937Y173389D01*
X761826Y177279D01*
G37*
G36*
X848987Y108362D02*
X858179Y117555D01*
X869493Y106241D01*
X860300Y97049D01*
X848987Y108362D01*
G37*
G36*
X862420Y121796D02*
X871612Y130989D01*
X882926Y119675D01*
X873734Y110483D01*
X862420Y121796D01*
G37*
G36*
X751983Y202879D02*
X761175Y212071D01*
X772489Y200757D01*
X763296Y191565D01*
X751983Y202879D01*
G37*
G36*
X765419Y216314D02*
X774612Y225506D01*
X785925Y214191D01*
X776732Y205000D01*
X765419Y216314D01*
G37*
G54D32*
X788517Y191951D02*
X781749Y198718D01*
X775702Y198718D01*
X770045Y193061D01*
X770045Y188112D01*
X777203Y180954D01*
X777203Y180637D01*
G54D32*
X831052Y116182D02*
X837819Y109415D01*
X843866Y109415D01*
X849523Y115072D01*
X849523Y120022D01*
X842366Y127179D01*
X842365Y127496D01*
G54D33*
X815477Y202430D02*
X815387Y201814D01*
X815386Y208922D01*
G54D32*
X777203Y180637D02*
X804941Y152899D01*
X804941Y141549D01*
X830906Y115583D01*
X830943Y115583D01*
G54D32*
X775671Y215249D02*
X793312Y197608D01*
X794173Y197608D01*
G54D32*
X772530Y195649D02*
X766364Y201815D01*
X762236Y201815D01*
X743820Y42045D02*
G54D59*
D03*
X743820Y61045D02*
G54D59*
D03*
X722134Y168311D02*
G54D60*
D03*
X736034Y168310D02*
G54D60*
D03*
X722135Y179311D02*
G54D60*
D03*
X736034Y179311D02*
G54D60*
D03*
X735573Y152198D02*
G54D60*
D03*
X722574Y152198D02*
G54D60*
D03*
X735642Y195826D02*
G54D60*
D03*
X722643Y195827D02*
G54D60*
D03*
G54D32*
X736048Y179304D02*
X736048Y195421D01*
X735643Y195827D01*
X789426Y44880D02*
G54D61*
D03*
X814826Y44880D02*
G54D61*
D03*
X840226Y44880D02*
G54D61*
D03*
X789426Y70280D02*
G54D61*
D03*
X814826Y70280D02*
G54D61*
D03*
G54D32*
X840226Y70280D02*
X816679Y93827D01*
X816679Y98429D01*
X805487Y109621D01*
X805487Y109927D01*
G54D32*
X814684Y70139D02*
X827548Y57276D01*
X850479Y57276D01*
X854014Y60811D01*
X854014Y81317D01*
X825547Y109785D01*
X825145Y109785D01*
G54D32*
X799830Y115583D02*
X789950Y105704D01*
X789950Y98995D01*
X802325Y86620D01*
X802325Y57912D01*
X814826Y45411D01*
X814826Y44880D01*
G54D32*
X830943Y115583D02*
X861651Y84875D01*
X861651Y53740D01*
X852792Y44880D01*
X840226Y44880D01*
G54D32*
X859239Y107302D02*
X852766Y107302D01*
X847539Y112529D01*
G54D32*
X722134Y168311D02*
X722134Y161434D01*
X723239Y160329D01*
X756897Y160329D01*
X765892Y169324D01*
G54D32*
X735573Y152198D02*
X735573Y159695D01*
X735339Y159929D01*
G54D32*
X771549Y174981D02*
X771387Y174981D01*
X761939Y184429D01*
X748139Y184429D01*
X743039Y179329D01*
X736052Y179329D01*
X736034Y179311D01*
G54D32*
X840226Y44880D02*
X840226Y33316D01*
X834839Y27929D01*
X807339Y27929D01*
X802239Y33029D01*
X802239Y49929D01*
X794739Y57429D01*
X776439Y57429D01*
X760439Y41429D01*
X744436Y41429D01*
X743820Y42045D01*
X889644Y470275D02*
G54D62*
D03*
X889644Y476775D02*
G54D62*
D03*
X889644Y483275D02*
G54D62*
D03*
X889644Y489775D02*
G54D62*
D03*
X889644Y496275D02*
G54D62*
D03*
X889644Y502775D02*
G54D62*
D03*
X889644Y509275D02*
G54D62*
D03*
X889644Y515775D02*
G54D62*
D03*
X889644Y522275D02*
G54D62*
D03*
X889644Y528775D02*
G54D62*
D03*
X889644Y535275D02*
G54D62*
D03*
X889644Y541775D02*
G54D62*
D03*
X889644Y548275D02*
G54D62*
D03*
X889644Y554775D02*
G54D62*
D03*
X819644Y470275D02*
G54D62*
D03*
X819644Y476775D02*
G54D62*
D03*
X819644Y483275D02*
G54D62*
D03*
X819644Y489775D02*
G54D62*
D03*
X819644Y496275D02*
G54D62*
D03*
X819644Y502775D02*
G54D62*
D03*
X819644Y509275D02*
G54D62*
D03*
X819644Y515775D02*
G54D62*
D03*
X819644Y522275D02*
G54D62*
D03*
X819644Y528775D02*
G54D62*
D03*
X819644Y535275D02*
G54D62*
D03*
X819644Y541775D02*
G54D62*
D03*
X819644Y548275D02*
G54D62*
D03*
X819644Y554775D02*
G54D62*
D03*
X765250Y427900D02*
G54D63*
D03*
X746250Y427900D02*
G54D63*
D03*
G36*
X739686Y460057D02*
X752686Y460057D01*
X752686Y444057D01*
X739686Y444057D01*
X739686Y460057D01*
G37*
X765186Y452057D02*
G54D63*
D03*
X765882Y529170D02*
G54D63*
D03*
X746882Y529170D02*
G54D63*
D03*
X765768Y555523D02*
G54D63*
D03*
X746767Y555523D02*
G54D63*
D03*
X626750Y309030D02*
G54D64*
D03*
X674000Y582638D02*
G54D64*
D03*
G54D32*
X991115Y393760D02*
X1029502Y393760D01*
X1034862Y388400D01*
X1034862Y360512D01*
X1035215Y360160D01*
X1035215Y334960D01*
X1035015Y334760D01*
X1035015Y226352D01*
X1027562Y218900D01*
X943475Y218900D01*
X938715Y223660D01*
X938715Y248873D01*
X925198Y262389D01*
X892099Y262389D01*
G54D32*
X892099Y249689D02*
X908448Y249689D01*
X910187Y247950D01*
X910187Y237255D01*
X853571Y180638D01*
G54D32*
X847914Y186295D02*
X848533Y186295D01*
X868912Y206675D01*
X868912Y232075D01*
X873675Y236838D01*
X891947Y236838D01*
X892099Y236989D01*
X647200Y263222D02*
G54D64*
D03*
X626450Y285930D02*
G54D64*
D03*
G54D32*
X765186Y452057D02*
X765186Y427964D01*
X765250Y427900D01*
G54D32*
X765882Y529170D02*
X789630Y529170D01*
X796100Y522700D01*
X819219Y522700D01*
X819644Y522275D01*
G54D32*
X765768Y555523D02*
X786877Y555523D01*
X800300Y542100D01*
X819319Y542100D01*
X819644Y541775D01*
G54D32*
X819644Y522275D02*
X841075Y522275D01*
X846800Y528000D01*
X846800Y560700D01*
X855800Y569700D01*
X900800Y569700D01*
X908000Y562500D01*
X908000Y493200D01*
X904900Y490100D01*
X889968Y490100D01*
X889644Y489775D01*
G54D32*
X985799Y249690D02*
X971085Y249690D01*
X916515Y304260D01*
X916515Y335260D01*
X911715Y340060D01*
X871240Y340060D01*
X860600Y350700D01*
X860600Y431200D01*
X875500Y446100D01*
X895000Y446100D01*
X907200Y458300D01*
X907200Y492400D01*
X908000Y493200D01*
G54D32*
X914900Y426600D02*
X914900Y450600D01*
X907200Y458300D01*
X859600Y450700D02*
G54D64*
D03*
G54D32*
X889644Y476775D02*
X900324Y476775D01*
X902000Y475100D01*
X902000Y461200D01*
X892600Y451800D01*
X860700Y451800D01*
X859600Y450700D01*
X690000Y42400D02*
G54D64*
D03*
X718323Y60818D02*
G54D65*
D03*
X718323Y41820D02*
G54D65*
D03*
G54D32*
X690000Y42400D02*
X717743Y42400D01*
X718323Y41820D01*
G54D32*
X718323Y60818D02*
X743592Y60818D01*
X743820Y61045D01*
G54D32*
X743820Y61045D02*
X764045Y61045D01*
X773100Y70100D01*
X789246Y70100D01*
X789426Y70280D01*
X860100Y243400D02*
G54D64*
D03*
G54D32*
X860100Y243400D02*
X860100Y209795D01*
X842257Y191952D01*
X760700Y87000D02*
G54D64*
D03*
X839600Y311700D02*
G54D58*
D03*
X856600Y311700D02*
G54D58*
D03*
X839900Y291500D02*
G54D58*
D03*
X856900Y291500D02*
G54D58*
D03*
G54D32*
X985799Y249690D02*
X1013010Y249690D01*
X1013378Y250058D01*
G54D32*
X839900Y291500D02*
X839900Y311400D01*
X839600Y311700D01*
X839600Y329700D01*
X860600Y350700D01*
G54D32*
X892099Y262389D02*
X876311Y262389D01*
X874800Y263900D01*
X874800Y307200D01*
X871100Y310900D01*
X857400Y310900D01*
X856600Y311700D01*
G54D32*
X892099Y249689D02*
X878210Y249689D01*
X865900Y262000D01*
X865900Y288700D01*
X864000Y290600D01*
X857800Y290600D01*
X856900Y291500D01*
X976000Y145100D02*
G54D66*
D03*
X976000Y132400D02*
G54D66*
D03*
X976000Y119700D02*
G54D66*
D03*
X976000Y107000D02*
G54D66*
D03*
X919100Y145100D02*
G54D66*
D03*
X919100Y132400D02*
G54D66*
D03*
X919100Y119700D02*
G54D66*
D03*
X919100Y107000D02*
G54D66*
D03*
X947400Y126100D02*
G54D67*
D03*
X947400Y126100D02*
G54D64*
D03*
G54D68*
X946700Y23400D02*
X972700Y23400D01*
G54D68*
X946200Y576200D02*
X972200Y576200D01*
X920100Y190000D02*
G54D58*
D03*
X937100Y190000D02*
G54D58*
D03*
G36*
X953400Y196000D02*
X964400Y196000D01*
X964400Y184000D01*
X953400Y184000D01*
X953400Y196000D01*
G37*
X975900Y190000D02*
G54D58*
D03*
X1005500Y189700D02*
G54D58*
D03*
X1022500Y189700D02*
G54D58*
D03*
G36*
X1002400Y170600D02*
X1024400Y170600D01*
X1024400Y163200D01*
X1002400Y163200D01*
X1002400Y170600D01*
G37*
X1013400Y154400D02*
G54D69*
D03*
X1021400Y130900D02*
G54D70*
D03*
X1021400Y130900D02*
G54D70*
D03*
X1021400Y102900D02*
G54D70*
D03*
X1044275Y170088D02*
G54D71*
D03*
X1044275Y153088D02*
G54D71*
D03*
G54D32*
X976000Y107000D02*
X986000Y107000D01*
X992300Y113300D01*
X992300Y126200D01*
X996400Y130300D01*
X1020800Y130300D01*
X1021400Y130900D01*
G54D32*
X1021400Y130900D02*
X1037200Y130900D01*
X1044100Y137800D01*
X1044100Y152913D01*
X1044275Y153088D01*
G54D32*
X976000Y119700D02*
X983600Y119700D01*
X986700Y122800D01*
X986700Y130400D01*
X994300Y138000D01*
X994300Y150900D01*
X997700Y154300D01*
X1013300Y154300D01*
X1013400Y154400D01*
X983900Y167200D02*
G54D64*
D03*
G54D32*
X1013400Y154400D02*
X996700Y154400D01*
X983900Y167200D01*
G54D32*
X920100Y190000D02*
X920100Y199700D01*
X923100Y202700D01*
X1003100Y202700D01*
X1005300Y200500D01*
X1005300Y189900D01*
X1005500Y189700D01*
G54D32*
X976000Y145100D02*
X976000Y152300D01*
X968100Y160200D01*
X968100Y172900D01*
X976000Y180800D01*
X976000Y189900D01*
X975900Y190000D01*
G54D32*
X1005500Y189700D02*
X1005500Y182100D01*
X1012600Y175000D01*
X1012600Y167700D01*
X1013400Y166900D01*
G54D32*
X1013400Y166900D02*
X1033400Y166900D01*
X1036300Y169800D01*
X1043987Y169800D01*
X1044275Y170088D01*
X950600Y167300D02*
G54D64*
D03*
G54D32*
X976000Y132400D02*
X967800Y132400D01*
X965400Y134800D01*
X965400Y141400D01*
X961700Y145100D01*
X919100Y145100D01*
G54D33*
X815677Y110930D02*
X815586Y110314D01*
X815586Y117422D01*
G54D33*
X857925Y159342D02*
X857308Y159433D01*
X864416Y159433D01*
G54D33*
X766425Y159142D02*
X765808Y159233D01*
X772916Y159233D01*
G36*
X743300Y498490D02*
X746810Y502000D01*
X751790Y502000D01*
X755300Y498490D01*
X755300Y481510D01*
X751790Y478000D01*
X746810Y478000D01*
X743300Y481510D01*
X743300Y498490D01*
G37*
G36*
X758300Y498490D02*
X761810Y502000D01*
X766790Y502000D01*
X770300Y498490D01*
X770300Y481510D01*
X766790Y478000D01*
X761810Y478000D01*
X758300Y481510D01*
X758300Y498490D01*
G37*
G54D32*
X765882Y529170D02*
X765882Y491582D01*
X764300Y490000D01*
G54D32*
X746186Y452057D02*
X746186Y463886D01*
X750900Y468600D01*
X759200Y468600D01*
X764100Y473500D01*
X764100Y489800D01*
X764300Y490000D01*
X784500Y369300D02*
G54D64*
D03*
G54D32*
X919100Y132400D02*
X908100Y132400D01*
X899500Y123800D01*
X899500Y32800D01*
X883200Y16500D01*
X674000Y16500D01*
X662900Y27600D01*
X662900Y46533D01*
X765893Y149526D01*
X878900Y37400D02*
G54D64*
D03*
G54D32*
X859239Y107302D02*
X859239Y106860D01*
X876100Y90000D01*
X886600Y90000D01*
X891200Y94600D01*
X891200Y137900D01*
X898300Y145000D01*
X919000Y145000D01*
X919100Y145100D01*
G54D32*
X626450Y285930D02*
X635229Y285930D01*
X651600Y302300D01*
X651600Y380400D01*
X672000Y400800D01*
X694800Y400800D01*
X707700Y413700D01*
X707700Y566100D01*
X719400Y577800D01*
X774600Y577800D01*
X804200Y548200D01*
X819568Y548200D01*
X819644Y548275D01*
G54D32*
X626750Y309030D02*
X636129Y309030D01*
X643100Y316000D01*
X643100Y384400D01*
X667000Y408300D01*
X691300Y408300D01*
X700300Y417300D01*
X700300Y567700D01*
X716700Y584100D01*
X778400Y584100D01*
X807700Y554800D01*
X819619Y554800D01*
X819644Y554775D01*
G54D72*
X1021400Y102900D02*
X1051500Y102900D01*
X1057400Y108800D01*
X1057400Y530200D01*
X1011200Y576400D01*
X959400Y576400D01*
X959200Y576200D01*
G54D32*
X762236Y201818D02*
X731554Y232500D01*
X677922Y232500D01*
X647200Y263222D01*
G54D32*
X765250Y427900D02*
X765250Y407350D01*
X751100Y393200D01*
X675500Y393200D01*
X660808Y378508D01*
X660808Y294408D01*
X646400Y280000D01*
X646400Y264022D01*
X647200Y263222D01*
X813000Y234300D02*
G54D64*
D03*
G54D32*
X825286Y208924D02*
X825424Y208924D01*
X833100Y216600D01*
X833100Y225300D01*
X827600Y230800D01*
X816500Y230800D01*
X813000Y234300D01*
X904500Y60900D02*
G54D58*
D03*
X921500Y60900D02*
G54D58*
D03*
X734540Y367179D02*
G54D58*
D03*
X717540Y367179D02*
G54D58*
D03*
G54D32*
X836599Y197609D02*
X849000Y210010D01*
X849000Y233900D01*
X848700Y234200D01*
X848500Y234200D01*
X826500Y256200D01*
X826500Y440400D01*
X856375Y470275D01*
X889644Y470275D01*
G54D32*
X830942Y203266D02*
X841300Y213624D01*
X841300Y230900D01*
X820700Y251500D01*
X820700Y447800D01*
X869175Y496275D01*
X889644Y496275D01*
G36*
X758946Y274850D02*
X766725Y267072D01*
X758240Y258587D01*
X750461Y266365D01*
X758946Y274850D01*
G37*
G36*
X770968Y262830D02*
X778746Y255051D01*
X770260Y246566D01*
X762482Y254344D01*
X770968Y262830D01*
G37*
G54D32*
X805488Y208924D02*
X805476Y208924D01*
X797900Y216500D01*
X797900Y221000D01*
X766200Y252600D01*
G54D32*
X714000Y326500D02*
X714000Y296600D01*
X741300Y269300D01*
X749600Y269300D01*
X757200Y261700D01*
G36*
X802766Y253666D02*
X794988Y245887D01*
X786502Y254373D01*
X794281Y262151D01*
X802766Y253666D01*
G37*
G36*
X790746Y241644D02*
X782967Y233866D01*
X774482Y242352D01*
X782260Y250130D01*
X790746Y241644D01*
G37*
X736100Y87300D02*
G54D64*
D03*
X901100Y167400D02*
G54D64*
D03*
G54D32*
X859228Y174981D02*
X859228Y175228D01*
X869100Y185100D01*
X883400Y185100D01*
X901100Y167400D01*
X926000Y167200D02*
G54D64*
D03*
G54D32*
X919100Y145100D02*
X919100Y160300D01*
X926000Y167200D01*
G54D32*
X920100Y190000D02*
X920100Y173100D01*
X926000Y167200D01*
X760500Y120600D02*
G54D64*
D03*
G54D32*
X760700Y88500D02*
X771206Y88500D01*
X789426Y70280D01*
X694700Y367800D02*
G54D64*
D03*
G54D32*
X760500Y120600D02*
X760500Y132819D01*
X771550Y143868D01*
G54D32*
X736100Y88800D02*
X736100Y102200D01*
X738700Y104800D01*
X766423Y104800D01*
X788520Y126897D01*
X734440Y348679D02*
G54D58*
D03*
X717440Y348679D02*
G54D58*
D03*
G54D32*
X694700Y367800D02*
X714518Y367800D01*
X722040Y367179D01*
X804407Y287916D02*
G54D73*
D03*
X794907Y287916D02*
G54D73*
D03*
X804407Y305917D02*
G54D73*
D03*
X794907Y305917D02*
G54D73*
D03*
G54D32*
X799832Y203268D02*
X799832Y203368D01*
X791200Y212000D01*
X791200Y217900D01*
X758000Y251100D01*
X699400Y251100D01*
X694600Y255900D01*
X694600Y343300D01*
X699900Y348600D01*
X721861Y348600D01*
X721940Y348679D01*
G54D32*
X734540Y367179D02*
X742621Y367179D01*
X745100Y364700D01*
X745100Y336200D01*
X752100Y329200D01*
X800600Y329200D01*
X804600Y325200D01*
X804600Y306110D01*
X804407Y305917D01*
G54D32*
X734440Y348679D02*
X734440Y331860D01*
X745400Y320900D01*
X792200Y320900D01*
X794900Y318200D01*
X794900Y305924D01*
X794907Y305917D01*
G36*
X832226Y78280D02*
X848226Y78280D01*
X848226Y62280D01*
X832226Y62280D01*
X832226Y78280D01*
G37*
%LNAUGENFREISTANZEN*%
%LPC*%
X445015Y334760D02*
G54D74*
D03*
X445215Y360160D02*
G54D74*
D03*
X173115Y347460D02*
G54D74*
D03*
X199426Y44880D02*
G54D75*
D03*
X224826Y44880D02*
G54D75*
D03*
X250226Y44880D02*
G54D75*
D03*
X199426Y70280D02*
G54D75*
D03*
X224826Y70280D02*
G54D75*
D03*
X36750Y309030D02*
G54D76*
D03*
X84000Y582638D02*
G54D76*
D03*
X57200Y263222D02*
G54D76*
D03*
X36450Y285930D02*
G54D76*
D03*
X269600Y450700D02*
G54D76*
D03*
X100000Y42400D02*
G54D76*
D03*
X270100Y243400D02*
G54D76*
D03*
X170700Y87000D02*
G54D76*
D03*
X357400Y126100D02*
G54D76*
D03*
X369700Y23400D02*
G54D76*
D03*
X369200Y576200D02*
G54D76*
D03*
X393900Y167200D02*
G54D76*
D03*
X360600Y167300D02*
G54D76*
D03*
X159300Y490000D02*
G54D76*
D03*
X174300Y490000D02*
G54D76*
D03*
X194500Y369300D02*
G54D76*
D03*
X288900Y37400D02*
G54D76*
D03*
X223000Y234300D02*
G54D76*
D03*
X146100Y87300D02*
G54D76*
D03*
X311100Y167400D02*
G54D76*
D03*
X336000Y167200D02*
G54D76*
D03*
X170500Y120600D02*
G54D76*
D03*
X104700Y367800D02*
G54D76*
D03*
X250226Y70280D02*
G54D75*
D03*
X1035015Y334760D02*
G54D74*
D03*
X1035215Y360160D02*
G54D74*
D03*
X763115Y347460D02*
G54D74*
D03*
X789426Y44880D02*
G54D75*
D03*
X814826Y44880D02*
G54D75*
D03*
X840226Y44880D02*
G54D75*
D03*
X789426Y70280D02*
G54D75*
D03*
X814826Y70280D02*
G54D75*
D03*
X626750Y309030D02*
G54D76*
D03*
X674000Y582638D02*
G54D76*
D03*
X647200Y263222D02*
G54D76*
D03*
X626450Y285930D02*
G54D76*
D03*
X859600Y450700D02*
G54D76*
D03*
X690000Y42400D02*
G54D76*
D03*
X860100Y243400D02*
G54D76*
D03*
X760700Y87000D02*
G54D76*
D03*
X947400Y126100D02*
G54D76*
D03*
X959700Y23400D02*
G54D76*
D03*
X959200Y576200D02*
G54D76*
D03*
X983900Y167200D02*
G54D76*
D03*
X950600Y167300D02*
G54D76*
D03*
X749300Y490000D02*
G54D76*
D03*
X764300Y490000D02*
G54D76*
D03*
X784500Y369300D02*
G54D76*
D03*
X878900Y37400D02*
G54D76*
D03*
X813000Y234300D02*
G54D76*
D03*
X736100Y87300D02*
G54D76*
D03*
X901100Y167400D02*
G54D76*
D03*
X926000Y167200D02*
G54D76*
D03*
X760500Y120600D02*
G54D76*
D03*
X694700Y367800D02*
G54D76*
D03*
X840226Y70280D02*
G54D75*
D03*
M02*
