%FSLAX34Y34*%
%MOMM*%
%LNSMDMASK_TOP*%
G71*
G01*
%ADD10R,1.200X1.900*%
%ADD11R,1.880X0.430*%
%ADD12R,1.100X1.000*%
%ADD13R,1.000X0.500*%
%ADD14R,1.500X1.900*%
%ADD15R,1.000X1.100*%
%ADD16R,1.300X1.200*%
%ADD17R,0.800X0.700*%
%ADD18R,1.550X0.320*%
%ADD19R,1.200X1.500*%
%ADD20R,1.500X1.200*%
%ADD21R,1.210X0.550*%
%ADD22R,2.550X2.900*%
%ADD23R,2.100X0.640*%
%ADD24R,3.600X1.100*%
%ADD25R,0.700X0.500*%
%ADD26R,0.500X1.100*%
%LPD*%
X86500Y326500D02*
G54D10*
D03*
X124000Y326500D02*
G54D10*
D03*
X86500Y269000D02*
G54D10*
D03*
X124000Y269000D02*
G54D10*
D03*
X395799Y236989D02*
G54D11*
D03*
X302099Y236989D02*
G54D11*
D03*
X395799Y249689D02*
G54D11*
D03*
X302099Y249689D02*
G54D11*
D03*
X395799Y262389D02*
G54D11*
D03*
X302099Y262389D02*
G54D11*
D03*
X395799Y275090D02*
G54D11*
D03*
X302099Y275089D02*
G54D11*
D03*
X395799Y287790D02*
G54D11*
D03*
X302099Y287789D02*
G54D11*
D03*
X395799Y300490D02*
G54D11*
D03*
X302099Y300489D02*
G54D11*
D03*
X395799Y313190D02*
G54D11*
D03*
X302099Y313190D02*
G54D11*
D03*
X395799Y325889D02*
G54D11*
D03*
X302099Y325889D02*
G54D11*
D03*
X423378Y267058D02*
G54D12*
D03*
X423378Y250058D02*
G54D12*
D03*
X401115Y374760D02*
G54D13*
D03*
X373115Y374760D02*
G54D13*
D03*
X401115Y384260D02*
G54D13*
D03*
X401115Y393760D02*
G54D13*
D03*
X373115Y393760D02*
G54D13*
D03*
X401715Y423060D02*
G54D14*
D03*
X373715Y423060D02*
G54D14*
D03*
X325315Y388460D02*
G54D14*
D03*
X297315Y388460D02*
G54D14*
D03*
X386814Y352560D02*
G54D15*
D03*
X403815Y352560D02*
G54D15*
D03*
G36*
X282132Y173391D02*
X270818Y162076D01*
X267636Y165258D01*
X278949Y176572D01*
X282132Y173391D01*
G37*
G36*
X276475Y179047D02*
X265162Y167733D01*
X261980Y170915D01*
X273293Y182229D01*
X276475Y179047D01*
G37*
G36*
X270818Y184704D02*
X259505Y173390D01*
X256323Y176572D01*
X267636Y187886D01*
X270818Y184704D01*
G37*
G36*
X265161Y190362D02*
X253848Y179047D01*
X250666Y182229D01*
X261979Y193543D01*
X265161Y190362D01*
G37*
G36*
X259505Y196019D02*
X248192Y184704D01*
X245009Y187886D01*
X256322Y199200D01*
X259505Y196019D01*
G37*
G36*
X253847Y201676D02*
X242534Y190361D01*
X239352Y193543D01*
X250665Y204857D01*
X253847Y201676D01*
G37*
G36*
X248190Y207332D02*
X236876Y196019D01*
X233694Y199201D01*
X245008Y210514D01*
X248190Y207332D01*
G37*
G36*
X242534Y212989D02*
X231220Y201676D01*
X228038Y204859D01*
X239353Y216171D01*
X242534Y212989D01*
G37*
G36*
X183140Y153592D02*
X171827Y142278D01*
X168645Y145459D01*
X179958Y156774D01*
X183140Y153592D01*
G37*
G36*
X188797Y147934D02*
X177483Y136620D01*
X174301Y139803D01*
X185616Y151116D01*
X188797Y147934D01*
G37*
G36*
X194455Y142277D02*
X183141Y130964D01*
X179959Y134146D01*
X191273Y145460D01*
X194455Y142277D01*
G37*
G36*
X200110Y136621D02*
X188797Y125307D01*
X185615Y128489D01*
X196928Y139803D01*
X200110Y136621D01*
G37*
G36*
X205768Y130963D02*
X194454Y119650D01*
X191272Y122832D01*
X202586Y134145D01*
X205768Y130963D01*
G37*
G36*
X211425Y125306D02*
X200111Y113993D01*
X196929Y117175D01*
X208243Y128488D01*
X211425Y125306D01*
G37*
G36*
X217081Y119650D02*
X205767Y108336D01*
X202585Y111518D01*
X213899Y122832D01*
X217081Y119650D01*
G37*
G36*
X222737Y113992D02*
X211423Y102678D01*
X208241Y105860D01*
X219555Y117174D01*
X222737Y113992D01*
G37*
G36*
X270819Y156773D02*
X282132Y145459D01*
X278950Y142277D01*
X267637Y153591D01*
X270819Y156773D01*
G37*
G36*
X265162Y151116D02*
X276476Y139803D01*
X273294Y136621D01*
X261980Y147934D01*
X265162Y151116D01*
G37*
G36*
X259506Y145460D02*
X270819Y134146D01*
X267637Y130964D01*
X256324Y142278D01*
X259506Y145460D01*
G37*
G36*
X253849Y139803D02*
X265163Y128489D01*
X261981Y125307D01*
X250667Y136621D01*
X253849Y139803D01*
G37*
G36*
X248191Y134145D02*
X259505Y122831D01*
X256324Y119649D01*
X245009Y130963D01*
X248191Y134145D01*
G37*
G36*
X242535Y128488D02*
X253849Y117174D01*
X250667Y113992D01*
X239353Y125306D01*
X242535Y128488D01*
G37*
G36*
X236878Y122830D02*
X248192Y111516D01*
X245010Y108334D01*
X233696Y119648D01*
X236878Y122830D01*
G37*
G36*
X231221Y117173D02*
X242535Y105860D01*
X239353Y102678D01*
X228039Y113991D01*
X231221Y117173D01*
G37*
G36*
X211422Y216172D02*
X222736Y204858D01*
X219554Y201676D01*
X208240Y212990D01*
X211422Y216172D01*
G37*
G36*
X205766Y210516D02*
X217079Y199201D01*
X213897Y196020D01*
X202584Y207334D01*
X205766Y210516D01*
G37*
G36*
X200110Y204859D02*
X211423Y193545D01*
X208241Y190363D01*
X196928Y201677D01*
X200110Y204859D01*
G37*
G36*
X194453Y199202D02*
X205767Y187888D01*
X202584Y184706D01*
X191271Y196020D01*
X194453Y199202D01*
G37*
G36*
X188797Y193544D02*
X200111Y182230D01*
X196929Y179048D01*
X185615Y190362D01*
X188797Y193544D01*
G37*
G36*
X183141Y187886D02*
X194454Y176572D01*
X191272Y173390D01*
X179959Y184704D01*
X183141Y187886D01*
G37*
G36*
X177483Y182229D02*
X188797Y170916D01*
X185615Y167734D01*
X174301Y179047D01*
X177483Y182229D01*
G37*
G36*
X171826Y176572D02*
X183140Y165259D01*
X179959Y162077D01*
X168644Y173390D01*
X171826Y176572D01*
G37*
G36*
X259693Y108363D02*
X268179Y116848D01*
X278785Y106241D01*
X270300Y97756D01*
X259693Y108363D01*
G37*
G36*
X273127Y121796D02*
X281612Y130282D01*
X292219Y119676D01*
X283734Y111190D01*
X273127Y121796D01*
G37*
G36*
X162690Y202880D02*
X171175Y211364D01*
X181781Y200757D01*
X173296Y192272D01*
X162690Y202880D01*
G37*
G36*
X176126Y216314D02*
X184611Y224799D01*
X195218Y214192D01*
X186732Y205707D01*
X176126Y216314D01*
G37*
X153820Y42045D02*
G54D16*
D03*
X153820Y61045D02*
G54D16*
D03*
X132134Y168311D02*
G54D17*
D03*
X146034Y168310D02*
G54D17*
D03*
X132134Y179311D02*
G54D17*
D03*
X146034Y179311D02*
G54D17*
D03*
X145573Y152198D02*
G54D17*
D03*
X132574Y152198D02*
G54D17*
D03*
X145642Y195826D02*
G54D17*
D03*
X132643Y195827D02*
G54D17*
D03*
X299643Y470275D02*
G54D18*
D03*
X299644Y476775D02*
G54D18*
D03*
X299644Y483275D02*
G54D18*
D03*
X299644Y489775D02*
G54D18*
D03*
X299644Y496275D02*
G54D18*
D03*
X299644Y502775D02*
G54D18*
D03*
X299644Y509275D02*
G54D18*
D03*
X299644Y515775D02*
G54D18*
D03*
X299644Y522275D02*
G54D18*
D03*
X299644Y528775D02*
G54D18*
D03*
X299644Y535275D02*
G54D18*
D03*
X299644Y541775D02*
G54D18*
D03*
X299644Y548275D02*
G54D18*
D03*
X299644Y554775D02*
G54D18*
D03*
X229644Y470275D02*
G54D18*
D03*
X229644Y476775D02*
G54D18*
D03*
X229644Y483275D02*
G54D18*
D03*
X229644Y489775D02*
G54D18*
D03*
X229644Y496275D02*
G54D18*
D03*
X229644Y502775D02*
G54D18*
D03*
X229644Y509275D02*
G54D18*
D03*
X229644Y515775D02*
G54D18*
D03*
X229644Y522275D02*
G54D18*
D03*
X229644Y528775D02*
G54D18*
D03*
X229644Y535275D02*
G54D18*
D03*
X229644Y541775D02*
G54D18*
D03*
X229644Y548275D02*
G54D18*
D03*
X229644Y554775D02*
G54D18*
D03*
X175250Y427900D02*
G54D19*
D03*
X156250Y427900D02*
G54D19*
D03*
G36*
X150186Y459557D02*
X162186Y459557D01*
X162186Y444557D01*
X150186Y444557D01*
X150186Y459557D01*
G37*
X175186Y452057D02*
G54D19*
D03*
X175882Y529170D02*
G54D19*
D03*
X156882Y529170D02*
G54D19*
D03*
X175768Y555523D02*
G54D19*
D03*
X156767Y555523D02*
G54D19*
D03*
X128323Y60818D02*
G54D20*
D03*
X128323Y41820D02*
G54D20*
D03*
X249600Y311700D02*
G54D15*
D03*
X266600Y311700D02*
G54D15*
D03*
X249900Y291500D02*
G54D15*
D03*
X266900Y291500D02*
G54D15*
D03*
X386000Y145100D02*
G54D21*
D03*
X386000Y132400D02*
G54D21*
D03*
X386000Y119700D02*
G54D21*
D03*
X386000Y107000D02*
G54D21*
D03*
X329100Y145100D02*
G54D21*
D03*
X329100Y132400D02*
G54D21*
D03*
X329100Y119700D02*
G54D21*
D03*
X329100Y107000D02*
G54D21*
D03*
X357400Y126100D02*
G54D22*
D03*
X330100Y190000D02*
G54D15*
D03*
X347100Y190000D02*
G54D15*
D03*
G36*
X363900Y195500D02*
X373900Y195500D01*
X373900Y184500D01*
X363900Y184500D01*
X363900Y195500D01*
G37*
X385900Y190000D02*
G54D15*
D03*
G36*
X410500Y195200D02*
X420500Y195200D01*
X420500Y184200D01*
X410500Y184200D01*
X410500Y195200D01*
G37*
X432500Y189700D02*
G54D15*
D03*
G36*
X412900Y170100D02*
X433900Y170100D01*
X433900Y163700D01*
X412900Y163700D01*
X412900Y170100D01*
G37*
X423400Y154400D02*
G54D23*
D03*
X431400Y130900D02*
G54D24*
D03*
X431400Y130900D02*
G54D24*
D03*
X431400Y102900D02*
G54D24*
D03*
X454275Y170088D02*
G54D25*
D03*
X454275Y153087D02*
G54D25*
D03*
X314500Y60900D02*
G54D15*
D03*
X331500Y60900D02*
G54D15*
D03*
X144540Y367179D02*
G54D15*
D03*
X127540Y367179D02*
G54D15*
D03*
G36*
X168946Y274143D02*
X176018Y267072D01*
X168239Y259294D01*
X161168Y266365D01*
X168946Y274143D01*
G37*
G36*
X180967Y262123D02*
X188038Y255052D01*
X180260Y247273D01*
X173189Y254344D01*
X180967Y262123D01*
G37*
G36*
X212059Y253666D02*
X204988Y246595D01*
X197209Y254373D01*
X204280Y261444D01*
X212059Y253666D01*
G37*
G36*
X200038Y241645D02*
X192967Y234573D01*
X185189Y242351D01*
X192260Y249423D01*
X200038Y241645D01*
G37*
X144440Y348679D02*
G54D15*
D03*
X127440Y348679D02*
G54D15*
D03*
X214407Y287916D02*
G54D26*
D03*
X204907Y287916D02*
G54D26*
D03*
X214407Y305917D02*
G54D26*
D03*
X204907Y305917D02*
G54D26*
D03*
X676500Y326500D02*
G54D10*
D03*
X714000Y326500D02*
G54D10*
D03*
X676500Y269000D02*
G54D10*
D03*
X714000Y269000D02*
G54D10*
D03*
X985799Y236989D02*
G54D11*
D03*
X892099Y236989D02*
G54D11*
D03*
X985799Y249689D02*
G54D11*
D03*
X892099Y249689D02*
G54D11*
D03*
X985799Y262389D02*
G54D11*
D03*
X892099Y262389D02*
G54D11*
D03*
X985799Y275090D02*
G54D11*
D03*
X892099Y275089D02*
G54D11*
D03*
X985799Y287790D02*
G54D11*
D03*
X892099Y287789D02*
G54D11*
D03*
X985799Y300490D02*
G54D11*
D03*
X892099Y300489D02*
G54D11*
D03*
X985799Y313190D02*
G54D11*
D03*
X892099Y313190D02*
G54D11*
D03*
X985799Y325889D02*
G54D11*
D03*
X892099Y325889D02*
G54D11*
D03*
X1013378Y267058D02*
G54D12*
D03*
X1013378Y250058D02*
G54D12*
D03*
X991115Y374760D02*
G54D13*
D03*
X963115Y374760D02*
G54D13*
D03*
X991115Y384260D02*
G54D13*
D03*
X991115Y393760D02*
G54D13*
D03*
X963115Y393760D02*
G54D13*
D03*
X991715Y423060D02*
G54D14*
D03*
X963715Y423060D02*
G54D14*
D03*
X915315Y388460D02*
G54D14*
D03*
X887315Y388460D02*
G54D14*
D03*
X976814Y352560D02*
G54D15*
D03*
X993815Y352560D02*
G54D15*
D03*
G36*
X872132Y173390D02*
X860819Y162076D01*
X857637Y165258D01*
X868950Y176572D01*
X872132Y173390D01*
G37*
G36*
X866476Y179047D02*
X855162Y167733D01*
X851980Y170915D01*
X863293Y182229D01*
X866476Y179047D01*
G37*
G36*
X860818Y184705D02*
X849505Y173390D01*
X846323Y176572D01*
X857636Y187886D01*
X860818Y184705D01*
G37*
G36*
X855161Y190362D02*
X843848Y179047D01*
X840666Y182229D01*
X851979Y193544D01*
X855161Y190362D01*
G37*
G36*
X849505Y196019D02*
X838192Y184704D01*
X835010Y187886D01*
X846323Y199200D01*
X849505Y196019D01*
G37*
G36*
X843847Y201675D02*
X832534Y190361D01*
X829352Y193543D01*
X840665Y204857D01*
X843847Y201675D01*
G37*
G36*
X838190Y207332D02*
X826876Y196019D01*
X823695Y199201D01*
X835008Y210514D01*
X838190Y207332D01*
G37*
G36*
X832535Y212988D02*
X821220Y201676D01*
X818038Y204859D01*
X829353Y216171D01*
X832535Y212988D01*
G37*
G36*
X773141Y153592D02*
X761827Y142278D01*
X758645Y145459D01*
X769959Y156774D01*
X773141Y153592D01*
G37*
G36*
X778798Y147934D02*
X767484Y136620D01*
X764302Y139802D01*
X775616Y151116D01*
X778798Y147934D01*
G37*
G36*
X784455Y142277D02*
X773141Y130964D01*
X769959Y134146D01*
X781273Y145459D01*
X784455Y142277D01*
G37*
G36*
X790111Y136621D02*
X778797Y125307D01*
X775615Y128489D01*
X786929Y139803D01*
X790111Y136621D01*
G37*
G36*
X795769Y130963D02*
X784454Y119649D01*
X781273Y122832D01*
X792587Y134145D01*
X795769Y130963D01*
G37*
G36*
X801425Y125306D02*
X790111Y113993D01*
X786929Y117175D01*
X798243Y128488D01*
X801425Y125306D01*
G37*
G36*
X807081Y119650D02*
X795768Y108336D01*
X792586Y111518D01*
X803899Y122832D01*
X807081Y119650D01*
G37*
G36*
X812737Y113992D02*
X801424Y102678D01*
X798242Y105860D01*
X809555Y117174D01*
X812737Y113992D01*
G37*
G36*
X860820Y156773D02*
X872133Y145459D01*
X868950Y142277D01*
X857637Y153591D01*
X860820Y156773D01*
G37*
G36*
X855162Y151116D02*
X866477Y139803D01*
X863295Y136621D01*
X851981Y147934D01*
X855162Y151116D01*
G37*
G36*
X849506Y145460D02*
X860820Y134146D01*
X857638Y130964D01*
X846324Y142278D01*
X849506Y145460D01*
G37*
G36*
X843849Y139802D02*
X855163Y128489D01*
X851981Y125307D01*
X840667Y136620D01*
X843849Y139802D01*
G37*
G36*
X838192Y134144D02*
X849506Y122831D01*
X846324Y119649D01*
X835010Y130962D01*
X838192Y134144D01*
G37*
G36*
X832536Y128487D02*
X843849Y117173D01*
X840667Y113991D01*
X829354Y125306D01*
X832536Y128487D01*
G37*
G36*
X826879Y122830D02*
X838192Y111516D01*
X835010Y108334D01*
X823697Y119648D01*
X826879Y122830D01*
G37*
G36*
X821222Y117173D02*
X832536Y105859D01*
X829353Y102677D01*
X818040Y113991D01*
X821222Y117173D01*
G37*
G36*
X801422Y216172D02*
X812736Y204858D01*
X809554Y201676D01*
X798240Y212990D01*
X801422Y216172D01*
G37*
G36*
X795767Y210516D02*
X807079Y199201D01*
X803897Y196020D01*
X792584Y207334D01*
X795767Y210516D01*
G37*
G36*
X790110Y204859D02*
X801424Y193545D01*
X798241Y190363D01*
X786928Y201677D01*
X790110Y204859D01*
G37*
G36*
X784453Y199202D02*
X795767Y187887D01*
X792585Y184706D01*
X781271Y196020D01*
X784453Y199202D01*
G37*
G36*
X778798Y193544D02*
X790111Y182230D01*
X786929Y179048D01*
X775616Y190362D01*
X778798Y193544D01*
G37*
G36*
X773141Y187885D02*
X784455Y176572D01*
X781273Y173390D01*
X769959Y184703D01*
X773141Y187885D01*
G37*
G36*
X767483Y182229D02*
X778797Y170916D01*
X775615Y167734D01*
X764301Y179047D01*
X767483Y182229D01*
G37*
G36*
X761826Y176572D02*
X773141Y165259D01*
X769959Y162076D01*
X758644Y173389D01*
X761826Y176572D01*
G37*
G36*
X849694Y108362D02*
X858179Y116848D01*
X868786Y106241D01*
X860300Y97756D01*
X849694Y108362D01*
G37*
G36*
X863127Y121796D02*
X871612Y130282D01*
X882219Y119675D01*
X873734Y111190D01*
X863127Y121796D01*
G37*
G36*
X752690Y202879D02*
X761175Y211364D01*
X771782Y200757D01*
X763296Y192272D01*
X752690Y202879D01*
G37*
G36*
X766126Y216314D02*
X774612Y224799D01*
X785218Y214192D01*
X776732Y205707D01*
X766126Y216314D01*
G37*
X743820Y42045D02*
G54D16*
D03*
X743820Y61045D02*
G54D16*
D03*
X722134Y168311D02*
G54D17*
D03*
X736034Y168310D02*
G54D17*
D03*
X722135Y179311D02*
G54D17*
D03*
X736034Y179311D02*
G54D17*
D03*
X735573Y152198D02*
G54D17*
D03*
X722574Y152198D02*
G54D17*
D03*
X735642Y195826D02*
G54D17*
D03*
X722643Y195827D02*
G54D17*
D03*
X889644Y470275D02*
G54D18*
D03*
X889644Y476775D02*
G54D18*
D03*
X889644Y483275D02*
G54D18*
D03*
X889644Y489775D02*
G54D18*
D03*
X889644Y496275D02*
G54D18*
D03*
X889644Y502775D02*
G54D18*
D03*
X889644Y509275D02*
G54D18*
D03*
X889644Y515775D02*
G54D18*
D03*
X889644Y522275D02*
G54D18*
D03*
X889644Y528775D02*
G54D18*
D03*
X889644Y535275D02*
G54D18*
D03*
X889644Y541775D02*
G54D18*
D03*
X889644Y548275D02*
G54D18*
D03*
X889644Y554775D02*
G54D18*
D03*
X819644Y470275D02*
G54D18*
D03*
X819644Y476775D02*
G54D18*
D03*
X819644Y483275D02*
G54D18*
D03*
X819644Y489775D02*
G54D18*
D03*
X819644Y496275D02*
G54D18*
D03*
X819644Y502775D02*
G54D18*
D03*
X819644Y509275D02*
G54D18*
D03*
X819644Y515775D02*
G54D18*
D03*
X819644Y522275D02*
G54D18*
D03*
X819644Y528775D02*
G54D18*
D03*
X819644Y535275D02*
G54D18*
D03*
X819644Y541775D02*
G54D18*
D03*
X819644Y548275D02*
G54D18*
D03*
X819644Y554775D02*
G54D18*
D03*
X765250Y427900D02*
G54D19*
D03*
X746250Y427900D02*
G54D19*
D03*
G36*
X740186Y459557D02*
X752186Y459557D01*
X752186Y444557D01*
X740186Y444557D01*
X740186Y459557D01*
G37*
X765186Y452057D02*
G54D19*
D03*
X765882Y529170D02*
G54D19*
D03*
X746882Y529170D02*
G54D19*
D03*
X765768Y555523D02*
G54D19*
D03*
X746767Y555523D02*
G54D19*
D03*
X718323Y60818D02*
G54D20*
D03*
X718323Y41820D02*
G54D20*
D03*
X839600Y311700D02*
G54D15*
D03*
X856600Y311700D02*
G54D15*
D03*
X839900Y291500D02*
G54D15*
D03*
X856900Y291500D02*
G54D15*
D03*
X976000Y145100D02*
G54D21*
D03*
X976000Y132400D02*
G54D21*
D03*
X976000Y119700D02*
G54D21*
D03*
X976000Y107000D02*
G54D21*
D03*
X919100Y145100D02*
G54D21*
D03*
X919100Y132400D02*
G54D21*
D03*
X919100Y119700D02*
G54D21*
D03*
X919100Y107000D02*
G54D21*
D03*
X947400Y126100D02*
G54D22*
D03*
X920100Y190000D02*
G54D15*
D03*
X937100Y190000D02*
G54D15*
D03*
G36*
X953900Y195500D02*
X963900Y195500D01*
X963900Y184500D01*
X953900Y184500D01*
X953900Y195500D01*
G37*
X975900Y190000D02*
G54D15*
D03*
X1005500Y189700D02*
G54D15*
D03*
X1022500Y189700D02*
G54D15*
D03*
G36*
X1002900Y170100D02*
X1023900Y170100D01*
X1023900Y163700D01*
X1002900Y163700D01*
X1002900Y170100D01*
G37*
X1013400Y154400D02*
G54D23*
D03*
X1021400Y130900D02*
G54D24*
D03*
X1021400Y130900D02*
G54D24*
D03*
X1021400Y102900D02*
G54D24*
D03*
X1044275Y170088D02*
G54D25*
D03*
X1044275Y153088D02*
G54D25*
D03*
X904500Y60900D02*
G54D15*
D03*
X921500Y60900D02*
G54D15*
D03*
X734540Y367179D02*
G54D15*
D03*
X717540Y367179D02*
G54D15*
D03*
G36*
X758946Y274143D02*
X766018Y267072D01*
X758240Y259294D01*
X751168Y266365D01*
X758946Y274143D01*
G37*
G36*
X770968Y262122D02*
X778038Y255051D01*
X770260Y247273D01*
X763189Y254344D01*
X770968Y262122D01*
G37*
G36*
X802059Y253666D02*
X794988Y246594D01*
X787210Y254373D01*
X794281Y261444D01*
X802059Y253666D01*
G37*
G36*
X790038Y241644D02*
X782967Y234573D01*
X775189Y242352D01*
X782260Y249422D01*
X790038Y241644D01*
G37*
X734440Y348679D02*
G54D15*
D03*
X717440Y348679D02*
G54D15*
D03*
X804407Y287916D02*
G54D26*
D03*
X794907Y287916D02*
G54D26*
D03*
X804407Y305917D02*
G54D26*
D03*
X794907Y305917D02*
G54D26*
D03*
M02*
