%FSLAX34Y34*%
%MOMM*%
%LNSILK_BOTTOM*%
G71*
G01*
%ADD10C,0.250*%
%ADD11C,0.206*%
%ADD12C,0.200*%
%ADD13C,0.300*%
%ADD14C,0.150*%
%ADD15C,0.178*%
%LPD*%
G54D10*
G75*
G01X408914Y347160D02*
G03X408914Y347160I-100000J0D01*
G01*
G54D11*
X404335Y489220D02*
X404335Y500776D01*
X400001Y500776D01*
X398268Y500054D01*
X397401Y498609D01*
X397401Y497165D01*
X398268Y495720D01*
X400001Y494998D01*
X398268Y494276D01*
X397401Y492831D01*
X397401Y491387D01*
X398268Y489943D01*
X400001Y489220D01*
X404335Y489220D01*
G54D11*
X404335Y494998D02*
X400001Y494998D01*
G54D11*
X393358Y489220D02*
X389024Y500776D01*
X384691Y489220D01*
G54D11*
X391624Y493554D02*
X386424Y493554D01*
G54D11*
X377180Y489220D02*
X377180Y500776D01*
G54D11*
X380647Y500776D02*
X373713Y500776D01*
G54D11*
X369670Y496443D02*
X365336Y500776D01*
X365336Y489220D01*
G54D11*
X398002Y473286D02*
X398869Y471842D01*
X400602Y471119D01*
X402336Y471119D01*
X404069Y471842D01*
X404936Y473286D01*
X404936Y480508D01*
X404069Y481953D01*
X402336Y482675D01*
X400602Y482675D01*
X398869Y481953D01*
X398002Y480508D01*
G54D11*
X390492Y476897D02*
X387892Y475453D01*
X387025Y474008D01*
X387025Y471119D01*
G54D11*
X393959Y471119D02*
X393959Y482675D01*
X389625Y482675D01*
X387892Y481953D01*
X387025Y480508D01*
X387025Y479064D01*
X387892Y477619D01*
X389625Y476897D01*
X393959Y476897D01*
G54D11*
X371831Y471119D02*
X378765Y471119D01*
X378765Y471842D01*
X377898Y473286D01*
X372698Y477619D01*
X371831Y479064D01*
X371831Y480508D01*
X372698Y481953D01*
X374431Y482675D01*
X376165Y482675D01*
X377898Y481953D01*
X378765Y480508D01*
G54D11*
X360854Y480508D02*
X360854Y473286D01*
X361721Y471842D01*
X363454Y471119D01*
X365188Y471119D01*
X366921Y471842D01*
X367788Y473286D01*
X367788Y480508D01*
X366921Y481953D01*
X365188Y482675D01*
X363454Y482675D01*
X361721Y481953D01*
X360854Y480508D01*
G54D11*
X356811Y480508D02*
X355944Y481953D01*
X354211Y482675D01*
X352477Y482675D01*
X350744Y481953D01*
X349877Y480508D01*
X349877Y479064D01*
X350744Y477619D01*
X352477Y476897D01*
X350744Y476175D01*
X349877Y474730D01*
X349877Y473286D01*
X350744Y471842D01*
X352477Y471119D01*
X354211Y471119D01*
X355944Y471842D01*
X356811Y473286D01*
G54D11*
X338900Y471119D02*
X345834Y471119D01*
X345834Y471842D01*
X344967Y473286D01*
X339767Y477619D01*
X338900Y479064D01*
X338900Y480508D01*
X339767Y481953D01*
X341500Y482675D01*
X343234Y482675D01*
X344967Y481953D01*
X345834Y480508D01*
G54D11*
X330640Y471119D02*
X323706Y482675D01*
G54D11*
X315446Y482675D02*
X315446Y471119D01*
X309379Y471119D01*
G54D11*
X305335Y471119D02*
X305335Y482675D01*
G54D11*
X297824Y476897D02*
X295224Y475453D01*
X294357Y474008D01*
X294357Y471119D01*
G54D11*
X301291Y471119D02*
X301291Y482675D01*
X296957Y482675D01*
X295224Y481953D01*
X294357Y480508D01*
X294357Y479064D01*
X295224Y477619D01*
X296957Y476897D01*
X301291Y476897D01*
G54D11*
X283380Y471119D02*
X290314Y471119D01*
X290314Y471842D01*
X289447Y473286D01*
X284247Y477619D01*
X283380Y479064D01*
X283380Y480508D01*
X284247Y481953D01*
X285980Y482675D01*
X287714Y482675D01*
X289447Y481953D01*
X290314Y480508D01*
G54D11*
X272403Y480508D02*
X272403Y473286D01*
X273270Y471842D01*
X275003Y471119D01*
X276737Y471119D01*
X278470Y471842D01*
X279337Y473286D01*
X279337Y480508D01*
X278470Y481953D01*
X276737Y482675D01*
X275003Y482675D01*
X273270Y481953D01*
X272403Y480508D01*
G54D11*
X268360Y480508D02*
X267493Y481953D01*
X265760Y482675D01*
X264026Y482675D01*
X262293Y481953D01*
X261426Y480508D01*
X261426Y479064D01*
X262293Y477619D01*
X264026Y476897D01*
X262293Y476175D01*
X261426Y474730D01*
X261426Y473286D01*
X262293Y471842D01*
X264026Y471119D01*
X265760Y471119D01*
X267493Y471842D01*
X268360Y473286D01*
G54D11*
X250449Y471119D02*
X257383Y471119D01*
X257383Y471842D01*
X256516Y473286D01*
X251316Y477619D01*
X250449Y479064D01*
X250449Y480508D01*
X251316Y481953D01*
X253049Y482675D01*
X254783Y482675D01*
X256516Y481953D01*
X257383Y480508D01*
G54D12*
X-5750Y335092D02*
X-5750Y260092D01*
X-55750Y260092D01*
X-55750Y335092D01*
X-5750Y335092D01*
G54D11*
X20776Y328110D02*
X11387Y328111D01*
X9942Y327244D01*
X9220Y325510D01*
X9220Y323777D01*
X9942Y322044D01*
X11387Y321177D01*
G54D11*
X16442Y332154D02*
X20776Y336488D01*
X9220Y336488D01*
G54D13*
G75*
G01X187500Y490100D02*
G03X187500Y490100I-21200J0D01*
G01*
G54D11*
X207444Y471634D02*
X208311Y470189D01*
X210044Y469467D01*
X211778Y469467D01*
X213511Y470189D01*
X214378Y471634D01*
X214378Y478856D01*
X213511Y480300D01*
X211778Y481022D01*
X210044Y481022D01*
X208311Y480300D01*
X207444Y478856D01*
G54D11*
X203401Y476689D02*
X199068Y481022D01*
X199068Y469467D01*
G54D11*
X189824Y469467D02*
X189824Y481022D01*
X195024Y473800D01*
X195024Y472356D01*
X188090Y472356D01*
G54D13*
X65808Y531958D02*
X65808Y401958D01*
X-69192Y401958D01*
X-69192Y531958D01*
X65808Y531958D01*
G54D11*
X115274Y542514D02*
X105885Y542514D01*
X104441Y541648D01*
X103719Y539914D01*
X103719Y538181D01*
X104441Y536448D01*
X105885Y535581D01*
G54D11*
X103719Y553491D02*
X103719Y546558D01*
X104441Y546558D01*
X105885Y547425D01*
X110219Y552625D01*
X111663Y553491D01*
X113108Y553491D01*
X114552Y552625D01*
X115274Y550891D01*
X115274Y549158D01*
X114552Y547425D01*
X113108Y546558D01*
G54D13*
X65808Y191958D02*
X65808Y61958D01*
X-69192Y61958D01*
X-69192Y191958D01*
X65808Y191958D01*
G54D11*
X114483Y203305D02*
X105094Y203305D01*
X103650Y202439D01*
X102928Y200705D01*
X102928Y198972D01*
X103650Y197239D01*
X105094Y196372D01*
G54D11*
X112317Y207349D02*
X113761Y208216D01*
X114483Y209949D01*
X114483Y211682D01*
X113761Y213416D01*
X112317Y214282D01*
X110872Y214282D01*
X109428Y213416D01*
X108706Y211682D01*
X107983Y213416D01*
X106539Y214282D01*
X105094Y214282D01*
X103650Y213416D01*
X102928Y211682D01*
X102928Y209949D01*
X103650Y208216D01*
X105094Y207349D01*
G54D14*
X97117Y470153D02*
X139717Y470153D01*
X139717Y505753D01*
X97117Y505753D01*
X97117Y470153D01*
G54D11*
X138376Y511492D02*
X128987Y511492D01*
X127542Y512358D01*
X126820Y514092D01*
X126820Y515825D01*
X127542Y517558D01*
X128987Y518425D01*
X138376Y518425D01*
G54D14*
X133913Y447914D02*
X133913Y465914D01*
X99914Y465914D01*
X99913Y447914D01*
X133913Y447914D01*
G54D11*
X145642Y452721D02*
X144198Y455321D01*
X142753Y456188D01*
X139864Y456188D01*
G54D11*
X139864Y449254D02*
X151420Y449254D01*
X151420Y453588D01*
X150698Y455321D01*
X149253Y456188D01*
X147809Y456188D01*
X146364Y455321D01*
X145642Y453588D01*
X145642Y449254D01*
G54D14*
X133913Y426014D02*
X133913Y444014D01*
X99913Y444014D01*
X99913Y426014D01*
X133913Y426014D01*
G54D11*
X145242Y429921D02*
X143798Y432521D01*
X142353Y433388D01*
X139464Y433388D01*
G54D11*
X139464Y426454D02*
X151020Y426454D01*
X151020Y430788D01*
X150298Y432521D01*
X148853Y433388D01*
X147409Y433388D01*
X145964Y432521D01*
X145242Y430788D01*
X145242Y426454D01*
G54D14*
X97117Y130153D02*
X139717Y130153D01*
X139717Y165753D01*
X97117Y165753D01*
X97117Y130153D01*
G54D11*
X138376Y171492D02*
X128987Y171492D01*
X127542Y172358D01*
X126820Y174092D01*
X126820Y175825D01*
X127542Y177558D01*
X128987Y178425D01*
X138376Y178425D01*
G54D14*
X133913Y107914D02*
X133913Y125914D01*
X99914Y125914D01*
X99913Y107914D01*
X133913Y107914D01*
G54D11*
X145641Y112723D02*
X144197Y115323D01*
X142752Y116189D01*
X139864Y116189D01*
G54D11*
X139864Y109256D02*
X151419Y109256D01*
X151419Y113589D01*
X150697Y115323D01*
X149252Y116189D01*
X147808Y116189D01*
X146364Y115323D01*
X145641Y113589D01*
X145641Y109256D01*
G54D14*
X133913Y86014D02*
X133913Y104014D01*
X99913Y104014D01*
X99913Y86014D01*
X133913Y86014D01*
G54D11*
X106842Y65221D02*
X105398Y67821D01*
X103953Y68688D01*
X101064Y68688D01*
G54D11*
X101064Y61754D02*
X112620Y61754D01*
X112620Y66088D01*
X111898Y67821D01*
X110453Y68688D01*
X109009Y68688D01*
X107564Y67821D01*
X106842Y66088D01*
X106842Y61754D01*
G54D14*
X340568Y128000D02*
X340568Y146000D01*
X306568Y146000D01*
X306568Y128000D01*
X340568Y128000D01*
G54D11*
X332951Y116128D02*
X330351Y114683D01*
X329485Y113239D01*
X329485Y110350D01*
G54D11*
X336418Y110350D02*
X336418Y121906D01*
X332084Y121906D01*
X330351Y121183D01*
X329485Y119739D01*
X329484Y118294D01*
X330351Y116850D01*
X332084Y116128D01*
X336418Y116128D01*
G54D15*
X446886Y171106D02*
X441552Y176439D01*
X441552Y162217D01*
G54D15*
X437642Y176439D02*
X437642Y162217D01*
X432308Y171106D01*
X426975Y162217D01*
X426975Y176439D01*
G54D15*
X423064Y162217D02*
X423064Y170217D01*
G54D15*
X423064Y172884D02*
X423064Y172884D01*
G54D15*
X419152Y162217D02*
X419152Y170217D01*
G54D15*
X419152Y168439D02*
X417019Y170217D01*
X414886Y170217D01*
G54D15*
X404574Y163106D02*
X406281Y162217D01*
X408414Y162217D01*
X410548Y163106D01*
X410974Y164884D01*
X410974Y167906D01*
X409908Y169684D01*
X407774Y170217D01*
X405641Y169684D01*
X404574Y168439D01*
X404574Y166661D01*
X410974Y166661D01*
G54D14*
X71926Y366967D02*
X25126Y366967D01*
X25126Y346767D01*
X71926Y346767D01*
X71926Y366967D01*
G54D14*
X73926Y366967D02*
X73926Y346967D01*
G54D11*
X12848Y367000D02*
X1293Y367000D01*
X1293Y362667D01*
X2015Y360934D01*
X3459Y360067D01*
X10682Y360067D01*
X12126Y360934D01*
X12848Y362667D01*
X12848Y367000D01*
G54D11*
X5626Y356024D02*
X1293Y351690D01*
X12848Y351690D01*
G54D14*
X69508Y223612D02*
X95508Y223612D01*
X95508Y273612D01*
X69508Y273612D01*
X69508Y223612D01*
G54D11*
X109293Y270422D02*
X108426Y271866D01*
X106693Y272589D01*
X104959Y272589D01*
X103226Y271866D01*
X102359Y270422D01*
X102359Y263200D01*
X103226Y261755D01*
X104959Y261033D01*
X106693Y261033D01*
X108426Y261755D01*
X109293Y263200D01*
G54D11*
X120270Y272589D02*
X113336Y272589D01*
X113336Y271866D01*
X114203Y270422D01*
X119403Y266089D01*
X120270Y264644D01*
X120270Y263200D01*
X119403Y261755D01*
X117670Y261033D01*
X115936Y261033D01*
X114203Y261755D01*
X113336Y263200D01*
G54D11*
X129513Y272589D02*
X129513Y261033D01*
X124313Y268255D01*
X124313Y269700D01*
X131247Y269700D01*
G54D10*
G75*
G01X998915Y347160D02*
G03X998915Y347160I-100000J0D01*
G01*
G54D11*
X994335Y489220D02*
X994335Y500776D01*
X990001Y500776D01*
X988268Y500054D01*
X987401Y498609D01*
X987401Y497165D01*
X988268Y495720D01*
X990001Y494998D01*
X988268Y494276D01*
X987401Y492831D01*
X987401Y491387D01*
X988268Y489943D01*
X990001Y489220D01*
X994335Y489220D01*
G54D11*
X994335Y494998D02*
X990001Y494998D01*
G54D11*
X983358Y489220D02*
X979024Y500776D01*
X974691Y489220D01*
G54D11*
X981624Y493554D02*
X976424Y493554D01*
G54D11*
X967180Y489220D02*
X967180Y500776D01*
G54D11*
X970647Y500776D02*
X963713Y500776D01*
G54D11*
X959670Y496443D02*
X955336Y500776D01*
X955336Y489220D01*
G54D11*
X988002Y473286D02*
X988869Y471842D01*
X990602Y471119D01*
X992336Y471119D01*
X994069Y471842D01*
X994936Y473286D01*
X994936Y480508D01*
X994069Y481953D01*
X992336Y482675D01*
X990602Y482675D01*
X988869Y481953D01*
X988002Y480508D01*
G54D11*
X980492Y476897D02*
X977892Y475453D01*
X977026Y474008D01*
X977025Y471119D01*
G54D11*
X983959Y471119D02*
X983959Y482675D01*
X979626Y482675D01*
X977892Y481953D01*
X977026Y480508D01*
X977026Y479064D01*
X977892Y477619D01*
X979625Y476897D01*
X983959Y476897D01*
G54D11*
X961831Y471119D02*
X968765Y471119D01*
X968765Y471842D01*
X967898Y473286D01*
X962698Y477619D01*
X961832Y479064D01*
X961832Y480508D01*
X962698Y481953D01*
X964432Y482675D01*
X966165Y482675D01*
X967898Y481953D01*
X968765Y480508D01*
G54D11*
X950854Y480508D02*
X950854Y473286D01*
X951721Y471842D01*
X953454Y471119D01*
X955188Y471119D01*
X956921Y471842D01*
X957788Y473286D01*
X957788Y480508D01*
X956921Y481953D01*
X955188Y482675D01*
X953454Y482675D01*
X951721Y481953D01*
X950854Y480508D01*
G54D11*
X946811Y480508D02*
X945944Y481953D01*
X944211Y482675D01*
X942478Y482675D01*
X940744Y481953D01*
X939878Y480508D01*
X939878Y479064D01*
X940744Y477619D01*
X942477Y476897D01*
X940744Y476175D01*
X939878Y474730D01*
X939878Y473286D01*
X940744Y471842D01*
X942477Y471119D01*
X944211Y471119D01*
X945944Y471842D01*
X946811Y473286D01*
G54D11*
X928900Y471119D02*
X935834Y471119D01*
X935834Y471842D01*
X934967Y473286D01*
X929767Y477619D01*
X928900Y479064D01*
X928900Y480508D01*
X929767Y481953D01*
X931500Y482675D01*
X933234Y482675D01*
X934967Y481953D01*
X935834Y480508D01*
G54D11*
X920640Y471119D02*
X913706Y482675D01*
G54D11*
X905446Y482675D02*
X905446Y471119D01*
X899379Y471119D01*
G54D11*
X895335Y471119D02*
X895335Y482675D01*
G54D11*
X887824Y476897D02*
X885224Y475453D01*
X884357Y474008D01*
X884357Y471119D01*
G54D11*
X891291Y471119D02*
X891291Y482675D01*
X886957Y482675D01*
X885224Y481953D01*
X884357Y480508D01*
X884357Y479064D01*
X885224Y477619D01*
X886957Y476897D01*
X891291Y476897D01*
G54D11*
X873380Y471119D02*
X880314Y471119D01*
X880314Y471842D01*
X879447Y473286D01*
X874247Y477619D01*
X873380Y479064D01*
X873380Y480508D01*
X874247Y481953D01*
X875980Y482675D01*
X877714Y482675D01*
X879447Y481953D01*
X880314Y480508D01*
G54D11*
X862403Y480508D02*
X862403Y473286D01*
X863270Y471842D01*
X865003Y471119D01*
X866737Y471119D01*
X868470Y471842D01*
X869337Y473286D01*
X869337Y480508D01*
X868470Y481953D01*
X866737Y482675D01*
X865003Y482675D01*
X863270Y481953D01*
X862403Y480508D01*
G54D11*
X858360Y480508D02*
X857493Y481953D01*
X855760Y482675D01*
X854026Y482675D01*
X852293Y481953D01*
X851426Y480508D01*
X851426Y479064D01*
X852293Y477619D01*
X854026Y476897D01*
X852293Y476175D01*
X851426Y474730D01*
X851426Y473286D01*
X852293Y471842D01*
X854026Y471119D01*
X855760Y471119D01*
X857493Y471842D01*
X858360Y473286D01*
G54D11*
X840449Y471119D02*
X847383Y471119D01*
X847383Y471842D01*
X846516Y473286D01*
X841316Y477619D01*
X840449Y479064D01*
X840449Y480508D01*
X841316Y481953D01*
X843049Y482675D01*
X844783Y482675D01*
X846516Y481953D01*
X847383Y480508D01*
G54D12*
X584250Y335092D02*
X584250Y260092D01*
X534250Y260092D01*
X534250Y335092D01*
X584250Y335092D01*
G54D11*
X610776Y328110D02*
X601387Y328111D01*
X599942Y327244D01*
X599220Y325510D01*
X599220Y323777D01*
X599942Y322044D01*
X601387Y321177D01*
G54D11*
X606442Y332154D02*
X610776Y336488D01*
X599220Y336488D01*
G54D13*
G75*
G01X777500Y490100D02*
G03X777500Y490100I-21200J0D01*
G01*
G54D11*
X797444Y471634D02*
X798311Y470189D01*
X800044Y469467D01*
X801778Y469467D01*
X803511Y470189D01*
X804378Y471634D01*
X804378Y478856D01*
X803511Y480300D01*
X801778Y481022D01*
X800044Y481022D01*
X798311Y480300D01*
X797444Y478856D01*
G54D11*
X793401Y476689D02*
X789068Y481022D01*
X789068Y469467D01*
G54D11*
X779824Y469467D02*
X779824Y481022D01*
X785024Y473800D01*
X785024Y472356D01*
X778090Y472356D01*
G54D13*
X655808Y531958D02*
X655808Y401958D01*
X520808Y401958D01*
X520808Y531958D01*
X655808Y531958D01*
G54D11*
X705274Y542514D02*
X695885Y542514D01*
X694441Y541648D01*
X693719Y539914D01*
X693719Y538181D01*
X694441Y536448D01*
X695885Y535581D01*
G54D11*
X693719Y553491D02*
X693719Y546558D01*
X694441Y546558D01*
X695885Y547425D01*
X700219Y552625D01*
X701663Y553491D01*
X703108Y553491D01*
X704552Y552625D01*
X705274Y550891D01*
X705274Y549158D01*
X704552Y547425D01*
X703108Y546558D01*
G54D13*
X655808Y191958D02*
X655808Y61958D01*
X520808Y61958D01*
X520808Y191958D01*
X655808Y191958D01*
G54D11*
X704483Y203305D02*
X695094Y203305D01*
X693650Y202439D01*
X692928Y200705D01*
X692928Y198972D01*
X693650Y197239D01*
X695094Y196372D01*
G54D11*
X702317Y207349D02*
X703761Y208216D01*
X704483Y209949D01*
X704483Y211682D01*
X703761Y213416D01*
X702317Y214282D01*
X700872Y214282D01*
X699428Y213416D01*
X698706Y211682D01*
X697983Y213416D01*
X696539Y214282D01*
X695094Y214282D01*
X693650Y213416D01*
X692928Y211682D01*
X692928Y209949D01*
X693650Y208216D01*
X695094Y207349D01*
G54D14*
X687117Y470153D02*
X729717Y470153D01*
X729717Y505753D01*
X687117Y505753D01*
X687117Y470153D01*
G54D11*
X728376Y511492D02*
X718987Y511492D01*
X717542Y512358D01*
X716820Y514092D01*
X716820Y515825D01*
X717542Y517558D01*
X718987Y518425D01*
X728376Y518425D01*
G54D14*
X723913Y447914D02*
X723913Y465914D01*
X689914Y465914D01*
X689913Y447914D01*
X723913Y447914D01*
G54D11*
X735642Y452721D02*
X734198Y455321D01*
X732753Y456188D01*
X729864Y456188D01*
G54D11*
X729864Y449254D02*
X741420Y449254D01*
X741420Y453588D01*
X740698Y455321D01*
X739253Y456188D01*
X737809Y456188D01*
X736364Y455321D01*
X735642Y453588D01*
X735642Y449254D01*
G54D14*
X723913Y426014D02*
X723913Y444014D01*
X689913Y444014D01*
X689913Y426014D01*
X723913Y426014D01*
G54D11*
X735242Y429921D02*
X733798Y432521D01*
X732353Y433388D01*
X729464Y433388D01*
G54D11*
X729464Y426454D02*
X741020Y426454D01*
X741020Y430788D01*
X740298Y432521D01*
X738853Y433388D01*
X737409Y433388D01*
X735964Y432521D01*
X735242Y430788D01*
X735242Y426454D01*
G54D14*
X687117Y130153D02*
X729717Y130153D01*
X729717Y165753D01*
X687117Y165753D01*
X687117Y130153D01*
G54D11*
X728376Y171492D02*
X718987Y171492D01*
X717542Y172358D01*
X716820Y174092D01*
X716820Y175825D01*
X717542Y177558D01*
X718987Y178425D01*
X728376Y178425D01*
G54D14*
X723913Y107914D02*
X723913Y125914D01*
X689914Y125914D01*
X689913Y107914D01*
X723913Y107914D01*
G54D11*
X735641Y112723D02*
X734197Y115323D01*
X732752Y116189D01*
X729864Y116189D01*
G54D11*
X729864Y109256D02*
X741419Y109256D01*
X741419Y113589D01*
X740697Y115323D01*
X739252Y116189D01*
X737808Y116189D01*
X736364Y115323D01*
X735641Y113589D01*
X735641Y109256D01*
G54D14*
X723913Y86014D02*
X723913Y104014D01*
X689913Y104014D01*
X689913Y86014D01*
X723913Y86014D01*
G54D11*
X696842Y65221D02*
X695398Y67821D01*
X693953Y68688D01*
X691064Y68688D01*
G54D11*
X691064Y61754D02*
X702620Y61754D01*
X702620Y66088D01*
X701898Y67821D01*
X700453Y68688D01*
X699009Y68688D01*
X697564Y67821D01*
X696842Y66088D01*
X696842Y61754D01*
G54D14*
X930568Y128000D02*
X930568Y146000D01*
X896568Y146000D01*
X896568Y128000D01*
X930568Y128000D01*
G54D11*
X922951Y116128D02*
X920351Y114683D01*
X919485Y113239D01*
X919485Y110350D01*
G54D11*
X926418Y110350D02*
X926418Y121906D01*
X922084Y121906D01*
X920351Y121183D01*
X919485Y119739D01*
X919484Y118294D01*
X920351Y116850D01*
X922084Y116128D01*
X926418Y116128D01*
G54D14*
X661926Y366967D02*
X615126Y366967D01*
X615126Y346767D01*
X661926Y346767D01*
X661926Y366967D01*
G54D14*
X663926Y366967D02*
X663926Y346967D01*
G54D11*
X602848Y367000D02*
X591293Y367000D01*
X591293Y362667D01*
X592015Y360934D01*
X593459Y360067D01*
X600682Y360067D01*
X602126Y360934D01*
X602848Y362667D01*
X602848Y367000D01*
G54D11*
X595626Y356024D02*
X591293Y351690D01*
X602848Y351690D01*
G54D14*
X659508Y223612D02*
X685508Y223612D01*
X685508Y273612D01*
X659508Y273612D01*
X659508Y223612D01*
G54D11*
X699293Y270422D02*
X698426Y271866D01*
X696693Y272589D01*
X694959Y272589D01*
X693226Y271866D01*
X692359Y270422D01*
X692359Y263200D01*
X693226Y261755D01*
X694959Y261033D01*
X696693Y261033D01*
X698426Y261755D01*
X699293Y263200D01*
G54D11*
X710270Y272589D02*
X703336Y272589D01*
X703336Y271866D01*
X704203Y270422D01*
X709403Y266089D01*
X710270Y264644D01*
X710270Y263200D01*
X709403Y261755D01*
X707670Y261033D01*
X705936Y261033D01*
X704203Y261755D01*
X703336Y263200D01*
G54D11*
X719513Y272589D02*
X719513Y261033D01*
X714313Y268255D01*
X714313Y269700D01*
X721247Y269700D01*
M02*
