%FSLAX34Y34*%
%MOMM*%
%LNSMDMASK_BOTTOM*%
G71*
G01*
%ADD10R,1.900X0.300*%
%ADD11R,1.500X2.000*%
%ADD12R,1.800X1.800*%
%ADD13R,1.800X1.700*%
%ADD14R,2.900X1.100*%
%ADD15R,5.300X2.900*%
%ADD16R,1.120X0.920*%
%ADD17R,1.000X1.100*%
%ADD18R,1.400X2.400*%
%ADD19R,2.100X1.300*%
%ADD20R,0.800X1.300*%
%ADD21R,1.900X1.500*%
%LPD*%
X-5250Y291092D02*
G54D10*
D03*
X-5250Y297592D02*
G54D10*
D03*
X-5250Y304092D02*
G54D10*
D03*
X-5250Y310592D02*
G54D10*
D03*
X-5250Y284592D02*
G54D10*
D03*
X-7150Y328592D02*
G54D11*
D03*
X-7150Y266592D02*
G54D11*
D03*
X-32650Y309592D02*
G54D12*
D03*
X-32650Y285592D02*
G54D12*
D03*
X-32650Y335592D02*
G54D13*
D03*
X-32650Y259592D02*
G54D13*
D03*
X70808Y476958D02*
G54D14*
D03*
X70808Y456958D02*
G54D14*
D03*
X70808Y431958D02*
G54D14*
D03*
X70808Y501958D02*
G54D14*
D03*
X43808Y541958D02*
G54D15*
D03*
X43808Y391958D02*
G54D15*
D03*
X70808Y136958D02*
G54D14*
D03*
X70808Y116958D02*
G54D14*
D03*
X70808Y91958D02*
G54D14*
D03*
X70808Y161958D02*
G54D14*
D03*
X43808Y201958D02*
G54D15*
D03*
X43808Y51958D02*
G54D15*
D03*
X131117Y487953D02*
G54D16*
D03*
X108217Y477753D02*
G54D16*
D03*
X108217Y498153D02*
G54D16*
D03*
X125413Y456914D02*
G54D17*
D03*
X108413Y456914D02*
G54D17*
D03*
X125413Y435014D02*
G54D17*
D03*
X108413Y435014D02*
G54D17*
D03*
X131117Y147953D02*
G54D16*
D03*
X108217Y137753D02*
G54D16*
D03*
X108217Y158153D02*
G54D16*
D03*
X125413Y116914D02*
G54D17*
D03*
X108413Y116914D02*
G54D17*
D03*
X125413Y95014D02*
G54D17*
D03*
X108413Y95014D02*
G54D17*
D03*
X332068Y137000D02*
G54D17*
D03*
X315068Y137000D02*
G54D17*
D03*
X310800Y199900D02*
G54D18*
D03*
X336400Y199700D02*
G54D18*
D03*
X361100Y199700D02*
G54D18*
D03*
X57926Y356767D02*
G54D19*
D03*
X32526Y356767D02*
G54D20*
D03*
X82507Y234612D02*
G54D21*
D03*
X82508Y262612D02*
G54D21*
D03*
X584750Y291092D02*
G54D10*
D03*
X584750Y297592D02*
G54D10*
D03*
X584750Y304092D02*
G54D10*
D03*
X584750Y310592D02*
G54D10*
D03*
X584750Y284592D02*
G54D10*
D03*
X582850Y328592D02*
G54D11*
D03*
X582850Y266592D02*
G54D11*
D03*
X557350Y309592D02*
G54D12*
D03*
X557350Y285592D02*
G54D12*
D03*
X557350Y335592D02*
G54D13*
D03*
X557350Y259592D02*
G54D13*
D03*
X660808Y476958D02*
G54D14*
D03*
X660808Y456958D02*
G54D14*
D03*
X660808Y431958D02*
G54D14*
D03*
X660808Y501958D02*
G54D14*
D03*
X633808Y541958D02*
G54D15*
D03*
X633808Y391958D02*
G54D15*
D03*
X660808Y136958D02*
G54D14*
D03*
X660808Y116958D02*
G54D14*
D03*
X660808Y91958D02*
G54D14*
D03*
X660808Y161958D02*
G54D14*
D03*
X633808Y201958D02*
G54D15*
D03*
X633808Y51958D02*
G54D15*
D03*
X721117Y487953D02*
G54D16*
D03*
X698217Y477753D02*
G54D16*
D03*
X698217Y498153D02*
G54D16*
D03*
X715413Y456914D02*
G54D17*
D03*
X698413Y456914D02*
G54D17*
D03*
X715413Y435014D02*
G54D17*
D03*
X698413Y435014D02*
G54D17*
D03*
X721117Y147953D02*
G54D16*
D03*
X698217Y137753D02*
G54D16*
D03*
X698217Y158153D02*
G54D16*
D03*
X715413Y116914D02*
G54D17*
D03*
X698413Y116914D02*
G54D17*
D03*
X715413Y95014D02*
G54D17*
D03*
X698413Y95014D02*
G54D17*
D03*
X922068Y137000D02*
G54D17*
D03*
X905068Y137000D02*
G54D17*
D03*
X900800Y199900D02*
G54D18*
D03*
X926400Y199700D02*
G54D18*
D03*
X951100Y199700D02*
G54D18*
D03*
X647926Y356767D02*
G54D19*
D03*
X622526Y356767D02*
G54D20*
D03*
X672507Y234612D02*
G54D21*
D03*
X672508Y262612D02*
G54D21*
D03*
M02*
