%FSLAX34Y34*%
%MOMM*%
%LNCOPPER_BOTTOM*%
G71*
G01*
%ADD10C,0.000*%
%ADD11R,2.600X1.000*%
%ADD12C,2.500*%
%ADD13C,0.850*%
%ADD14C,3.200*%
%ADD15C,0.300*%
%ADD16R,3.800X2.000*%
%ADD17R,6.200X3.800*%
%ADD18C,1.100*%
%ADD19C,0.900*%
%ADD20R,2.020X1.820*%
%ADD21R,1.900X2.000*%
%ADD22R,2.100X3.100*%
%ADD23R,2.800X2.000*%
%ADD24R,1.500X2.000*%
%ADD25R,2.600X2.200*%
%ADD26C,0.400*%
%ADD27C,0.633*%
%ADD28C,1.000*%
%ADD29C,0.340*%
%ADD30C,0.367*%
%ADD31C,0.500*%
%ADD32C,0.533*%
%ADD33R,2.000X0.400*%
%ADD34R,1.600X2.100*%
%ADD35R,1.900X1.900*%
%ADD36R,1.900X1.800*%
%ADD37C,1.900*%
%ADD38C,0.250*%
%ADD39C,2.600*%
%ADD40R,3.000X1.200*%
%ADD41R,5.400X3.000*%
%ADD42R,1.220X1.020*%
%ADD43R,1.100X1.200*%
%ADD44R,1.500X2.500*%
%ADD45R,2.200X1.400*%
%ADD46R,0.900X1.400*%
%ADD47R,2.000X1.600*%
%ADD48C,0.800*%
%LPD*%
G36*
X-239400Y791200D02*
X1360600Y791200D01*
X1360600Y-208800D01*
X-239400Y-208800D01*
X-239400Y791200D01*
G37*
%LPC*%
G54D10*
G75*
G01X456515Y334760D02*
G03X456515Y334760I-11500J0D01*
G01*
G36*
G75*
G01X456515Y334760D02*
G03X456515Y334760I-11500J0D01*
G01*
G37*
X456515Y334760D01*
G54D10*
G75*
G01X456715Y360160D02*
G03X456715Y360160I-11500J0D01*
G01*
G36*
G75*
G01X456715Y360160D02*
G03X456715Y360160I-11500J0D01*
G01*
G37*
X456715Y360160D01*
G54D10*
G75*
G01X184615Y347460D02*
G03X184615Y347460I-11500J0D01*
G01*
G36*
G75*
G01X184615Y347460D02*
G03X184615Y347460I-11500J0D01*
G01*
G37*
X184615Y347460D01*
X-5250Y291092D02*
G54D11*
D03*
X-5250Y297592D02*
G54D11*
D03*
X-5250Y304092D02*
G54D11*
D03*
X-5250Y310592D02*
G54D11*
D03*
X-5250Y284592D02*
G54D11*
D03*
X36750Y309030D02*
G54D12*
D03*
X84000Y582638D02*
G54D12*
D03*
X57200Y263222D02*
G54D12*
D03*
X36450Y285930D02*
G54D12*
D03*
G54D13*
X-3250Y291092D02*
X31288Y291092D01*
X36450Y285930D01*
G54D13*
X-3250Y297592D02*
X25313Y297592D01*
X36750Y309030D01*
X269600Y450700D02*
G54D12*
D03*
X100000Y42400D02*
G54D12*
D03*
X270100Y243400D02*
G54D12*
D03*
X170700Y87000D02*
G54D12*
D03*
G54D13*
X269600Y450700D02*
X269600Y449800D01*
X295300Y424100D01*
X295300Y68000D01*
X270900Y43600D01*
X101200Y43600D01*
X100000Y42400D01*
G54D14*
X356700Y23400D02*
X382700Y23400D01*
G54D14*
X356200Y576200D02*
X382200Y576200D01*
X393900Y167200D02*
G54D12*
D03*
X360600Y167300D02*
G54D12*
D03*
X194500Y369300D02*
G54D12*
D03*
G54D15*
G75*
G01X20000Y577000D02*
G03X20000Y577000I-14500J0D01*
G01*
G36*
G75*
G01X20000Y577000D02*
G03X20000Y577000I-14500J0D01*
G01*
G37*
X20000Y577000D01*
G54D15*
G75*
G01X20000Y18000D02*
G03X20000Y18000I-14500J0D01*
G01*
G36*
G75*
G01X20000Y18000D02*
G03X20000Y18000I-14500J0D01*
G01*
G37*
X20000Y18000D01*
G54D15*
G75*
G01X170000Y297500D02*
G03X170000Y297500I-14500J0D01*
G01*
G36*
G75*
G01X170000Y297500D02*
G03X170000Y297500I-14500J0D01*
G01*
G37*
X170000Y297500D01*
G54D15*
G75*
G01X185700Y490100D02*
G03X185700Y490100I-19400J0D01*
G01*
G36*
G75*
G01X185700Y490100D02*
G03X185700Y490100I-19400J0D01*
G01*
G37*
X185700Y490100D01*
X288900Y37400D02*
G54D12*
D03*
G54D13*
X393900Y167200D02*
X393900Y70800D01*
X369600Y46500D01*
X369600Y23500D01*
X369700Y23400D01*
X70808Y476958D02*
G54D16*
D03*
X70808Y456958D02*
G54D16*
D03*
X70808Y431958D02*
G54D16*
D03*
X70808Y501958D02*
G54D16*
D03*
X43808Y541958D02*
G54D17*
D03*
X43808Y391958D02*
G54D17*
D03*
X70808Y136958D02*
G54D16*
D03*
X70808Y116958D02*
G54D16*
D03*
X70808Y91958D02*
G54D16*
D03*
X70808Y161958D02*
G54D16*
D03*
X43808Y201958D02*
G54D17*
D03*
X43808Y51958D02*
G54D17*
D03*
G54D18*
X36600Y262321D02*
X36600Y261700D01*
X1500Y226600D01*
X1500Y91000D01*
X9500Y83000D01*
X41500Y83000D01*
X50700Y92200D01*
X70566Y92200D01*
X70808Y91958D01*
G54D19*
X-5850Y284592D02*
X14330Y284592D01*
X36600Y262321D01*
X56300Y262322D01*
X57200Y263222D01*
G54D19*
X70808Y431958D02*
X78700Y424066D01*
X78700Y302300D01*
X56400Y280000D01*
X56400Y264022D01*
X57200Y263222D01*
G54D15*
G75*
G01X34616Y491958D02*
G03X34616Y491958I-7808J0D01*
G01*
G36*
G75*
G01X34616Y491958D02*
G03X34616Y491958I-7808J0D01*
G01*
G37*
X34616Y491958D01*
G54D15*
G75*
G01X34616Y441958D02*
G03X34616Y441958I-7808J0D01*
G01*
G36*
G75*
G01X34616Y441958D02*
G03X34616Y441958I-7808J0D01*
G01*
G37*
X34616Y441958D01*
G54D15*
G75*
G01X34616Y151958D02*
G03X34616Y151958I-7808J0D01*
G01*
G36*
G75*
G01X34616Y151958D02*
G03X34616Y151958I-7808J0D01*
G01*
G37*
X34616Y151958D01*
G54D15*
G75*
G01X34616Y101958D02*
G03X34616Y101958I-7808J0D01*
G01*
G36*
G75*
G01X34616Y101958D02*
G03X34616Y101958I-7808J0D01*
G01*
G37*
X34616Y101958D01*
X223000Y234300D02*
G54D12*
D03*
X131117Y487953D02*
G54D20*
D03*
X108217Y477753D02*
G54D20*
D03*
X108217Y498153D02*
G54D20*
D03*
X125413Y456914D02*
G54D21*
D03*
X108413Y456914D02*
G54D21*
D03*
X125413Y435014D02*
G54D21*
D03*
X108413Y435014D02*
G54D21*
D03*
G54D19*
X108413Y456914D02*
X108413Y477557D01*
X108217Y477753D01*
G54D19*
X125413Y435014D02*
X125413Y456914D01*
G54D19*
X223000Y234300D02*
X138000Y234300D01*
X124900Y247400D01*
X124900Y434501D01*
X125413Y435014D01*
G54D19*
X70808Y501958D02*
X70808Y511608D01*
X77200Y518000D01*
X126300Y518000D01*
X131100Y513200D01*
X131100Y487971D01*
X131117Y487953D01*
X131117Y147953D02*
G54D20*
D03*
X108217Y137753D02*
G54D20*
D03*
X108217Y158153D02*
G54D20*
D03*
X125413Y116914D02*
G54D21*
D03*
X108413Y116914D02*
G54D21*
D03*
X125413Y95014D02*
G54D21*
D03*
X108413Y95014D02*
G54D21*
D03*
G54D19*
X108413Y116914D02*
X108413Y137557D01*
X108217Y137753D01*
G54D19*
X125413Y95014D02*
X125413Y116914D01*
G54D19*
X70808Y161958D02*
X70808Y171608D01*
X77200Y178000D01*
X126300Y178000D01*
X131100Y173200D01*
X131100Y147971D01*
X131117Y147953D01*
X146100Y87300D02*
G54D12*
D03*
X311100Y167400D02*
G54D12*
D03*
X336000Y167200D02*
G54D12*
D03*
X332068Y137000D02*
G54D21*
D03*
X315068Y137000D02*
G54D21*
D03*
G54D19*
X336000Y167200D02*
X336000Y139932D01*
X333068Y137000D01*
G54D19*
X311100Y167400D02*
X311100Y141968D01*
X316068Y137000D01*
X310800Y199900D02*
G54D22*
D03*
X336400Y199700D02*
G54D22*
D03*
X361100Y199700D02*
G54D22*
D03*
G54D19*
X311100Y167400D02*
X311100Y199600D01*
X310800Y199900D01*
G54D19*
X336000Y167200D02*
X336000Y199100D01*
X335400Y199700D01*
X170500Y120600D02*
G54D12*
D03*
G54D19*
X270100Y243400D02*
X270100Y187900D01*
X170700Y88500D01*
G54D19*
X146100Y88800D02*
X131628Y88800D01*
X125413Y95014D01*
X104700Y367800D02*
G54D12*
D03*
G54D19*
X170500Y120600D02*
X170500Y193800D01*
X161700Y202600D01*
X116900Y202600D01*
X104500Y215000D01*
X104500Y359700D01*
X104700Y372100D01*
G36*
X36750Y309030D02*
X36750Y286230D01*
X36450Y285930D01*
X36450Y283850D01*
X25800Y273200D01*
X25722Y273200D01*
X14330Y284592D01*
X-5250Y284592D01*
X-5250Y297592D01*
X25313Y297592D01*
X36750Y309030D01*
G37*
G54D15*
X36750Y309030D02*
X36750Y286230D01*
X36450Y285930D01*
X36450Y283850D01*
X25800Y273200D01*
X25722Y273200D01*
X14330Y284592D01*
X-5250Y284592D01*
X-5250Y297592D01*
X25313Y297592D01*
X36750Y309030D01*
X57926Y356767D02*
G54D23*
D03*
X32526Y356767D02*
G54D24*
D03*
X82507Y234612D02*
G54D25*
D03*
X82508Y262612D02*
G54D25*
D03*
G54D19*
X57200Y263222D02*
X81898Y263222D01*
X82508Y262612D01*
G54D19*
X57926Y356767D02*
X78667Y356767D01*
X78700Y356800D01*
G54D10*
G75*
G01X1046515Y334760D02*
G03X1046515Y334760I-11500J0D01*
G01*
G36*
G75*
G01X1046515Y334760D02*
G03X1046515Y334760I-11500J0D01*
G01*
G37*
X1046515Y334760D01*
G54D10*
G75*
G01X1046715Y360160D02*
G03X1046715Y360160I-11500J0D01*
G01*
G36*
G75*
G01X1046715Y360160D02*
G03X1046715Y360160I-11500J0D01*
G01*
G37*
X1046715Y360160D01*
G54D10*
G75*
G01X774615Y347460D02*
G03X774615Y347460I-11500J0D01*
G01*
G36*
G75*
G01X774615Y347460D02*
G03X774615Y347460I-11500J0D01*
G01*
G37*
X774615Y347460D01*
X584750Y291092D02*
G54D11*
D03*
X584750Y297592D02*
G54D11*
D03*
X584750Y304092D02*
G54D11*
D03*
X584750Y310592D02*
G54D11*
D03*
X584750Y284592D02*
G54D11*
D03*
X626750Y309030D02*
G54D12*
D03*
X674000Y582638D02*
G54D12*
D03*
X647200Y263222D02*
G54D12*
D03*
X626450Y285930D02*
G54D12*
D03*
G54D13*
X586750Y291092D02*
X621288Y291092D01*
X626450Y285930D01*
G54D13*
X586750Y297592D02*
X615313Y297592D01*
X626750Y309030D01*
X859600Y450700D02*
G54D12*
D03*
X690000Y42400D02*
G54D12*
D03*
X860100Y243400D02*
G54D12*
D03*
X760700Y87000D02*
G54D12*
D03*
G54D13*
X859600Y450700D02*
X859600Y449800D01*
X885300Y424100D01*
X885300Y68000D01*
X860900Y43600D01*
X691200Y43600D01*
X690000Y42400D01*
G54D14*
X946700Y23400D02*
X972700Y23400D01*
G54D14*
X946200Y576200D02*
X972200Y576200D01*
X983900Y167200D02*
G54D12*
D03*
X950600Y167300D02*
G54D12*
D03*
X784500Y369300D02*
G54D12*
D03*
G54D15*
G75*
G01X610000Y577000D02*
G03X610000Y577000I-14500J0D01*
G01*
G36*
G75*
G01X610000Y577000D02*
G03X610000Y577000I-14500J0D01*
G01*
G37*
X610000Y577000D01*
G54D15*
G75*
G01X610000Y18000D02*
G03X610000Y18000I-14500J0D01*
G01*
G36*
G75*
G01X610000Y18000D02*
G03X610000Y18000I-14500J0D01*
G01*
G37*
X610000Y18000D01*
G54D15*
G75*
G01X760000Y297500D02*
G03X760000Y297500I-14500J0D01*
G01*
G36*
G75*
G01X760000Y297500D02*
G03X760000Y297500I-14500J0D01*
G01*
G37*
X760000Y297500D01*
G54D15*
G75*
G01X775700Y490100D02*
G03X775700Y490100I-19400J0D01*
G01*
G36*
G75*
G01X775700Y490100D02*
G03X775700Y490100I-19400J0D01*
G01*
G37*
X775700Y490100D01*
X878900Y37400D02*
G54D12*
D03*
G54D13*
X983900Y167200D02*
X983900Y70800D01*
X959600Y46500D01*
X959600Y23500D01*
X959700Y23400D01*
X660808Y476958D02*
G54D16*
D03*
X660808Y456958D02*
G54D16*
D03*
X660808Y431958D02*
G54D16*
D03*
X660808Y501958D02*
G54D16*
D03*
X633808Y541958D02*
G54D17*
D03*
X633808Y391958D02*
G54D17*
D03*
X660808Y136958D02*
G54D16*
D03*
X660808Y116958D02*
G54D16*
D03*
X660808Y91958D02*
G54D16*
D03*
X660808Y161958D02*
G54D16*
D03*
X633808Y201958D02*
G54D17*
D03*
X633808Y51958D02*
G54D17*
D03*
G54D18*
X626600Y262322D02*
X626600Y261700D01*
X591500Y226600D01*
X591500Y91000D01*
X599500Y83000D01*
X631500Y83000D01*
X640700Y92200D01*
X660566Y92200D01*
X660808Y91958D01*
G54D19*
X584150Y284592D02*
X604330Y284592D01*
X626600Y262322D01*
X646300Y262322D01*
X647200Y263222D01*
G54D19*
X660808Y431958D02*
X668700Y424066D01*
X668700Y302300D01*
X646400Y280000D01*
X646400Y264022D01*
X647200Y263222D01*
G54D15*
G75*
G01X624616Y491958D02*
G03X624616Y491958I-7808J0D01*
G01*
G36*
G75*
G01X624616Y491958D02*
G03X624616Y491958I-7808J0D01*
G01*
G37*
X624616Y491958D01*
G54D15*
G75*
G01X624616Y441958D02*
G03X624616Y441958I-7808J0D01*
G01*
G36*
G75*
G01X624616Y441958D02*
G03X624616Y441958I-7808J0D01*
G01*
G37*
X624616Y441958D01*
G54D15*
G75*
G01X624616Y151958D02*
G03X624616Y151958I-7808J0D01*
G01*
G36*
G75*
G01X624616Y151958D02*
G03X624616Y151958I-7808J0D01*
G01*
G37*
X624616Y151958D01*
G54D15*
G75*
G01X624616Y101958D02*
G03X624616Y101958I-7808J0D01*
G01*
G36*
G75*
G01X624616Y101958D02*
G03X624616Y101958I-7808J0D01*
G01*
G37*
X624616Y101958D01*
X813000Y234300D02*
G54D12*
D03*
X721117Y487953D02*
G54D20*
D03*
X698217Y477753D02*
G54D20*
D03*
X698217Y498153D02*
G54D20*
D03*
X715413Y456914D02*
G54D21*
D03*
X698413Y456914D02*
G54D21*
D03*
X715413Y435014D02*
G54D21*
D03*
X698413Y435014D02*
G54D21*
D03*
G54D19*
X698413Y456914D02*
X698413Y477557D01*
X698217Y477753D01*
G54D19*
X715413Y435014D02*
X715413Y456914D01*
G54D19*
X813000Y234300D02*
X728000Y234300D01*
X714900Y247400D01*
X714900Y434501D01*
X715413Y435014D01*
G54D19*
X660808Y501958D02*
X660808Y511608D01*
X667200Y518000D01*
X716300Y518000D01*
X721100Y513200D01*
X721100Y487971D01*
X721117Y487953D01*
X721117Y147953D02*
G54D20*
D03*
X698217Y137753D02*
G54D20*
D03*
X698217Y158153D02*
G54D20*
D03*
X715413Y116914D02*
G54D21*
D03*
X698413Y116914D02*
G54D21*
D03*
X715413Y95014D02*
G54D21*
D03*
X698413Y95014D02*
G54D21*
D03*
G54D19*
X698413Y116914D02*
X698413Y137557D01*
X698217Y137753D01*
G54D19*
X715413Y95014D02*
X715413Y116914D01*
G54D19*
X660808Y161958D02*
X660808Y171608D01*
X667200Y178000D01*
X716300Y178000D01*
X721100Y173200D01*
X721100Y147971D01*
X721117Y147954D01*
X736100Y87300D02*
G54D12*
D03*
X901100Y167400D02*
G54D12*
D03*
X926000Y167200D02*
G54D12*
D03*
X922068Y137000D02*
G54D21*
D03*
X905068Y137000D02*
G54D21*
D03*
G54D19*
X926000Y167200D02*
X926000Y139932D01*
X923068Y137000D01*
G54D19*
X901100Y167400D02*
X901100Y141968D01*
X906068Y137000D01*
X900800Y199900D02*
G54D22*
D03*
X926400Y199700D02*
G54D22*
D03*
X951100Y199700D02*
G54D22*
D03*
G54D19*
X901100Y167400D02*
X901100Y199600D01*
X900800Y199900D01*
G54D19*
X926000Y167200D02*
X926000Y199100D01*
X925400Y199700D01*
X760500Y120600D02*
G54D12*
D03*
G54D19*
X860100Y243400D02*
X860100Y187900D01*
X760700Y88500D01*
G54D19*
X736100Y88800D02*
X721628Y88800D01*
X715413Y95014D01*
X694700Y367800D02*
G54D12*
D03*
G54D19*
X760500Y120600D02*
X760500Y193800D01*
X751700Y202600D01*
X706900Y202600D01*
X694500Y215000D01*
X694500Y359700D01*
X694700Y372100D01*
G36*
X626750Y309030D02*
X626750Y286230D01*
X626450Y285930D01*
X626450Y283850D01*
X615800Y273200D01*
X615722Y273200D01*
X604330Y284592D01*
X584750Y284592D01*
X584750Y297592D01*
X615313Y297592D01*
X626750Y309030D01*
G37*
G54D15*
X626750Y309030D02*
X626750Y286230D01*
X626450Y285930D01*
X626450Y283850D01*
X615800Y273200D01*
X615722Y273200D01*
X604330Y284592D01*
X584750Y284592D01*
X584750Y297592D01*
X615313Y297592D01*
X626750Y309030D01*
X647926Y356767D02*
G54D23*
D03*
X622526Y356767D02*
G54D24*
D03*
X672507Y234612D02*
G54D25*
D03*
X672508Y262612D02*
G54D25*
D03*
G54D19*
X647200Y263222D02*
X671898Y263222D01*
X672508Y262612D01*
G54D19*
X647926Y356767D02*
X668667Y356767D01*
X668700Y356800D01*
%LPD*%
G54D26*
G36*
X-5250Y308592D02*
X-18750Y308592D01*
X-18750Y312592D01*
X-5250Y312592D01*
X-5250Y308592D01*
G37*
G36*
X-5250Y312592D02*
X8250Y312592D01*
X8250Y308592D01*
X-5250Y308592D01*
X-5250Y312592D01*
G37*
G54D27*
G36*
X80833Y582638D02*
X80833Y595638D01*
X87167Y595638D01*
X87167Y582638D01*
X80833Y582638D01*
G37*
G36*
X84000Y579471D02*
X71000Y579471D01*
X71000Y585805D01*
X84000Y585805D01*
X84000Y579471D01*
G37*
G54D27*
G36*
X358361Y169539D02*
X367553Y178732D01*
X372031Y174253D01*
X362839Y165061D01*
X358361Y169539D01*
G37*
G36*
X362839Y169539D02*
X372031Y160347D01*
X367553Y155868D01*
X358361Y165061D01*
X362839Y169539D01*
G37*
G36*
X362839Y165061D02*
X353647Y155868D01*
X349168Y160347D01*
X358361Y169539D01*
X362839Y165061D01*
G37*
G36*
X358361Y165061D02*
X349168Y174253D01*
X353647Y178732D01*
X362839Y169539D01*
X358361Y165061D01*
G37*
G54D27*
G36*
X191333Y369300D02*
X191333Y382300D01*
X197666Y382300D01*
X197666Y369300D01*
X191333Y369300D01*
G37*
G36*
X194500Y372467D02*
X207500Y372467D01*
X207500Y366133D01*
X194500Y366133D01*
X194500Y372467D01*
G37*
G36*
X197666Y369300D02*
X197666Y356300D01*
X191333Y356300D01*
X191333Y369300D01*
X197666Y369300D01*
G37*
G36*
X194500Y366133D02*
X181500Y366133D01*
X181500Y372467D01*
X194500Y372467D01*
X194500Y366133D01*
G37*
G54D27*
G36*
X285733Y37400D02*
X285733Y50400D01*
X292067Y50400D01*
X292067Y37400D01*
X285733Y37400D01*
G37*
G36*
X288900Y40567D02*
X301900Y40567D01*
X301900Y34233D01*
X288900Y34233D01*
X288900Y40567D01*
G37*
G36*
X292067Y37400D02*
X292067Y24400D01*
X285733Y24400D01*
X285733Y37400D01*
X292067Y37400D01*
G37*
G36*
X288900Y34233D02*
X275900Y34233D01*
X275900Y40567D01*
X288900Y40567D01*
X288900Y34233D01*
G37*
G54D28*
G36*
X43808Y546958D02*
X75308Y546958D01*
X75308Y536958D01*
X43808Y536958D01*
X43808Y546958D01*
G37*
G36*
X48808Y541958D02*
X48808Y522458D01*
X38808Y522458D01*
X38808Y541958D01*
X48808Y541958D01*
G37*
G36*
X43808Y536958D02*
X12308Y536958D01*
X12308Y546958D01*
X43808Y546958D01*
X43808Y536958D01*
G37*
G36*
X38808Y541958D02*
X38808Y561458D01*
X48808Y561458D01*
X48808Y541958D01*
X38808Y541958D01*
G37*
G54D28*
G36*
X48808Y391958D02*
X48808Y372458D01*
X38808Y372458D01*
X38808Y391958D01*
X48808Y391958D01*
G37*
G36*
X43808Y386958D02*
X12308Y386958D01*
X12308Y396958D01*
X43808Y396958D01*
X43808Y386958D01*
G37*
G36*
X38808Y391958D02*
X38808Y411458D01*
X48808Y411458D01*
X48808Y391958D01*
X38808Y391958D01*
G37*
G54D28*
G36*
X43808Y206958D02*
X75308Y206958D01*
X75308Y196958D01*
X43808Y196958D01*
X43808Y206958D01*
G37*
G36*
X48808Y201958D02*
X48808Y182458D01*
X38808Y182458D01*
X38808Y201958D01*
X48808Y201958D01*
G37*
G36*
X43808Y196958D02*
X12308Y196958D01*
X12308Y206958D01*
X43808Y206958D01*
X43808Y196958D01*
G37*
G36*
X38808Y201958D02*
X38807Y221458D01*
X48807Y221458D01*
X48808Y201958D01*
X38808Y201958D01*
G37*
G54D28*
G36*
X43808Y56958D02*
X75308Y56958D01*
X75308Y46958D01*
X43808Y46958D01*
X43808Y56958D01*
G37*
G36*
X48808Y51958D02*
X48808Y32458D01*
X38808Y32458D01*
X38808Y51958D01*
X48808Y51958D01*
G37*
G36*
X43808Y46958D02*
X12308Y46958D01*
X12308Y56958D01*
X43808Y56958D01*
X43808Y46958D01*
G37*
G36*
X38808Y51958D02*
X38808Y71458D01*
X48808Y71458D01*
X48808Y51958D01*
X38808Y51958D01*
G37*
G54D29*
G36*
X108217Y496453D02*
X97617Y496453D01*
X97617Y499853D01*
X108217Y499853D01*
X108217Y496453D01*
G37*
G36*
X106517Y498153D02*
X106517Y507753D01*
X109917Y507753D01*
X109917Y498153D01*
X106517Y498153D01*
G37*
G36*
X108217Y499853D02*
X118817Y499853D01*
X118817Y496453D01*
X108217Y496453D01*
X108217Y499853D01*
G37*
G36*
X109917Y498153D02*
X109917Y488553D01*
X106517Y488553D01*
X106517Y498153D01*
X109917Y498153D01*
G37*
G54D30*
G36*
X110247Y435014D02*
X110247Y424514D01*
X106580Y424514D01*
X106580Y435014D01*
X110247Y435014D01*
G37*
G36*
X108413Y433181D02*
X98413Y433181D01*
X98413Y436848D01*
X108413Y436848D01*
X108413Y433181D01*
G37*
G54D29*
G36*
X108217Y156453D02*
X97617Y156453D01*
X97617Y159853D01*
X108217Y159853D01*
X108217Y156453D01*
G37*
G36*
X106517Y158153D02*
X106517Y167753D01*
X109917Y167753D01*
X109917Y158153D01*
X106517Y158153D01*
G37*
G36*
X108217Y159853D02*
X118817Y159854D01*
X118817Y156454D01*
X108217Y156453D01*
X108217Y159853D01*
G37*
G36*
X109917Y158153D02*
X109917Y148553D01*
X106517Y148553D01*
X106517Y158153D01*
X109917Y158153D01*
G37*
G54D30*
G36*
X110247Y95014D02*
X110247Y84514D01*
X106580Y84514D01*
X106580Y95014D01*
X110247Y95014D01*
G37*
G36*
X108413Y93181D02*
X98413Y93181D01*
X98413Y96848D01*
X108413Y96848D01*
X108413Y93181D01*
G37*
G54D31*
G36*
X358600Y199700D02*
X358600Y215700D01*
X363600Y215700D01*
X363600Y199700D01*
X358600Y199700D01*
G37*
G36*
X361100Y202200D02*
X372100Y202200D01*
X372100Y197200D01*
X361100Y197200D01*
X361100Y202200D01*
G37*
G36*
X363600Y199700D02*
X363600Y183700D01*
X358600Y183700D01*
X358600Y199700D01*
X363600Y199700D01*
G37*
G54D15*
G36*
X34026Y356767D02*
X34026Y346267D01*
X31026Y346267D01*
X31026Y356767D01*
X34026Y356767D01*
G37*
G36*
X32526Y355267D02*
X24526Y355267D01*
X24526Y358267D01*
X32526Y358267D01*
X32526Y355267D01*
G37*
G36*
X31026Y356767D02*
X31026Y367267D01*
X34026Y367267D01*
X34026Y356767D01*
X31026Y356767D01*
G37*
G36*
X32526Y358267D02*
X40526Y358267D01*
X40526Y355267D01*
X32526Y355267D01*
X32526Y358267D01*
G37*
G54D32*
G36*
X82507Y231946D02*
X69007Y231946D01*
X69007Y237279D01*
X82507Y237279D01*
X82507Y231946D01*
G37*
G36*
X79840Y234612D02*
X79840Y246112D01*
X85173Y246112D01*
X85173Y234612D01*
X79840Y234612D01*
G37*
G36*
X82507Y237279D02*
X96007Y237279D01*
X96007Y231946D01*
X82507Y231946D01*
X82507Y237279D01*
G37*
G36*
X85173Y234612D02*
X85173Y223112D01*
X79840Y223112D01*
X79840Y234612D01*
X85173Y234612D01*
G37*
G54D26*
G36*
X584750Y308592D02*
X571250Y308592D01*
X571250Y312592D01*
X584750Y312592D01*
X584750Y308592D01*
G37*
G36*
X584750Y312592D02*
X598250Y312592D01*
X598250Y308592D01*
X584750Y308592D01*
X584750Y312592D01*
G37*
G54D27*
G36*
X670833Y582638D02*
X670833Y595638D01*
X677167Y595638D01*
X677167Y582638D01*
X670833Y582638D01*
G37*
G36*
X674000Y579471D02*
X661000Y579471D01*
X661000Y585805D01*
X674000Y585805D01*
X674000Y579471D01*
G37*
G54D27*
G36*
X948361Y169539D02*
X957553Y178732D01*
X962031Y174253D01*
X952839Y165061D01*
X948361Y169539D01*
G37*
G36*
X952839Y169539D02*
X962031Y160347D01*
X957553Y155868D01*
X948361Y165061D01*
X952839Y169539D01*
G37*
G36*
X952839Y165061D02*
X943647Y155868D01*
X939168Y160347D01*
X948361Y169539D01*
X952839Y165061D01*
G37*
G36*
X948361Y165061D02*
X939168Y174253D01*
X943647Y178732D01*
X952839Y169539D01*
X948361Y165061D01*
G37*
G54D27*
G36*
X781333Y369300D02*
X781333Y382300D01*
X787667Y382300D01*
X787667Y369300D01*
X781333Y369300D01*
G37*
G36*
X784500Y372467D02*
X797500Y372467D01*
X797500Y366133D01*
X784500Y366133D01*
X784500Y372467D01*
G37*
G36*
X787667Y369300D02*
X787667Y356300D01*
X781333Y356300D01*
X781333Y369300D01*
X787667Y369300D01*
G37*
G36*
X784500Y366133D02*
X771500Y366133D01*
X771500Y372467D01*
X784500Y372467D01*
X784500Y366133D01*
G37*
G54D27*
G36*
X875733Y37400D02*
X875733Y50400D01*
X882067Y50400D01*
X882067Y37400D01*
X875733Y37400D01*
G37*
G36*
X878900Y40567D02*
X891900Y40567D01*
X891900Y34233D01*
X878900Y34233D01*
X878900Y40567D01*
G37*
G36*
X882067Y37400D02*
X882067Y24400D01*
X875733Y24400D01*
X875733Y37400D01*
X882067Y37400D01*
G37*
G36*
X878900Y34233D02*
X865900Y34233D01*
X865900Y40567D01*
X878900Y40567D01*
X878900Y34233D01*
G37*
G54D28*
G36*
X633808Y546958D02*
X665308Y546958D01*
X665308Y536958D01*
X633808Y536958D01*
X633808Y546958D01*
G37*
G36*
X638808Y541958D02*
X638808Y522458D01*
X628808Y522458D01*
X628808Y541958D01*
X638808Y541958D01*
G37*
G36*
X633808Y536958D02*
X602308Y536958D01*
X602308Y546958D01*
X633808Y546958D01*
X633808Y536958D01*
G37*
G36*
X628808Y541958D02*
X628808Y561458D01*
X638808Y561458D01*
X638808Y541958D01*
X628808Y541958D01*
G37*
G54D28*
G36*
X638808Y391958D02*
X638808Y372458D01*
X628808Y372458D01*
X628808Y391958D01*
X638808Y391958D01*
G37*
G36*
X633808Y386958D02*
X602308Y386958D01*
X602308Y396958D01*
X633808Y396958D01*
X633808Y386958D01*
G37*
G36*
X628808Y391958D02*
X628808Y411458D01*
X638808Y411458D01*
X638808Y391958D01*
X628808Y391958D01*
G37*
G54D28*
G36*
X633808Y206958D02*
X665308Y206958D01*
X665308Y196958D01*
X633808Y196958D01*
X633808Y206958D01*
G37*
G36*
X638808Y201958D02*
X638808Y182458D01*
X628808Y182458D01*
X628808Y201958D01*
X638808Y201958D01*
G37*
G36*
X633808Y196958D02*
X602308Y196958D01*
X602308Y206958D01*
X633808Y206958D01*
X633808Y196958D01*
G37*
G36*
X628808Y201958D02*
X628808Y221458D01*
X638808Y221458D01*
X638808Y201958D01*
X628808Y201958D01*
G37*
G54D28*
G36*
X633808Y56958D02*
X665308Y56958D01*
X665308Y46958D01*
X633808Y46958D01*
X633808Y56958D01*
G37*
G36*
X638808Y51958D02*
X638808Y32458D01*
X628808Y32458D01*
X628808Y51958D01*
X638808Y51958D01*
G37*
G36*
X633808Y46958D02*
X602308Y46958D01*
X602308Y56958D01*
X633808Y56958D01*
X633808Y46958D01*
G37*
G36*
X628808Y51958D02*
X628808Y71458D01*
X638808Y71458D01*
X638808Y51958D01*
X628808Y51958D01*
G37*
G54D29*
G36*
X698217Y496453D02*
X687617Y496453D01*
X687617Y499853D01*
X698217Y499853D01*
X698217Y496453D01*
G37*
G36*
X696517Y498153D02*
X696517Y507753D01*
X699917Y507753D01*
X699917Y498153D01*
X696517Y498153D01*
G37*
G36*
X698217Y499853D02*
X708817Y499853D01*
X708817Y496453D01*
X698217Y496453D01*
X698217Y499853D01*
G37*
G36*
X699917Y498153D02*
X699917Y488553D01*
X696517Y488553D01*
X696517Y498153D01*
X699917Y498153D01*
G37*
G54D30*
G36*
X700247Y435014D02*
X700247Y424514D01*
X696580Y424514D01*
X696580Y435014D01*
X700247Y435014D01*
G37*
G36*
X698413Y433181D02*
X688413Y433181D01*
X688413Y436848D01*
X698413Y436848D01*
X698413Y433181D01*
G37*
G54D29*
G36*
X698217Y156453D02*
X687617Y156453D01*
X687617Y159853D01*
X698217Y159853D01*
X698217Y156453D01*
G37*
G36*
X696517Y158153D02*
X696517Y167753D01*
X699917Y167753D01*
X699917Y158153D01*
X696517Y158153D01*
G37*
G36*
X698217Y159853D02*
X708817Y159854D01*
X708817Y156454D01*
X698217Y156453D01*
X698217Y159853D01*
G37*
G36*
X699917Y158153D02*
X699917Y148553D01*
X696517Y148553D01*
X696517Y158153D01*
X699917Y158153D01*
G37*
G54D30*
G36*
X700247Y95014D02*
X700247Y84514D01*
X696580Y84514D01*
X696580Y95014D01*
X700247Y95014D01*
G37*
G36*
X698413Y93181D02*
X688413Y93181D01*
X688413Y96848D01*
X698413Y96848D01*
X698413Y93181D01*
G37*
G54D31*
G36*
X948600Y199700D02*
X948600Y215700D01*
X953600Y215700D01*
X953600Y199700D01*
X948600Y199700D01*
G37*
G36*
X951100Y202200D02*
X962100Y202200D01*
X962100Y197200D01*
X951100Y197200D01*
X951100Y202200D01*
G37*
G36*
X953600Y199700D02*
X953600Y183700D01*
X948600Y183700D01*
X948600Y199700D01*
X953600Y199700D01*
G37*
G54D15*
G36*
X624026Y356767D02*
X624026Y346267D01*
X621026Y346267D01*
X621026Y356767D01*
X624026Y356767D01*
G37*
G36*
X622526Y355267D02*
X614526Y355267D01*
X614526Y358267D01*
X622526Y358267D01*
X622526Y355267D01*
G37*
G36*
X621026Y356767D02*
X621026Y367267D01*
X624026Y367267D01*
X624026Y356767D01*
X621026Y356767D01*
G37*
G36*
X622526Y358267D02*
X630526Y358267D01*
X630526Y355267D01*
X622526Y355267D01*
X622526Y358267D01*
G37*
G54D32*
G36*
X672507Y231946D02*
X659007Y231946D01*
X659007Y237279D01*
X672507Y237279D01*
X672507Y231946D01*
G37*
G36*
X669840Y234612D02*
X669840Y246112D01*
X675173Y246112D01*
X675173Y234612D01*
X669840Y234612D01*
G37*
G36*
X672507Y237279D02*
X686007Y237279D01*
X686007Y231946D01*
X672507Y231946D01*
X672507Y237279D01*
G37*
G36*
X675173Y234612D02*
X675173Y223112D01*
X669840Y223112D01*
X669840Y234612D01*
X675173Y234612D01*
G37*
X-5250Y291092D02*
G54D33*
D03*
X-5250Y297592D02*
G54D33*
D03*
X-5250Y304092D02*
G54D33*
D03*
X-5250Y310592D02*
G54D33*
D03*
X-5250Y284592D02*
G54D33*
D03*
X-7150Y328592D02*
G54D34*
D03*
X-7150Y266592D02*
G54D34*
D03*
X-32650Y309592D02*
G54D35*
D03*
X-32650Y285592D02*
G54D35*
D03*
X-32650Y335592D02*
G54D36*
D03*
X-32650Y259592D02*
G54D36*
D03*
X36750Y309030D02*
G54D37*
D03*
X84000Y582638D02*
G54D37*
D03*
X57200Y263222D02*
G54D37*
D03*
X36450Y285930D02*
G54D37*
D03*
G54D38*
X-3250Y291092D02*
X31288Y291092D01*
X36450Y285930D01*
G54D38*
X-3250Y297592D02*
X25313Y297592D01*
X36750Y309030D01*
X269600Y450700D02*
G54D37*
D03*
X100000Y42400D02*
G54D37*
D03*
X270100Y243400D02*
G54D37*
D03*
X170700Y87000D02*
G54D37*
D03*
G54D38*
X269600Y450700D02*
X269600Y449800D01*
X295300Y424100D01*
X295300Y68000D01*
X270900Y43600D01*
X101200Y43600D01*
X100000Y42400D01*
X357400Y126100D02*
G54D37*
D03*
G54D39*
X356700Y23400D02*
X382700Y23400D01*
G54D39*
X356200Y576200D02*
X382200Y576200D01*
X393900Y167200D02*
G54D37*
D03*
X360600Y167300D02*
G54D37*
D03*
X194500Y369300D02*
G54D37*
D03*
X288900Y37400D02*
G54D37*
D03*
G54D38*
X393900Y167200D02*
X393900Y70800D01*
X369600Y46500D01*
X369600Y23500D01*
X369700Y23400D01*
X70808Y476958D02*
G54D40*
D03*
X70808Y456958D02*
G54D40*
D03*
X70808Y431958D02*
G54D40*
D03*
X70808Y501958D02*
G54D40*
D03*
X43808Y541958D02*
G54D41*
D03*
X43808Y391958D02*
G54D41*
D03*
X70808Y136958D02*
G54D40*
D03*
X70808Y116958D02*
G54D40*
D03*
X70808Y91958D02*
G54D40*
D03*
X70808Y161958D02*
G54D40*
D03*
X43808Y201958D02*
G54D41*
D03*
X43808Y51958D02*
G54D41*
D03*
G54D15*
X36600Y262321D02*
X36600Y261700D01*
X1500Y226600D01*
X1500Y91000D01*
X9500Y83000D01*
X41500Y83000D01*
X50700Y92200D01*
X70566Y92200D01*
X70808Y91958D01*
G54D15*
X-5850Y284592D02*
X14330Y284592D01*
X36600Y262321D01*
X56300Y262322D01*
X57200Y263222D01*
G54D15*
X70808Y431958D02*
X78700Y424066D01*
X78700Y302300D01*
X56400Y280000D01*
X56400Y264022D01*
X57200Y263222D01*
X223000Y234300D02*
G54D37*
D03*
X131117Y487953D02*
G54D42*
D03*
X108217Y477753D02*
G54D42*
D03*
X108217Y498153D02*
G54D42*
D03*
X125413Y456914D02*
G54D43*
D03*
X108413Y456914D02*
G54D43*
D03*
X125413Y435014D02*
G54D43*
D03*
X108413Y435014D02*
G54D43*
D03*
G54D15*
X108413Y456914D02*
X108413Y477557D01*
X108217Y477753D01*
G54D15*
X125413Y435014D02*
X125413Y456914D01*
G54D15*
X223000Y234300D02*
X138000Y234300D01*
X124900Y247400D01*
X124900Y434501D01*
X125413Y435014D01*
G54D15*
X70808Y501958D02*
X70808Y511608D01*
X77200Y518000D01*
X126300Y518000D01*
X131100Y513200D01*
X131100Y487971D01*
X131117Y487953D01*
X131117Y147953D02*
G54D42*
D03*
X108217Y137753D02*
G54D42*
D03*
X108217Y158153D02*
G54D42*
D03*
X125413Y116914D02*
G54D43*
D03*
X108413Y116914D02*
G54D43*
D03*
X125413Y95014D02*
G54D43*
D03*
X108413Y95014D02*
G54D43*
D03*
G54D15*
X108413Y116914D02*
X108413Y137557D01*
X108217Y137753D01*
G54D15*
X125413Y95014D02*
X125413Y116914D01*
G54D15*
X70808Y161958D02*
X70808Y171608D01*
X77200Y178000D01*
X126300Y178000D01*
X131100Y173200D01*
X131100Y147971D01*
X131117Y147953D01*
X146100Y87300D02*
G54D37*
D03*
X311100Y167400D02*
G54D37*
D03*
X336000Y167200D02*
G54D37*
D03*
X332068Y137000D02*
G54D43*
D03*
X315068Y137000D02*
G54D43*
D03*
G54D15*
X336000Y167200D02*
X336000Y139932D01*
X333068Y137000D01*
G54D15*
X311100Y167400D02*
X311100Y141968D01*
X316068Y137000D01*
X310800Y199900D02*
G54D44*
D03*
X336400Y199700D02*
G54D44*
D03*
X361100Y199700D02*
G54D44*
D03*
G54D15*
X311100Y167400D02*
X311100Y199600D01*
X310800Y199900D01*
G54D15*
X336000Y167200D02*
X336000Y199100D01*
X335400Y199700D01*
X170500Y120600D02*
G54D37*
D03*
G54D15*
X270100Y243400D02*
X270100Y187900D01*
X170700Y88500D01*
G54D15*
X146100Y88800D02*
X131628Y88800D01*
X125413Y95014D01*
X104700Y367800D02*
G54D37*
D03*
G54D15*
X170500Y120600D02*
X170500Y193800D01*
X161700Y202600D01*
X116900Y202600D01*
X104500Y215000D01*
X104500Y359700D01*
X104700Y372100D01*
X57926Y356767D02*
G54D45*
D03*
X32526Y356767D02*
G54D46*
D03*
X82507Y234612D02*
G54D47*
D03*
X82508Y262612D02*
G54D47*
D03*
G54D15*
X57200Y263222D02*
X81898Y263222D01*
X82508Y262612D01*
G54D15*
X57926Y356767D02*
X78667Y356767D01*
X78700Y356800D01*
X584750Y291092D02*
G54D33*
D03*
X584750Y297592D02*
G54D33*
D03*
X584750Y304092D02*
G54D33*
D03*
X584750Y310592D02*
G54D33*
D03*
X584750Y284592D02*
G54D33*
D03*
X582850Y328592D02*
G54D34*
D03*
X582850Y266592D02*
G54D34*
D03*
X557350Y309592D02*
G54D35*
D03*
X557350Y285592D02*
G54D35*
D03*
X557350Y335592D02*
G54D36*
D03*
X557350Y259592D02*
G54D36*
D03*
X626750Y309030D02*
G54D37*
D03*
X674000Y582638D02*
G54D37*
D03*
X647200Y263222D02*
G54D37*
D03*
X626450Y285930D02*
G54D37*
D03*
G54D38*
X586750Y291092D02*
X621288Y291092D01*
X626450Y285930D01*
G54D38*
X586750Y297592D02*
X615313Y297592D01*
X626750Y309030D01*
X859600Y450700D02*
G54D37*
D03*
X690000Y42400D02*
G54D37*
D03*
X860100Y243400D02*
G54D37*
D03*
X760700Y87000D02*
G54D37*
D03*
G54D38*
X859600Y450700D02*
X859600Y449800D01*
X885300Y424100D01*
X885300Y68000D01*
X860900Y43600D01*
X691200Y43600D01*
X690000Y42400D01*
X947400Y126100D02*
G54D37*
D03*
G54D39*
X946700Y23400D02*
X972700Y23400D01*
G54D39*
X946200Y576200D02*
X972200Y576200D01*
X983900Y167200D02*
G54D37*
D03*
X950600Y167300D02*
G54D37*
D03*
X784500Y369300D02*
G54D37*
D03*
X878900Y37400D02*
G54D37*
D03*
G54D38*
X983900Y167200D02*
X983900Y70800D01*
X959600Y46500D01*
X959600Y23500D01*
X959700Y23400D01*
X660808Y476958D02*
G54D40*
D03*
X660808Y456958D02*
G54D40*
D03*
X660808Y431958D02*
G54D40*
D03*
X660808Y501958D02*
G54D40*
D03*
X633808Y541958D02*
G54D41*
D03*
X633808Y391958D02*
G54D41*
D03*
X660808Y136958D02*
G54D40*
D03*
X660808Y116958D02*
G54D40*
D03*
X660808Y91958D02*
G54D40*
D03*
X660808Y161958D02*
G54D40*
D03*
X633808Y201958D02*
G54D41*
D03*
X633808Y51958D02*
G54D41*
D03*
G54D15*
X626600Y262322D02*
X626600Y261700D01*
X591500Y226600D01*
X591500Y91000D01*
X599500Y83000D01*
X631500Y83000D01*
X640700Y92200D01*
X660566Y92200D01*
X660808Y91958D01*
G54D15*
X584150Y284592D02*
X604330Y284592D01*
X626600Y262322D01*
X646300Y262322D01*
X647200Y263222D01*
G54D15*
X660808Y431958D02*
X668700Y424066D01*
X668700Y302300D01*
X646400Y280000D01*
X646400Y264022D01*
X647200Y263222D01*
X813000Y234300D02*
G54D37*
D03*
X721117Y487953D02*
G54D42*
D03*
X698217Y477753D02*
G54D42*
D03*
X698217Y498153D02*
G54D42*
D03*
X715413Y456914D02*
G54D43*
D03*
X698413Y456914D02*
G54D43*
D03*
X715413Y435014D02*
G54D43*
D03*
X698413Y435014D02*
G54D43*
D03*
G54D15*
X698413Y456914D02*
X698413Y477557D01*
X698217Y477753D01*
G54D15*
X715413Y435014D02*
X715413Y456914D01*
G54D15*
X813000Y234300D02*
X728000Y234300D01*
X714900Y247400D01*
X714900Y434501D01*
X715413Y435014D01*
G54D15*
X660808Y501958D02*
X660808Y511608D01*
X667200Y518000D01*
X716300Y518000D01*
X721100Y513200D01*
X721100Y487971D01*
X721117Y487953D01*
X721117Y147953D02*
G54D42*
D03*
X698217Y137753D02*
G54D42*
D03*
X698217Y158153D02*
G54D42*
D03*
X715413Y116914D02*
G54D43*
D03*
X698413Y116914D02*
G54D43*
D03*
X715413Y95014D02*
G54D43*
D03*
X698413Y95014D02*
G54D43*
D03*
G54D15*
X698413Y116914D02*
X698413Y137557D01*
X698217Y137753D01*
G54D15*
X715413Y95014D02*
X715413Y116914D01*
G54D15*
X660808Y161958D02*
X660808Y171608D01*
X667200Y178000D01*
X716300Y178000D01*
X721100Y173200D01*
X721100Y147971D01*
X721117Y147954D01*
X736100Y87300D02*
G54D37*
D03*
X901100Y167400D02*
G54D37*
D03*
X926000Y167200D02*
G54D37*
D03*
X922068Y137000D02*
G54D43*
D03*
X905068Y137000D02*
G54D43*
D03*
G54D15*
X926000Y167200D02*
X926000Y139932D01*
X923068Y137000D01*
G54D15*
X901100Y167400D02*
X901100Y141968D01*
X906068Y137000D01*
X900800Y199900D02*
G54D44*
D03*
X926400Y199700D02*
G54D44*
D03*
X951100Y199700D02*
G54D44*
D03*
G54D15*
X901100Y167400D02*
X901100Y199600D01*
X900800Y199900D01*
G54D15*
X926000Y167200D02*
X926000Y199100D01*
X925400Y199700D01*
X760500Y120600D02*
G54D37*
D03*
G54D15*
X860100Y243400D02*
X860100Y187900D01*
X760700Y88500D01*
G54D15*
X736100Y88800D02*
X721628Y88800D01*
X715413Y95014D01*
X694700Y367800D02*
G54D37*
D03*
G54D15*
X760500Y120600D02*
X760500Y193800D01*
X751700Y202600D01*
X706900Y202600D01*
X694500Y215000D01*
X694500Y359700D01*
X694700Y372100D01*
X647926Y356767D02*
G54D45*
D03*
X622526Y356767D02*
G54D46*
D03*
X672507Y234612D02*
G54D47*
D03*
X672508Y262612D02*
G54D47*
D03*
G54D15*
X647200Y263222D02*
X671898Y263222D01*
X672508Y262612D01*
G54D15*
X647926Y356767D02*
X668667Y356767D01*
X668700Y356800D01*
%LNAUGENFREISTANZEN*%
%LPC*%
X36750Y309030D02*
G54D48*
D03*
X84000Y582638D02*
G54D48*
D03*
X57200Y263222D02*
G54D48*
D03*
X36450Y285930D02*
G54D48*
D03*
X269600Y450700D02*
G54D48*
D03*
X100000Y42400D02*
G54D48*
D03*
X270100Y243400D02*
G54D48*
D03*
X170700Y87000D02*
G54D48*
D03*
X357400Y126100D02*
G54D48*
D03*
X369700Y23400D02*
G54D48*
D03*
X369200Y576200D02*
G54D48*
D03*
X393900Y167200D02*
G54D48*
D03*
X360600Y167300D02*
G54D48*
D03*
X194500Y369300D02*
G54D48*
D03*
X288900Y37400D02*
G54D48*
D03*
X223000Y234300D02*
G54D48*
D03*
X146100Y87300D02*
G54D48*
D03*
X311100Y167400D02*
G54D48*
D03*
X336000Y167200D02*
G54D48*
D03*
X170500Y120600D02*
G54D48*
D03*
X104700Y367800D02*
G54D48*
D03*
X626750Y309030D02*
G54D48*
D03*
X674000Y582638D02*
G54D48*
D03*
X647200Y263222D02*
G54D48*
D03*
X626450Y285930D02*
G54D48*
D03*
X859600Y450700D02*
G54D48*
D03*
X690000Y42400D02*
G54D48*
D03*
X860100Y243400D02*
G54D48*
D03*
X760700Y87000D02*
G54D48*
D03*
X947400Y126100D02*
G54D48*
D03*
X959700Y23400D02*
G54D48*
D03*
X959200Y576200D02*
G54D48*
D03*
X983900Y167200D02*
G54D48*
D03*
X950600Y167300D02*
G54D48*
D03*
X784500Y369300D02*
G54D48*
D03*
X878900Y37400D02*
G54D48*
D03*
X813000Y234300D02*
G54D48*
D03*
X736100Y87300D02*
G54D48*
D03*
X901100Y167400D02*
G54D48*
D03*
X926000Y167200D02*
G54D48*
D03*
X760500Y120600D02*
G54D48*
D03*
X694700Y367800D02*
G54D48*
D03*
M02*
