%FSLAX34Y34*%
%MOMM*%
%LNSOLDERMASK_BOTTOM*%
G71*
G01*
%ADD10R,2.060X0.460*%
%ADD11R,1.660X2.160*%
%ADD12R,1.960X1.960*%
%ADD13R,1.960X1.860*%
%ADD14C,1.960*%
%ADD15C,2.660*%
%ADD16R,3.060X1.260*%
%ADD17R,5.460X3.060*%
%ADD18R,1.280X1.080*%
%ADD19R,1.160X1.260*%
%ADD20R,1.560X2.560*%
%ADD21R,2.260X1.460*%
%ADD22R,0.960X1.460*%
%ADD23R,2.060X1.660*%
%LPD*%
X-5250Y291092D02*
G54D10*
D03*
X-5250Y297592D02*
G54D10*
D03*
X-5250Y304092D02*
G54D10*
D03*
X-5250Y310592D02*
G54D10*
D03*
X-5250Y284592D02*
G54D10*
D03*
X-7150Y328592D02*
G54D11*
D03*
X-7150Y266592D02*
G54D11*
D03*
X-32650Y309592D02*
G54D12*
D03*
X-32650Y285592D02*
G54D12*
D03*
X-32650Y335592D02*
G54D13*
D03*
X-32650Y259592D02*
G54D13*
D03*
X36750Y309030D02*
G54D14*
D03*
X84000Y582638D02*
G54D14*
D03*
X57200Y263222D02*
G54D14*
D03*
X36450Y285930D02*
G54D14*
D03*
X269600Y450700D02*
G54D14*
D03*
X100000Y42400D02*
G54D14*
D03*
X270100Y243400D02*
G54D14*
D03*
X170700Y87000D02*
G54D14*
D03*
X357400Y126100D02*
G54D14*
D03*
G54D15*
X356700Y23400D02*
X382700Y23400D01*
G54D15*
X356200Y576200D02*
X382200Y576200D01*
X393900Y167200D02*
G54D14*
D03*
X360600Y167300D02*
G54D14*
D03*
X194500Y369300D02*
G54D14*
D03*
X288900Y37400D02*
G54D14*
D03*
X70808Y476958D02*
G54D16*
D03*
X70808Y456958D02*
G54D16*
D03*
X70808Y431958D02*
G54D16*
D03*
X70808Y501958D02*
G54D16*
D03*
X43808Y541958D02*
G54D17*
D03*
X43808Y391958D02*
G54D17*
D03*
X70808Y136958D02*
G54D16*
D03*
X70808Y116958D02*
G54D16*
D03*
X70808Y91958D02*
G54D16*
D03*
X70808Y161958D02*
G54D16*
D03*
X43808Y201958D02*
G54D17*
D03*
X43808Y51958D02*
G54D17*
D03*
X223000Y234300D02*
G54D14*
D03*
X131117Y487953D02*
G54D18*
D03*
X108217Y477753D02*
G54D18*
D03*
X108217Y498153D02*
G54D18*
D03*
X125413Y456914D02*
G54D19*
D03*
X108413Y456914D02*
G54D19*
D03*
X125413Y435014D02*
G54D19*
D03*
X108413Y435014D02*
G54D19*
D03*
X131117Y147953D02*
G54D18*
D03*
X108217Y137753D02*
G54D18*
D03*
X108217Y158153D02*
G54D18*
D03*
X125413Y116914D02*
G54D19*
D03*
X108413Y116914D02*
G54D19*
D03*
X125413Y95014D02*
G54D19*
D03*
X108413Y95014D02*
G54D19*
D03*
X146100Y87300D02*
G54D14*
D03*
X311100Y167400D02*
G54D14*
D03*
X336000Y167200D02*
G54D14*
D03*
X332068Y137000D02*
G54D19*
D03*
X315068Y137000D02*
G54D19*
D03*
X310800Y199900D02*
G54D20*
D03*
X336400Y199700D02*
G54D20*
D03*
X361100Y199700D02*
G54D20*
D03*
X170500Y120600D02*
G54D14*
D03*
X104700Y367800D02*
G54D14*
D03*
X57926Y356767D02*
G54D21*
D03*
X32526Y356767D02*
G54D22*
D03*
X82507Y234612D02*
G54D23*
D03*
X82508Y262612D02*
G54D23*
D03*
G36*
X345100Y144700D02*
X383200Y144700D01*
X383200Y75800D01*
X357500Y50100D01*
X307600Y50100D01*
X307600Y120900D01*
X307400Y121100D01*
X340500Y121100D01*
X345100Y125700D01*
X345100Y144700D01*
G37*
X584750Y291092D02*
G54D10*
D03*
X584750Y297592D02*
G54D10*
D03*
X584750Y304092D02*
G54D10*
D03*
X584750Y310592D02*
G54D10*
D03*
X584750Y284592D02*
G54D10*
D03*
X582850Y328592D02*
G54D11*
D03*
X582850Y266592D02*
G54D11*
D03*
X557350Y309592D02*
G54D12*
D03*
X557350Y285592D02*
G54D12*
D03*
X557350Y335592D02*
G54D13*
D03*
X557350Y259592D02*
G54D13*
D03*
X626750Y309030D02*
G54D14*
D03*
X674000Y582638D02*
G54D14*
D03*
X647200Y263222D02*
G54D14*
D03*
X626450Y285930D02*
G54D14*
D03*
X859600Y450700D02*
G54D14*
D03*
X690000Y42400D02*
G54D14*
D03*
X860100Y243400D02*
G54D14*
D03*
X760700Y87000D02*
G54D14*
D03*
X947400Y126100D02*
G54D14*
D03*
G54D15*
X946700Y23400D02*
X972700Y23400D01*
G54D15*
X946200Y576200D02*
X972200Y576200D01*
X983900Y167200D02*
G54D14*
D03*
X950600Y167300D02*
G54D14*
D03*
X784500Y369300D02*
G54D14*
D03*
X878900Y37400D02*
G54D14*
D03*
X660808Y476958D02*
G54D16*
D03*
X660808Y456958D02*
G54D16*
D03*
X660808Y431958D02*
G54D16*
D03*
X660808Y501958D02*
G54D16*
D03*
X633808Y541958D02*
G54D17*
D03*
X633808Y391958D02*
G54D17*
D03*
X660808Y136958D02*
G54D16*
D03*
X660808Y116958D02*
G54D16*
D03*
X660808Y91958D02*
G54D16*
D03*
X660808Y161958D02*
G54D16*
D03*
X633808Y201958D02*
G54D17*
D03*
X633808Y51958D02*
G54D17*
D03*
X813000Y234300D02*
G54D14*
D03*
X721117Y487953D02*
G54D18*
D03*
X698217Y477753D02*
G54D18*
D03*
X698217Y498153D02*
G54D18*
D03*
X715413Y456914D02*
G54D19*
D03*
X698413Y456914D02*
G54D19*
D03*
X715413Y435014D02*
G54D19*
D03*
X698413Y435014D02*
G54D19*
D03*
X721117Y147953D02*
G54D18*
D03*
X698217Y137753D02*
G54D18*
D03*
X698217Y158153D02*
G54D18*
D03*
X715413Y116914D02*
G54D19*
D03*
X698413Y116914D02*
G54D19*
D03*
X715413Y95014D02*
G54D19*
D03*
X698413Y95014D02*
G54D19*
D03*
X736100Y87300D02*
G54D14*
D03*
X901100Y167400D02*
G54D14*
D03*
X926000Y167200D02*
G54D14*
D03*
X922068Y137000D02*
G54D19*
D03*
X905068Y137000D02*
G54D19*
D03*
X900800Y199900D02*
G54D20*
D03*
X926400Y199700D02*
G54D20*
D03*
X951100Y199700D02*
G54D20*
D03*
X760500Y120600D02*
G54D14*
D03*
X694700Y367800D02*
G54D14*
D03*
X647926Y356767D02*
G54D21*
D03*
X622526Y356767D02*
G54D22*
D03*
X672507Y234612D02*
G54D23*
D03*
X672508Y262612D02*
G54D23*
D03*
G36*
X935100Y144700D02*
X973200Y144700D01*
X973200Y75800D01*
X947500Y50100D01*
X897600Y50100D01*
X897600Y120900D01*
X897400Y121100D01*
X930500Y121100D01*
X935100Y125700D01*
X935100Y144700D01*
G37*
M02*
