%FSLAX34Y34*%
%MOMM*%
%LNSILK_TOP*%
G71*
G01*
%ADD10C,0.250*%
%ADD11C,0.206*%
%ADD12C,0.150*%
%ADD13C,0.200*%
%ADD14C,0.238*%
%ADD15C,0.222*%
%ADD16C,0.270*%
%ADD17C,0.100*%
%ADD18C,0.144*%
%ADD19C,0.056*%
%ADD20C,0.233*%
%LPD*%
G54D10*
G75*
G01X120500Y297500D02*
G03X120500Y297500I-15000J0D01*
G01*
G54D10*
G75*
G01X105500Y427500D02*
G03X105500Y167500I0J-130000D01*
G01*
G54D11*
X286863Y219006D02*
X286863Y209618D01*
X287730Y208173D01*
X289463Y207451D01*
X291196Y207451D01*
X292930Y208173D01*
X293796Y209618D01*
X293796Y219006D01*
G54D11*
X303040Y207451D02*
X303040Y219006D01*
X297840Y211784D01*
X297840Y210340D01*
X304774Y210340D01*
G54D12*
G75*
G01X385899Y221290D02*
G03X385899Y221290I-2000J0D01*
G01*
G36*
G75*
G01X385899Y221290D02*
G03X385899Y221290I-2000J0D01*
G01*
G37*
X385899Y221290D01*
G54D12*
X414378Y275558D02*
X432378Y275558D01*
X432378Y241558D01*
X414378Y241558D01*
X414378Y275558D01*
G54D11*
X444096Y244102D02*
X443229Y242657D01*
X441496Y241935D01*
X439762Y241935D01*
X438029Y242657D01*
X437162Y244102D01*
X437162Y251324D01*
X438029Y252768D01*
X439762Y253490D01*
X441496Y253490D01*
X443229Y252768D01*
X444096Y251324D01*
G54D11*
X448139Y249157D02*
X452473Y253490D01*
X452473Y241935D01*
G54D11*
X456516Y249157D02*
X460850Y253490D01*
X460850Y241935D01*
G54D13*
X286122Y336517D02*
X412122Y336517D01*
X412122Y226517D01*
X286122Y226517D01*
X286122Y336517D01*
G54D14*
X311132Y415109D02*
X312799Y414109D01*
X313632Y412109D01*
X313632Y410110D01*
X312799Y408109D01*
X311132Y407110D01*
X302799Y407109D01*
X301132Y408109D01*
X300299Y410110D01*
X300299Y412109D01*
X301132Y414109D01*
X302799Y415109D01*
G54D14*
X313633Y419776D02*
X300299Y419776D01*
G54D14*
X313633Y427776D02*
X300299Y427776D01*
G54D14*
X306966Y419776D02*
X306966Y427776D01*
G54D14*
X306966Y436443D02*
X306966Y440443D01*
X311132Y440443D01*
X312799Y439443D01*
X313633Y437444D01*
X313632Y435443D01*
X312799Y433443D01*
X311132Y432443D01*
X302799Y432443D01*
X301132Y433443D01*
X300299Y435443D01*
X300299Y437443D01*
X301132Y439443D01*
X302799Y440443D01*
G54D13*
X361715Y368410D02*
X361715Y400160D01*
X412515Y400160D01*
X412515Y368410D01*
X361715Y368410D01*
G54D11*
X417693Y398081D02*
X417693Y388692D01*
X418559Y387247D01*
X420293Y386525D01*
X422026Y386525D01*
X423759Y387247D01*
X424626Y388692D01*
X424626Y398081D01*
G54D11*
X435603Y398081D02*
X428670Y398081D01*
X428670Y393025D01*
X429536Y393025D01*
X431270Y393747D01*
X433003Y393747D01*
X434736Y393025D01*
X435603Y391581D01*
X435603Y388692D01*
X434736Y387247D01*
X433003Y386525D01*
X431270Y386525D01*
X429536Y387247D01*
X428670Y388692D01*
G54D12*
X412715Y436060D02*
X412715Y410060D01*
X362715Y410060D01*
X362715Y436060D01*
X412715Y436060D01*
G54D11*
X426510Y413321D02*
X425644Y411877D01*
X423910Y411154D01*
X422177Y411154D01*
X420444Y411877D01*
X419577Y413321D01*
X419577Y420543D01*
X420444Y421988D01*
X422177Y422710D01*
X423910Y422710D01*
X425644Y421988D01*
X426510Y420543D01*
G54D11*
X430554Y418377D02*
X434887Y422710D01*
X434887Y411154D01*
G54D11*
X445864Y411154D02*
X438931Y411154D01*
X438931Y411877D01*
X439798Y413321D01*
X444998Y417654D01*
X445864Y419099D01*
X445864Y420543D01*
X444998Y421988D01*
X443264Y422710D01*
X441531Y422710D01*
X439798Y421988D01*
X438931Y420543D01*
G54D12*
X336315Y401460D02*
X336315Y375460D01*
X286315Y375460D01*
X286315Y401460D01*
X336315Y401460D01*
G54D11*
X257010Y377221D02*
X256144Y375776D01*
X254410Y375054D01*
X252677Y375054D01*
X250944Y375776D01*
X250077Y377221D01*
X250077Y384443D01*
X250944Y385887D01*
X252677Y386610D01*
X254410Y386610D01*
X256144Y385887D01*
X257010Y384443D01*
G54D11*
X261054Y382276D02*
X265388Y386610D01*
X265388Y375054D01*
G54D11*
X269431Y384443D02*
X270298Y385887D01*
X272031Y386610D01*
X273764Y386610D01*
X275498Y385887D01*
X276364Y384443D01*
X276364Y382998D01*
X275498Y381554D01*
X273764Y380832D01*
X275498Y380110D01*
X276364Y378665D01*
X276364Y377221D01*
X275498Y375776D01*
X273764Y375054D01*
X272031Y375054D01*
X270298Y375776D01*
X269431Y377221D01*
G54D12*
X378315Y343560D02*
X378315Y361560D01*
X412315Y361560D01*
X412315Y343560D01*
X378315Y343560D01*
G54D11*
X357244Y351132D02*
X359844Y349687D01*
X360710Y348243D01*
X360710Y345354D01*
G54D11*
X353777Y345354D02*
X353777Y356910D01*
X358110Y356910D01*
X359844Y356187D01*
X360710Y354743D01*
X360710Y353298D01*
X359844Y351854D01*
X358110Y351132D01*
X353777Y351132D01*
G54D11*
X371687Y354743D02*
X370821Y356187D01*
X369087Y356910D01*
X367354Y356910D01*
X365621Y356187D01*
X364754Y354743D01*
X364754Y351132D01*
X364754Y350410D01*
X367354Y351854D01*
X369087Y351854D01*
X370821Y351132D01*
X371687Y349687D01*
X371687Y347521D01*
X370821Y346076D01*
X369087Y345354D01*
X367354Y345354D01*
X365621Y346076D01*
X364754Y347521D01*
X364754Y351132D01*
G54D15*
X225070Y107524D02*
X217920Y100374D01*
X217480Y98615D01*
X218250Y96745D01*
X219570Y95425D01*
X221440Y94655D01*
X223200Y95095D01*
X230350Y102244D01*
G54D15*
X229910Y85085D02*
X224630Y90364D01*
X225180Y90914D01*
X226940Y91354D01*
X234200Y90694D01*
X235960Y91134D01*
X237060Y92234D01*
X237500Y93994D01*
X236730Y95864D01*
X235410Y97184D01*
X233540Y97954D01*
X231780Y97514D01*
G54D12*
X270298Y92805D02*
X254742Y108362D01*
X281612Y135232D01*
X297169Y119675D01*
X270298Y92805D01*
G54D15*
X278847Y82804D02*
X277087Y82364D01*
X275217Y83134D01*
X273897Y84454D01*
X273127Y86324D01*
X273567Y88084D01*
X279067Y93584D01*
X280827Y94024D01*
X282697Y93254D01*
X284017Y91934D01*
X284786Y90064D01*
X284347Y88304D01*
G54D15*
X294357Y81594D02*
X289077Y86874D01*
X285227Y83024D01*
X285887Y82364D01*
X287757Y81594D01*
X289077Y80274D01*
X289847Y78404D01*
X289407Y76644D01*
X287207Y74444D01*
X285447Y74004D01*
X283577Y74774D01*
X282257Y76094D01*
X281487Y77964D01*
X281927Y79724D01*
G54D12*
X173296Y187319D02*
X157740Y202875D01*
X184610Y229745D01*
X200166Y214189D01*
X173296Y187319D01*
G54D15*
X217059Y265462D02*
X215299Y265022D01*
X213429Y265792D01*
X212109Y267112D01*
X211339Y268982D01*
X211779Y270742D01*
X217279Y276242D01*
X219039Y276682D01*
X220909Y275912D01*
X222228Y274592D01*
X222998Y272722D01*
X222558Y270962D01*
G54D15*
X227289Y269531D02*
X232569Y264252D01*
X230809Y263812D01*
X227839Y263482D01*
X224319Y262602D01*
X222009Y261612D01*
X219809Y259412D01*
G54D12*
X143818Y32547D02*
X163818Y32547D01*
X163818Y70547D01*
X143818Y70547D01*
X143818Y32547D01*
G54D11*
X151146Y14955D02*
X152591Y17555D01*
X154035Y18421D01*
X156924Y18421D01*
G54D11*
X156924Y11488D02*
X145369Y11488D01*
X145369Y15821D01*
X146091Y17555D01*
X147535Y18421D01*
X148980Y18421D01*
X150424Y17555D01*
X151146Y15821D01*
X151146Y11488D01*
G54D11*
X149702Y22465D02*
X145369Y26798D01*
X156924Y26798D01*
G54D12*
X153634Y161411D02*
X124834Y161411D01*
X124834Y186711D01*
X153634Y186711D01*
X153634Y161411D01*
G54D12*
X153073Y159199D02*
X153073Y145199D01*
X125073Y145199D01*
X125073Y159199D01*
X153073Y159199D01*
G54D11*
X133310Y129048D02*
X132443Y127603D01*
X130710Y126881D01*
X128976Y126881D01*
X127243Y127603D01*
X126376Y129048D01*
X126376Y136270D01*
X127243Y137714D01*
X128976Y138436D01*
X130710Y138436D01*
X132443Y137714D01*
X133310Y136270D01*
G54D11*
X137353Y134103D02*
X141686Y138436D01*
X141686Y126881D01*
G54D11*
X152664Y136270D02*
X152664Y129048D01*
X151797Y127603D01*
X150064Y126881D01*
X148330Y126881D01*
X146597Y127603D01*
X145730Y129048D01*
X145730Y136270D01*
X146597Y137714D01*
X148330Y138436D01*
X150064Y138436D01*
X151797Y137714D01*
X152664Y136270D01*
G54D12*
X153143Y202827D02*
X153143Y188827D01*
X125143Y188827D01*
X125143Y202827D01*
X153143Y202827D01*
G54D11*
X131922Y213227D02*
X131055Y211782D01*
X129322Y211060D01*
X127588Y211060D01*
X125855Y211782D01*
X124988Y213227D01*
X124988Y220449D01*
X125855Y221893D01*
X127588Y222616D01*
X129322Y222616D01*
X131055Y221893D01*
X131922Y220449D01*
G54D11*
X142898Y220449D02*
X142032Y221893D01*
X140298Y222616D01*
X138565Y222616D01*
X136832Y221893D01*
X135965Y220449D01*
X135965Y216838D01*
X135965Y216116D01*
X138565Y217560D01*
X140298Y217560D01*
X142032Y216838D01*
X142898Y215393D01*
X142898Y213227D01*
X142032Y211782D01*
X140298Y211060D01*
X138565Y211060D01*
X136832Y211782D01*
X135965Y213227D01*
X135965Y216838D01*
G54D11*
X104969Y175877D02*
X113636Y164321D01*
G54D11*
X104969Y164321D02*
X113636Y175877D01*
G54D11*
X117680Y171543D02*
X122013Y175877D01*
X122013Y164321D01*
G54D16*
X188574Y11139D02*
X188575Y26250D01*
G54D16*
X193864Y13972D02*
X194997Y12083D01*
X197264Y11139D01*
X199530Y11139D01*
X201797Y12084D01*
X202930Y13972D01*
X202930Y15861D01*
X201797Y17750D01*
X199530Y18694D01*
X197264Y18694D01*
X194997Y19639D01*
X193864Y21528D01*
X193864Y23417D01*
X194997Y25306D01*
X197264Y26250D01*
X199530Y26250D01*
X201797Y25306D01*
X202930Y23417D01*
G54D16*
X208220Y11139D02*
X208220Y26250D01*
X213886Y26250D01*
X216153Y25306D01*
X217286Y23417D01*
X217286Y21528D01*
X216153Y19639D01*
X213886Y18694D01*
X208220Y18694D01*
G54D13*
X262916Y32249D02*
X186716Y32249D01*
X186716Y83049D01*
X262916Y83049D01*
X262916Y32249D01*
G54D17*
X291144Y461525D02*
X238144Y461525D01*
X238144Y563525D01*
X291144Y563525D01*
X291144Y461525D01*
G54D18*
X239624Y581426D02*
X239624Y572037D01*
X240491Y570592D01*
X242224Y569870D01*
X243957Y569870D01*
X245691Y570592D01*
X246557Y572037D01*
X246557Y581425D01*
G54D18*
X249735Y577092D02*
X254068Y581425D01*
X254068Y569870D01*
G54D19*
X260754Y544888D02*
X260754Y548499D01*
X260420Y549055D01*
X259754Y549332D01*
X259087Y549332D01*
X258420Y549055D01*
X258087Y548499D01*
X258087Y544888D01*
G54D19*
X256864Y548499D02*
X256531Y549055D01*
X255864Y549332D01*
X255198Y549332D01*
X254531Y549055D01*
X254198Y548499D01*
X254198Y547943D01*
X254531Y547388D01*
X255198Y547110D01*
X255864Y547110D01*
X256531Y546832D01*
X256864Y546277D01*
X256864Y545721D01*
X256531Y545166D01*
X255864Y544888D01*
X255198Y544888D01*
X254531Y545166D01*
X254198Y545721D01*
G54D19*
X252976Y549332D02*
X252976Y544888D01*
X251309Y544888D01*
X250642Y545166D01*
X250309Y545721D01*
X250309Y546277D01*
X250642Y546832D01*
X251309Y547110D01*
X250642Y547388D01*
X250309Y547944D01*
X250309Y548499D01*
X250642Y549055D01*
X251309Y549332D01*
X252976Y549332D01*
G54D19*
X252976Y547110D02*
X251309Y547110D01*
G54D19*
X249086Y549332D02*
X249086Y544888D01*
X247420Y544888D01*
X246753Y545166D01*
X246420Y545721D01*
X246420Y548499D01*
X246753Y549055D01*
X247420Y549332D01*
X249086Y549332D01*
G54D19*
X245198Y549332D02*
X245198Y544888D01*
X243531Y547666D01*
X241864Y544888D01*
X241864Y549332D01*
G54D19*
X260820Y551888D02*
X260820Y555499D01*
X260487Y556055D01*
X259820Y556332D01*
X259154Y556332D01*
X258487Y556055D01*
X258154Y555499D01*
X258154Y551888D01*
G54D19*
X256932Y555499D02*
X256598Y556055D01*
X255932Y556332D01*
X255265Y556332D01*
X254598Y556055D01*
X254265Y555499D01*
X254265Y554944D01*
X254598Y554388D01*
X255265Y554110D01*
X255932Y554110D01*
X256598Y553832D01*
X256932Y553277D01*
X256932Y552721D01*
X256598Y552166D01*
X255932Y551888D01*
X255265Y551888D01*
X254598Y552166D01*
X254265Y552721D01*
G54D19*
X253042Y556332D02*
X253042Y551888D01*
X251376Y551888D01*
X250709Y552166D01*
X250376Y552721D01*
X250376Y553277D01*
X250709Y553832D01*
X251376Y554110D01*
X250709Y554388D01*
X250376Y554944D01*
X250376Y555499D01*
X250709Y556055D01*
X251376Y556332D01*
X253042Y556332D01*
G54D19*
X253042Y554110D02*
X251376Y554110D01*
G54D19*
X249154Y556332D02*
X249154Y551888D01*
X247487Y551888D01*
X246820Y552166D01*
X246487Y552721D01*
X246487Y555499D01*
X246820Y556055D01*
X247487Y556332D01*
X249154Y556332D01*
G54D19*
X245264Y556332D02*
X245264Y551888D01*
X243598Y551888D01*
X242931Y552166D01*
X242598Y552721D01*
X242598Y553277D01*
X242931Y553832D01*
X243598Y554110D01*
X245264Y554110D01*
G54D19*
X253254Y518888D02*
X251587Y523332D01*
X249920Y518888D01*
G54D19*
X246032Y522499D02*
X246365Y523055D01*
X247032Y523332D01*
X247698Y523332D01*
X248365Y523055D01*
X248698Y522499D01*
X248698Y519721D01*
X248365Y519166D01*
X247698Y518888D01*
X247032Y518888D01*
X246365Y519166D01*
X246032Y519721D01*
G54D19*
X242143Y522499D02*
X242476Y523055D01*
X243143Y523332D01*
X243810Y523332D01*
X244476Y523055D01*
X244810Y522499D01*
X244810Y519721D01*
X244476Y519166D01*
X243810Y518888D01*
X243143Y518888D01*
X242476Y519166D01*
X242143Y519721D01*
G54D19*
X289254Y486888D02*
X287587Y491332D01*
X285920Y486888D01*
G54D19*
X282032Y490499D02*
X282365Y491055D01*
X283032Y491332D01*
X283698Y491332D01*
X284365Y491055D01*
X284698Y490499D01*
X284698Y487721D01*
X284365Y487166D01*
X283698Y486888D01*
X283032Y486888D01*
X282365Y487166D01*
X282032Y487721D01*
G54D19*
X278143Y490499D02*
X278476Y491055D01*
X279143Y491332D01*
X279810Y491332D01*
X280476Y491055D01*
X280810Y490499D01*
X280810Y487721D01*
X280476Y487166D01*
X279810Y486888D01*
X279143Y486888D01*
X278476Y487166D01*
X278143Y487721D01*
G54D19*
X276921Y491332D02*
X276920Y486888D01*
G54D19*
X273032Y487721D02*
X273032Y490499D01*
X273365Y491055D01*
X274032Y491332D01*
X274698Y491332D01*
X275365Y491055D01*
X275698Y490499D01*
X275698Y487721D01*
X275365Y487166D01*
X274699Y486888D01*
X274032Y486888D01*
X273365Y487166D01*
X273032Y487721D01*
G54D19*
X287920Y471832D02*
X287920Y467388D01*
G54D19*
X289254Y467388D02*
X286587Y467388D01*
G54D19*
X285365Y467388D02*
X282031Y471832D01*
G54D19*
X285365Y471832D02*
X282031Y467388D01*
G54D19*
X280810Y471832D02*
X280810Y467388D01*
X279143Y467388D01*
X278476Y467666D01*
X278143Y468221D01*
X278143Y470999D01*
X278476Y471555D01*
X279143Y471832D01*
X280810Y471832D01*
G54D19*
X286920Y495610D02*
X285920Y496166D01*
X285587Y496721D01*
X285587Y497832D01*
G54D19*
X288254Y497832D02*
X288254Y493388D01*
X286587Y493388D01*
X285920Y493666D01*
X285587Y494221D01*
X285587Y494777D01*
X285920Y495332D01*
X286587Y495610D01*
X288254Y495610D01*
G54D19*
X284364Y493388D02*
X281031Y497832D01*
G54D19*
X284364Y497832D02*
X281031Y493388D01*
G54D19*
X279810Y497832D02*
X279810Y493388D01*
X278143Y493388D01*
X277476Y493666D01*
X277143Y494221D01*
X277143Y496999D01*
X277476Y497555D01*
X278143Y497832D01*
X279810Y497832D01*
G54D17*
G75*
G01X276143Y469777D02*
G03X276143Y469777I-5000J0D01*
G01*
G54D19*
X265254Y539221D02*
X264920Y538666D01*
X264254Y538388D01*
X263587Y538388D01*
X262920Y538666D01*
X262587Y539221D01*
X262587Y539777D01*
X262920Y540332D01*
X263587Y540610D01*
X262920Y540888D01*
X262587Y541443D01*
X262587Y541999D01*
X262920Y542555D01*
X263587Y542832D01*
X264254Y542832D01*
X264920Y542555D01*
X265254Y541999D01*
G54D19*
X261365Y538388D02*
X259698Y542832D01*
X258031Y538388D01*
G54D19*
X256810Y539221D02*
X256476Y538666D01*
X255810Y538388D01*
X255143Y538388D01*
X254476Y538666D01*
X254143Y539221D01*
X254143Y539777D01*
X254476Y540332D01*
X255143Y540610D01*
X254476Y540888D01*
X254143Y541443D01*
X254143Y541999D01*
X254476Y542555D01*
X255143Y542832D01*
X255810Y542832D01*
X256476Y542555D01*
X256810Y541999D01*
G54D19*
X250254Y539221D02*
X250254Y541999D01*
X250587Y542555D01*
X251254Y542832D01*
X251920Y542832D01*
X252587Y542555D01*
X252920Y541999D01*
X252920Y539221D01*
X252587Y538666D01*
X251920Y538388D01*
X251254Y538388D01*
X250587Y538666D01*
X250254Y539221D01*
G54D19*
X249032Y538388D02*
X249032Y541999D01*
X248698Y542555D01*
X248032Y542832D01*
X247365Y542832D01*
X246698Y542555D01*
X246365Y541999D01*
X246365Y538388D01*
G54D19*
X243809Y542832D02*
X243809Y538388D01*
G54D19*
X245142Y538388D02*
X242476Y538388D01*
G54D19*
X257087Y502999D02*
X257420Y503555D01*
X258087Y503832D01*
X258754Y503832D01*
X259420Y503555D01*
X259754Y502999D01*
X259754Y500221D01*
X259420Y499666D01*
X258754Y499388D01*
X258087Y499388D01*
X257420Y499666D01*
X257087Y500221D01*
G54D19*
X255864Y503832D02*
X255864Y499388D01*
X254198Y499388D01*
X253531Y499666D01*
X253198Y500221D01*
X253198Y500777D01*
X253531Y501332D01*
X254198Y501610D01*
X253531Y501888D01*
X253198Y502444D01*
X253198Y502999D01*
X253531Y503555D01*
X254198Y503832D01*
X255864Y503832D01*
G54D19*
X255864Y501610D02*
X254198Y501610D01*
G54D19*
X251976Y499388D02*
X251976Y502999D01*
X251642Y503555D01*
X250976Y503832D01*
X250309Y503832D01*
X249642Y503555D01*
X249309Y502999D01*
X249309Y499388D01*
G54D19*
X248087Y502999D02*
X247753Y503555D01*
X247086Y503832D01*
X246420Y503832D01*
X245753Y503555D01*
X245420Y502999D01*
X245420Y502444D01*
X245753Y501888D01*
X246420Y501610D01*
X247086Y501610D01*
X247753Y501332D01*
X248086Y500777D01*
X248086Y500221D01*
X247753Y499666D01*
X247086Y499388D01*
X246420Y499388D01*
X245753Y499666D01*
X245420Y500221D01*
G54D19*
X241531Y500221D02*
X241531Y502999D01*
X241864Y503555D01*
X242531Y503832D01*
X243198Y503832D01*
X243864Y503555D01*
X244198Y502999D01*
X244198Y500221D01*
X243864Y499666D01*
X243197Y499388D01*
X242531Y499388D01*
X241864Y499666D01*
X241531Y500221D01*
G54D19*
X257087Y509999D02*
X257420Y510555D01*
X258087Y510832D01*
X258754Y510832D01*
X259420Y510555D01*
X259754Y509999D01*
X259754Y507221D01*
X259420Y506666D01*
X258754Y506388D01*
X258087Y506388D01*
X257420Y506666D01*
X257087Y507221D01*
G54D19*
X255864Y510832D02*
X255864Y506388D01*
X254198Y506388D01*
X253531Y506666D01*
X253198Y507221D01*
X253198Y507777D01*
X253531Y508332D01*
X254198Y508610D01*
X253531Y508888D01*
X253198Y509444D01*
X253198Y509999D01*
X253531Y510555D01*
X254198Y510832D01*
X255864Y510832D01*
G54D19*
X255864Y508610D02*
X254198Y508610D01*
G54D19*
X251976Y506388D02*
X251976Y509999D01*
X251642Y510555D01*
X250976Y510832D01*
X250309Y510832D01*
X249642Y510555D01*
X249309Y509999D01*
X249309Y506388D01*
G54D19*
X248086Y509999D02*
X247753Y510555D01*
X247086Y510832D01*
X246420Y510832D01*
X245753Y510555D01*
X245420Y509999D01*
X245420Y509443D01*
X245753Y508888D01*
X246420Y508610D01*
X247086Y508610D01*
X247753Y508332D01*
X248086Y507777D01*
X248086Y507221D01*
X247753Y506666D01*
X247086Y506388D01*
X246420Y506388D01*
X245753Y506666D01*
X245420Y507221D01*
G54D19*
X244198Y508055D02*
X242531Y506388D01*
X242531Y510832D01*
G54D19*
X258420Y527610D02*
X257420Y528166D01*
X257087Y528721D01*
X257087Y529832D01*
G54D19*
X259753Y529832D02*
X259754Y525388D01*
X258087Y525388D01*
X257420Y525666D01*
X257087Y526221D01*
X257087Y526777D01*
X257420Y527332D01*
X258087Y527610D01*
X259754Y527610D01*
G54D19*
X253531Y529832D02*
X255864Y529832D01*
X255864Y525388D01*
X253531Y525388D01*
G54D19*
X255864Y527610D02*
X253531Y527610D01*
G54D19*
X252310Y528999D02*
X251976Y529555D01*
X251310Y529832D01*
X250643Y529832D01*
X249976Y529555D01*
X249643Y528999D01*
X249643Y528444D01*
X249976Y527888D01*
X250643Y527610D01*
X251310Y527610D01*
X251976Y527332D01*
X252310Y526777D01*
X252310Y526221D01*
X251976Y525666D01*
X251310Y525388D01*
X250643Y525388D01*
X249976Y525666D01*
X249643Y526221D01*
G54D19*
X246087Y529832D02*
X248420Y529832D01*
X248420Y525388D01*
X246087Y525388D01*
G54D19*
X248420Y527610D02*
X246087Y527610D01*
G54D19*
X243532Y529832D02*
X243532Y525388D01*
G54D19*
X244866Y525388D02*
X242199Y525388D01*
G54D12*
X184750Y438900D02*
X184750Y416900D01*
X146750Y416900D01*
X146750Y438900D01*
X184750Y438900D01*
G54D11*
X195123Y421261D02*
X194256Y419816D01*
X192523Y419094D01*
X190790Y419094D01*
X189056Y419816D01*
X188190Y421261D01*
X188190Y428483D01*
X189056Y429927D01*
X190790Y430650D01*
X192523Y430650D01*
X194256Y429927D01*
X195123Y428483D01*
G54D11*
X206100Y419094D02*
X199167Y419094D01*
X199167Y419816D01*
X200034Y421261D01*
X205234Y425594D01*
X206100Y427038D01*
X206100Y428483D01*
X205234Y429927D01*
X203500Y430650D01*
X201767Y430650D01*
X200034Y429927D01*
X199167Y428483D01*
G54D12*
X146686Y441057D02*
X146686Y463057D01*
X184686Y463057D01*
X184686Y441057D01*
X146686Y441057D01*
G54D11*
X189136Y462063D02*
X189136Y450507D01*
X195202Y450507D01*
G54D11*
X199247Y457729D02*
X203580Y462063D01*
X203580Y450507D01*
G54D12*
X185382Y540170D02*
X185382Y518170D01*
X147382Y518170D01*
X147382Y540170D01*
X185382Y540170D01*
G54D11*
X131256Y522831D02*
X130389Y521386D01*
X128656Y520664D01*
X126922Y520664D01*
X125189Y521386D01*
X124322Y522831D01*
X124322Y530053D01*
X125189Y531498D01*
X126922Y532220D01*
X128656Y532220D01*
X130389Y531498D01*
X131256Y530053D01*
G54D11*
X135299Y530053D02*
X136166Y531498D01*
X137899Y532220D01*
X139632Y532220D01*
X141366Y531498D01*
X142232Y530053D01*
X142232Y528609D01*
X141366Y527164D01*
X139632Y526442D01*
X141366Y525720D01*
X142232Y524275D01*
X142232Y522831D01*
X141366Y521386D01*
X139632Y520664D01*
X137899Y520664D01*
X136166Y521386D01*
X135299Y522831D01*
G54D12*
X185268Y566523D02*
X185268Y544523D01*
X147268Y544523D01*
X147268Y566523D01*
X185268Y566523D01*
G54D11*
X132742Y554784D02*
X131875Y553339D01*
X130142Y552617D01*
X128408Y552617D01*
X126675Y553339D01*
X125808Y554784D01*
X125808Y562006D01*
X126675Y563451D01*
X128408Y564173D01*
X130142Y564173D01*
X131875Y563451D01*
X132742Y562006D01*
G54D11*
X141985Y552617D02*
X141985Y564173D01*
X136785Y556951D01*
X136785Y555506D01*
X143719Y555506D01*
G54D12*
X117323Y70320D02*
X139323Y70320D01*
X139323Y32320D01*
X117323Y32320D01*
X117323Y70320D01*
G54D15*
X99850Y63569D02*
X98917Y62014D01*
X97050Y61236D01*
X95184Y61236D01*
X93317Y62014D01*
X92384Y63569D01*
X92384Y71347D01*
X93317Y72902D01*
X95184Y73680D01*
X97050Y73680D01*
X98917Y72902D01*
X99850Y71347D01*
G54D15*
X108873Y67458D02*
X107007Y67458D01*
X105140Y68236D01*
X104207Y69791D01*
X104207Y71347D01*
X105140Y72902D01*
X107007Y73680D01*
X108873Y73680D01*
X110740Y72902D01*
X111674Y71347D01*
X111674Y69791D01*
X110740Y68236D01*
X108873Y67458D01*
X110740Y66680D01*
X111674Y65125D01*
X111674Y63569D01*
X110740Y62014D01*
X108874Y61236D01*
X107007Y61236D01*
X105140Y62014D01*
X104207Y63569D01*
X104207Y65125D01*
X105140Y66680D01*
X107007Y67458D01*
G54D12*
X241100Y302700D02*
X241100Y320700D01*
X275100Y320700D01*
X275100Y302700D01*
X241100Y302700D01*
G54D11*
X223716Y314628D02*
X226316Y313183D01*
X227183Y311739D01*
X227183Y308850D01*
G54D11*
X220250Y308850D02*
X220250Y320406D01*
X224583Y320406D01*
X226316Y319683D01*
X227183Y318239D01*
X227183Y316794D01*
X226316Y315350D01*
X224583Y314628D01*
X220250Y314628D01*
G54D11*
X238160Y308850D02*
X231227Y308850D01*
X231227Y309572D01*
X232094Y311017D01*
X237294Y315350D01*
X238160Y316794D01*
X238160Y318239D01*
X237294Y319683D01*
X235560Y320406D01*
X233827Y320406D01*
X232094Y319683D01*
X231227Y318239D01*
G54D12*
X241400Y282500D02*
X241400Y300500D01*
X275400Y300500D01*
X275400Y282500D01*
X241400Y282500D01*
G54D11*
X224216Y293228D02*
X226816Y291783D01*
X227683Y290339D01*
X227683Y287450D01*
G54D11*
X220750Y287450D02*
X220750Y299006D01*
X225083Y299006D01*
X226816Y298283D01*
X227683Y296839D01*
X227683Y295394D01*
X226816Y293950D01*
X225083Y293228D01*
X220750Y293228D01*
G54D11*
X231727Y296839D02*
X232594Y298283D01*
X234327Y299006D01*
X236060Y299006D01*
X237794Y298283D01*
X238660Y296839D01*
X238660Y295394D01*
X237794Y293950D01*
X236060Y293228D01*
X237794Y292506D01*
X238660Y291061D01*
X238660Y289617D01*
X237794Y288172D01*
X236060Y287450D01*
X234327Y287450D01*
X232594Y288172D01*
X231727Y289617D01*
G54D10*
X338000Y150600D02*
X377000Y150600D01*
X377000Y101600D01*
X338000Y101600D01*
X338000Y150600D01*
G54D10*
G75*
G01X340400Y157400D02*
G03X340400Y157400I-1400J0D01*
G01*
G54D11*
X338550Y95301D02*
X338550Y85912D01*
X339416Y84467D01*
X341150Y83745D01*
X342883Y83745D01*
X344616Y84467D01*
X345483Y85912D01*
X345483Y95301D01*
G54D11*
X349527Y93134D02*
X350394Y94578D01*
X352127Y95301D01*
X353860Y95301D01*
X355594Y94578D01*
X356460Y93134D01*
X356460Y91689D01*
X355594Y90245D01*
X353860Y89523D01*
X355594Y88801D01*
X356460Y87356D01*
X356460Y85912D01*
X355594Y84467D01*
X353860Y83745D01*
X352127Y83745D01*
X350394Y84467D01*
X349527Y85912D01*
G54D12*
X321600Y181000D02*
X321600Y199000D01*
X355600Y199000D01*
X355600Y181000D01*
X321600Y181000D01*
G54D11*
X329183Y205717D02*
X328316Y204272D01*
X326583Y203550D01*
X324850Y203550D01*
X323116Y204272D01*
X322250Y205717D01*
X322250Y212939D01*
X323116Y214383D01*
X324850Y215106D01*
X326583Y215106D01*
X328316Y214383D01*
X329183Y212939D01*
G54D11*
X333227Y210772D02*
X337560Y215106D01*
X337560Y203550D01*
G54D12*
X360400Y181000D02*
X360400Y199000D01*
X394400Y199000D01*
X394400Y181000D01*
X360400Y181000D01*
G54D11*
X366016Y209428D02*
X368616Y207983D01*
X369483Y206539D01*
X369483Y203650D01*
G54D11*
X362550Y203650D02*
X362550Y215206D01*
X366883Y215206D01*
X368616Y214483D01*
X369483Y213039D01*
X369483Y211594D01*
X368616Y210150D01*
X366883Y209428D01*
X362550Y209428D01*
G54D11*
X378727Y203650D02*
X378727Y215206D01*
X373527Y207983D01*
X373527Y206539D01*
X380460Y206539D01*
G54D12*
X407000Y180700D02*
X407000Y198700D01*
X441000Y198700D01*
X441000Y180700D01*
X407000Y180700D01*
G54D11*
X415283Y206017D02*
X414416Y204572D01*
X412683Y203850D01*
X410950Y203850D01*
X409217Y204572D01*
X408350Y206017D01*
X408350Y213239D01*
X409217Y214683D01*
X410950Y215406D01*
X412683Y215406D01*
X414416Y214683D01*
X415283Y213239D01*
G54D11*
X419327Y206017D02*
X420194Y204572D01*
X421927Y203850D01*
X423660Y203850D01*
X425394Y204572D01*
X426260Y206017D01*
X426260Y209628D01*
X426260Y210350D01*
X423660Y208906D01*
X421927Y208906D01*
X420194Y209628D01*
X419327Y211072D01*
X419327Y213239D01*
X420194Y214683D01*
X421927Y215406D01*
X423660Y215406D01*
X425394Y214683D01*
X426260Y213239D01*
X426260Y209628D01*
G54D10*
X408200Y174900D02*
X438600Y174900D01*
X438600Y146600D01*
X408200Y146600D01*
X408200Y174900D01*
G54D11*
X438816Y81028D02*
X441416Y79583D01*
X442283Y78139D01*
X442283Y75250D01*
G54D11*
X435350Y75250D02*
X435350Y86806D01*
X439683Y86806D01*
X441417Y86083D01*
X442283Y84639D01*
X442283Y83194D01*
X441416Y81750D01*
X439683Y81028D01*
X435350Y81028D01*
G54D11*
X453260Y86806D02*
X446327Y86806D01*
X446327Y81750D01*
X447194Y81750D01*
X448927Y82472D01*
X450660Y82472D01*
X452394Y81750D01*
X453260Y80306D01*
X453260Y77417D01*
X452394Y75972D01*
X450660Y75250D01*
X448927Y75250D01*
X447194Y75972D01*
X446327Y77417D01*
G54D10*
X408200Y141800D02*
X454300Y141800D01*
X454300Y92700D01*
X408200Y92700D01*
X408200Y141800D01*
G54D11*
X409150Y87806D02*
X409150Y76250D01*
X415216Y76250D01*
G54D11*
X426194Y76250D02*
X419261Y76250D01*
X419261Y76972D01*
X420128Y78417D01*
X425328Y82750D01*
X426194Y84194D01*
X426194Y85639D01*
X425328Y87083D01*
X423594Y87806D01*
X421861Y87806D01*
X420128Y87083D01*
X419261Y85639D01*
G54D17*
X461775Y176787D02*
X461775Y146188D01*
X446575Y146188D01*
X446575Y176788D01*
X461775Y176787D01*
G54D17*
X461775Y176787D02*
X461775Y178288D01*
X446675Y178288D01*
X446675Y176787D01*
X461775Y176787D01*
G54D11*
X448798Y184830D02*
X448798Y196386D01*
X453131Y196386D01*
X454865Y195664D01*
X455731Y194219D01*
X455731Y186997D01*
X454865Y185553D01*
X453131Y184830D01*
X448798Y184830D01*
G54D11*
X459775Y192053D02*
X464108Y196386D01*
X464108Y184830D01*
G54D20*
X411300Y33067D02*
X411300Y14400D01*
X421100Y14400D01*
G54D20*
X436033Y14400D02*
X426233Y14400D01*
X426233Y33067D01*
X436033Y33067D01*
G54D20*
X426233Y23733D02*
X436033Y23733D01*
G54D20*
X441166Y14400D02*
X441166Y33067D01*
X448166Y33067D01*
X450966Y31900D01*
X452366Y29567D01*
X452366Y17900D01*
X450966Y15567D01*
X448166Y14400D01*
X441166Y14400D01*
G54D20*
X457499Y22567D02*
X468699Y22567D01*
G54D20*
X463099Y27233D02*
X463099Y17900D01*
G54D20*
X406400Y587167D02*
X406400Y568500D01*
X416200Y568500D01*
G54D20*
X431133Y568500D02*
X421333Y568500D01*
X421333Y587167D01*
X431133Y587167D01*
G54D20*
X421333Y577833D02*
X431133Y577833D01*
G54D20*
X436266Y568500D02*
X436266Y587167D01*
X443266Y587167D01*
X446066Y586000D01*
X447466Y583667D01*
X447466Y572000D01*
X446066Y569667D01*
X443266Y568500D01*
X436266Y568500D01*
G54D20*
X452599Y576667D02*
X463799Y576667D01*
G54D10*
G75*
G01X230200Y189300D02*
G03X230200Y189300I-4400J0D01*
G01*
G36*
G75*
G01X230200Y189300D02*
G03X230200Y189300I-4400J0D01*
G01*
G37*
X230200Y189300D01*
G54D12*
X306000Y51900D02*
X306000Y69900D01*
X340000Y69900D01*
X340000Y51900D01*
X306000Y51900D01*
G54D11*
X325916Y38528D02*
X328517Y37083D01*
X329383Y35639D01*
X329383Y32750D01*
G54D11*
X322450Y32750D02*
X322450Y44306D01*
X326783Y44306D01*
X328517Y43583D01*
X329383Y42139D01*
X329383Y40694D01*
X328516Y39250D01*
X326783Y38528D01*
X322450Y38528D01*
G54D11*
X333427Y44306D02*
X340360Y44306D01*
X339494Y42861D01*
X337760Y40694D01*
X336027Y37806D01*
X335160Y35639D01*
X335160Y32750D01*
G54D12*
X153040Y376179D02*
X153040Y358179D01*
X119040Y358179D01*
X119040Y376179D01*
X153040Y376179D01*
G54D11*
X143646Y330350D02*
X146246Y328906D01*
X147112Y327462D01*
X147112Y324573D01*
G54D11*
X140179Y324573D02*
X140179Y336128D01*
X144513Y336128D01*
X146246Y335406D01*
X147112Y333962D01*
X147112Y332517D01*
X146246Y331073D01*
X144513Y330350D01*
X140179Y330350D01*
G54D11*
X155490Y330350D02*
X153756Y330350D01*
X152023Y331073D01*
X151156Y332517D01*
X151156Y333962D01*
X152023Y335406D01*
X153756Y336128D01*
X155490Y336128D01*
X157223Y335406D01*
X158090Y333962D01*
X158090Y332517D01*
X157223Y331073D01*
X155490Y330350D01*
X157223Y329628D01*
X158090Y328184D01*
X158090Y326739D01*
X157223Y325295D01*
X155490Y324573D01*
X153756Y324573D01*
X152023Y325295D01*
X151156Y326739D01*
X151156Y328184D01*
X152023Y329628D01*
X153756Y330350D01*
G54D12*
X156218Y266365D02*
X168946Y279093D01*
X192988Y255052D01*
X180260Y242324D01*
X156218Y266365D01*
G54D11*
X180380Y284279D02*
X181197Y281419D01*
X180788Y279784D01*
X178746Y277742D01*
G54D11*
X173843Y282644D02*
X182014Y290815D01*
X185078Y287751D01*
X185793Y286015D01*
X185384Y284381D01*
X184363Y283359D01*
X182729Y282951D01*
X180992Y283666D01*
X177928Y286730D01*
G54D11*
X186712Y279989D02*
X192840Y279989D01*
X184669Y271818D01*
G54D11*
X192635Y274066D02*
X198763Y274066D01*
X190592Y265895D01*
G54D12*
X204281Y266393D02*
X217009Y253665D01*
X192967Y229624D01*
X180239Y242352D01*
X204281Y266393D01*
G54D11*
X169751Y217481D02*
X170160Y215847D01*
X169444Y214110D01*
X168219Y212885D01*
X166482Y212170D01*
X164848Y212578D01*
X159742Y217685D01*
X159333Y219319D01*
X160048Y221056D01*
X161274Y222281D01*
X163010Y222996D01*
X164644Y222588D01*
G54D11*
X169035Y223915D02*
X169035Y230043D01*
X177206Y221872D01*
G54D11*
X176797Y237805D02*
X171895Y232903D01*
X175470Y229328D01*
X176082Y229941D01*
X176797Y231677D01*
X178023Y232903D01*
X179759Y233618D01*
X181394Y233209D01*
X183436Y231166D01*
X183845Y229532D01*
X183130Y227796D01*
X181904Y226570D01*
X180168Y225855D01*
X178534Y226264D01*
G54D12*
X152940Y357679D02*
X152940Y339679D01*
X118940Y339679D01*
X118940Y357679D01*
X152940Y357679D01*
G54D11*
X161946Y365350D02*
X164546Y363906D01*
X165413Y362462D01*
X165413Y359573D01*
G54D11*
X158479Y359573D02*
X158479Y371128D01*
X162813Y371128D01*
X164546Y370406D01*
X165413Y368962D01*
X165413Y367517D01*
X164546Y366073D01*
X162812Y365350D01*
X158479Y365350D01*
G54D11*
X173790Y365351D02*
X172056Y365350D01*
X170323Y366073D01*
X169456Y367517D01*
X169456Y368962D01*
X170323Y370406D01*
X172056Y371128D01*
X173790Y371128D01*
X175523Y370406D01*
X176390Y368962D01*
X176390Y367517D01*
X175523Y366073D01*
X173790Y365351D01*
X175523Y364628D01*
X176390Y363184D01*
X176390Y361739D01*
X175523Y360295D01*
X173790Y359573D01*
X172056Y359573D01*
X170323Y360295D01*
X169456Y361739D01*
X169456Y363184D01*
X170323Y364628D01*
X172056Y365350D01*
G54D13*
X198964Y314811D02*
X220964Y314811D01*
X220964Y279811D01*
X198964Y279811D01*
X198964Y314811D01*
G54D10*
G75*
G01X710500Y297500D02*
G03X710500Y297500I-15000J0D01*
G01*
G54D10*
G75*
G01X695500Y427500D02*
G03X695500Y167500I0J-130000D01*
G01*
G54D11*
X876863Y219006D02*
X876863Y209618D01*
X877730Y208173D01*
X879463Y207451D01*
X881196Y207451D01*
X882930Y208173D01*
X883796Y209618D01*
X883796Y219006D01*
G54D11*
X893040Y207451D02*
X893040Y219006D01*
X887840Y211784D01*
X887840Y210340D01*
X894774Y210340D01*
G54D12*
G75*
G01X975899Y221290D02*
G03X975899Y221290I-2000J0D01*
G01*
G36*
G75*
G01X975899Y221290D02*
G03X975899Y221290I-2000J0D01*
G01*
G37*
X975899Y221290D01*
G54D12*
X1004378Y275558D02*
X1022378Y275558D01*
X1022378Y241558D01*
X1004378Y241558D01*
X1004378Y275558D01*
G54D11*
X1034096Y244102D02*
X1033229Y242657D01*
X1031496Y241935D01*
X1029762Y241935D01*
X1028029Y242657D01*
X1027162Y244102D01*
X1027162Y251324D01*
X1028029Y252768D01*
X1029762Y253490D01*
X1031496Y253490D01*
X1033229Y252768D01*
X1034096Y251324D01*
G54D11*
X1038139Y249157D02*
X1042473Y253490D01*
X1042473Y241935D01*
G54D11*
X1046516Y249157D02*
X1050850Y253490D01*
X1050850Y241935D01*
G54D13*
X876122Y336517D02*
X1002122Y336517D01*
X1002122Y226517D01*
X876122Y226517D01*
X876122Y336517D01*
G54D14*
X901132Y415109D02*
X902799Y414109D01*
X903632Y412109D01*
X903632Y410110D01*
X902799Y408109D01*
X901132Y407110D01*
X892799Y407109D01*
X891132Y408109D01*
X890299Y410110D01*
X890299Y412109D01*
X891132Y414109D01*
X892799Y415109D01*
G54D14*
X903633Y419776D02*
X890299Y419776D01*
G54D14*
X903633Y427776D02*
X890299Y427776D01*
G54D14*
X896966Y419776D02*
X896966Y427776D01*
G54D14*
X896966Y436443D02*
X896966Y440444D01*
X901132Y440444D01*
X902799Y439443D01*
X903633Y437444D01*
X903632Y435443D01*
X902799Y433443D01*
X901132Y432443D01*
X892799Y432443D01*
X891132Y433443D01*
X890299Y435443D01*
X890299Y437444D01*
X891132Y439443D01*
X892799Y440444D01*
G54D13*
X951715Y368410D02*
X951715Y400160D01*
X1002515Y400160D01*
X1002515Y368410D01*
X951715Y368410D01*
G54D11*
X1007693Y398081D02*
X1007693Y388692D01*
X1008559Y387247D01*
X1010293Y386525D01*
X1012026Y386525D01*
X1013759Y387247D01*
X1014626Y388692D01*
X1014626Y398081D01*
G54D11*
X1025603Y398081D02*
X1018670Y398081D01*
X1018670Y393025D01*
X1019536Y393025D01*
X1021270Y393747D01*
X1023003Y393747D01*
X1024736Y393025D01*
X1025603Y391581D01*
X1025603Y388692D01*
X1024736Y387247D01*
X1023003Y386525D01*
X1021270Y386525D01*
X1019536Y387247D01*
X1018670Y388692D01*
G54D12*
X1002715Y436060D02*
X1002715Y410060D01*
X952715Y410060D01*
X952715Y436060D01*
X1002715Y436060D01*
G54D11*
X1016510Y413321D02*
X1015644Y411877D01*
X1013910Y411154D01*
X1012177Y411154D01*
X1010444Y411877D01*
X1009577Y413321D01*
X1009577Y420544D01*
X1010444Y421988D01*
X1012177Y422710D01*
X1013910Y422710D01*
X1015644Y421988D01*
X1016510Y420544D01*
G54D11*
X1020554Y418377D02*
X1024888Y422710D01*
X1024888Y411154D01*
G54D11*
X1035864Y411154D02*
X1028931Y411154D01*
X1028931Y411877D01*
X1029798Y413321D01*
X1034998Y417654D01*
X1035864Y419099D01*
X1035864Y420544D01*
X1034998Y421988D01*
X1033264Y422710D01*
X1031531Y422710D01*
X1029798Y421988D01*
X1028931Y420544D01*
G54D12*
X926315Y401460D02*
X926315Y375460D01*
X876315Y375460D01*
X876315Y401460D01*
X926315Y401460D01*
G54D11*
X847011Y377221D02*
X846144Y375776D01*
X844411Y375054D01*
X842677Y375054D01*
X840944Y375776D01*
X840077Y377221D01*
X840077Y384443D01*
X840944Y385887D01*
X842677Y386610D01*
X844411Y386610D01*
X846144Y385887D01*
X847010Y384443D01*
G54D11*
X851054Y382276D02*
X855388Y386610D01*
X855388Y375054D01*
G54D11*
X859431Y384443D02*
X860298Y385887D01*
X862031Y386610D01*
X863765Y386610D01*
X865498Y385887D01*
X866365Y384443D01*
X866365Y382998D01*
X865498Y381554D01*
X863765Y380832D01*
X865498Y380110D01*
X866365Y378665D01*
X866365Y377221D01*
X865498Y375776D01*
X863765Y375054D01*
X862031Y375054D01*
X860298Y375776D01*
X859431Y377221D01*
G54D12*
X968315Y343560D02*
X968315Y361560D01*
X1002315Y361560D01*
X1002315Y343560D01*
X968315Y343560D01*
G54D11*
X947244Y351132D02*
X949844Y349687D01*
X950710Y348243D01*
X950710Y345354D01*
G54D11*
X943777Y345354D02*
X943777Y356910D01*
X948110Y356910D01*
X949844Y356187D01*
X950710Y354743D01*
X950710Y353298D01*
X949844Y351854D01*
X948110Y351132D01*
X943777Y351132D01*
G54D11*
X961688Y354743D02*
X960821Y356187D01*
X959088Y356910D01*
X957354Y356910D01*
X955621Y356187D01*
X954754Y354743D01*
X954754Y351132D01*
X954754Y350410D01*
X957354Y351854D01*
X959088Y351854D01*
X960821Y351132D01*
X961688Y349687D01*
X961688Y347521D01*
X960821Y346076D01*
X959088Y345354D01*
X957354Y345354D01*
X955621Y346076D01*
X954754Y347521D01*
X954754Y351132D01*
G54D15*
X815070Y107524D02*
X807920Y100374D01*
X807480Y98615D01*
X808250Y96745D01*
X809570Y95425D01*
X811440Y94655D01*
X813200Y95095D01*
X820350Y102244D01*
G54D15*
X819910Y85085D02*
X814630Y90364D01*
X815180Y90914D01*
X816940Y91354D01*
X824200Y90694D01*
X825960Y91134D01*
X827060Y92234D01*
X827500Y93994D01*
X826730Y95864D01*
X825410Y97184D01*
X823540Y97954D01*
X821780Y97514D01*
G54D12*
X860298Y92805D02*
X844742Y108362D01*
X871612Y135232D01*
X887169Y119675D01*
X860298Y92805D01*
G54D15*
X868847Y82804D02*
X867087Y82364D01*
X865217Y83134D01*
X863897Y84454D01*
X863127Y86324D01*
X863567Y88084D01*
X869067Y93584D01*
X870827Y94024D01*
X872697Y93254D01*
X874017Y91934D01*
X874787Y90064D01*
X874347Y88304D01*
G54D15*
X884357Y81594D02*
X879077Y86874D01*
X875227Y83024D01*
X875887Y82364D01*
X877757Y81594D01*
X879077Y80274D01*
X879847Y78404D01*
X879407Y76644D01*
X877207Y74444D01*
X875447Y74004D01*
X873577Y74774D01*
X872257Y76094D01*
X871487Y77964D01*
X871927Y79724D01*
G54D12*
X763296Y187319D02*
X747740Y202875D01*
X774610Y229745D01*
X790166Y214189D01*
X763296Y187319D01*
G54D15*
X807059Y265462D02*
X805299Y265022D01*
X803429Y265792D01*
X802109Y267112D01*
X801339Y268982D01*
X801779Y270742D01*
X807279Y276242D01*
X809039Y276682D01*
X810909Y275912D01*
X812229Y274592D01*
X812998Y272722D01*
X812559Y270962D01*
G54D15*
X817289Y269531D02*
X822569Y264252D01*
X820809Y263812D01*
X817839Y263482D01*
X814319Y262602D01*
X812009Y261612D01*
X809809Y259412D01*
G54D12*
X733818Y32547D02*
X753818Y32547D01*
X753818Y70547D01*
X733818Y70547D01*
X733818Y32547D01*
G54D11*
X741146Y14955D02*
X742591Y17555D01*
X744035Y18421D01*
X746924Y18421D01*
G54D11*
X746924Y11488D02*
X735369Y11488D01*
X735369Y15821D01*
X736091Y17555D01*
X737535Y18421D01*
X738980Y18421D01*
X740424Y17555D01*
X741146Y15821D01*
X741146Y11488D01*
G54D11*
X739702Y22465D02*
X735369Y26798D01*
X746924Y26798D01*
G54D12*
X743634Y161411D02*
X714834Y161411D01*
X714834Y186711D01*
X743634Y186711D01*
X743634Y161411D01*
G54D12*
X743073Y159199D02*
X743073Y145199D01*
X715073Y145199D01*
X715073Y159199D01*
X743073Y159199D01*
G54D11*
X723310Y129048D02*
X722443Y127603D01*
X720710Y126881D01*
X718976Y126881D01*
X717243Y127603D01*
X716376Y129048D01*
X716376Y136270D01*
X717243Y137714D01*
X718976Y138436D01*
X720710Y138436D01*
X722443Y137714D01*
X723310Y136270D01*
G54D11*
X727353Y134103D02*
X731686Y138436D01*
X731687Y126881D01*
G54D11*
X742664Y136270D02*
X742664Y129048D01*
X741797Y127603D01*
X740064Y126881D01*
X738330Y126881D01*
X736597Y127603D01*
X735730Y129048D01*
X735730Y136270D01*
X736597Y137714D01*
X738330Y138436D01*
X740064Y138436D01*
X741797Y137714D01*
X742664Y136270D01*
G54D12*
X743143Y202827D02*
X743143Y188827D01*
X715143Y188827D01*
X715143Y202827D01*
X743143Y202827D01*
G54D11*
X721922Y213227D02*
X721055Y211782D01*
X719322Y211060D01*
X717588Y211060D01*
X715855Y211782D01*
X714988Y213227D01*
X714988Y220449D01*
X715855Y221893D01*
X717588Y222616D01*
X719322Y222616D01*
X721055Y221893D01*
X721922Y220449D01*
G54D11*
X732898Y220449D02*
X732032Y221893D01*
X730298Y222616D01*
X728565Y222616D01*
X726832Y221893D01*
X725965Y220449D01*
X725965Y216838D01*
X725965Y216116D01*
X728565Y217560D01*
X730298Y217560D01*
X732032Y216838D01*
X732898Y215393D01*
X732898Y213227D01*
X732032Y211782D01*
X730298Y211060D01*
X728565Y211060D01*
X726832Y211782D01*
X725965Y213227D01*
X725965Y216838D01*
G54D11*
X694969Y175877D02*
X703636Y164321D01*
G54D11*
X694969Y164321D02*
X703636Y175877D01*
G54D11*
X707680Y171543D02*
X712013Y175877D01*
X712013Y164321D01*
G54D16*
X778575Y11139D02*
X778575Y26250D01*
G54D16*
X783864Y13972D02*
X784997Y12083D01*
X787264Y11139D01*
X789530Y11139D01*
X791797Y12084D01*
X792930Y13972D01*
X792930Y15861D01*
X791797Y17750D01*
X789530Y18694D01*
X787264Y18694D01*
X784997Y19639D01*
X783864Y21528D01*
X783864Y23417D01*
X784997Y25306D01*
X787264Y26250D01*
X789530Y26250D01*
X791797Y25306D01*
X792930Y23417D01*
G54D16*
X798220Y11139D02*
X798220Y26250D01*
X803886Y26250D01*
X806153Y25306D01*
X807286Y23417D01*
X807286Y21528D01*
X806153Y19639D01*
X803886Y18694D01*
X798220Y18694D01*
G54D13*
X852916Y32249D02*
X776716Y32249D01*
X776716Y83049D01*
X852916Y83049D01*
X852916Y32249D01*
G54D17*
X881144Y461525D02*
X828144Y461525D01*
X828144Y563525D01*
X881144Y563525D01*
X881144Y461525D01*
G54D18*
X829624Y581425D02*
X829624Y572037D01*
X830491Y570592D01*
X832224Y569870D01*
X833957Y569870D01*
X835691Y570592D01*
X836557Y572037D01*
X836557Y581425D01*
G54D18*
X839735Y577092D02*
X844068Y581425D01*
X844068Y569870D01*
G54D19*
X850754Y544888D02*
X850754Y548499D01*
X850420Y549055D01*
X849754Y549332D01*
X849087Y549332D01*
X848420Y549055D01*
X848087Y548499D01*
X848087Y544888D01*
G54D19*
X846864Y548499D02*
X846531Y549055D01*
X845864Y549332D01*
X845198Y549332D01*
X844531Y549055D01*
X844198Y548499D01*
X844198Y547943D01*
X844531Y547388D01*
X845198Y547110D01*
X845864Y547110D01*
X846531Y546832D01*
X846864Y546277D01*
X846864Y545721D01*
X846531Y545166D01*
X845864Y544888D01*
X845198Y544888D01*
X844531Y545166D01*
X844198Y545721D01*
G54D19*
X842976Y549332D02*
X842976Y544888D01*
X841309Y544888D01*
X840642Y545166D01*
X840309Y545721D01*
X840309Y546277D01*
X840642Y546832D01*
X841309Y547110D01*
X840642Y547388D01*
X840309Y547944D01*
X840309Y548499D01*
X840642Y549055D01*
X841309Y549332D01*
X842976Y549332D01*
G54D19*
X842976Y547110D02*
X841309Y547110D01*
G54D19*
X839086Y549332D02*
X839086Y544888D01*
X837420Y544888D01*
X836753Y545166D01*
X836420Y545721D01*
X836420Y548499D01*
X836753Y549055D01*
X837420Y549332D01*
X839086Y549332D01*
G54D19*
X835198Y549332D02*
X835198Y544888D01*
X833531Y547666D01*
X831864Y544888D01*
X831864Y549332D01*
G54D19*
X850820Y551888D02*
X850820Y555499D01*
X850487Y556055D01*
X849820Y556332D01*
X849154Y556332D01*
X848487Y556055D01*
X848154Y555499D01*
X848154Y551888D01*
G54D19*
X846932Y555499D02*
X846598Y556055D01*
X845932Y556332D01*
X845265Y556332D01*
X844598Y556055D01*
X844265Y555499D01*
X844265Y554944D01*
X844598Y554388D01*
X845265Y554110D01*
X845932Y554110D01*
X846598Y553832D01*
X846932Y553277D01*
X846932Y552721D01*
X846598Y552166D01*
X845932Y551888D01*
X845265Y551888D01*
X844598Y552166D01*
X844265Y552721D01*
G54D19*
X843042Y556332D02*
X843042Y551888D01*
X841376Y551888D01*
X840709Y552166D01*
X840376Y552721D01*
X840376Y553277D01*
X840709Y553832D01*
X841376Y554110D01*
X840709Y554388D01*
X840376Y554944D01*
X840376Y555499D01*
X840709Y556055D01*
X841376Y556332D01*
X843042Y556332D01*
G54D19*
X843042Y554110D02*
X841376Y554110D01*
G54D19*
X839154Y556332D02*
X839154Y551888D01*
X837487Y551888D01*
X836820Y552166D01*
X836487Y552721D01*
X836487Y555499D01*
X836820Y556055D01*
X837487Y556332D01*
X839154Y556332D01*
G54D19*
X835264Y556332D02*
X835264Y551888D01*
X833598Y551888D01*
X832931Y552166D01*
X832598Y552721D01*
X832598Y553277D01*
X832931Y553832D01*
X833598Y554110D01*
X835264Y554110D01*
G54D19*
X843254Y518888D02*
X841587Y523332D01*
X839920Y518888D01*
G54D19*
X836032Y522499D02*
X836365Y523055D01*
X837032Y523332D01*
X837698Y523332D01*
X838365Y523055D01*
X838698Y522499D01*
X838698Y519721D01*
X838365Y519166D01*
X837698Y518888D01*
X837032Y518888D01*
X836365Y519166D01*
X836032Y519721D01*
G54D19*
X832143Y522499D02*
X832476Y523055D01*
X833143Y523332D01*
X833810Y523332D01*
X834476Y523055D01*
X834810Y522499D01*
X834810Y519721D01*
X834476Y519166D01*
X833810Y518888D01*
X833143Y518888D01*
X832476Y519166D01*
X832143Y519721D01*
G54D19*
X879254Y486888D02*
X877587Y491332D01*
X875920Y486888D01*
G54D19*
X872032Y490499D02*
X872365Y491055D01*
X873032Y491332D01*
X873698Y491332D01*
X874365Y491055D01*
X874698Y490499D01*
X874698Y487721D01*
X874365Y487166D01*
X873698Y486888D01*
X873032Y486888D01*
X872365Y487166D01*
X872032Y487721D01*
G54D19*
X868143Y490499D02*
X868476Y491055D01*
X869143Y491332D01*
X869810Y491332D01*
X870476Y491055D01*
X870810Y490499D01*
X870810Y487721D01*
X870476Y487166D01*
X869810Y486888D01*
X869143Y486888D01*
X868476Y487166D01*
X868143Y487721D01*
G54D19*
X866921Y491332D02*
X866920Y486888D01*
G54D19*
X863032Y487721D02*
X863032Y490499D01*
X863365Y491055D01*
X864032Y491332D01*
X864699Y491332D01*
X865365Y491055D01*
X865698Y490499D01*
X865699Y487721D01*
X865365Y487166D01*
X864699Y486888D01*
X864032Y486888D01*
X863365Y487166D01*
X863032Y487721D01*
G54D19*
X877920Y471832D02*
X877920Y467388D01*
G54D19*
X879254Y467388D02*
X876587Y467388D01*
G54D19*
X875365Y467388D02*
X872031Y471832D01*
G54D19*
X875365Y471832D02*
X872031Y467388D01*
G54D19*
X870810Y471832D02*
X870810Y467388D01*
X869143Y467388D01*
X868476Y467666D01*
X868143Y468221D01*
X868143Y470999D01*
X868476Y471555D01*
X869143Y471832D01*
X870810Y471832D01*
G54D19*
X876920Y495610D02*
X875920Y496166D01*
X875587Y496721D01*
X875587Y497832D01*
G54D19*
X878254Y497832D02*
X878254Y493388D01*
X876587Y493388D01*
X875920Y493666D01*
X875587Y494221D01*
X875587Y494777D01*
X875920Y495332D01*
X876587Y495610D01*
X878254Y495610D01*
G54D19*
X874364Y493388D02*
X871031Y497832D01*
G54D19*
X874364Y497832D02*
X871031Y493388D01*
G54D19*
X869810Y497832D02*
X869810Y493388D01*
X868143Y493388D01*
X867476Y493666D01*
X867143Y494221D01*
X867143Y496999D01*
X867476Y497555D01*
X868143Y497832D01*
X869810Y497832D01*
G54D17*
G75*
G01X866143Y469777D02*
G03X866143Y469777I-5000J0D01*
G01*
G54D19*
X855254Y539221D02*
X854920Y538666D01*
X854254Y538388D01*
X853587Y538388D01*
X852920Y538666D01*
X852587Y539221D01*
X852587Y539777D01*
X852920Y540332D01*
X853587Y540610D01*
X852920Y540888D01*
X852587Y541443D01*
X852587Y541999D01*
X852920Y542555D01*
X853587Y542832D01*
X854254Y542832D01*
X854920Y542555D01*
X855254Y541999D01*
G54D19*
X851365Y538388D02*
X849698Y542832D01*
X848031Y538388D01*
G54D19*
X846810Y539221D02*
X846476Y538666D01*
X845810Y538388D01*
X845143Y538388D01*
X844476Y538666D01*
X844143Y539221D01*
X844143Y539777D01*
X844476Y540332D01*
X845143Y540610D01*
X844476Y540888D01*
X844143Y541443D01*
X844143Y541999D01*
X844476Y542555D01*
X845143Y542832D01*
X845810Y542832D01*
X846476Y542555D01*
X846810Y541999D01*
G54D19*
X840254Y539221D02*
X840254Y541999D01*
X840587Y542555D01*
X841254Y542832D01*
X841921Y542832D01*
X842587Y542555D01*
X842920Y541999D01*
X842920Y539221D01*
X842587Y538666D01*
X841920Y538388D01*
X841254Y538388D01*
X840587Y538666D01*
X840254Y539221D01*
G54D19*
X839032Y538388D02*
X839032Y541999D01*
X838698Y542555D01*
X838032Y542832D01*
X837365Y542832D01*
X836698Y542555D01*
X836365Y541999D01*
X836365Y538388D01*
G54D19*
X833809Y542832D02*
X833809Y538388D01*
G54D19*
X835143Y538388D02*
X832476Y538388D01*
G54D19*
X847087Y502999D02*
X847420Y503555D01*
X848087Y503832D01*
X848754Y503832D01*
X849420Y503555D01*
X849754Y502999D01*
X849754Y500221D01*
X849420Y499666D01*
X848754Y499388D01*
X848087Y499388D01*
X847420Y499666D01*
X847087Y500221D01*
G54D19*
X845864Y503832D02*
X845864Y499388D01*
X844198Y499388D01*
X843531Y499666D01*
X843198Y500221D01*
X843198Y500777D01*
X843531Y501332D01*
X844198Y501610D01*
X843531Y501888D01*
X843198Y502444D01*
X843198Y502999D01*
X843531Y503555D01*
X844198Y503832D01*
X845864Y503832D01*
G54D19*
X845864Y501610D02*
X844198Y501610D01*
G54D19*
X841976Y499388D02*
X841976Y502999D01*
X841642Y503555D01*
X840976Y503832D01*
X840309Y503832D01*
X839642Y503555D01*
X839309Y502999D01*
X839309Y499388D01*
G54D19*
X838087Y502999D02*
X837753Y503555D01*
X837086Y503832D01*
X836420Y503832D01*
X835753Y503555D01*
X835420Y502999D01*
X835420Y502444D01*
X835753Y501888D01*
X836420Y501610D01*
X837086Y501610D01*
X837753Y501332D01*
X838086Y500777D01*
X838086Y500221D01*
X837753Y499666D01*
X837086Y499388D01*
X836420Y499388D01*
X835753Y499666D01*
X835420Y500221D01*
G54D19*
X831531Y500221D02*
X831531Y502999D01*
X831864Y503555D01*
X832531Y503832D01*
X833198Y503832D01*
X833864Y503555D01*
X834198Y502999D01*
X834198Y500221D01*
X833864Y499666D01*
X833197Y499388D01*
X832531Y499388D01*
X831864Y499666D01*
X831531Y500221D01*
G54D19*
X847087Y509999D02*
X847420Y510555D01*
X848087Y510832D01*
X848754Y510832D01*
X849420Y510555D01*
X849754Y509999D01*
X849754Y507221D01*
X849420Y506666D01*
X848754Y506388D01*
X848087Y506388D01*
X847420Y506666D01*
X847087Y507221D01*
G54D19*
X845864Y510832D02*
X845864Y506388D01*
X844198Y506388D01*
X843531Y506666D01*
X843198Y507221D01*
X843198Y507777D01*
X843531Y508332D01*
X844198Y508610D01*
X843531Y508888D01*
X843198Y509444D01*
X843198Y509999D01*
X843531Y510555D01*
X844198Y510832D01*
X845864Y510832D01*
G54D19*
X845864Y508610D02*
X844198Y508610D01*
G54D19*
X841976Y506388D02*
X841976Y509999D01*
X841642Y510555D01*
X840976Y510832D01*
X840309Y510832D01*
X839642Y510555D01*
X839309Y509999D01*
X839309Y506388D01*
G54D19*
X838086Y509999D02*
X837753Y510555D01*
X837086Y510832D01*
X836420Y510832D01*
X835753Y510555D01*
X835420Y509999D01*
X835420Y509443D01*
X835753Y508888D01*
X836420Y508610D01*
X837086Y508610D01*
X837753Y508332D01*
X838086Y507777D01*
X838086Y507221D01*
X837753Y506666D01*
X837086Y506388D01*
X836420Y506388D01*
X835753Y506666D01*
X835420Y507221D01*
G54D19*
X834198Y508055D02*
X832531Y506388D01*
X832531Y510832D01*
G54D19*
X848420Y527610D02*
X847420Y528166D01*
X847087Y528721D01*
X847087Y529832D01*
G54D19*
X849753Y529832D02*
X849754Y525388D01*
X848087Y525388D01*
X847420Y525666D01*
X847087Y526221D01*
X847087Y526777D01*
X847420Y527332D01*
X848087Y527610D01*
X849754Y527610D01*
G54D19*
X843531Y529832D02*
X845864Y529832D01*
X845864Y525388D01*
X843531Y525388D01*
G54D19*
X845864Y527610D02*
X843531Y527610D01*
G54D19*
X842310Y528999D02*
X841976Y529555D01*
X841310Y529832D01*
X840643Y529832D01*
X839976Y529555D01*
X839643Y528999D01*
X839643Y528443D01*
X839976Y527888D01*
X840643Y527610D01*
X841310Y527610D01*
X841976Y527332D01*
X842310Y526777D01*
X842310Y526221D01*
X841976Y525666D01*
X841310Y525388D01*
X840643Y525388D01*
X839976Y525666D01*
X839643Y526221D01*
G54D19*
X836087Y529832D02*
X838420Y529832D01*
X838420Y525388D01*
X836087Y525388D01*
G54D19*
X838420Y527610D02*
X836087Y527610D01*
G54D19*
X833532Y529832D02*
X833532Y525388D01*
G54D19*
X834866Y525388D02*
X832199Y525388D01*
G54D12*
X774750Y438900D02*
X774750Y416900D01*
X736750Y416900D01*
X736750Y438900D01*
X774750Y438900D01*
G54D11*
X785123Y421261D02*
X784256Y419816D01*
X782523Y419094D01*
X780790Y419094D01*
X779056Y419816D01*
X778190Y421261D01*
X778190Y428483D01*
X779056Y429927D01*
X780790Y430650D01*
X782523Y430650D01*
X784256Y429927D01*
X785123Y428483D01*
G54D11*
X796100Y419094D02*
X789167Y419094D01*
X789167Y419816D01*
X790034Y421261D01*
X795234Y425594D01*
X796100Y427038D01*
X796100Y428483D01*
X795234Y429927D01*
X793500Y430650D01*
X791767Y430650D01*
X790034Y429927D01*
X789167Y428483D01*
G54D12*
X736686Y441057D02*
X736686Y463057D01*
X774686Y463057D01*
X774686Y441057D01*
X736686Y441057D01*
G54D11*
X779136Y462063D02*
X779136Y450507D01*
X785203Y450507D01*
G54D11*
X789247Y457729D02*
X793580Y462063D01*
X793580Y450507D01*
G54D12*
X775382Y540170D02*
X775382Y518170D01*
X737382Y518170D01*
X737382Y540170D01*
X775382Y540170D01*
G54D11*
X721256Y522831D02*
X720389Y521386D01*
X718656Y520664D01*
X716922Y520664D01*
X715189Y521386D01*
X714322Y522831D01*
X714322Y530053D01*
X715189Y531498D01*
X716922Y532220D01*
X718656Y532220D01*
X720389Y531498D01*
X721256Y530053D01*
G54D11*
X725299Y530053D02*
X726166Y531498D01*
X727899Y532220D01*
X729632Y532220D01*
X731366Y531498D01*
X732232Y530053D01*
X732232Y528609D01*
X731366Y527164D01*
X729632Y526442D01*
X731366Y525720D01*
X732232Y524275D01*
X732232Y522831D01*
X731366Y521386D01*
X729632Y520664D01*
X727899Y520664D01*
X726166Y521386D01*
X725299Y522831D01*
G54D12*
X775268Y566523D02*
X775268Y544523D01*
X737268Y544523D01*
X737268Y566523D01*
X775268Y566523D01*
G54D11*
X722742Y554784D02*
X721875Y553339D01*
X720142Y552617D01*
X718408Y552617D01*
X716675Y553339D01*
X715808Y554784D01*
X715808Y562006D01*
X716675Y563451D01*
X718408Y564173D01*
X720142Y564173D01*
X721875Y563451D01*
X722742Y562006D01*
G54D11*
X731985Y552617D02*
X731985Y564173D01*
X726785Y556951D01*
X726785Y555506D01*
X733719Y555506D01*
G54D12*
X707323Y70320D02*
X729323Y70320D01*
X729323Y32320D01*
X707323Y32320D01*
X707323Y70320D01*
G54D15*
X689850Y63569D02*
X688917Y62014D01*
X687050Y61236D01*
X685184Y61236D01*
X683317Y62014D01*
X682384Y63569D01*
X682384Y71347D01*
X683317Y72902D01*
X685184Y73680D01*
X687050Y73680D01*
X688917Y72902D01*
X689850Y71347D01*
G54D15*
X698873Y67458D02*
X697007Y67458D01*
X695140Y68236D01*
X694207Y69792D01*
X694207Y71347D01*
X695140Y72902D01*
X697007Y73680D01*
X698873Y73680D01*
X700740Y72902D01*
X701674Y71347D01*
X701674Y69792D01*
X700740Y68236D01*
X698873Y67458D01*
X700740Y66680D01*
X701674Y65125D01*
X701674Y63569D01*
X700740Y62014D01*
X698874Y61236D01*
X697007Y61236D01*
X695140Y62014D01*
X694207Y63569D01*
X694207Y65125D01*
X695140Y66680D01*
X697007Y67458D01*
G54D12*
X831100Y302700D02*
X831100Y320700D01*
X865100Y320700D01*
X865100Y302700D01*
X831100Y302700D01*
G54D11*
X813716Y314628D02*
X816316Y313183D01*
X817183Y311739D01*
X817183Y308850D01*
G54D11*
X810250Y308850D02*
X810250Y320406D01*
X814583Y320406D01*
X816316Y319683D01*
X817183Y318239D01*
X817183Y316794D01*
X816316Y315350D01*
X814583Y314628D01*
X810250Y314628D01*
G54D11*
X828160Y308850D02*
X821227Y308850D01*
X821227Y309572D01*
X822094Y311017D01*
X827294Y315350D01*
X828160Y316794D01*
X828160Y318239D01*
X827294Y319683D01*
X825560Y320406D01*
X823827Y320406D01*
X822094Y319683D01*
X821227Y318239D01*
G54D12*
X831400Y282500D02*
X831400Y300500D01*
X865400Y300500D01*
X865400Y282500D01*
X831400Y282500D01*
G54D11*
X814217Y293228D02*
X816817Y291783D01*
X817683Y290339D01*
X817683Y287450D01*
G54D11*
X810750Y287450D02*
X810750Y299006D01*
X815083Y299006D01*
X816817Y298283D01*
X817683Y296839D01*
X817683Y295394D01*
X816817Y293950D01*
X815083Y293228D01*
X810750Y293228D01*
G54D11*
X821727Y296839D02*
X822594Y298283D01*
X824327Y299006D01*
X826060Y299006D01*
X827794Y298283D01*
X828660Y296839D01*
X828660Y295394D01*
X827794Y293950D01*
X826060Y293228D01*
X827794Y292506D01*
X828660Y291061D01*
X828660Y289617D01*
X827794Y288172D01*
X826060Y287450D01*
X824327Y287450D01*
X822594Y288172D01*
X821727Y289617D01*
G54D10*
X928000Y150600D02*
X967000Y150600D01*
X967000Y101600D01*
X928000Y101600D01*
X928000Y150600D01*
G54D10*
G75*
G01X930400Y157400D02*
G03X930400Y157400I-1400J0D01*
G01*
G54D11*
X928550Y95301D02*
X928550Y85912D01*
X929416Y84467D01*
X931150Y83745D01*
X932883Y83745D01*
X934616Y84467D01*
X935483Y85912D01*
X935483Y95301D01*
G54D11*
X939527Y93134D02*
X940394Y94578D01*
X942127Y95301D01*
X943860Y95301D01*
X945594Y94578D01*
X946460Y93134D01*
X946460Y91690D01*
X945594Y90245D01*
X943860Y89523D01*
X945594Y88801D01*
X946460Y87356D01*
X946460Y85912D01*
X945594Y84467D01*
X943860Y83745D01*
X942127Y83745D01*
X940394Y84467D01*
X939527Y85912D01*
G54D12*
X911600Y181000D02*
X911600Y199000D01*
X945600Y199000D01*
X945600Y181000D01*
X911600Y181000D01*
G54D11*
X919183Y205717D02*
X918316Y204272D01*
X916583Y203550D01*
X914850Y203550D01*
X913116Y204272D01*
X912250Y205717D01*
X912250Y212939D01*
X913116Y214383D01*
X914850Y215106D01*
X916583Y215106D01*
X918316Y214383D01*
X919183Y212939D01*
G54D11*
X923227Y210772D02*
X927560Y215106D01*
X927560Y203550D01*
G54D12*
X950400Y181000D02*
X950400Y199000D01*
X984400Y199000D01*
X984400Y181000D01*
X950400Y181000D01*
G54D11*
X956016Y209428D02*
X958616Y207983D01*
X959483Y206539D01*
X959483Y203650D01*
G54D11*
X952550Y203650D02*
X952550Y215206D01*
X956883Y215206D01*
X958616Y214483D01*
X959483Y213039D01*
X959483Y211594D01*
X958616Y210150D01*
X956883Y209428D01*
X952550Y209428D01*
G54D11*
X968727Y203650D02*
X968727Y215206D01*
X963527Y207983D01*
X963527Y206539D01*
X970460Y206539D01*
G54D12*
X997000Y180700D02*
X997000Y198700D01*
X1031000Y198700D01*
X1031000Y180700D01*
X997000Y180700D01*
G54D11*
X1005283Y206017D02*
X1004416Y204572D01*
X1002683Y203850D01*
X1000950Y203850D01*
X999217Y204572D01*
X998350Y206017D01*
X998350Y213239D01*
X999217Y214683D01*
X1000950Y215406D01*
X1002683Y215406D01*
X1004416Y214683D01*
X1005283Y213239D01*
G54D11*
X1009327Y206017D02*
X1010194Y204572D01*
X1011927Y203850D01*
X1013660Y203850D01*
X1015394Y204572D01*
X1016260Y206017D01*
X1016260Y209628D01*
X1016260Y210350D01*
X1013660Y208906D01*
X1011927Y208906D01*
X1010194Y209628D01*
X1009327Y211072D01*
X1009327Y213239D01*
X1010194Y214683D01*
X1011927Y215406D01*
X1013660Y215406D01*
X1015394Y214683D01*
X1016260Y213239D01*
X1016260Y209628D01*
G54D10*
X998200Y174900D02*
X1028600Y174900D01*
X1028600Y146600D01*
X998200Y146600D01*
X998200Y174900D01*
G54D11*
X1028816Y81028D02*
X1031416Y79583D01*
X1032283Y78139D01*
X1032283Y75250D01*
G54D11*
X1025350Y75250D02*
X1025350Y86806D01*
X1029683Y86806D01*
X1031417Y86083D01*
X1032283Y84639D01*
X1032283Y83194D01*
X1031416Y81750D01*
X1029683Y81028D01*
X1025350Y81028D01*
G54D11*
X1043260Y86806D02*
X1036327Y86806D01*
X1036327Y81750D01*
X1037194Y81750D01*
X1038927Y82472D01*
X1040660Y82472D01*
X1042394Y81750D01*
X1043260Y80306D01*
X1043260Y77417D01*
X1042394Y75972D01*
X1040660Y75250D01*
X1038927Y75250D01*
X1037194Y75972D01*
X1036327Y77417D01*
G54D10*
X998200Y141800D02*
X1044300Y141800D01*
X1044300Y92700D01*
X998200Y92700D01*
X998200Y141800D01*
G54D11*
X999150Y87806D02*
X999150Y76250D01*
X1005216Y76250D01*
G54D11*
X1016194Y76250D02*
X1009261Y76250D01*
X1009261Y76972D01*
X1010128Y78417D01*
X1015328Y82750D01*
X1016194Y84194D01*
X1016194Y85639D01*
X1015328Y87083D01*
X1013594Y87806D01*
X1011861Y87806D01*
X1010128Y87083D01*
X1009261Y85639D01*
G54D17*
X1051775Y176787D02*
X1051775Y146188D01*
X1036575Y146188D01*
X1036575Y176788D01*
X1051775Y176787D01*
G54D17*
X1051775Y176787D02*
X1051775Y178288D01*
X1036675Y178288D01*
X1036675Y176787D01*
X1051775Y176787D01*
G54D11*
X1038798Y184830D02*
X1038798Y196386D01*
X1043131Y196386D01*
X1044865Y195664D01*
X1045731Y194219D01*
X1045731Y186997D01*
X1044865Y185553D01*
X1043131Y184830D01*
X1038798Y184830D01*
G54D11*
X1049775Y192053D02*
X1054108Y196386D01*
X1054108Y184830D01*
G54D20*
X1001300Y33067D02*
X1001300Y14400D01*
X1011100Y14400D01*
G54D20*
X1026033Y14400D02*
X1016233Y14400D01*
X1016233Y33067D01*
X1026033Y33067D01*
G54D20*
X1016233Y23733D02*
X1026033Y23733D01*
G54D20*
X1031166Y14400D02*
X1031166Y33067D01*
X1038166Y33067D01*
X1040966Y31900D01*
X1042366Y29567D01*
X1042366Y17900D01*
X1040966Y15567D01*
X1038166Y14400D01*
X1031166Y14400D01*
G54D20*
X1047499Y22567D02*
X1058699Y22567D01*
G54D20*
X1053099Y27233D02*
X1053099Y17900D01*
G54D20*
X996400Y587167D02*
X996400Y568500D01*
X1006200Y568500D01*
G54D20*
X1021133Y568500D02*
X1011333Y568500D01*
X1011333Y587167D01*
X1021133Y587167D01*
G54D20*
X1011333Y577833D02*
X1021133Y577833D01*
G54D20*
X1026266Y568500D02*
X1026266Y587167D01*
X1033266Y587167D01*
X1036066Y586000D01*
X1037466Y583667D01*
X1037466Y572000D01*
X1036066Y569667D01*
X1033266Y568500D01*
X1026266Y568500D01*
G54D20*
X1042599Y576667D02*
X1053799Y576667D01*
G54D10*
G75*
G01X820200Y189300D02*
G03X820200Y189300I-4400J0D01*
G01*
G36*
G75*
G01X820200Y189300D02*
G03X820200Y189300I-4400J0D01*
G01*
G37*
X820200Y189300D01*
G54D12*
X896000Y51900D02*
X896000Y69900D01*
X930000Y69900D01*
X930000Y51900D01*
X896000Y51900D01*
G54D11*
X915916Y38528D02*
X918517Y37083D01*
X919383Y35639D01*
X919383Y32750D01*
G54D11*
X912450Y32750D02*
X912450Y44306D01*
X916783Y44306D01*
X918517Y43583D01*
X919383Y42139D01*
X919383Y40694D01*
X918516Y39250D01*
X916783Y38528D01*
X912450Y38528D01*
G54D11*
X923427Y44306D02*
X930360Y44306D01*
X929494Y42861D01*
X927760Y40694D01*
X926027Y37806D01*
X925160Y35639D01*
X925160Y32750D01*
G54D12*
X743040Y376179D02*
X743040Y358179D01*
X709040Y358179D01*
X709040Y376179D01*
X743040Y376179D01*
G54D11*
X733646Y330350D02*
X736246Y328906D01*
X737113Y327462D01*
X737113Y324573D01*
G54D11*
X730179Y324573D02*
X730179Y336128D01*
X734513Y336128D01*
X736246Y335406D01*
X737113Y333962D01*
X737113Y332517D01*
X736246Y331073D01*
X734513Y330350D01*
X730179Y330350D01*
G54D11*
X745490Y330350D02*
X743756Y330350D01*
X742023Y331073D01*
X741156Y332517D01*
X741156Y333962D01*
X742023Y335406D01*
X743756Y336128D01*
X745490Y336128D01*
X747223Y335406D01*
X748090Y333962D01*
X748090Y332517D01*
X747223Y331073D01*
X745490Y330350D01*
X747223Y329628D01*
X748090Y328184D01*
X748090Y326739D01*
X747223Y325295D01*
X745490Y324573D01*
X743756Y324573D01*
X742023Y325295D01*
X741156Y326739D01*
X741156Y328184D01*
X742023Y329628D01*
X743756Y330350D01*
G54D12*
X746218Y266365D02*
X758946Y279093D01*
X782988Y255052D01*
X770260Y242324D01*
X746218Y266365D01*
G54D11*
X770380Y284279D02*
X771197Y281419D01*
X770788Y279784D01*
X768746Y277742D01*
G54D11*
X763843Y282644D02*
X772014Y290815D01*
X775078Y287751D01*
X775793Y286015D01*
X775384Y284381D01*
X774363Y283359D01*
X772729Y282951D01*
X770992Y283666D01*
X767928Y286730D01*
G54D11*
X776712Y279989D02*
X782840Y279989D01*
X774669Y271818D01*
G54D11*
X782635Y274066D02*
X788763Y274066D01*
X780592Y265895D01*
G54D12*
X794281Y266393D02*
X807009Y253665D01*
X782967Y229624D01*
X770239Y242352D01*
X794281Y266393D01*
G54D11*
X759751Y217481D02*
X760160Y215847D01*
X759444Y214110D01*
X758219Y212885D01*
X756482Y212170D01*
X754848Y212578D01*
X749742Y217685D01*
X749333Y219319D01*
X750048Y221056D01*
X751274Y222281D01*
X753010Y222996D01*
X754644Y222588D01*
G54D11*
X759035Y223915D02*
X759035Y230043D01*
X767206Y221872D01*
G54D11*
X766797Y237805D02*
X761895Y232903D01*
X765470Y229328D01*
X766082Y229941D01*
X766797Y231677D01*
X768023Y232903D01*
X769759Y233618D01*
X771394Y233209D01*
X773436Y231166D01*
X773845Y229532D01*
X773130Y227796D01*
X771904Y226570D01*
X770168Y225855D01*
X768534Y226264D01*
G54D12*
X742940Y357679D02*
X742940Y339679D01*
X708940Y339679D01*
X708940Y357679D01*
X742940Y357679D01*
G54D11*
X751946Y365350D02*
X754546Y363906D01*
X755413Y362462D01*
X755413Y359573D01*
G54D11*
X748479Y359573D02*
X748479Y371128D01*
X752813Y371128D01*
X754546Y370406D01*
X755413Y368962D01*
X755413Y367517D01*
X754546Y366073D01*
X752813Y365350D01*
X748479Y365350D01*
G54D11*
X763790Y365351D02*
X762056Y365350D01*
X760323Y366073D01*
X759456Y367517D01*
X759456Y368962D01*
X760323Y370406D01*
X762056Y371128D01*
X763790Y371128D01*
X765523Y370406D01*
X766390Y368962D01*
X766390Y367517D01*
X765523Y366073D01*
X763790Y365351D01*
X765523Y364628D01*
X766390Y363184D01*
X766390Y361739D01*
X765523Y360295D01*
X763790Y359573D01*
X762056Y359573D01*
X760323Y360295D01*
X759456Y361739D01*
X759456Y363184D01*
X760323Y364628D01*
X762056Y365350D01*
G54D13*
X788964Y314811D02*
X810964Y314811D01*
X810964Y279811D01*
X788964Y279811D01*
X788964Y314811D01*
M02*
