%FSLAX34Y34*%
%MOMM*%
%LNOUTLINE*%
G71*
G01*
%ADD10C,0.250*%
%ADD11C,0.000*%
%ADD12C,0.300*%
%LPD*%
G54D10*
G75*
G01X15500Y577000D02*
G03X15500Y577000I-10000J0D01*
G01*
G54D10*
G75*
G01X15500Y18000D02*
G03X15500Y18000I-10000J0D01*
G01*
G54D10*
G75*
G01X165500Y297500D02*
G03X165500Y297500I-10000J0D01*
G01*
G54D11*
G75*
G01X178115Y347460D02*
G03X178115Y347460I-5000J0D01*
G01*
G54D11*
G75*
G01X450015Y334760D02*
G03X450015Y334760I-5000J0D01*
G01*
G54D11*
G75*
G01X450215Y360160D02*
G03X450215Y360160I-5000J0D01*
G01*
G54D10*
G75*
G01X500Y607500D02*
G03X-24500Y582500I0J-25000D01*
G01*
G54D10*
G75*
G01X-24500Y12000D02*
G03X500Y-13000I25000J0D01*
G01*
G54D10*
X-24500Y352500D02*
X-45900Y352500D01*
G54D10*
X-24500Y240500D02*
X-45900Y240500D01*
G54D10*
X-45900Y352500D02*
X-45900Y240500D01*
G54D10*
X-24500Y582500D02*
X-24500Y352500D01*
G54D10*
X-24500Y240500D02*
X-24500Y12000D01*
G54D10*
G75*
G01X478881Y572500D02*
G03X453881Y597500I-25000J0D01*
G01*
G54D10*
G75*
G01X453881Y-3000D02*
G03X478881Y22000I0J25000D01*
G01*
G54D12*
X478881Y572500D02*
X478881Y22000D01*
G54D12*
X500Y-13000D02*
X133881Y-13000D01*
G54D12*
X500Y607500D02*
X133881Y607500D01*
G54D12*
X453881Y597500D02*
X143881Y597500D01*
X133881Y607500D01*
G54D12*
X453881Y-3000D02*
X143881Y-3000D01*
X133881Y-13000D01*
G54D12*
G75*
G01X33308Y491958D02*
G03X33308Y491958I-6500J0D01*
G01*
G54D12*
G75*
G01X33308Y441958D02*
G03X33308Y441958I-6500J0D01*
G01*
G54D12*
G75*
G01X33308Y151958D02*
G03X33308Y151958I-6500J0D01*
G01*
G54D12*
G75*
G01X33308Y101958D02*
G03X33308Y101958I-6500J0D01*
G01*
G54D10*
G75*
G01X605500Y577000D02*
G03X605500Y577000I-10000J0D01*
G01*
G54D10*
G75*
G01X605500Y18000D02*
G03X605500Y18000I-10000J0D01*
G01*
G54D10*
G75*
G01X755500Y297500D02*
G03X755500Y297500I-10000J0D01*
G01*
G54D11*
G75*
G01X768115Y347460D02*
G03X768115Y347460I-5000J0D01*
G01*
G54D11*
G75*
G01X1040015Y334760D02*
G03X1040015Y334760I-5000J0D01*
G01*
G54D11*
G75*
G01X1040215Y360160D02*
G03X1040215Y360160I-5000J0D01*
G01*
G54D10*
G75*
G01X590500Y607500D02*
G03X565500Y582500I0J-25000D01*
G01*
G54D10*
G75*
G01X565500Y12000D02*
G03X590500Y-13000I25000J0D01*
G01*
G54D10*
X565500Y352500D02*
X544100Y352500D01*
G54D10*
X565500Y240500D02*
X544100Y240500D01*
G54D10*
X544100Y352500D02*
X544100Y240500D01*
G54D10*
X565500Y582500D02*
X565500Y352500D01*
G54D10*
X565500Y240500D02*
X565500Y12000D01*
G54D10*
G75*
G01X1068881Y572500D02*
G03X1043881Y597500I-25000J0D01*
G01*
G54D10*
G75*
G01X1043881Y-3000D02*
G03X1068881Y22000I0J25000D01*
G01*
G54D12*
X1068881Y572500D02*
X1068881Y22000D01*
G54D12*
X590500Y-13000D02*
X723881Y-13000D01*
G54D12*
X590500Y607500D02*
X723881Y607500D01*
G54D12*
X1043881Y597500D02*
X733881Y597500D01*
X723881Y607500D01*
G54D12*
X1043881Y-3000D02*
X733881Y-3000D01*
X723881Y-13000D01*
G54D12*
G75*
G01X623308Y491958D02*
G03X623308Y491958I-6500J0D01*
G01*
G54D12*
G75*
G01X623308Y441958D02*
G03X623308Y441958I-6500J0D01*
G01*
G54D12*
G75*
G01X623308Y151958D02*
G03X623308Y151958I-6500J0D01*
G01*
G54D12*
G75*
G01X623308Y101958D02*
G03X623308Y101958I-6500J0D01*
G01*
M02*
