%FSLAX34Y34*%
%MOMM*%
%LNSOLDERMASK_TOP*%
G71*
G01*
%ADD10R,1.360X2.060*%
%ADD11R,2.040X0.590*%
%ADD12R,1.260X1.160*%
%ADD13C,2.360*%
%ADD14R,1.160X0.660*%
%ADD15R,1.660X2.060*%
%ADD16R,1.160X1.260*%
%ADD17R,1.460X1.360*%
%ADD18R,0.960X0.860*%
%ADD19C,1.660*%
%ADD20R,1.710X0.480*%
%ADD21R,1.360X1.660*%
%ADD22C,1.960*%
%ADD23R,1.660X1.360*%
%ADD24R,1.370X0.710*%
%ADD25R,2.710X3.060*%
%ADD26C,2.660*%
%ADD27R,2.260X0.800*%
%ADD28R,3.760X1.260*%
%ADD29R,0.860X0.660*%
%ADD30R,0.660X1.260*%
%LPD*%
X86500Y326500D02*
G54D10*
D03*
X124000Y326500D02*
G54D10*
D03*
X86500Y269000D02*
G54D10*
D03*
X124000Y269000D02*
G54D10*
D03*
X395799Y236989D02*
G54D11*
D03*
X302099Y236989D02*
G54D11*
D03*
X395799Y249689D02*
G54D11*
D03*
X302099Y249689D02*
G54D11*
D03*
X395799Y262389D02*
G54D11*
D03*
X302099Y262389D02*
G54D11*
D03*
X395799Y275090D02*
G54D11*
D03*
X302099Y275089D02*
G54D11*
D03*
X395799Y287790D02*
G54D11*
D03*
X302099Y287789D02*
G54D11*
D03*
X395799Y300490D02*
G54D11*
D03*
X302099Y300489D02*
G54D11*
D03*
X395799Y313190D02*
G54D11*
D03*
X302099Y313190D02*
G54D11*
D03*
X395799Y325889D02*
G54D11*
D03*
X302099Y325889D02*
G54D11*
D03*
X423378Y267058D02*
G54D12*
D03*
X423378Y250058D02*
G54D12*
D03*
X445015Y334760D02*
G54D13*
D03*
X445215Y360160D02*
G54D13*
D03*
X173115Y347460D02*
G54D13*
D03*
X401115Y374760D02*
G54D14*
D03*
X373115Y374760D02*
G54D14*
D03*
X401115Y384260D02*
G54D14*
D03*
X401115Y393760D02*
G54D14*
D03*
X373115Y393760D02*
G54D14*
D03*
X401715Y423060D02*
G54D15*
D03*
X373715Y423060D02*
G54D15*
D03*
X325315Y388460D02*
G54D15*
D03*
X297315Y388460D02*
G54D15*
D03*
X386814Y352560D02*
G54D16*
D03*
X403815Y352560D02*
G54D16*
D03*
G36*
X320315Y432660D02*
X330315Y432660D01*
X330315Y406660D01*
X320315Y406660D01*
X320315Y432660D01*
G37*
G36*
X283263Y173391D02*
X270818Y160945D01*
X266505Y165258D01*
X278949Y177704D01*
X283263Y173391D01*
G37*
G36*
X277607Y179047D02*
X265162Y166602D01*
X260848Y170915D01*
X273293Y183360D01*
X277607Y179047D01*
G37*
G36*
X271950Y184704D02*
X259505Y172259D01*
X255191Y176572D01*
X267636Y189018D01*
X271950Y184704D01*
G37*
G36*
X266293Y190362D02*
X253848Y177916D01*
X249535Y182229D01*
X261979Y194675D01*
X266293Y190362D01*
G37*
G36*
X260636Y196019D02*
X248192Y183573D01*
X243878Y187886D01*
X256322Y200332D01*
X260636Y196019D01*
G37*
G36*
X254978Y201676D02*
X242534Y189230D01*
X238220Y193543D01*
X250665Y205989D01*
X254978Y201676D01*
G37*
G36*
X249322Y207332D02*
X236876Y194887D01*
X232563Y199201D01*
X245008Y211646D01*
X249322Y207332D01*
G37*
G36*
X243666Y212989D02*
X231219Y200545D01*
X226906Y204859D01*
X239353Y217303D01*
X243666Y212989D01*
G37*
G36*
X184272Y153592D02*
X171827Y141146D01*
X167514Y145459D01*
X179958Y157905D01*
X184272Y153592D01*
G37*
G36*
X189929Y147934D02*
X177483Y135489D01*
X173170Y139803D01*
X185616Y152247D01*
X189929Y147934D01*
G37*
G36*
X195586Y142277D02*
X183140Y129833D01*
X178827Y134146D01*
X191273Y146591D01*
X195586Y142277D01*
G37*
G36*
X201242Y136621D02*
X188797Y124176D01*
X184483Y128489D01*
X196928Y140934D01*
X201242Y136621D01*
G37*
G36*
X206900Y130963D02*
X194454Y118518D01*
X190141Y122832D01*
X202586Y135276D01*
X206900Y130963D01*
G37*
G36*
X212556Y125306D02*
X200111Y112862D01*
X195798Y117175D01*
X208243Y129620D01*
X212556Y125306D01*
G37*
G36*
X218212Y119650D02*
X205767Y107204D01*
X201454Y111518D01*
X213899Y123963D01*
X218212Y119650D01*
G37*
G36*
X223868Y113992D02*
X211423Y101547D01*
X207110Y105860D01*
X219555Y118305D01*
X223868Y113992D01*
G37*
G36*
X270819Y157905D02*
X283264Y145459D01*
X278950Y141146D01*
X266506Y153591D01*
X270819Y157905D01*
G37*
G36*
X265162Y152248D02*
X277607Y139803D01*
X273294Y135490D01*
X260849Y147934D01*
X265162Y152248D01*
G37*
G36*
X259506Y146592D02*
X271950Y134146D01*
X267637Y129833D01*
X255192Y142278D01*
X259506Y146592D01*
G37*
G36*
X253849Y140934D02*
X266294Y128489D01*
X261981Y124176D01*
X249536Y136621D01*
X253849Y140934D01*
G37*
G36*
X248191Y135276D02*
X260637Y122831D01*
X256324Y118518D01*
X243878Y130963D01*
X248191Y135276D01*
G37*
G36*
X242536Y129619D02*
X254980Y117174D01*
X250667Y112860D01*
X238222Y125306D01*
X242536Y129619D01*
G37*
G36*
X236878Y123961D02*
X249323Y111516D01*
X245010Y107203D01*
X232565Y119648D01*
X236878Y123961D01*
G37*
G36*
X231221Y118305D02*
X243666Y105860D01*
X239353Y101546D01*
X226908Y113991D01*
X231221Y118305D01*
G37*
G36*
X211422Y217304D02*
X223867Y204858D01*
X219554Y200545D01*
X207109Y212990D01*
X211422Y217304D01*
G37*
G36*
X205766Y211648D02*
X218210Y199201D01*
X213897Y194888D01*
X201453Y207335D01*
X205766Y211648D01*
G37*
G36*
X200110Y205990D02*
X212555Y193545D01*
X208241Y189232D01*
X195796Y201677D01*
X200110Y205990D01*
G37*
G36*
X194453Y200333D02*
X206898Y187888D01*
X202584Y183575D01*
X190140Y196020D01*
X194453Y200333D01*
G37*
G36*
X188797Y194675D02*
X201242Y182230D01*
X196929Y177917D01*
X184484Y190362D01*
X188797Y194675D01*
G37*
G36*
X183141Y189017D02*
X195586Y176572D01*
X191273Y172259D01*
X178827Y184704D01*
X183141Y189017D01*
G37*
G36*
X177483Y183360D02*
X189928Y170916D01*
X185615Y166602D01*
X173170Y179047D01*
X177483Y183360D01*
G37*
G36*
X171826Y177703D02*
X184272Y165259D01*
X179959Y160945D01*
X167513Y173389D01*
X171826Y177703D01*
G37*
G36*
X258562Y108363D02*
X268179Y117980D01*
X279917Y106241D01*
X270299Y96625D01*
X258562Y108363D01*
G37*
G36*
X271996Y121796D02*
X281612Y131413D01*
X293350Y119676D01*
X283734Y110059D01*
X271996Y121796D01*
G37*
G36*
X161558Y202880D02*
X171175Y212496D01*
X182913Y200757D01*
X173296Y191141D01*
X161558Y202880D01*
G37*
G36*
X174994Y216314D02*
X184612Y225930D01*
X196349Y214192D01*
X186732Y204576D01*
X174994Y216314D01*
G37*
X153820Y42045D02*
G54D17*
D03*
X153820Y61045D02*
G54D17*
D03*
X132134Y168311D02*
G54D18*
D03*
X146034Y168310D02*
G54D18*
D03*
X132134Y179311D02*
G54D18*
D03*
X146034Y179311D02*
G54D18*
D03*
X145573Y152198D02*
G54D18*
D03*
X132574Y152198D02*
G54D18*
D03*
X145642Y195826D02*
G54D18*
D03*
X132643Y195827D02*
G54D18*
D03*
X199426Y44880D02*
G54D19*
D03*
X224826Y44880D02*
G54D19*
D03*
X250226Y44880D02*
G54D19*
D03*
X199426Y70280D02*
G54D19*
D03*
X224826Y70280D02*
G54D19*
D03*
X299643Y470275D02*
G54D20*
D03*
X299644Y476775D02*
G54D20*
D03*
X299644Y483275D02*
G54D20*
D03*
X299644Y489775D02*
G54D20*
D03*
X299644Y496275D02*
G54D20*
D03*
X299644Y502775D02*
G54D20*
D03*
X299644Y509275D02*
G54D20*
D03*
X299644Y515775D02*
G54D20*
D03*
X299644Y522275D02*
G54D20*
D03*
X299644Y528775D02*
G54D20*
D03*
X299644Y535275D02*
G54D20*
D03*
X299644Y541775D02*
G54D20*
D03*
X299644Y548275D02*
G54D20*
D03*
X299644Y554775D02*
G54D20*
D03*
X229644Y470275D02*
G54D20*
D03*
X229644Y476775D02*
G54D20*
D03*
X229644Y483275D02*
G54D20*
D03*
X229644Y489775D02*
G54D20*
D03*
X229644Y496275D02*
G54D20*
D03*
X229644Y502775D02*
G54D20*
D03*
X229644Y509275D02*
G54D20*
D03*
X229644Y515775D02*
G54D20*
D03*
X229644Y522275D02*
G54D20*
D03*
X229644Y528775D02*
G54D20*
D03*
X229644Y535275D02*
G54D20*
D03*
X229644Y541775D02*
G54D20*
D03*
X229644Y548275D02*
G54D20*
D03*
X229644Y554775D02*
G54D20*
D03*
X175250Y427900D02*
G54D21*
D03*
X156250Y427900D02*
G54D21*
D03*
G36*
X149386Y460357D02*
X162986Y460357D01*
X162986Y443757D01*
X149386Y443757D01*
X149386Y460357D01*
G37*
X175186Y452057D02*
G54D21*
D03*
X175882Y529170D02*
G54D21*
D03*
X156882Y529170D02*
G54D21*
D03*
X175768Y555523D02*
G54D21*
D03*
X156767Y555523D02*
G54D21*
D03*
X36750Y309030D02*
G54D22*
D03*
X84000Y582638D02*
G54D22*
D03*
X57200Y263222D02*
G54D22*
D03*
X36450Y285930D02*
G54D22*
D03*
X269600Y450700D02*
G54D22*
D03*
X100000Y42400D02*
G54D22*
D03*
X128323Y60818D02*
G54D23*
D03*
X128323Y41820D02*
G54D23*
D03*
X270100Y243400D02*
G54D22*
D03*
X170700Y87000D02*
G54D22*
D03*
X249600Y311700D02*
G54D16*
D03*
X266600Y311700D02*
G54D16*
D03*
X249900Y291500D02*
G54D16*
D03*
X266900Y291500D02*
G54D16*
D03*
X386000Y145100D02*
G54D24*
D03*
X386000Y132400D02*
G54D24*
D03*
X386000Y119700D02*
G54D24*
D03*
X386000Y107000D02*
G54D24*
D03*
X329100Y145100D02*
G54D24*
D03*
X329100Y132400D02*
G54D24*
D03*
X329100Y119700D02*
G54D24*
D03*
X329100Y107000D02*
G54D24*
D03*
X357400Y126100D02*
G54D25*
D03*
X357400Y126100D02*
G54D22*
D03*
G54D26*
X356700Y23400D02*
X382700Y23400D01*
G54D26*
X356200Y576200D02*
X382200Y576200D01*
X330100Y190000D02*
G54D16*
D03*
X347100Y190000D02*
G54D16*
D03*
G36*
X363100Y196300D02*
X374700Y196300D01*
X374700Y183700D01*
X363100Y183700D01*
X363100Y196300D01*
G37*
X385900Y190000D02*
G54D16*
D03*
G36*
X409700Y196000D02*
X421300Y196000D01*
X421300Y183400D01*
X409700Y183400D01*
X409700Y196000D01*
G37*
X432500Y189700D02*
G54D16*
D03*
G36*
X412100Y170900D02*
X434700Y170900D01*
X434700Y162900D01*
X412100Y162900D01*
X412100Y170900D01*
G37*
X423400Y154400D02*
G54D27*
D03*
X431400Y130900D02*
G54D28*
D03*
X431400Y130900D02*
G54D28*
D03*
X431400Y102900D02*
G54D28*
D03*
X454275Y170088D02*
G54D29*
D03*
X454275Y153087D02*
G54D29*
D03*
X393900Y167200D02*
G54D22*
D03*
X360600Y167300D02*
G54D22*
D03*
G36*
X153000Y498615D02*
X156685Y502300D01*
X161915Y502300D01*
X165600Y498615D01*
X165600Y481385D01*
X161915Y477700D01*
X156685Y477700D01*
X153000Y481385D01*
X153000Y498615D01*
G37*
G36*
X168000Y498615D02*
X171685Y502300D01*
X176915Y502300D01*
X180600Y498615D01*
X180600Y481385D01*
X176915Y477700D01*
X171685Y477700D01*
X168000Y481385D01*
X168000Y498615D01*
G37*
X194500Y369300D02*
G54D22*
D03*
X288900Y37400D02*
G54D22*
D03*
X223000Y234300D02*
G54D22*
D03*
X314500Y60900D02*
G54D16*
D03*
X331500Y60900D02*
G54D16*
D03*
X144540Y367179D02*
G54D16*
D03*
X127540Y367179D02*
G54D16*
D03*
G36*
X168946Y275275D02*
X177149Y267072D01*
X168239Y258163D01*
X160037Y266365D01*
X168946Y275275D01*
G37*
G36*
X180967Y263254D02*
X189170Y255052D01*
X180260Y246142D01*
X172058Y254344D01*
X180967Y263254D01*
G37*
G36*
X213190Y253666D02*
X204988Y245463D01*
X196078Y254373D01*
X204280Y262575D01*
X213190Y253666D01*
G37*
G36*
X201170Y241645D02*
X192967Y233442D01*
X184058Y242351D01*
X192260Y250554D01*
X201170Y241645D01*
G37*
X146100Y87300D02*
G54D22*
D03*
X311100Y167400D02*
G54D22*
D03*
X336000Y167200D02*
G54D22*
D03*
X170500Y120600D02*
G54D22*
D03*
X104700Y367800D02*
G54D22*
D03*
X144440Y348679D02*
G54D16*
D03*
X127440Y348679D02*
G54D16*
D03*
X214407Y287916D02*
G54D30*
D03*
X204907Y287916D02*
G54D30*
D03*
X214407Y305917D02*
G54D30*
D03*
X204907Y305917D02*
G54D30*
D03*
G36*
X241926Y78580D02*
X258526Y78580D01*
X258526Y61980D01*
X241926Y61980D01*
X241926Y78580D01*
G37*
X676500Y326500D02*
G54D10*
D03*
X714000Y326500D02*
G54D10*
D03*
X676500Y269000D02*
G54D10*
D03*
X714000Y269000D02*
G54D10*
D03*
X985799Y236989D02*
G54D11*
D03*
X892099Y236989D02*
G54D11*
D03*
X985799Y249689D02*
G54D11*
D03*
X892099Y249689D02*
G54D11*
D03*
X985799Y262389D02*
G54D11*
D03*
X892099Y262389D02*
G54D11*
D03*
X985799Y275090D02*
G54D11*
D03*
X892099Y275089D02*
G54D11*
D03*
X985799Y287790D02*
G54D11*
D03*
X892099Y287789D02*
G54D11*
D03*
X985799Y300490D02*
G54D11*
D03*
X892099Y300489D02*
G54D11*
D03*
X985799Y313190D02*
G54D11*
D03*
X892099Y313190D02*
G54D11*
D03*
X985799Y325889D02*
G54D11*
D03*
X892099Y325889D02*
G54D11*
D03*
X1013378Y267058D02*
G54D12*
D03*
X1013378Y250058D02*
G54D12*
D03*
X1035015Y334760D02*
G54D13*
D03*
X1035215Y360160D02*
G54D13*
D03*
X763115Y347460D02*
G54D13*
D03*
X991115Y374760D02*
G54D14*
D03*
X963115Y374760D02*
G54D14*
D03*
X991115Y384260D02*
G54D14*
D03*
X991115Y393760D02*
G54D14*
D03*
X963115Y393760D02*
G54D14*
D03*
X991715Y423060D02*
G54D15*
D03*
X963715Y423060D02*
G54D15*
D03*
X915315Y388460D02*
G54D15*
D03*
X887315Y388460D02*
G54D15*
D03*
X976814Y352560D02*
G54D16*
D03*
X993815Y352560D02*
G54D16*
D03*
G36*
X910315Y432660D02*
X920315Y432660D01*
X920315Y406660D01*
X910315Y406660D01*
X910315Y432660D01*
G37*
G36*
X873264Y173390D02*
X860819Y160945D01*
X856505Y165258D01*
X868950Y177703D01*
X873264Y173390D01*
G37*
G36*
X867607Y179047D02*
X855162Y166601D01*
X850849Y170915D01*
X863293Y183360D01*
X867607Y179047D01*
G37*
G36*
X861949Y184705D02*
X849505Y172259D01*
X845191Y176572D01*
X857636Y189018D01*
X861949Y184705D01*
G37*
G36*
X856292Y190362D02*
X843848Y177916D01*
X839535Y182229D01*
X851979Y194675D01*
X856292Y190362D01*
G37*
G36*
X850636Y196019D02*
X838192Y183573D01*
X833878Y187886D01*
X846323Y200332D01*
X850636Y196019D01*
G37*
G36*
X844979Y201675D02*
X832534Y189230D01*
X828220Y193543D01*
X840665Y205989D01*
X844979Y201675D01*
G37*
G36*
X839322Y207332D02*
X826876Y194887D01*
X822563Y199201D01*
X835009Y211646D01*
X839322Y207332D01*
G37*
G36*
X833666Y212988D02*
X821219Y200545D01*
X816907Y204859D01*
X829354Y217302D01*
X833666Y212988D01*
G37*
G36*
X774272Y153592D02*
X761827Y141146D01*
X757514Y145459D01*
X769958Y157905D01*
X774272Y153592D01*
G37*
G36*
X779929Y147934D02*
X767484Y135489D01*
X763170Y139802D01*
X775616Y152247D01*
X779929Y147934D01*
G37*
G36*
X785586Y142277D02*
X773141Y129833D01*
X768828Y134146D01*
X781273Y146591D01*
X785586Y142277D01*
G37*
G36*
X791242Y136621D02*
X778797Y124176D01*
X774484Y128489D01*
X786929Y140934D01*
X791242Y136621D01*
G37*
G36*
X796900Y130963D02*
X784454Y118518D01*
X780141Y122832D01*
X792587Y135276D01*
X796900Y130963D01*
G37*
G36*
X802556Y125306D02*
X790111Y112862D01*
X785798Y117175D01*
X798243Y129620D01*
X802556Y125306D01*
G37*
G36*
X808212Y119650D02*
X795768Y107204D01*
X791454Y111518D01*
X803899Y123963D01*
X808212Y119650D01*
G37*
G36*
X813869Y113992D02*
X801424Y101547D01*
X797111Y105860D01*
X809555Y118306D01*
X813869Y113992D01*
G37*
G36*
X860820Y157904D02*
X873264Y145459D01*
X868950Y141146D01*
X856506Y153591D01*
X860820Y157904D01*
G37*
G36*
X855162Y152247D02*
X867608Y139803D01*
X863295Y135489D01*
X850849Y147934D01*
X855162Y152247D01*
G37*
G36*
X849506Y146591D02*
X861951Y134146D01*
X857638Y129832D01*
X845193Y142278D01*
X849506Y146591D01*
G37*
G36*
X843849Y140934D02*
X856295Y128489D01*
X851981Y124176D01*
X839536Y136620D01*
X843849Y140934D01*
G37*
G36*
X838191Y135276D02*
X850637Y122831D01*
X846324Y118518D01*
X833878Y130962D01*
X838191Y135276D01*
G37*
G36*
X832536Y129619D02*
X844981Y117173D01*
X840667Y112860D01*
X828222Y125306D01*
X832536Y129619D01*
G37*
G36*
X826879Y123961D02*
X839324Y111516D01*
X835010Y107203D01*
X822565Y119648D01*
X826879Y123961D01*
G37*
G36*
X821222Y118304D02*
X833667Y105859D01*
X829353Y101546D01*
X816909Y113991D01*
X821222Y118304D01*
G37*
G36*
X801422Y217303D02*
X813867Y204858D01*
X809554Y200545D01*
X797109Y212990D01*
X801422Y217303D01*
G37*
G36*
X795767Y211647D02*
X808211Y199201D01*
X803897Y194888D01*
X791453Y207334D01*
X795767Y211647D01*
G37*
G36*
X790110Y205990D02*
X802555Y193545D01*
X798241Y189232D01*
X785797Y201677D01*
X790110Y205990D01*
G37*
G36*
X784453Y200333D02*
X796898Y187887D01*
X792585Y183574D01*
X780140Y196020D01*
X784453Y200333D01*
G37*
G36*
X778798Y194675D02*
X791242Y182230D01*
X786929Y177917D01*
X774484Y190362D01*
X778798Y194675D01*
G37*
G36*
X773141Y189017D02*
X785586Y176572D01*
X781273Y172258D01*
X768828Y184703D01*
X773141Y189017D01*
G37*
G36*
X767483Y183360D02*
X779929Y170916D01*
X775615Y166602D01*
X763170Y179047D01*
X767483Y183360D01*
G37*
G36*
X761826Y177703D02*
X774272Y165259D01*
X769959Y160945D01*
X757513Y173389D01*
X761826Y177703D01*
G37*
G36*
X848562Y108362D02*
X858179Y117979D01*
X869917Y106241D01*
X860300Y96624D01*
X848562Y108362D01*
G37*
G36*
X861996Y121796D02*
X871612Y131413D01*
X883350Y119675D01*
X873734Y110059D01*
X861996Y121796D01*
G37*
G36*
X751558Y202879D02*
X761175Y212496D01*
X772913Y200757D01*
X763296Y191141D01*
X751558Y202879D01*
G37*
G36*
X764995Y216314D02*
X774612Y225930D01*
X786349Y214191D01*
X776732Y204575D01*
X764995Y216314D01*
G37*
X743820Y42045D02*
G54D17*
D03*
X743820Y61045D02*
G54D17*
D03*
X722134Y168311D02*
G54D18*
D03*
X736034Y168310D02*
G54D18*
D03*
X722135Y179311D02*
G54D18*
D03*
X736034Y179311D02*
G54D18*
D03*
X735573Y152198D02*
G54D18*
D03*
X722574Y152198D02*
G54D18*
D03*
X735642Y195826D02*
G54D18*
D03*
X722643Y195827D02*
G54D18*
D03*
X789426Y44880D02*
G54D19*
D03*
X814826Y44880D02*
G54D19*
D03*
X840226Y44880D02*
G54D19*
D03*
X789426Y70280D02*
G54D19*
D03*
X814826Y70280D02*
G54D19*
D03*
X889644Y470275D02*
G54D20*
D03*
X889644Y476775D02*
G54D20*
D03*
X889644Y483275D02*
G54D20*
D03*
X889644Y489775D02*
G54D20*
D03*
X889644Y496275D02*
G54D20*
D03*
X889644Y502775D02*
G54D20*
D03*
X889644Y509275D02*
G54D20*
D03*
X889644Y515775D02*
G54D20*
D03*
X889644Y522275D02*
G54D20*
D03*
X889644Y528775D02*
G54D20*
D03*
X889644Y535275D02*
G54D20*
D03*
X889644Y541775D02*
G54D20*
D03*
X889644Y548275D02*
G54D20*
D03*
X889644Y554775D02*
G54D20*
D03*
X819644Y470275D02*
G54D20*
D03*
X819644Y476775D02*
G54D20*
D03*
X819644Y483275D02*
G54D20*
D03*
X819644Y489775D02*
G54D20*
D03*
X819644Y496275D02*
G54D20*
D03*
X819644Y502775D02*
G54D20*
D03*
X819644Y509275D02*
G54D20*
D03*
X819644Y515775D02*
G54D20*
D03*
X819644Y522275D02*
G54D20*
D03*
X819644Y528775D02*
G54D20*
D03*
X819644Y535275D02*
G54D20*
D03*
X819644Y541775D02*
G54D20*
D03*
X819644Y548275D02*
G54D20*
D03*
X819644Y554775D02*
G54D20*
D03*
X765250Y427900D02*
G54D21*
D03*
X746250Y427900D02*
G54D21*
D03*
G36*
X739386Y460357D02*
X752986Y460357D01*
X752986Y443757D01*
X739386Y443757D01*
X739386Y460357D01*
G37*
X765186Y452057D02*
G54D21*
D03*
X765882Y529170D02*
G54D21*
D03*
X746882Y529170D02*
G54D21*
D03*
X765768Y555523D02*
G54D21*
D03*
X746767Y555523D02*
G54D21*
D03*
X626750Y309030D02*
G54D22*
D03*
X674000Y582638D02*
G54D22*
D03*
X647200Y263222D02*
G54D22*
D03*
X626450Y285930D02*
G54D22*
D03*
X859600Y450700D02*
G54D22*
D03*
X690000Y42400D02*
G54D22*
D03*
X718323Y60818D02*
G54D23*
D03*
X718323Y41820D02*
G54D23*
D03*
X860100Y243400D02*
G54D22*
D03*
X760700Y87000D02*
G54D22*
D03*
X839600Y311700D02*
G54D16*
D03*
X856600Y311700D02*
G54D16*
D03*
X839900Y291500D02*
G54D16*
D03*
X856900Y291500D02*
G54D16*
D03*
X976000Y145100D02*
G54D24*
D03*
X976000Y132400D02*
G54D24*
D03*
X976000Y119700D02*
G54D24*
D03*
X976000Y107000D02*
G54D24*
D03*
X919100Y145100D02*
G54D24*
D03*
X919100Y132400D02*
G54D24*
D03*
X919100Y119700D02*
G54D24*
D03*
X919100Y107000D02*
G54D24*
D03*
X947400Y126100D02*
G54D25*
D03*
X947400Y126100D02*
G54D22*
D03*
G54D26*
X946700Y23400D02*
X972700Y23400D01*
G54D26*
X946200Y576200D02*
X972200Y576200D01*
X920100Y190000D02*
G54D16*
D03*
X937100Y190000D02*
G54D16*
D03*
G36*
X953100Y196300D02*
X964700Y196300D01*
X964700Y183700D01*
X953100Y183700D01*
X953100Y196300D01*
G37*
X975900Y190000D02*
G54D16*
D03*
X1005500Y189700D02*
G54D16*
D03*
X1022500Y189700D02*
G54D16*
D03*
G36*
X1002100Y170900D02*
X1024700Y170900D01*
X1024700Y162900D01*
X1002100Y162900D01*
X1002100Y170900D01*
G37*
X1013400Y154400D02*
G54D27*
D03*
X1021400Y130900D02*
G54D28*
D03*
X1021400Y130900D02*
G54D28*
D03*
X1021400Y102900D02*
G54D28*
D03*
X1044275Y170088D02*
G54D29*
D03*
X1044275Y153088D02*
G54D29*
D03*
X983900Y167200D02*
G54D22*
D03*
X950600Y167300D02*
G54D22*
D03*
G36*
X743000Y498615D02*
X746685Y502300D01*
X751915Y502300D01*
X755600Y498615D01*
X755600Y481385D01*
X751915Y477700D01*
X746685Y477700D01*
X743000Y481385D01*
X743000Y498615D01*
G37*
G36*
X758000Y498615D02*
X761685Y502300D01*
X766915Y502300D01*
X770600Y498615D01*
X770600Y481385D01*
X766915Y477700D01*
X761685Y477700D01*
X758000Y481385D01*
X758000Y498615D01*
G37*
X784500Y369300D02*
G54D22*
D03*
X878900Y37400D02*
G54D22*
D03*
X813000Y234300D02*
G54D22*
D03*
X904500Y60900D02*
G54D16*
D03*
X921500Y60900D02*
G54D16*
D03*
X734540Y367179D02*
G54D16*
D03*
X717540Y367179D02*
G54D16*
D03*
G36*
X758946Y275275D02*
X767149Y267072D01*
X758240Y258163D01*
X750037Y266365D01*
X758946Y275275D01*
G37*
G36*
X770968Y263254D02*
X779170Y255051D01*
X770260Y246142D01*
X762058Y254344D01*
X770968Y263254D01*
G37*
G36*
X803190Y253666D02*
X794988Y245463D01*
X786078Y254373D01*
X794281Y262575D01*
X803190Y253666D01*
G37*
G36*
X791170Y241644D02*
X782967Y233442D01*
X774058Y242352D01*
X782260Y250554D01*
X791170Y241644D01*
G37*
X736100Y87300D02*
G54D22*
D03*
X901100Y167400D02*
G54D22*
D03*
X926000Y167200D02*
G54D22*
D03*
X760500Y120600D02*
G54D22*
D03*
X694700Y367800D02*
G54D22*
D03*
X734440Y348679D02*
G54D16*
D03*
X717440Y348679D02*
G54D16*
D03*
X804407Y287916D02*
G54D30*
D03*
X794907Y287916D02*
G54D30*
D03*
X804407Y305917D02*
G54D30*
D03*
X794907Y305917D02*
G54D30*
D03*
G36*
X831926Y78580D02*
X848526Y78580D01*
X848526Y61980D01*
X831926Y61980D01*
X831926Y78580D01*
G37*
M02*
